<svg width="35" height="34" viewBox="0 0 35 34" fill="none" xmlns="http://www.w3.org/2000/svg">
<path d="M13.0674 11.655C13.085 11.3574 13.2238 11.0787 13.4532 10.8801C13.6827 10.6816 13.9841 10.5794 14.2912 10.5961L23.5789 11.1057C23.886 11.1227 24.1736 11.2572 24.3784 11.4796C24.5833 11.702 24.6887 11.9941 24.6715 12.2917L24.1457 21.2929C24.118 21.5832 23.9752 21.8518 23.7474 22.0421C23.5196 22.2325 23.2245 22.3299 22.9241 22.3138C22.6239 22.2969 22.342 22.1679 22.1378 21.9538C21.9336 21.7397 21.823 21.4573 21.8293 21.1658L22.1967 14.8756L13.607 22.3082C13.3774 22.5069 13.0757 22.6091 12.7683 22.5922C12.4609 22.5754 12.1731 22.4409 11.968 22.2183C11.763 21.9957 11.6576 21.7033 11.675 21.4055C11.6924 21.1076 11.8312 20.8286 12.0608 20.6299L20.6505 13.1972L14.1601 12.8411C13.853 12.8241 13.5654 12.6896 13.3605 12.4672C13.1556 12.2448 13.0502 11.9527 13.0674 11.655Z" fill="#ECE7E2"/>
</svg>
