<svg width="26" height="26" viewBox="0 0 26 26" fill="none" xmlns="http://www.w3.org/2000/svg">
<rect width="26" height="26" rx="6" fill="#ECE7E2"/>
<path d="M20.7365 16.6885C20.6037 17.6672 20.1081 18.5655 19.3422 19.2156C18.5763 19.8658 17.5925 20.2234 16.5746 20.2216C10.661 20.2216 5.84962 15.5561 5.84962 9.82164C5.84779 8.83457 6.21657 7.88061 6.88706 7.13793C7.55756 6.39525 8.48392 5.91464 9.49314 5.78586C9.74834 5.75565 10.0068 5.80628 10.2299 5.93019C10.453 6.05411 10.6288 6.24467 10.731 6.47342L12.304 9.8787V9.88736C12.3822 10.0625 12.4146 10.2536 12.3981 10.4438C12.3816 10.634 12.3167 10.8172 12.2094 10.9772C12.196 10.9967 12.1818 11.0148 12.1669 11.0328L10.6163 12.8153C11.1741 13.9145 12.3598 15.0541 13.5083 15.5965L15.3211 14.1008C15.3389 14.0863 15.3576 14.0728 15.377 14.0604C15.5418 13.9538 15.7314 13.8887 15.9287 13.871C16.126 13.8534 16.3247 13.8837 16.5068 13.9593L16.5165 13.9636L20.0252 15.4882C20.2616 15.587 20.4585 15.7573 20.5868 15.9736C20.715 16.19 20.7675 16.4408 20.7365 16.6885Z" fill="#FFAC1C"/>
</svg>
