<svg width="30" height="28" viewBox="0 0 30 28" fill="none" xmlns="http://www.w3.org/2000/svg">
<path d="M18.3169 0.553833C19.7495 0.568586 20.9163 1.30623 21.5957 2.63398C21.7711 2.98436 22.0157 3.4961 22.2718 4.03594L22.5811 4.68869L22.7329 5.00919L22.8806 5.33375C22.9397 5.43702 23.0431 5.51079 23.176 5.51079C26.7206 5.51079 29.6154 8.40234 29.6154 11.943V20.7062C29.6154 24.2469 26.7206 27.1385 23.176 27.1385H6.51629C2.9569 27.1385 0.0769043 24.2469 0.0769043 20.7062V11.943C0.0769043 8.40234 2.9569 5.51079 6.51629 5.51079C6.63444 5.51079 6.7526 5.45178 6.79691 5.33375L6.88552 5.15672C7.29906 4.2863 7.80121 3.2241 8.0966 2.63398C8.77598 1.30623 9.92798 0.568586 11.3606 0.553833H18.3169ZM14.8461 10.0104C13.2954 10.0104 11.8332 10.6153 10.7255 11.7217C9.6326 12.8282 9.02706 14.274 9.04183 15.8083C9.04183 17.3573 9.64737 18.8031 10.7403 19.9096C11.848 21.0013 13.2954 21.6061 14.8461 21.6061C16.4412 21.6061 17.8886 20.957 18.9372 19.9096C19.9858 18.8621 20.6357 17.4163 20.6504 15.8083C20.6504 14.274 20.0449 12.8134 18.952 11.707C17.8591 10.6153 16.3969 10.0104 14.8461 10.0104ZM14.8461 12.2233C15.8061 12.2233 16.7071 12.5922 17.3864 13.2708C18.0658 13.9494 18.4351 14.8493 18.4351 15.8083C18.4203 17.7852 16.8252 19.3932 14.8461 19.3932C13.8861 19.3932 12.9852 19.0244 12.3058 18.3458C11.6264 17.6671 11.2572 16.7672 11.2572 15.8083V15.7935C11.2424 14.8641 11.6117 13.9642 12.2911 13.2855C12.9852 12.5921 13.8861 12.2233 14.8461 12.2233ZM23.1317 9.65634C22.3932 9.65634 21.8024 10.2612 21.8024 10.9988C21.8024 11.7365 22.3932 12.3266 23.1317 12.3266C23.8701 12.3266 24.4757 11.7365 24.4757 10.9988C24.4757 10.2612 23.8701 9.65634 23.1317 9.65634Z" fill="white"/>
</svg>
