<svg width="41" height="40" viewBox="0 0 41 40" fill="none" xmlns="http://www.w3.org/2000/svg">
<path d="M20.5 3.3335C16.899 3.33332 13.4434 4.71976 10.8842 7.19148C8.32514 9.6632 6.86938 13.0204 6.83337 16.5335C6.83337 25.6668 18.8771 35.8335 19.3896 36.2668C19.6991 36.525 20.0929 36.6669 20.5 36.6669C20.9072 36.6669 21.301 36.525 21.6105 36.2668C22.2084 35.8335 34.1667 25.6668 34.1667 16.5335C34.1307 13.0204 32.6749 9.6632 30.1158 7.19148C27.5567 4.71976 24.1011 3.33332 20.5 3.3335ZM20.5 32.7502C17.6471 30.1002 10.25 22.7502 10.25 16.5335C10.25 13.8813 11.3299 11.3378 13.2522 9.46243C15.1744 7.58706 17.7816 6.5335 20.5 6.5335C23.2185 6.5335 25.8256 7.58706 27.7479 9.46243C29.6701 11.3378 30.75 13.8813 30.75 16.5335C30.75 22.7002 23.353 30.1002 20.5 32.7502Z" fill="#FFAC1C"/>
<path d="M20.5 10C19.3175 10 18.1615 10.3421 17.1782 10.9831C16.1949 11.6241 15.4286 12.5351 14.976 13.601C14.5235 14.6669 14.4051 15.8398 14.6358 16.9714C14.8665 18.1029 15.4359 19.1423 16.2721 19.9581C17.1083 20.7739 18.1737 21.3295 19.3336 21.5546C20.4934 21.7797 21.6956 21.6641 22.7882 21.2226C23.8807 20.7811 24.8145 20.0334 25.4715 19.0742C26.1285 18.1149 26.4792 16.9871 26.4792 15.8333C26.4792 14.2862 25.8493 12.8025 24.728 11.7085C23.6066 10.6146 22.0858 10 20.5 10ZM20.5 18.3333C19.9932 18.3333 19.4978 18.1867 19.0764 17.912C18.655 17.6373 18.3266 17.2469 18.1326 16.79C17.9387 16.3332 17.8879 15.8306 17.9868 15.3456C18.0857 14.8607 18.3297 14.4152 18.6881 14.0656C19.0465 13.7159 19.503 13.4778 20.0001 13.3814C20.4972 13.2849 21.0124 13.3344 21.4807 13.5236C21.9489 13.7129 22.3491 14.0333 22.6307 14.4444C22.9123 14.8555 23.0625 15.3389 23.0625 15.8333C23.0625 16.4964 22.7926 17.1323 22.312 17.6011C21.8314 18.0699 21.1797 18.3333 20.5 18.3333Z" fill="#FFAC1C"/>
</svg>
