<svg width="41" height="40" viewBox="0 0 41 40" fill="none" xmlns="http://www.w3.org/2000/svg">
<path d="M20.4999 3.33325C16.8988 3.33308 13.4432 4.71952 10.8841 7.19124C8.32502 9.66296 6.86926 13.0202 6.83325 16.5333C6.83325 25.6666 18.877 35.8333 19.3895 36.2666C19.6989 36.5248 20.0927 36.6667 20.4999 36.6667C20.9071 36.6667 21.3009 36.5248 21.6103 36.2666C22.2083 35.8333 34.1666 25.6666 34.1666 16.5333C34.1306 13.0202 32.6748 9.66296 30.1157 7.19124C27.5566 4.71952 24.101 3.33308 20.4999 3.33325ZM20.4999 32.7499C17.647 30.0999 10.2499 22.7499 10.2499 16.5333C10.2499 13.8811 11.3298 11.3375 13.2521 9.46218C15.1743 7.58682 17.7814 6.53325 20.4999 6.53325C23.2184 6.53325 25.8255 7.58682 27.7478 9.46218C29.67 11.3375 30.7499 13.8811 30.7499 16.5333C30.7499 22.6999 23.3528 30.0999 20.4999 32.7499Z" fill="#343C44"/>
<path d="M20.4999 10C19.3174 10 18.1613 10.3421 17.1781 10.9831C16.1948 11.6241 15.4284 12.5351 14.9759 13.601C14.5233 14.6669 14.4049 15.8398 14.6356 16.9714C14.8664 18.1029 15.4358 19.1423 16.272 19.9581C17.1082 20.7739 18.1736 21.3295 19.3334 21.5546C20.4933 21.7797 21.6955 21.6641 22.788 21.2226C23.8806 20.7811 24.8144 20.0334 25.4714 19.0742C26.1284 18.1149 26.4791 16.9871 26.4791 15.8333C26.4791 14.2862 25.8491 12.8025 24.7278 11.7085C23.6065 10.6146 22.0857 10 20.4999 10ZM20.4999 18.3333C19.9931 18.3333 19.4977 18.1867 19.0763 17.912C18.6549 17.6373 18.3264 17.2469 18.1325 16.79C17.9385 16.3332 17.8878 15.8306 17.9867 15.3456C18.0855 14.8607 18.3296 14.4152 18.688 14.0656C19.0463 13.7159 19.5029 13.4778 20 13.3814C20.4971 13.2849 21.0123 13.3344 21.4805 13.5236C21.9488 13.7129 22.349 14.0333 22.6306 14.4444C22.9121 14.8555 23.0624 15.3389 23.0624 15.8333C23.0624 16.4964 22.7924 17.1323 22.3119 17.6011C21.8313 18.0699 21.1795 18.3333 20.4999 18.3333Z" fill="#343C44"/>
</svg>
