<svg width="48" height="48" viewBox="0 0 48 48" fill="none" xmlns="http://www.w3.org/2000/svg">
<circle cx="24.0802" cy="24.0802" r="22.1637" fill="#323232" stroke="#ECE7E2"/>
<path d="M31.5464 29.954C31.7577 30.1653 31.8765 30.452 31.8765 30.7509C31.8765 31.0497 31.7577 31.3364 31.5464 31.5477C31.335 31.7591 31.0484 31.8778 30.7495 31.8778C30.4506 31.8778 30.164 31.7591 29.9526 31.5477L24.0004 25.5937L18.0464 31.5459C17.835 31.7572 17.5484 31.8759 17.2495 31.8759C16.9506 31.8759 16.664 31.7572 16.4526 31.5459C16.2413 31.3345 16.1226 31.0479 16.1226 30.749C16.1226 30.4501 16.2413 30.1635 16.4526 29.9521L22.4067 23.9999L16.4545 18.0459C16.2432 17.8345 16.1244 17.5479 16.1244 17.249C16.1244 16.9501 16.2432 16.6635 16.4545 16.4521C16.6659 16.2408 16.9525 16.122 17.2514 16.122C17.5503 16.122 17.8369 16.2408 18.0483 16.4521L24.0004 22.4062L29.9545 16.4512C30.1659 16.2398 30.4525 16.1211 30.7514 16.1211C31.0503 16.1211 31.3369 16.2398 31.5483 16.4512C31.7596 16.6625 31.8783 16.9492 31.8783 17.248C31.8783 17.5469 31.7596 17.8336 31.5483 18.0449L25.5942 23.9999L31.5464 29.954Z" fill="#F8F8F8"/>
</svg>
