<svg width="45" height="45" viewBox="0 0 45 45" fill="none" xmlns="http://www.w3.org/2000/svg">
<rect width="45" height="45" rx="6" fill="#ECE7E2"/>
<path d="M8.06662 16.5937C8.11897 15.3992 8.63034 14.271 9.49413 13.4443C10.3579 12.6176 11.5075 12.1562 12.7031 12.1563H32.2969C33.4925 12.1562 34.6421 12.6176 35.5059 13.4443C36.3697 14.271 36.881 15.3992 36.9334 16.5937L35.4113 17.4393L22.5 24.391L9.58875 17.4393L8.06662 16.5937ZM8.0625 18.9501V30.2031C8.0625 31.4339 8.55142 32.6143 9.42171 33.4845C10.292 34.3548 11.4724 34.8438 12.7031 34.8438H32.2969C33.5276 34.8438 34.708 34.3548 35.5783 33.4845C36.4486 32.6143 36.9375 31.4339 36.9375 30.2031V18.9501L36.3951 19.2523L22.9888 26.471C22.8386 26.5519 22.6706 26.5942 22.5 26.5942C22.3294 26.5942 22.1614 26.5519 22.0112 26.471L8.59256 19.2451L8.0625 18.9501Z" fill="#FFAC1C"/>
</svg>
