<svg width="358" height="283" viewBox="0 0 358 283" fill="none" xmlns="http://www.w3.org/2000/svg">
<path d="M5.3178 89.31L12.2923 90.983L14.258 97.7009L11.7347 103.108L5.3178 100.903L3.10664 98.0397L2 94.4984L2.57578 91.2489L5.3178 89.31ZM76.5076 105.871L68.2662 110.003L64.2348 109.348L56.4839 106.148L48.1482 105.167L45.2411 102.72L42.499 99.7504L38.8797 97.4962L33.1033 91.4559L30.1783 89.8794L29.6669 94.1478L28.589 96.9385L25.1708 96.5879L21.3419 93.9925L19.066 90.0747L20.9491 82.5285L38.4436 83.2697L44.5124 78.8131L44.2845 75.0741L41.9908 71.7351L32.7314 64.4478L29.706 63.4618L18.1529 63.4501L15.1183 62.1394L14.1408 59.2217L15.9234 54.2615L9.37932 40.3103L26.2593 26.3003L53.1061 3.98879L58.782 2L64.5676 2.30448L67.8706 4.02314L76.3862 8.45227L79.1372 9.00123L82.7024 8.68474L88.5524 6.89243L91.1672 7.36799L93.7262 10.3196L99.4848 15.7686L124.912 25.7238L136.429 28.0745L140.561 29.7287L140.78 31.1899L138.257 32.5782L134.198 34.0253L130.269 38.9455L134.492 45.6611L141.804 51.9508L145.209 54.0426L154.125 59.5252L180.375 69.0503L188.911 70.1068L193.189 69.7162L196.68 68.4291L201.323 65.436L205.838 62.523L209.778 61.6124L223.076 61.5512L226.256 62.6689L229.055 65.4149L234.19 71.8645L244.609 81.3567L248.285 83.5544L258.813 87.0016L261.711 89.5617L266.657 96.2585L269.828 98.2091L273.695 98.0397L275.247 95.5902L276.235 91.903L278.227 88.1428L281.964 85.7898L285.429 86.131L288.79 87.0534L292.264 86.4957L294.696 83.0579L299.878 87.0299L307.931 87.3193L314.987 91.5665L315.747 98.108L316.805 104.951L319.364 110.313L320.197 116.532L318.579 125.879L319.155 135.098L319.722 144.987L318.25 154.43L315.15 163.482L319.254 170.29L326.364 171.353L332.277 175.447L327.837 182.619L322.415 190.135L325.597 195.274L332.691 190.907L338.75 191.474L343.275 196.54L342.991 206.503L344.007 216.642L349.08 218.254L354.518 217.496L356 219.628L355.24 223.193L353.33 228.137L349.254 229.998L345.03 234.05L341.064 237.944L337.572 240.203L334.154 242.737L330.553 245.511L328.834 246.519L326.74 247.744L320.15 247.949L318.826 247.9L313.531 247.709L304.768 251.625L296.248 256.952L289.599 259.533L287.562 260.324L286.45 260.757L283.994 263.992L281.489 267.286L280.353 268.783L261.763 280.405L248.956 278.421L242.029 277.35L227.213 275.139L213.374 270.08L201.008 271.315L188.752 270.35L177.63 268.329L167.676 272.207L166.123 280.555L166.106 280.647L164.907 281L161.361 280.807L153.84 272.487L153.702 272.334L112.498 248.902L102.023 239.064L96.302 226.828L94.8117 224.125L91.146 221.694L89.5104 219.854L88.6964 217.353L88.2946 212.202L87.6003 209.903L84.5196 206.039L80.9454 203.209L77.5451 199.848L75.0218 194.439L75.0293 190.107L75.0399 184.509L79.4912 176.659L86.4099 170.951L93.5569 167.494L107.267 160.861L111.929 155.534L115.246 145.905L114.927 140.731L111.857 139.098L107.689 138.794L104.087 137.634L101.291 134.768L93.7234 124.991L89.0442 121.13L87.2811 120.664L84.7849 120.003L82.6095 117.631L84.1628 110.05L83.0849 104.499L78.2032 105.033L76.5076 105.871ZM99.8072 201.597L105.731 197.032L108.125 190.947L103.518 188.319L100.959 187.97L98.3725 188.017L95.9318 188.74L93.7204 190.344L92.6784 192.658L92.3127 195.093L92.6603 197.526L93.7204 199.766L99.8072 201.597ZM46.0821 116.059L41.9877 115.393L40.2876 110.003L40.8364 109.396L41.4585 109.045L42.1526 108.937L42.8843 109.068L47.9471 113.466L46.0821 116.059Z" fill="#ECE7E2" stroke="#FFAC1C" stroke-width="3" stroke-linejoin="round"/>
<path d="M246.2 156.16C245.633 156.16 245.11 156.073 244.63 155.9C244.157 155.72 243.743 155.467 243.39 155.14C243.043 154.813 242.773 154.427 242.58 153.98C242.387 153.533 242.29 153.04 242.29 152.5C242.29 151.96 242.387 151.467 242.58 151.02C242.773 150.573 243.047 150.187 243.4 149.86C243.753 149.533 244.17 149.283 244.65 149.11C245.137 148.93 245.67 148.84 246.25 148.84C246.943 148.84 247.56 148.957 248.1 149.19C248.647 149.423 249.097 149.757 249.45 150.19L247.94 151.52C247.72 151.267 247.48 151.077 247.22 150.95C246.967 150.817 246.683 150.75 246.37 150.75C246.11 150.75 245.873 150.79 245.66 150.87C245.453 150.95 245.277 151.067 245.13 151.22C244.983 151.373 244.87 151.557 244.79 151.77C244.71 151.983 244.67 152.227 244.67 152.5C244.67 152.76 244.71 153 244.79 153.22C244.87 153.433 244.983 153.617 245.13 153.77C245.277 153.923 245.45 154.043 245.65 154.13C245.857 154.21 246.087 154.25 246.34 154.25C246.607 154.25 246.867 154.207 247.12 154.12C247.373 154.027 247.643 153.87 247.93 153.65L249.25 155.27C248.823 155.557 248.337 155.777 247.79 155.93C247.243 156.083 246.713 156.16 246.2 156.16ZM247.2 154.97V152.31H249.25V155.27L247.2 154.97ZM252.696 150.43C253.369 150.43 253.952 150.553 254.446 150.8C254.939 151.047 255.322 151.383 255.596 151.81C255.869 152.237 256.006 152.723 256.006 153.27C256.006 153.823 255.869 154.313 255.596 154.74C255.329 155.167 254.962 155.5 254.496 155.74C254.029 155.98 253.499 156.1 252.906 156.1C252.366 156.1 251.866 155.993 251.406 155.78C250.952 155.567 250.586 155.25 250.306 154.83C250.032 154.403 249.896 153.883 249.896 153.27C249.896 153.19 249.899 153.103 249.906 153.01C249.912 152.91 249.919 152.82 249.926 152.74H254.136V153.83H251.126L251.976 153.54C251.976 153.747 252.012 153.927 252.086 154.08C252.166 154.233 252.272 154.353 252.406 154.44C252.546 154.52 252.706 154.56 252.886 154.56C253.072 154.56 253.232 154.52 253.366 154.44C253.506 154.353 253.612 154.233 253.686 154.08C253.759 153.927 253.796 153.747 253.796 153.54V153.2C253.796 152.96 253.749 152.76 253.656 152.6C253.562 152.433 253.429 152.31 253.256 152.23C253.082 152.143 252.872 152.1 252.626 152.1C252.379 152.1 252.172 152.133 252.006 152.2C251.839 152.267 251.666 152.367 251.486 152.5L250.306 151.31C250.572 151.017 250.899 150.797 251.286 150.65C251.679 150.503 252.149 150.43 252.696 150.43ZM260.519 150.43C260.939 150.43 261.319 150.517 261.659 150.69C261.999 150.857 262.265 151.12 262.459 151.48C262.659 151.84 262.759 152.307 262.759 152.88V156H260.499V153.27C260.499 152.93 260.439 152.69 260.319 152.55C260.199 152.403 260.035 152.33 259.829 152.33C259.675 152.33 259.532 152.367 259.399 152.44C259.272 152.507 259.169 152.62 259.089 152.78C259.015 152.94 258.979 153.157 258.979 153.43V156H256.719V150.53H258.869V152.13L258.439 151.67C258.652 151.257 258.939 150.947 259.299 150.74C259.665 150.533 260.072 150.43 260.519 150.43ZM266.778 156.1C266.151 156.1 265.595 155.98 265.108 155.74C264.621 155.5 264.238 155.167 263.958 154.74C263.685 154.307 263.548 153.813 263.548 153.26C263.548 152.707 263.685 152.217 263.958 151.79C264.238 151.363 264.621 151.03 265.108 150.79C265.595 150.55 266.151 150.43 266.778 150.43C267.445 150.43 268.015 150.573 268.488 150.86C268.961 151.147 269.288 151.543 269.468 152.05L267.718 152.91C267.605 152.657 267.465 152.473 267.298 152.36C267.138 152.247 266.961 152.19 266.768 152.19C266.601 152.19 266.445 152.23 266.298 152.31C266.158 152.39 266.045 152.51 265.958 152.67C265.878 152.823 265.838 153.02 265.838 153.26C265.838 153.5 265.878 153.7 265.958 153.86C266.045 154.02 266.158 154.14 266.298 154.22C266.445 154.3 266.601 154.34 266.768 154.34C266.961 154.34 267.138 154.283 267.298 154.17C267.465 154.057 267.605 153.873 267.718 153.62L269.468 154.48C269.288 154.987 268.961 155.383 268.488 155.67C268.015 155.957 267.445 156.1 266.778 156.1ZM272.451 150.43C273.125 150.43 273.708 150.553 274.201 150.8C274.695 151.047 275.078 151.383 275.351 151.81C275.625 152.237 275.761 152.723 275.761 153.27C275.761 153.823 275.625 154.313 275.351 154.74C275.085 155.167 274.718 155.5 274.251 155.74C273.785 155.98 273.255 156.1 272.661 156.1C272.121 156.1 271.621 155.993 271.161 155.78C270.708 155.567 270.341 155.25 270.061 154.83C269.788 154.403 269.651 153.883 269.651 153.27C269.651 153.19 269.655 153.103 269.661 153.01C269.668 152.91 269.675 152.82 269.681 152.74H273.891V153.83H270.881L271.731 153.54C271.731 153.747 271.768 153.927 271.841 154.08C271.921 154.233 272.028 154.353 272.161 154.44C272.301 154.52 272.461 154.56 272.641 154.56C272.828 154.56 272.988 154.52 273.121 154.44C273.261 154.353 273.368 154.233 273.441 154.08C273.515 153.927 273.551 153.747 273.551 153.54V153.2C273.551 152.96 273.505 152.76 273.411 152.6C273.318 152.433 273.185 152.31 273.011 152.23C272.838 152.143 272.628 152.1 272.381 152.1C272.135 152.1 271.928 152.133 271.761 152.2C271.595 152.267 271.421 152.367 271.241 152.5L270.061 151.31C270.328 151.017 270.655 150.797 271.041 150.65C271.435 150.503 271.905 150.43 272.451 150.43Z" fill="black"/>
<path d="M268.07 115.06C267.55 115.06 267.05 114.977 266.57 114.81C266.097 114.637 265.73 114.417 265.47 114.15L265.76 113.58C266.007 113.82 266.337 114.023 266.75 114.19C267.17 114.35 267.61 114.43 268.07 114.43C268.51 114.43 268.867 114.377 269.14 114.27C269.42 114.157 269.623 114.007 269.75 113.82C269.883 113.633 269.95 113.427 269.95 113.2C269.95 112.927 269.87 112.707 269.71 112.54C269.557 112.373 269.353 112.243 269.1 112.15C268.847 112.05 268.567 111.963 268.26 111.89C267.953 111.817 267.647 111.74 267.34 111.66C267.033 111.573 266.75 111.46 266.49 111.32C266.237 111.18 266.03 110.997 265.87 110.77C265.717 110.537 265.64 110.233 265.64 109.86C265.64 109.513 265.73 109.197 265.91 108.91C266.097 108.617 266.38 108.383 266.76 108.21C267.14 108.03 267.627 107.94 268.22 107.94C268.613 107.94 269.003 107.997 269.39 108.11C269.777 108.217 270.11 108.367 270.39 108.56L270.14 109.15C269.84 108.95 269.52 108.803 269.18 108.71C268.847 108.617 268.523 108.57 268.21 108.57C267.79 108.57 267.443 108.627 267.17 108.74C266.897 108.853 266.693 109.007 266.56 109.2C266.433 109.387 266.37 109.6 266.37 109.84C266.37 110.113 266.447 110.333 266.6 110.5C266.76 110.667 266.967 110.797 267.22 110.89C267.48 110.983 267.763 111.067 268.07 111.14C268.377 111.213 268.68 111.293 268.98 111.38C269.287 111.467 269.567 111.58 269.82 111.72C270.08 111.853 270.287 112.033 270.44 112.26C270.6 112.487 270.68 112.783 270.68 113.15C270.68 113.49 270.587 113.807 270.4 114.1C270.213 114.387 269.927 114.62 269.54 114.8C269.16 114.973 268.67 115.06 268.07 115.06ZM275.432 115V113.84L275.402 113.65V111.71C275.402 111.263 275.276 110.92 275.022 110.68C274.776 110.44 274.406 110.32 273.912 110.32C273.572 110.32 273.249 110.377 272.942 110.49C272.636 110.603 272.376 110.753 272.162 110.94L271.842 110.41C272.109 110.183 272.429 110.01 272.802 109.89C273.176 109.763 273.569 109.7 273.982 109.7C274.662 109.7 275.186 109.87 275.552 110.21C275.926 110.543 276.112 111.053 276.112 111.74V115H275.432ZM273.622 115.05C273.229 115.05 272.886 114.987 272.592 114.86C272.306 114.727 272.086 114.547 271.932 114.32C271.779 114.087 271.702 113.82 271.702 113.52C271.702 113.247 271.766 113 271.892 112.78C272.026 112.553 272.239 112.373 272.532 112.24C272.832 112.1 273.232 112.03 273.732 112.03H275.542V112.56H273.752C273.246 112.56 272.892 112.65 272.692 112.83C272.499 113.01 272.402 113.233 272.402 113.5C272.402 113.8 272.519 114.04 272.752 114.22C272.986 114.4 273.312 114.49 273.732 114.49C274.132 114.49 274.476 114.4 274.762 114.22C275.056 114.033 275.269 113.767 275.402 113.42L275.562 113.91C275.429 114.257 275.196 114.533 274.862 114.74C274.536 114.947 274.122 115.05 273.622 115.05ZM284.601 109.7C285.027 109.7 285.397 109.783 285.711 109.95C286.031 110.11 286.277 110.357 286.451 110.69C286.631 111.023 286.721 111.443 286.721 111.95V115H286.011V112.02C286.011 111.467 285.877 111.05 285.611 110.77C285.351 110.483 284.981 110.34 284.501 110.34C284.141 110.34 283.827 110.417 283.561 110.57C283.301 110.717 283.097 110.933 282.951 111.22C282.811 111.5 282.741 111.84 282.741 112.24V115H282.031V112.02C282.031 111.467 281.897 111.05 281.631 110.77C281.364 110.483 280.991 110.34 280.511 110.34C280.157 110.34 279.847 110.417 279.581 110.57C279.314 110.717 279.107 110.933 278.961 111.22C278.821 111.5 278.751 111.84 278.751 112.24V115H278.041V109.75H278.721V111.17L278.611 110.92C278.771 110.54 279.027 110.243 279.381 110.03C279.741 109.81 280.164 109.7 280.651 109.7C281.164 109.7 281.601 109.83 281.961 110.09C282.321 110.343 282.554 110.727 282.661 111.24L282.381 111.13C282.534 110.703 282.804 110.36 283.191 110.1C283.584 109.833 284.054 109.7 284.601 109.7ZM290.816 115.05C290.37 115.05 289.98 114.967 289.646 114.8C289.313 114.633 289.053 114.383 288.866 114.05C288.686 113.717 288.596 113.3 288.596 112.8V109.75H289.306V112.72C289.306 113.28 289.443 113.703 289.716 113.99C289.996 114.27 290.386 114.41 290.886 114.41C291.253 114.41 291.57 114.337 291.836 114.19C292.11 114.037 292.316 113.817 292.456 113.53C292.603 113.243 292.676 112.9 292.676 112.5V109.75H293.386V115H292.706V113.56L292.816 113.82C292.65 114.207 292.39 114.51 292.036 114.73C291.69 114.943 291.283 115.05 290.816 115.05ZM294.565 115L296.785 112.12L296.775 112.47L294.665 109.75H295.465L297.195 112L296.895 111.99L298.625 109.75H299.405L297.275 112.5L297.285 112.12L299.525 115H298.715L296.885 112.6L297.165 112.64L295.365 115H294.565Z" fill="black"/>
<path d="M235.21 185.06C234.677 185.06 234.183 184.973 233.73 184.8C233.283 184.62 232.893 184.37 232.56 184.05C232.233 183.73 231.977 183.353 231.79 182.92C231.61 182.487 231.52 182.013 231.52 181.5C231.52 180.987 231.61 180.513 231.79 180.08C231.977 179.647 232.237 179.27 232.57 178.95C232.903 178.63 233.293 178.383 233.74 178.21C234.193 178.03 234.687 177.94 235.22 177.94C235.753 177.94 236.24 178.023 236.68 178.19C237.127 178.357 237.507 178.61 237.82 178.95L237.36 179.42C237.067 179.127 236.743 178.917 236.39 178.79C236.037 178.663 235.657 178.6 235.25 178.6C234.817 178.6 234.417 178.673 234.05 178.82C233.69 178.96 233.373 179.163 233.1 179.43C232.833 179.69 232.623 179.997 232.47 180.35C232.323 180.697 232.25 181.08 232.25 181.5C232.25 181.913 232.323 182.297 232.47 182.65C232.623 183.003 232.833 183.313 233.1 183.58C233.373 183.84 233.69 184.043 234.05 184.19C234.417 184.33 234.813 184.4 235.24 184.4C235.64 184.4 236.017 184.34 236.37 184.22C236.73 184.1 237.06 183.897 237.36 183.61L237.78 184.17C237.447 184.463 237.057 184.687 236.61 184.84C236.163 184.987 235.697 185.06 235.21 185.06ZM237.07 184.08V181.5H237.78V184.17L237.07 184.08ZM241.864 185.05C241.358 185.05 240.901 184.937 240.494 184.71C240.094 184.477 239.778 184.16 239.544 183.76C239.311 183.353 239.194 182.89 239.194 182.37C239.194 181.843 239.311 181.38 239.544 180.98C239.778 180.58 240.094 180.267 240.494 180.04C240.894 179.813 241.351 179.7 241.864 179.7C242.384 179.7 242.844 179.813 243.244 180.04C243.651 180.267 243.968 180.58 244.194 180.98C244.428 181.38 244.544 181.843 244.544 182.37C244.544 182.89 244.428 183.353 244.194 183.76C243.968 184.16 243.651 184.477 243.244 184.71C242.838 184.937 242.378 185.05 241.864 185.05ZM241.864 184.42C242.244 184.42 242.581 184.337 242.874 184.17C243.168 183.997 243.398 183.757 243.564 183.45C243.738 183.137 243.824 182.777 243.824 182.37C243.824 181.957 243.738 181.597 243.564 181.29C243.398 180.983 243.168 180.747 242.874 180.58C242.581 180.407 242.248 180.32 241.874 180.32C241.501 180.32 241.168 180.407 240.874 180.58C240.581 180.747 240.348 180.983 240.174 181.29C240.001 181.597 239.914 181.957 239.914 182.37C239.914 182.777 240.001 183.137 240.174 183.45C240.348 183.757 240.581 183.997 240.874 184.17C241.168 184.337 241.498 184.42 241.864 184.42ZM242.754 178.7C242.641 178.7 242.541 178.66 242.454 178.58C242.368 178.5 242.324 178.397 242.324 178.27C242.324 178.143 242.368 178.04 242.454 177.96C242.541 177.88 242.641 177.84 242.754 177.84C242.874 177.84 242.974 177.88 243.054 177.96C243.141 178.04 243.184 178.143 243.184 178.27C243.184 178.397 243.141 178.5 243.054 178.58C242.974 178.66 242.874 178.7 242.754 178.7ZM240.974 178.7C240.854 178.7 240.751 178.66 240.664 178.58C240.584 178.5 240.544 178.397 240.544 178.27C240.544 178.143 240.584 178.04 240.664 177.96C240.751 177.88 240.854 177.84 240.974 177.84C241.088 177.84 241.188 177.88 241.274 177.96C241.361 178.04 241.404 178.143 241.404 178.27C241.404 178.397 241.361 178.5 241.274 178.58C241.188 178.66 241.088 178.7 240.974 178.7ZM245.887 186.99C245.641 186.99 245.404 186.95 245.177 186.87C244.957 186.79 244.767 186.67 244.607 186.51L244.937 185.98C245.071 186.107 245.214 186.203 245.367 186.27C245.527 186.343 245.704 186.38 245.897 186.38C246.131 186.38 246.331 186.313 246.497 186.18C246.671 186.053 246.834 185.827 246.987 185.5L247.327 184.73L247.407 184.62L249.567 179.75H250.267L247.637 185.63C247.491 185.97 247.327 186.24 247.147 186.44C246.974 186.64 246.784 186.78 246.577 186.86C246.371 186.947 246.141 186.99 245.887 186.99ZM247.287 185.15L244.867 179.75H245.607L247.747 184.57L247.287 185.15ZM253.361 186.99C252.881 186.99 252.421 186.92 251.981 186.78C251.541 186.64 251.184 186.44 250.911 186.18L251.271 185.64C251.518 185.86 251.821 186.033 252.181 186.16C252.548 186.293 252.934 186.36 253.341 186.36C254.008 186.36 254.498 186.203 254.811 185.89C255.124 185.583 255.281 185.103 255.281 184.45V183.14L255.381 182.24L255.311 181.34V179.75H255.991V184.36C255.991 185.267 255.768 185.93 255.321 186.35C254.881 186.777 254.228 186.99 253.361 186.99ZM253.231 184.8C252.731 184.8 252.281 184.693 251.881 184.48C251.481 184.26 251.164 183.957 250.931 183.57C250.704 183.183 250.591 182.74 250.591 182.24C250.591 181.74 250.704 181.3 250.931 180.92C251.164 180.533 251.481 180.233 251.881 180.02C252.281 179.807 252.731 179.7 253.231 179.7C253.698 179.7 254.118 179.797 254.491 179.99C254.864 180.183 255.161 180.47 255.381 180.85C255.601 181.23 255.711 181.693 255.711 182.24C255.711 182.787 255.601 183.25 255.381 183.63C255.161 184.01 254.864 184.3 254.491 184.5C254.118 184.7 253.698 184.8 253.231 184.8ZM253.301 184.17C253.688 184.17 254.031 184.09 254.331 183.93C254.631 183.763 254.868 183.537 255.041 183.25C255.214 182.957 255.301 182.62 255.301 182.24C255.301 181.86 255.214 181.527 255.041 181.24C254.868 180.953 254.631 180.73 254.331 180.57C254.031 180.403 253.688 180.32 253.301 180.32C252.921 180.32 252.578 180.403 252.271 180.57C251.971 180.73 251.734 180.953 251.561 181.24C251.394 181.527 251.311 181.86 251.311 182.24C251.311 182.62 251.394 182.957 251.561 183.25C251.734 183.537 251.971 183.763 252.271 183.93C252.578 184.09 252.921 184.17 253.301 184.17ZM260.107 185.05C259.6 185.05 259.143 184.937 258.737 184.71C258.337 184.477 258.02 184.16 257.787 183.76C257.553 183.353 257.437 182.89 257.437 182.37C257.437 181.843 257.553 181.38 257.787 180.98C258.02 180.58 258.337 180.267 258.737 180.04C259.137 179.813 259.593 179.7 260.107 179.7C260.627 179.7 261.087 179.813 261.487 180.04C261.893 180.267 262.21 180.58 262.437 180.98C262.67 181.38 262.787 181.843 262.787 182.37C262.787 182.89 262.67 183.353 262.437 183.76C262.21 184.16 261.893 184.477 261.487 184.71C261.08 184.937 260.62 185.05 260.107 185.05ZM260.107 184.42C260.487 184.42 260.823 184.337 261.117 184.17C261.41 183.997 261.64 183.757 261.807 183.45C261.98 183.137 262.067 182.777 262.067 182.37C262.067 181.957 261.98 181.597 261.807 181.29C261.64 180.983 261.41 180.747 261.117 180.58C260.823 180.407 260.49 180.32 260.117 180.32C259.743 180.32 259.41 180.407 259.117 180.58C258.823 180.747 258.59 180.983 258.417 181.29C258.243 181.597 258.157 181.957 258.157 182.37C258.157 182.777 258.243 183.137 258.417 183.45C258.59 183.757 258.823 183.997 259.117 184.17C259.41 184.337 259.74 184.42 260.107 184.42ZM264.236 185V177.58H264.946V185H264.236Z" fill="black"/>
<path d="M279.21 234.06C278.677 234.06 278.183 233.973 277.73 233.8C277.283 233.62 276.893 233.37 276.56 233.05C276.233 232.73 275.977 232.353 275.79 231.92C275.61 231.487 275.52 231.013 275.52 230.5C275.52 229.987 275.61 229.513 275.79 229.08C275.977 228.647 276.237 228.27 276.57 227.95C276.903 227.63 277.293 227.383 277.74 227.21C278.193 227.03 278.687 226.94 279.22 226.94C279.753 226.94 280.24 227.023 280.68 227.19C281.127 227.357 281.507 227.61 281.82 227.95L281.36 228.42C281.067 228.127 280.743 227.917 280.39 227.79C280.037 227.663 279.657 227.6 279.25 227.6C278.817 227.6 278.417 227.673 278.05 227.82C277.69 227.96 277.373 228.163 277.1 228.43C276.833 228.69 276.623 228.997 276.47 229.35C276.323 229.697 276.25 230.08 276.25 230.5C276.25 230.913 276.323 231.297 276.47 231.65C276.623 232.003 276.833 232.313 277.1 232.58C277.373 232.84 277.69 233.043 278.05 233.19C278.417 233.33 278.813 233.4 279.24 233.4C279.64 233.4 280.017 233.34 280.37 233.22C280.73 233.1 281.06 232.897 281.36 232.61L281.78 233.17C281.447 233.463 281.057 233.687 280.61 233.84C280.163 233.987 279.697 234.06 279.21 234.06ZM281.07 233.08V230.5H281.78V233.17L281.07 233.08ZM285.864 234.05C285.358 234.05 284.901 233.937 284.494 233.71C284.094 233.477 283.778 233.16 283.544 232.76C283.311 232.353 283.194 231.89 283.194 231.37C283.194 230.843 283.311 230.38 283.544 229.98C283.778 229.58 284.094 229.267 284.494 229.04C284.894 228.813 285.351 228.7 285.864 228.7C286.384 228.7 286.844 228.813 287.244 229.04C287.651 229.267 287.968 229.58 288.194 229.98C288.428 230.38 288.544 230.843 288.544 231.37C288.544 231.89 288.428 232.353 288.194 232.76C287.968 233.16 287.651 233.477 287.244 233.71C286.838 233.937 286.378 234.05 285.864 234.05ZM285.864 233.42C286.244 233.42 286.581 233.337 286.874 233.17C287.168 232.997 287.398 232.757 287.564 232.45C287.738 232.137 287.824 231.777 287.824 231.37C287.824 230.957 287.738 230.597 287.564 230.29C287.398 229.983 287.168 229.747 286.874 229.58C286.581 229.407 286.248 229.32 285.874 229.32C285.501 229.32 285.168 229.407 284.874 229.58C284.581 229.747 284.348 229.983 284.174 230.29C284.001 230.597 283.914 230.957 283.914 231.37C283.914 231.777 284.001 232.137 284.174 232.45C284.348 232.757 284.581 232.997 284.874 233.17C285.168 233.337 285.498 233.42 285.864 233.42ZM286.754 227.7C286.641 227.7 286.541 227.66 286.454 227.58C286.368 227.5 286.324 227.397 286.324 227.27C286.324 227.143 286.368 227.04 286.454 226.96C286.541 226.88 286.641 226.84 286.754 226.84C286.874 226.84 286.974 226.88 287.054 226.96C287.141 227.04 287.184 227.143 287.184 227.27C287.184 227.397 287.141 227.5 287.054 227.58C286.974 227.66 286.874 227.7 286.754 227.7ZM284.974 227.7C284.854 227.7 284.751 227.66 284.664 227.58C284.584 227.5 284.544 227.397 284.544 227.27C284.544 227.143 284.584 227.04 284.664 226.96C284.751 226.88 284.854 226.84 284.974 226.84C285.088 226.84 285.188 226.88 285.274 226.96C285.361 227.04 285.404 227.143 285.404 227.27C285.404 227.397 285.361 227.5 285.274 227.58C285.188 227.66 285.088 227.7 284.974 227.7ZM289.994 234V228.75H290.674V230.18L290.604 229.93C290.751 229.53 290.997 229.227 291.344 229.02C291.691 228.807 292.121 228.7 292.634 228.7V229.39C292.607 229.39 292.581 229.39 292.554 229.39C292.527 229.383 292.501 229.38 292.474 229.38C291.921 229.38 291.487 229.55 291.174 229.89C290.861 230.223 290.704 230.7 290.704 231.32V234H289.994ZM296.829 234V232.84L296.799 232.65V230.71C296.799 230.263 296.672 229.92 296.419 229.68C296.172 229.44 295.802 229.32 295.309 229.32C294.969 229.32 294.645 229.377 294.339 229.49C294.032 229.603 293.772 229.753 293.559 229.94L293.239 229.41C293.505 229.183 293.825 229.01 294.199 228.89C294.572 228.763 294.965 228.7 295.379 228.7C296.059 228.7 296.582 228.87 296.949 229.21C297.322 229.543 297.509 230.053 297.509 230.74V234H296.829ZM295.019 234.05C294.625 234.05 294.282 233.987 293.989 233.86C293.702 233.727 293.482 233.547 293.329 233.32C293.175 233.087 293.099 232.82 293.099 232.52C293.099 232.247 293.162 232 293.289 231.78C293.422 231.553 293.635 231.373 293.929 231.24C294.229 231.1 294.629 231.03 295.129 231.03H296.939V231.56H295.149C294.642 231.56 294.289 231.65 294.089 231.83C293.895 232.01 293.799 232.233 293.799 232.5C293.799 232.8 293.915 233.04 294.149 233.22C294.382 233.4 294.709 233.49 295.129 233.49C295.529 233.49 295.872 233.4 296.159 233.22C296.452 233.033 296.665 232.767 296.799 232.42L296.959 232.91C296.825 233.257 296.592 233.533 296.259 233.74C295.932 233.947 295.519 234.05 295.019 234.05ZM302.117 228.7C302.544 228.7 302.917 228.783 303.237 228.95C303.564 229.11 303.817 229.357 303.997 229.69C304.184 230.023 304.277 230.443 304.277 230.95V234H303.567V231.02C303.567 230.467 303.427 230.05 303.147 229.77C302.874 229.483 302.487 229.34 301.987 229.34C301.614 229.34 301.287 229.417 301.007 229.57C300.734 229.717 300.521 229.933 300.367 230.22C300.221 230.5 300.147 230.84 300.147 231.24V234H299.437V228.75H300.117V230.19L300.007 229.92C300.174 229.54 300.441 229.243 300.807 229.03C301.174 228.81 301.611 228.7 302.117 228.7ZM308.905 234.05C308.445 234.05 308.032 233.947 307.665 233.74C307.298 233.527 307.008 233.22 306.795 232.82C306.582 232.42 306.475 231.937 306.475 231.37C306.475 230.797 306.582 230.313 306.795 229.92C307.015 229.52 307.308 229.217 307.675 229.01C308.042 228.803 308.452 228.7 308.905 228.7C309.405 228.7 309.852 228.813 310.245 229.04C310.645 229.26 310.958 229.57 311.185 229.97C311.412 230.37 311.525 230.837 311.525 231.37C311.525 231.897 311.412 232.363 311.185 232.77C310.958 233.17 310.645 233.483 310.245 233.71C309.852 233.937 309.405 234.05 308.905 234.05ZM306.195 234V226.58H306.905V230.3L306.805 231.36L306.875 232.42V234H306.195ZM308.855 233.42C309.228 233.42 309.562 233.337 309.855 233.17C310.148 232.997 310.382 232.757 310.555 232.45C310.728 232.137 310.815 231.777 310.815 231.37C310.815 230.957 310.728 230.597 310.555 230.29C310.382 229.983 310.148 229.747 309.855 229.58C309.562 229.407 309.228 229.32 308.855 229.32C308.482 229.32 308.145 229.407 307.845 229.58C307.552 229.747 307.318 229.983 307.145 230.29C306.978 230.597 306.895 230.957 306.895 231.37C306.895 231.777 306.978 232.137 307.145 232.45C307.318 232.757 307.552 232.997 307.845 233.17C308.145 233.337 308.482 233.42 308.855 233.42ZM315.112 234.05C314.606 234.05 314.149 233.937 313.742 233.71C313.342 233.477 313.026 233.16 312.792 232.76C312.559 232.353 312.442 231.89 312.442 231.37C312.442 230.843 312.559 230.38 312.792 229.98C313.026 229.58 313.342 229.267 313.742 229.04C314.142 228.813 314.599 228.7 315.112 228.7C315.632 228.7 316.092 228.813 316.492 229.04C316.899 229.267 317.216 229.58 317.442 229.98C317.676 230.38 317.792 230.843 317.792 231.37C317.792 231.89 317.676 232.353 317.442 232.76C317.216 233.16 316.899 233.477 316.492 233.71C316.086 233.937 315.626 234.05 315.112 234.05ZM315.112 233.42C315.492 233.42 315.829 233.337 316.122 233.17C316.416 232.997 316.646 232.757 316.812 232.45C316.986 232.137 317.072 231.777 317.072 231.37C317.072 230.957 316.986 230.597 316.812 230.29C316.646 229.983 316.416 229.747 316.122 229.58C315.829 229.407 315.496 229.32 315.122 229.32C314.749 229.32 314.416 229.407 314.122 229.58C313.829 229.747 313.596 229.983 313.422 230.29C313.249 230.597 313.162 230.957 313.162 231.37C313.162 231.777 313.249 232.137 313.422 232.45C313.596 232.757 313.829 232.997 314.122 233.17C314.416 233.337 314.746 233.42 315.112 233.42ZM319.135 235.99C318.889 235.99 318.652 235.95 318.425 235.87C318.205 235.79 318.015 235.67 317.855 235.51L318.185 234.98C318.319 235.107 318.462 235.203 318.615 235.27C318.775 235.343 318.952 235.38 319.145 235.38C319.379 235.38 319.579 235.313 319.745 235.18C319.919 235.053 320.082 234.827 320.235 234.5L320.575 233.73L320.655 233.62L322.815 228.75H323.515L320.885 234.63C320.739 234.97 320.575 235.24 320.395 235.44C320.222 235.64 320.032 235.78 319.825 235.86C319.619 235.947 319.389 235.99 319.135 235.99ZM320.535 234.15L318.115 228.75H318.855L320.995 233.57L320.535 234.15Z" fill="black"/>
<path d="M181.07 159.06C180.55 159.06 180.05 158.977 179.57 158.81C179.097 158.637 178.73 158.417 178.47 158.15L178.76 157.58C179.007 157.82 179.337 158.023 179.75 158.19C180.17 158.35 180.61 158.43 181.07 158.43C181.51 158.43 181.867 158.377 182.14 158.27C182.42 158.157 182.623 158.007 182.75 157.82C182.883 157.633 182.95 157.427 182.95 157.2C182.95 156.927 182.87 156.707 182.71 156.54C182.557 156.373 182.353 156.243 182.1 156.15C181.847 156.05 181.567 155.963 181.26 155.89C180.953 155.817 180.647 155.74 180.34 155.66C180.033 155.573 179.75 155.46 179.49 155.32C179.237 155.18 179.03 154.997 178.87 154.77C178.717 154.537 178.64 154.233 178.64 153.86C178.64 153.513 178.73 153.197 178.91 152.91C179.097 152.617 179.38 152.383 179.76 152.21C180.14 152.03 180.627 151.94 181.22 151.94C181.613 151.94 182.003 151.997 182.39 152.11C182.777 152.217 183.11 152.367 183.39 152.56L183.14 153.15C182.84 152.95 182.52 152.803 182.18 152.71C181.847 152.617 181.523 152.57 181.21 152.57C180.79 152.57 180.443 152.627 180.17 152.74C179.897 152.853 179.693 153.007 179.56 153.2C179.433 153.387 179.37 153.6 179.37 153.84C179.37 154.113 179.447 154.333 179.6 154.5C179.76 154.667 179.967 154.797 180.22 154.89C180.48 154.983 180.763 155.067 181.07 155.14C181.377 155.213 181.68 155.293 181.98 155.38C182.287 155.467 182.567 155.58 182.82 155.72C183.08 155.853 183.287 156.033 183.44 156.26C183.6 156.487 183.68 156.783 183.68 157.15C183.68 157.49 183.587 157.807 183.4 158.1C183.213 158.387 182.927 158.62 182.54 158.8C182.16 158.973 181.67 159.06 181.07 159.06ZM180.99 161.2C180.823 161.2 180.67 161.18 180.53 161.14C180.397 161.1 180.27 161.043 180.15 160.97L180.32 160.59C180.42 160.65 180.523 160.697 180.63 160.73C180.743 160.763 180.86 160.78 180.98 160.78C181.18 160.78 181.333 160.737 181.44 160.65C181.547 160.57 181.6 160.457 181.6 160.31C181.6 160.177 181.547 160.067 181.44 159.98C181.34 159.893 181.187 159.85 180.98 159.85H180.75L180.99 158.94H181.42L181.27 159.52C181.543 159.54 181.753 159.623 181.9 159.77C182.047 159.923 182.12 160.11 182.12 160.33C182.12 160.597 182.013 160.807 181.8 160.96C181.593 161.12 181.323 161.2 180.99 161.2ZM186.972 153.7C187.519 153.7 187.999 153.817 188.412 154.05C188.826 154.277 189.149 154.59 189.382 154.99C189.616 155.39 189.732 155.85 189.732 156.37C189.732 156.89 189.619 157.353 189.392 157.76C189.172 158.16 188.869 158.477 188.482 158.71C188.096 158.937 187.656 159.05 187.162 159.05C186.669 159.05 186.229 158.937 185.842 158.71C185.462 158.483 185.162 158.17 184.942 157.77C184.722 157.363 184.612 156.897 184.612 156.37C184.612 156.343 184.612 156.31 184.612 156.27C184.619 156.23 184.622 156.193 184.622 156.16H189.192V156.69H185.002L185.282 156.48C185.282 156.853 185.362 157.19 185.522 157.49C185.689 157.783 185.912 158.017 186.192 158.19C186.472 158.357 186.796 158.44 187.162 158.44C187.529 158.44 187.852 158.357 188.132 158.19C188.419 158.017 188.642 157.78 188.802 157.48C188.962 157.18 189.042 156.84 189.042 156.46V156.34C189.042 155.94 188.952 155.59 188.772 155.29C188.599 154.99 188.356 154.753 188.042 154.58C187.729 154.407 187.366 154.32 186.952 154.32C186.626 154.32 186.326 154.377 186.052 154.49C185.779 154.603 185.542 154.78 185.342 155.02L184.942 154.55C185.182 154.27 185.476 154.06 185.822 153.92C186.176 153.773 186.559 153.7 186.972 153.7ZM197.738 153.7C198.164 153.7 198.534 153.783 198.848 153.95C199.168 154.11 199.414 154.357 199.588 154.69C199.768 155.023 199.858 155.443 199.858 155.95V159H199.148V156.02C199.148 155.467 199.014 155.05 198.748 154.77C198.488 154.483 198.118 154.34 197.638 154.34C197.278 154.34 196.964 154.417 196.698 154.57C196.438 154.717 196.234 154.933 196.088 155.22C195.948 155.5 195.878 155.84 195.878 156.24V159H195.168V156.02C195.168 155.467 195.034 155.05 194.768 154.77C194.501 154.483 194.128 154.34 193.648 154.34C193.294 154.34 192.984 154.417 192.718 154.57C192.451 154.717 192.244 154.933 192.098 155.22C191.958 155.5 191.888 155.84 191.888 156.24V159H191.178V153.75H191.858V155.17L191.748 154.92C191.908 154.54 192.164 154.243 192.518 154.03C192.878 153.81 193.301 153.7 193.788 153.7C194.301 153.7 194.738 153.83 195.098 154.09C195.458 154.343 195.691 154.727 195.798 155.24L195.518 155.13C195.671 154.703 195.941 154.36 196.328 154.1C196.721 153.833 197.191 153.7 197.738 153.7ZM202.343 157.64L202.363 156.73L205.633 153.75H206.503L204.193 155.96L203.793 156.3L202.343 157.64ZM201.783 159V151.58H202.493V159H201.783ZM205.853 159L203.663 156.27L204.123 155.72L206.723 159H205.853ZM207.789 159V153.75H208.499V159H207.789ZM208.149 152.59C208.002 152.59 207.879 152.54 207.779 152.44C207.679 152.34 207.629 152.22 207.629 152.08C207.629 151.94 207.679 151.823 207.779 151.73C207.879 151.63 208.002 151.58 208.149 151.58C208.295 151.58 208.419 151.627 208.519 151.72C208.619 151.813 208.669 151.93 208.669 152.07C208.669 152.217 208.619 152.34 208.519 152.44C208.425 152.54 208.302 152.59 208.149 152.59ZM210.474 159V153.75H211.154V155.18L211.084 154.93C211.231 154.53 211.478 154.227 211.824 154.02C212.171 153.807 212.601 153.7 213.114 153.7V154.39C213.088 154.39 213.061 154.39 213.034 154.39C213.008 154.383 212.981 154.38 212.954 154.38C212.401 154.38 211.968 154.55 211.654 154.89C211.341 155.223 211.184 155.7 211.184 156.32V159H210.474Z" fill="black"/>
<path d="M136.5 136V129.64H134.04V129H139.7V129.64H137.24V136H136.5ZM142.325 136.05C141.819 136.05 141.362 135.937 140.955 135.71C140.555 135.477 140.239 135.16 140.005 134.76C139.772 134.353 139.655 133.89 139.655 133.37C139.655 132.843 139.772 132.38 140.005 131.98C140.239 131.58 140.555 131.267 140.955 131.04C141.355 130.813 141.812 130.7 142.325 130.7C142.845 130.7 143.305 130.813 143.705 131.04C144.112 131.267 144.429 131.58 144.655 131.98C144.889 132.38 145.005 132.843 145.005 133.37C145.005 133.89 144.889 134.353 144.655 134.76C144.429 135.16 144.112 135.477 143.705 135.71C143.299 135.937 142.839 136.05 142.325 136.05ZM142.325 135.42C142.705 135.42 143.042 135.337 143.335 135.17C143.629 134.997 143.859 134.757 144.025 134.45C144.199 134.137 144.285 133.777 144.285 133.37C144.285 132.957 144.199 132.597 144.025 132.29C143.859 131.983 143.629 131.747 143.335 131.58C143.042 131.407 142.709 131.32 142.335 131.32C141.962 131.32 141.629 131.407 141.335 131.58C141.042 131.747 140.809 131.983 140.635 132.29C140.462 132.597 140.375 132.957 140.375 133.37C140.375 133.777 140.462 134.137 140.635 134.45C140.809 134.757 141.042 134.997 141.335 135.17C141.629 135.337 141.959 135.42 142.325 135.42ZM147.658 136L145.328 130.75H146.068L148.208 135.62H147.858L150.028 130.75H150.728L148.388 136H147.658ZM153.898 136.05C153.452 136.05 153.062 135.967 152.728 135.8C152.395 135.633 152.135 135.383 151.948 135.05C151.768 134.717 151.678 134.3 151.678 133.8V130.75H152.388V133.72C152.388 134.28 152.525 134.703 152.798 134.99C153.078 135.27 153.468 135.41 153.968 135.41C154.335 135.41 154.652 135.337 154.918 135.19C155.192 135.037 155.398 134.817 155.538 134.53C155.685 134.243 155.758 133.9 155.758 133.5V130.75H156.468V136H155.788V134.56L155.898 134.82C155.732 135.207 155.472 135.51 155.118 135.73C154.772 135.943 154.365 136.05 153.898 136.05ZM157.877 136V135.53L161.377 131.1L161.527 131.34H157.937V130.75H162.087V131.21L158.597 135.65L158.417 135.41H162.157V136H157.877Z" fill="black"/>
<path d="M109.21 218.06C108.677 218.06 108.183 217.973 107.73 217.8C107.283 217.62 106.893 217.37 106.56 217.05C106.233 216.73 105.977 216.353 105.79 215.92C105.61 215.487 105.52 215.013 105.52 214.5C105.52 213.987 105.61 213.513 105.79 213.08C105.977 212.647 106.237 212.27 106.57 211.95C106.903 211.63 107.293 211.383 107.74 211.21C108.193 211.03 108.687 210.94 109.22 210.94C109.753 210.94 110.24 211.023 110.68 211.19C111.127 211.357 111.507 211.61 111.82 211.95L111.36 212.42C111.067 212.127 110.743 211.917 110.39 211.79C110.037 211.663 109.657 211.6 109.25 211.6C108.817 211.6 108.417 211.673 108.05 211.82C107.69 211.96 107.373 212.163 107.1 212.43C106.833 212.69 106.623 212.997 106.47 213.35C106.323 213.697 106.25 214.08 106.25 214.5C106.25 214.913 106.323 215.297 106.47 215.65C106.623 216.003 106.833 216.313 107.1 216.58C107.373 216.84 107.69 217.043 108.05 217.19C108.417 217.33 108.813 217.4 109.24 217.4C109.64 217.4 110.017 217.34 110.37 217.22C110.73 217.1 111.06 216.897 111.36 216.61L111.78 217.17C111.447 217.463 111.057 217.687 110.61 217.84C110.163 217.987 109.697 218.06 109.21 218.06ZM111.07 217.08V214.5H111.78V217.17L111.07 217.08ZM115.554 212.7C116.101 212.7 116.581 212.817 116.994 213.05C117.408 213.277 117.731 213.59 117.964 213.99C118.198 214.39 118.314 214.85 118.314 215.37C118.314 215.89 118.201 216.353 117.974 216.76C117.754 217.16 117.451 217.477 117.064 217.71C116.678 217.937 116.238 218.05 115.744 218.05C115.251 218.05 114.811 217.937 114.424 217.71C114.044 217.483 113.744 217.17 113.524 216.77C113.304 216.363 113.194 215.897 113.194 215.37C113.194 215.343 113.194 215.31 113.194 215.27C113.201 215.23 113.204 215.193 113.204 215.16H117.774V215.69H113.584L113.864 215.48C113.864 215.853 113.944 216.19 114.104 216.49C114.271 216.783 114.494 217.017 114.774 217.19C115.054 217.357 115.378 217.44 115.744 217.44C116.111 217.44 116.434 217.357 116.714 217.19C117.001 217.017 117.224 216.78 117.384 216.48C117.544 216.18 117.624 215.84 117.624 215.46V215.34C117.624 214.94 117.534 214.59 117.354 214.29C117.181 213.99 116.938 213.753 116.624 213.58C116.311 213.407 115.948 213.32 115.534 213.32C115.208 213.32 114.908 213.377 114.634 213.49C114.361 213.603 114.124 213.78 113.924 214.02L113.524 213.55C113.764 213.27 114.058 213.06 114.404 212.92C114.758 212.773 115.141 212.7 115.554 212.7ZM121.85 218.05C121.35 218.05 120.9 217.937 120.5 217.71C120.106 217.483 119.796 217.17 119.57 216.77C119.343 216.363 119.23 215.897 119.23 215.37C119.23 214.837 119.343 214.37 119.57 213.97C119.796 213.57 120.106 213.26 120.5 213.04C120.9 212.813 121.35 212.7 121.85 212.7C122.31 212.7 122.72 212.803 123.08 213.01C123.446 213.217 123.736 213.52 123.95 213.92C124.17 214.313 124.28 214.797 124.28 215.37C124.28 215.937 124.173 216.42 123.96 216.82C123.746 217.22 123.456 217.527 123.09 217.74C122.73 217.947 122.316 218.05 121.85 218.05ZM121.9 217.42C122.273 217.42 122.606 217.337 122.9 217.17C123.2 216.997 123.433 216.757 123.6 216.45C123.773 216.137 123.86 215.777 123.86 215.37C123.86 214.957 123.773 214.597 123.6 214.29C123.433 213.983 123.2 213.747 122.9 213.58C122.606 213.407 122.273 213.32 121.9 213.32C121.533 213.32 121.203 213.407 120.91 213.58C120.616 213.747 120.383 213.983 120.21 214.29C120.036 214.597 119.95 214.957 119.95 215.37C119.95 215.777 120.036 216.137 120.21 216.45C120.383 216.757 120.616 216.997 120.91 217.17C121.203 217.337 121.533 217.42 121.9 217.42ZM123.88 218V216.42L123.95 215.36L123.85 214.3V210.58H124.56V218H123.88ZM128.367 212.7C128.914 212.7 129.394 212.817 129.807 213.05C130.22 213.277 130.544 213.59 130.777 213.99C131.01 214.39 131.127 214.85 131.127 215.37C131.127 215.89 131.014 216.353 130.787 216.76C130.567 217.16 130.264 217.477 129.877 217.71C129.49 217.937 129.05 218.05 128.557 218.05C128.064 218.05 127.624 217.937 127.237 217.71C126.857 217.483 126.557 217.17 126.337 216.77C126.117 216.363 126.007 215.897 126.007 215.37C126.007 215.343 126.007 215.31 126.007 215.27C126.014 215.23 126.017 215.193 126.017 215.16H130.587V215.69H126.397L126.677 215.48C126.677 215.853 126.757 216.19 126.917 216.49C127.084 216.783 127.307 217.017 127.587 217.19C127.867 217.357 128.19 217.44 128.557 217.44C128.924 217.44 129.247 217.357 129.527 217.19C129.814 217.017 130.037 216.78 130.197 216.48C130.357 216.18 130.437 215.84 130.437 215.46V215.34C130.437 214.94 130.347 214.59 130.167 214.29C129.994 213.99 129.75 213.753 129.437 213.58C129.124 213.407 128.76 213.32 128.347 213.32C128.02 213.32 127.72 213.377 127.447 213.49C127.174 213.603 126.937 213.78 126.737 214.02L126.337 213.55C126.577 213.27 126.87 213.06 127.217 212.92C127.57 212.773 127.954 212.7 128.367 212.7ZM135.282 218.05C134.822 218.05 134.409 217.947 134.042 217.74C133.675 217.527 133.385 217.22 133.172 216.82C132.959 216.42 132.852 215.937 132.852 215.37C132.852 214.797 132.959 214.313 133.172 213.92C133.392 213.52 133.685 213.217 134.052 213.01C134.419 212.803 134.829 212.7 135.282 212.7C135.782 212.7 136.229 212.813 136.622 213.04C137.022 213.26 137.335 213.57 137.562 213.97C137.789 214.37 137.902 214.837 137.902 215.37C137.902 215.897 137.789 216.363 137.562 216.77C137.335 217.17 137.022 217.483 136.622 217.71C136.229 217.937 135.782 218.05 135.282 218.05ZM132.572 218V210.58H133.282V214.3L133.182 215.36L133.252 216.42V218H132.572ZM135.232 217.42C135.605 217.42 135.939 217.337 136.232 217.17C136.525 216.997 136.759 216.757 136.932 216.45C137.105 216.137 137.192 215.777 137.192 215.37C137.192 214.957 137.105 214.597 136.932 214.29C136.759 213.983 136.525 213.747 136.232 213.58C135.939 213.407 135.605 213.32 135.232 213.32C134.859 213.32 134.522 213.407 134.222 213.58C133.929 213.747 133.695 213.983 133.522 214.29C133.355 214.597 133.272 214.957 133.272 215.37C133.272 215.777 133.355 216.137 133.522 216.45C133.695 216.757 133.929 216.997 134.222 217.17C134.522 217.337 134.859 217.42 135.232 217.42ZM141.179 212.7C141.726 212.7 142.206 212.817 142.619 213.05C143.033 213.277 143.356 213.59 143.589 213.99C143.823 214.39 143.939 214.85 143.939 215.37C143.939 215.89 143.826 216.353 143.599 216.76C143.379 217.16 143.076 217.477 142.689 217.71C142.303 217.937 141.863 218.05 141.369 218.05C140.876 218.05 140.436 217.937 140.049 217.71C139.669 217.483 139.369 217.17 139.149 216.77C138.929 216.363 138.819 215.897 138.819 215.37C138.819 215.343 138.819 215.31 138.819 215.27C138.826 215.23 138.829 215.193 138.829 215.16H143.399V215.69H139.209L139.489 215.48C139.489 215.853 139.569 216.19 139.729 216.49C139.896 216.783 140.119 217.017 140.399 217.19C140.679 217.357 141.003 217.44 141.369 217.44C141.736 217.44 142.059 217.357 142.339 217.19C142.626 217.017 142.849 216.78 143.009 216.48C143.169 216.18 143.249 215.84 143.249 215.46V215.34C143.249 214.94 143.159 214.59 142.979 214.29C142.806 213.99 142.563 213.753 142.249 213.58C141.936 213.407 141.573 213.32 141.159 213.32C140.833 213.32 140.533 213.377 140.259 213.49C139.986 213.603 139.749 213.78 139.549 214.02L139.149 213.55C139.389 213.27 139.683 213.06 140.029 212.92C140.383 212.773 140.766 212.7 141.179 212.7ZM145.278 219.99C145.031 219.99 144.795 219.95 144.568 219.87C144.348 219.79 144.158 219.67 143.998 219.51L144.328 218.98C144.461 219.107 144.605 219.203 144.758 219.27C144.918 219.343 145.095 219.38 145.288 219.38C145.521 219.38 145.721 219.313 145.888 219.18C146.061 219.053 146.225 218.827 146.378 218.5L146.718 217.73L146.798 217.62L148.958 212.75H149.658L147.028 218.63C146.881 218.97 146.718 219.24 146.538 219.44C146.365 219.64 146.175 219.78 145.968 219.86C145.761 219.947 145.531 219.99 145.278 219.99ZM146.678 218.15L144.258 212.75H144.998L147.138 217.57L146.678 218.15Z" fill="black"/>
<path d="M81.2 84.06C80.6733 84.06 80.1833 83.9733 79.73 83.8C79.2833 83.62 78.8933 83.37 78.56 83.05C78.2333 82.7233 77.9767 82.3467 77.79 81.92C77.61 81.4867 77.52 81.0133 77.52 80.5C77.52 79.9867 77.61 79.5167 77.79 79.09C77.9767 78.6567 78.2333 78.28 78.56 77.96C78.8933 77.6333 79.2833 77.3833 79.73 77.21C80.1767 77.03 80.6667 76.94 81.2 76.94C81.7267 76.94 82.2133 77.03 82.66 77.21C83.1067 77.3833 83.4933 77.63 83.82 77.95C84.1533 78.27 84.41 78.6467 84.59 79.08C84.7767 79.5133 84.87 79.9867 84.87 80.5C84.87 81.0133 84.7767 81.4867 84.59 81.92C84.41 82.3533 84.1533 82.73 83.82 83.05C83.4933 83.37 83.1067 83.62 82.66 83.8C82.2133 83.9733 81.7267 84.06 81.2 84.06ZM83.49 85.39C83.2767 85.39 83.07 85.3633 82.87 85.31C82.67 85.2567 82.4667 85.17 82.26 85.05C82.06 84.9367 81.8533 84.7867 81.64 84.6C81.4267 84.4133 81.1933 84.1867 80.94 83.92L81.75 83.72C81.9567 83.9667 82.1567 84.17 82.35 84.33C82.55 84.49 82.7433 84.6067 82.93 84.68C83.1233 84.76 83.3133 84.8 83.5 84.8C84.02 84.8 84.4633 84.5867 84.83 84.16L85.19 84.59C84.75 85.1233 84.1833 85.39 83.49 85.39ZM81.2 83.4C81.62 83.4 82.0067 83.33 82.36 83.19C82.72 83.0433 83.03 82.8367 83.29 82.57C83.5567 82.3033 83.7633 81.9967 83.91 81.65C84.0567 81.2967 84.13 80.9133 84.13 80.5C84.13 80.08 84.0567 79.6967 83.91 79.35C83.7633 78.9967 83.5567 78.69 83.29 78.43C83.03 78.1633 82.72 77.96 82.36 77.82C82.0067 77.6733 81.62 77.6 81.2 77.6C80.78 77.6 80.39 77.6733 80.03 77.82C79.67 77.96 79.3567 78.1633 79.09 78.43C78.83 78.69 78.6233 78.9967 78.47 79.35C78.3233 79.6967 78.25 80.08 78.25 80.5C78.25 80.9133 78.3233 81.2967 78.47 81.65C78.6233 81.9967 78.83 82.3033 79.09 82.57C79.3567 82.8367 79.67 83.0433 80.03 83.19C80.39 83.33 80.78 83.4 81.2 83.4ZM89.6687 84V82.84L89.6387 82.65V80.71C89.6387 80.2633 89.512 79.92 89.2587 79.68C89.012 79.44 88.642 79.32 88.1487 79.32C87.8087 79.32 87.4853 79.3767 87.1787 79.49C86.872 79.6033 86.612 79.7533 86.3987 79.94L86.0787 79.41C86.3453 79.1833 86.6653 79.01 87.0387 78.89C87.412 78.7633 87.8053 78.7 88.2187 78.7C88.8987 78.7 89.422 78.87 89.7887 79.21C90.162 79.5433 90.3487 80.0533 90.3487 80.74V84H89.6687ZM87.8587 84.05C87.4653 84.05 87.122 83.9867 86.8287 83.86C86.542 83.7267 86.322 83.5467 86.1687 83.32C86.0153 83.0867 85.9387 82.82 85.9387 82.52C85.9387 82.2467 86.002 82 86.1287 81.78C86.262 81.5533 86.4753 81.3733 86.7687 81.24C87.0687 81.1 87.4687 81.03 87.9687 81.03H89.7787V81.56H87.9887C87.482 81.56 87.1287 81.65 86.9287 81.83C86.7353 82.01 86.6387 82.2333 86.6387 82.5C86.6387 82.8 86.7553 83.04 86.9887 83.22C87.222 83.4 87.5487 83.49 87.9687 83.49C88.3687 83.49 88.712 83.4 88.9987 83.22C89.292 83.0333 89.5053 82.7667 89.6387 82.42L89.7987 82.91C89.6653 83.2567 89.432 83.5333 89.0987 83.74C88.772 83.9467 88.3587 84.05 87.8587 84.05ZM91.7071 84V83.53L95.2071 79.1L95.3571 79.34H91.7671V78.75H95.9171V79.21L92.4271 83.65L92.2471 83.41H95.9871V84H91.7071ZM100.675 84V82.84L100.645 82.65V80.71C100.645 80.2633 100.518 79.92 100.265 79.68C100.018 79.44 99.6479 79.32 99.1545 79.32C98.8145 79.32 98.4912 79.3767 98.1845 79.49C97.8779 79.6033 97.6179 79.7533 97.4045 79.94L97.0845 79.41C97.3512 79.1833 97.6712 79.01 98.0445 78.89C98.4179 78.7633 98.8112 78.7 99.2245 78.7C99.9045 78.7 100.428 78.87 100.795 79.21C101.168 79.5433 101.355 80.0533 101.355 80.74V84H100.675ZM98.8645 84.05C98.4712 84.05 98.1279 83.9867 97.8345 83.86C97.5479 83.7267 97.3279 83.5467 97.1745 83.32C97.0212 83.0867 96.9445 82.82 96.9445 82.52C96.9445 82.2467 97.0079 82 97.1345 81.78C97.2679 81.5533 97.4812 81.3733 97.7745 81.24C98.0745 81.1 98.4745 81.03 98.9745 81.03H100.785V81.56H98.9945C98.4879 81.56 98.1345 81.65 97.9345 81.83C97.7412 82.01 97.6445 82.2333 97.6445 82.5C97.6445 82.8 97.7612 83.04 97.9945 83.22C98.2279 83.4 98.5545 83.49 98.9745 83.49C99.3745 83.49 99.7179 83.4 100.005 83.22C100.298 83.0333 100.511 82.7667 100.645 82.42L100.805 82.91C100.671 83.2567 100.438 83.5333 100.105 83.74C99.7779 83.9467 99.3645 84.05 98.8645 84.05ZM102.483 84L104.703 81.12L104.693 81.47L102.583 78.75H103.383L105.113 81L104.813 80.99L106.543 78.75H107.323L105.193 81.5L105.203 81.12L107.443 84H106.633L104.803 81.6L105.083 81.64L103.283 84H102.483Z" fill="black"/>
<path d="M55.02 51L58.22 44H58.95L62.15 51H61.37L58.43 44.43H58.73L55.79 51H55.02ZM56.28 49.13L56.5 48.53H60.57L60.79 49.13H56.28ZM65.3491 52.99C64.8691 52.99 64.4091 52.92 63.9691 52.78C63.5291 52.64 63.1725 52.44 62.8991 52.18L63.2591 51.64C63.5058 51.86 63.8091 52.0333 64.1691 52.16C64.5358 52.2933 64.9225 52.36 65.3291 52.36C65.9958 52.36 66.4858 52.2033 66.7991 51.89C67.1125 51.5833 67.2691 51.1033 67.2691 50.45V49.14L67.3691 48.24L67.2991 47.34V45.75H67.9791V50.36C67.9791 51.2667 67.7558 51.93 67.3091 52.35C66.8691 52.7767 66.2158 52.99 65.3491 52.99ZM65.2191 50.8C64.7191 50.8 64.2691 50.6933 63.8691 50.48C63.4691 50.26 63.1525 49.9567 62.9191 49.57C62.6925 49.1833 62.5791 48.74 62.5791 48.24C62.5791 47.74 62.6925 47.3 62.9191 46.92C63.1525 46.5333 63.4691 46.2333 63.8691 46.02C64.2691 45.8067 64.7191 45.7 65.2191 45.7C65.6858 45.7 66.1058 45.7967 66.4791 45.99C66.8525 46.1833 67.1491 46.47 67.3691 46.85C67.5891 47.23 67.6991 47.6933 67.6991 48.24C67.6991 48.7867 67.5891 49.25 67.3691 49.63C67.1491 50.01 66.8525 50.3 66.4791 50.5C66.1058 50.7 65.6858 50.8 65.2191 50.8ZM65.2891 50.17C65.6758 50.17 66.0191 50.09 66.3191 49.93C66.6191 49.7633 66.8558 49.5367 67.0291 49.25C67.2025 48.9567 67.2891 48.62 67.2891 48.24C67.2891 47.86 67.2025 47.5267 67.0291 47.24C66.8558 46.9533 66.6191 46.73 66.3191 46.57C66.0191 46.4033 65.6758 46.32 65.2891 46.32C64.9091 46.32 64.5658 46.4033 64.2591 46.57C63.9591 46.73 63.7225 46.9533 63.5491 47.24C63.3825 47.5267 63.2991 47.86 63.2991 48.24C63.2991 48.62 63.3825 48.9567 63.5491 49.25C63.7225 49.5367 63.9591 49.7633 64.2591 49.93C64.5658 50.09 64.9091 50.17 65.2891 50.17ZM65.3691 44.98C64.9491 44.98 64.5925 44.8667 64.2991 44.64C64.0125 44.4067 63.8625 44.09 63.8491 43.69H64.3491C64.3625 43.95 64.4658 44.1567 64.6591 44.31C64.8591 44.4633 65.0958 44.54 65.3691 44.54C65.6491 44.54 65.8858 44.4633 66.0791 44.31C66.2791 44.1567 66.3825 43.95 66.3891 43.69H66.8891C66.8758 44.09 66.7225 44.4067 66.4291 44.64C66.1425 44.8667 65.7891 44.98 65.3691 44.98ZM71.3648 51.05C70.9315 51.05 70.5215 50.99 70.1348 50.87C69.7482 50.7433 69.4448 50.5867 69.2248 50.4L69.5448 49.84C69.7582 50 70.0315 50.14 70.3648 50.26C70.6982 50.3733 71.0482 50.43 71.4148 50.43C71.9148 50.43 72.2748 50.3533 72.4948 50.2C72.7148 50.04 72.8248 49.83 72.8248 49.57C72.8248 49.3767 72.7615 49.2267 72.6348 49.12C72.5148 49.0067 72.3548 48.9233 72.1548 48.87C71.9548 48.81 71.7315 48.76 71.4848 48.72C71.2382 48.68 70.9915 48.6333 70.7448 48.58C70.5048 48.5267 70.2848 48.45 70.0848 48.35C69.8848 48.2433 69.7215 48.1 69.5948 47.92C69.4748 47.74 69.4148 47.5 69.4148 47.2C69.4148 46.9133 69.4948 46.6567 69.6548 46.43C69.8148 46.2033 70.0482 46.0267 70.3548 45.9C70.6682 45.7667 71.0482 45.7 71.4948 45.7C71.8348 45.7 72.1748 45.7467 72.5148 45.84C72.8548 45.9267 73.1348 46.0433 73.3548 46.19L73.0448 46.76C72.8115 46.6 72.5615 46.4867 72.2948 46.42C72.0282 46.3467 71.7615 46.31 71.4948 46.31C71.0215 46.31 70.6715 46.3933 70.4448 46.56C70.2248 46.72 70.1148 46.9267 70.1148 47.18C70.1148 47.38 70.1748 47.5367 70.2948 47.65C70.4215 47.7633 70.5848 47.8533 70.7848 47.92C70.9915 47.98 71.2148 48.03 71.4548 48.07C71.7015 48.11 71.9448 48.16 72.1848 48.22C72.4315 48.2733 72.6548 48.35 72.8548 48.45C73.0615 48.5433 73.2248 48.68 73.3448 48.86C73.4715 49.0333 73.5348 49.2633 73.5348 49.55C73.5348 49.8567 73.4482 50.1233 73.2748 50.35C73.1082 50.57 72.8615 50.7433 72.5348 50.87C72.2148 50.99 71.8248 51.05 71.3648 51.05ZM76.4977 51.05C76.0043 51.05 75.6243 50.9167 75.3577 50.65C75.091 50.3833 74.9577 50.0067 74.9577 49.52V44.59H75.6677V49.48C75.6677 49.7867 75.7443 50.0233 75.8977 50.19C76.0577 50.3567 76.2843 50.44 76.5777 50.44C76.891 50.44 77.151 50.35 77.3577 50.17L77.6077 50.68C77.4677 50.8067 77.2977 50.9 77.0977 50.96C76.9043 51.02 76.7043 51.05 76.4977 51.05ZM74.0177 46.34V45.75H77.2677V46.34H74.0177ZM82.1902 51V49.84L82.1602 49.65V47.71C82.1602 47.2633 82.0335 46.92 81.7802 46.68C81.5335 46.44 81.1635 46.32 80.6702 46.32C80.3302 46.32 80.0068 46.3767 79.7002 46.49C79.3935 46.6033 79.1335 46.7533 78.9202 46.94L78.6002 46.41C78.8668 46.1833 79.1868 46.01 79.5602 45.89C79.9335 45.7633 80.3268 45.7 80.7402 45.7C81.4202 45.7 81.9435 45.87 82.3102 46.21C82.6835 46.5433 82.8702 47.0533 82.8702 47.74V51H82.1902ZM80.3802 51.05C79.9868 51.05 79.6435 50.9867 79.3502 50.86C79.0635 50.7267 78.8435 50.5467 78.6902 50.32C78.5368 50.0867 78.4602 49.82 78.4602 49.52C78.4602 49.2467 78.5235 49 78.6502 48.78C78.7835 48.5533 78.9968 48.3733 79.2902 48.24C79.5902 48.1 79.9902 48.03 80.4902 48.03H82.3002V48.56H80.5102C80.0035 48.56 79.6502 48.65 79.4502 48.83C79.2568 49.01 79.1602 49.2333 79.1602 49.5C79.1602 49.8 79.2768 50.04 79.5102 50.22C79.7435 50.4 80.0702 50.49 80.4902 50.49C80.8902 50.49 81.2335 50.4 81.5202 50.22C81.8135 50.0333 82.0268 49.7667 82.1602 49.42L82.3202 49.91C82.1868 50.2567 81.9535 50.5333 81.6202 50.74C81.2935 50.9467 80.8802 51.05 80.3802 51.05ZM84.9186 51V45.09C84.9186 44.6233 85.0553 44.2467 85.3286 43.96C85.6019 43.6733 85.9953 43.53 86.5086 43.53C86.7086 43.53 86.9019 43.5567 87.0886 43.61C87.2753 43.6633 87.4319 43.7467 87.5586 43.86L87.3186 44.39C87.2186 44.3033 87.1019 44.24 86.9686 44.2C86.8353 44.1533 86.6919 44.13 86.5386 44.13C86.2386 44.13 86.0086 44.2133 85.8486 44.38C85.6886 44.5467 85.6086 44.7933 85.6086 45.12V45.92L85.6286 46.25V51H84.9186ZM83.9786 46.34V45.75H87.2286V46.34H83.9786ZM91.3796 51V49.84L91.3496 49.65V47.71C91.3496 47.2633 91.2229 46.92 90.9696 46.68C90.7229 46.44 90.3529 46.32 89.8596 46.32C89.5196 46.32 89.1963 46.3767 88.8896 46.49C88.5829 46.6033 88.3229 46.7533 88.1096 46.94L87.7896 46.41C88.0563 46.1833 88.3763 46.01 88.7496 45.89C89.1229 45.7633 89.5163 45.7 89.9296 45.7C90.6096 45.7 91.1329 45.87 91.4996 46.21C91.8729 46.5433 92.0596 47.0533 92.0596 47.74V51H91.3796ZM89.5696 51.05C89.1763 51.05 88.8329 50.9867 88.5396 50.86C88.2529 50.7267 88.0329 50.5467 87.8796 50.32C87.7263 50.0867 87.6496 49.82 87.6496 49.52C87.6496 49.2467 87.7129 49 87.8396 48.78C87.9729 48.5533 88.1863 48.3733 88.4796 48.24C88.7796 48.1 89.1796 48.03 89.6796 48.03H91.4896V48.56H89.6996C89.1929 48.56 88.8396 48.65 88.6396 48.83C88.4463 49.01 88.3496 49.2333 88.3496 49.5C88.3496 49.8 88.4663 50.04 88.6996 50.22C88.9329 50.4 89.2596 50.49 89.6796 50.49C90.0796 50.49 90.4229 50.4 90.7096 50.22C91.0029 50.0333 91.2163 49.7667 91.3496 49.42L91.5096 49.91C91.3763 50.2567 91.1429 50.5333 90.8096 50.74C90.4829 50.9467 90.0696 51.05 89.5696 51.05Z" fill="black"/>
<path d="M182.14 248V241H184.99C185.737 241 186.39 241.15 186.95 241.45C187.517 241.743 187.957 242.153 188.27 242.68C188.583 243.207 188.74 243.813 188.74 244.5C188.74 245.187 188.583 245.793 188.27 246.32C187.957 246.847 187.517 247.26 186.95 247.56C186.39 247.853 185.737 248 184.99 248H182.14ZM182.88 247.36H184.95C185.57 247.36 186.107 247.24 186.56 247C187.02 246.753 187.377 246.417 187.63 245.99C187.883 245.557 188.01 245.06 188.01 244.5C188.01 243.933 187.883 243.437 187.63 243.01C187.377 242.583 187.02 242.25 186.56 242.01C186.107 241.763 185.57 241.64 184.95 241.64H182.88V247.36ZM193.542 248V246.84L193.512 246.65V244.71C193.512 244.263 193.385 243.92 193.132 243.68C192.885 243.44 192.515 243.32 192.022 243.32C191.682 243.32 191.358 243.377 191.052 243.49C190.745 243.603 190.485 243.753 190.272 243.94L189.952 243.41C190.218 243.183 190.538 243.01 190.912 242.89C191.285 242.763 191.678 242.7 192.092 242.7C192.772 242.7 193.295 242.87 193.662 243.21C194.035 243.543 194.222 244.053 194.222 244.74V248H193.542ZM191.732 248.05C191.338 248.05 190.995 247.987 190.702 247.86C190.415 247.727 190.195 247.547 190.042 247.32C189.888 247.087 189.812 246.82 189.812 246.52C189.812 246.247 189.875 246 190.002 245.78C190.135 245.553 190.348 245.373 190.642 245.24C190.942 245.1 191.342 245.03 191.842 245.03H193.652V245.56H191.862C191.355 245.56 191.002 245.65 190.802 245.83C190.608 246.01 190.512 246.233 190.512 246.5C190.512 246.8 190.628 247.04 190.862 247.22C191.095 247.4 191.422 247.49 191.842 247.49C192.242 247.49 192.585 247.4 192.872 247.22C193.165 247.033 193.378 246.767 193.512 246.42L193.672 246.91C193.538 247.257 193.305 247.533 192.972 247.74C192.645 247.947 192.232 248.05 191.732 248.05ZM197.56 248.05C197.127 248.05 196.717 247.99 196.33 247.87C195.943 247.743 195.64 247.587 195.42 247.4L195.74 246.84C195.953 247 196.227 247.14 196.56 247.26C196.893 247.373 197.243 247.43 197.61 247.43C198.11 247.43 198.47 247.353 198.69 247.2C198.91 247.04 199.02 246.83 199.02 246.57C199.02 246.377 198.957 246.227 198.83 246.12C198.71 246.007 198.55 245.923 198.35 245.87C198.15 245.81 197.927 245.76 197.68 245.72C197.433 245.68 197.187 245.633 196.94 245.58C196.7 245.527 196.48 245.45 196.28 245.35C196.08 245.243 195.917 245.1 195.79 244.92C195.67 244.74 195.61 244.5 195.61 244.2C195.61 243.913 195.69 243.657 195.85 243.43C196.01 243.203 196.243 243.027 196.55 242.9C196.863 242.767 197.243 242.7 197.69 242.7C198.03 242.7 198.37 242.747 198.71 242.84C199.05 242.927 199.33 243.043 199.55 243.19L199.24 243.76C199.007 243.6 198.757 243.487 198.49 243.42C198.223 243.347 197.957 243.31 197.69 243.31C197.217 243.31 196.867 243.393 196.64 243.56C196.42 243.72 196.31 243.927 196.31 244.18C196.31 244.38 196.37 244.537 196.49 244.65C196.617 244.763 196.78 244.853 196.98 244.92C197.187 244.98 197.41 245.03 197.65 245.07C197.897 245.11 198.14 245.16 198.38 245.22C198.627 245.273 198.85 245.35 199.05 245.45C199.257 245.543 199.42 245.68 199.54 245.86C199.667 246.033 199.73 246.263 199.73 246.55C199.73 246.857 199.643 247.123 199.47 247.35C199.303 247.57 199.057 247.743 198.73 247.87C198.41 247.99 198.02 248.05 197.56 248.05ZM197.37 250.2C197.203 250.2 197.05 250.18 196.91 250.14C196.777 250.1 196.65 250.043 196.53 249.97L196.7 249.59C196.8 249.65 196.903 249.697 197.01 249.73C197.123 249.763 197.24 249.78 197.36 249.78C197.56 249.78 197.713 249.737 197.82 249.65C197.927 249.57 197.98 249.457 197.98 249.31C197.98 249.177 197.927 249.067 197.82 248.98C197.72 248.893 197.567 248.85 197.36 248.85H197.13L197.37 247.94H197.8L197.65 248.52C197.923 248.54 198.133 248.623 198.28 248.77C198.427 248.923 198.5 249.11 198.5 249.33C198.5 249.597 198.393 249.807 198.18 249.96C197.973 250.12 197.703 250.2 197.37 250.2ZM201.593 246.64L201.613 245.73L204.883 242.75H205.753L203.443 244.96L203.043 245.3L201.593 246.64ZM201.033 248V240.58H201.743V248H201.033ZM205.103 248L202.913 245.27L203.373 244.72L205.973 248H205.103ZM208.664 242.7C209.21 242.7 209.69 242.817 210.104 243.05C210.517 243.277 210.84 243.59 211.074 243.99C211.307 244.39 211.424 244.85 211.424 245.37C211.424 245.89 211.31 246.353 211.084 246.76C210.864 247.16 210.56 247.477 210.174 247.71C209.787 247.937 209.347 248.05 208.854 248.05C208.36 248.05 207.92 247.937 207.534 247.71C207.154 247.483 206.854 247.17 206.634 246.77C206.414 246.363 206.304 245.897 206.304 245.37C206.304 245.343 206.304 245.31 206.304 245.27C206.31 245.23 206.314 245.193 206.314 245.16H210.884V245.69H206.694L206.974 245.48C206.974 245.853 207.054 246.19 207.214 246.49C207.38 246.783 207.604 247.017 207.884 247.19C208.164 247.357 208.487 247.44 208.854 247.44C209.22 247.44 209.544 247.357 209.824 247.19C210.11 247.017 210.334 246.78 210.494 246.48C210.654 246.18 210.734 245.84 210.734 245.46V245.34C210.734 244.94 210.644 244.59 210.464 244.29C210.29 243.99 210.047 243.753 209.734 243.58C209.42 243.407 209.057 243.32 208.644 243.32C208.317 243.32 208.017 243.377 207.744 243.49C207.47 243.603 207.234 243.78 207.034 244.02L206.634 243.55C206.874 243.27 207.167 243.06 207.514 242.92C207.867 242.773 208.25 242.7 208.664 242.7ZM214.279 248.05C213.846 248.05 213.436 247.99 213.049 247.87C212.662 247.743 212.359 247.587 212.139 247.4L212.459 246.84C212.672 247 212.946 247.14 213.279 247.26C213.612 247.373 213.962 247.43 214.329 247.43C214.829 247.43 215.189 247.353 215.409 247.2C215.629 247.04 215.739 246.83 215.739 246.57C215.739 246.377 215.676 246.227 215.549 246.12C215.429 246.007 215.269 245.923 215.069 245.87C214.869 245.81 214.646 245.76 214.399 245.72C214.152 245.68 213.906 245.633 213.659 245.58C213.419 245.527 213.199 245.45 212.999 245.35C212.799 245.243 212.636 245.1 212.509 244.92C212.389 244.74 212.329 244.5 212.329 244.2C212.329 243.913 212.409 243.657 212.569 243.43C212.729 243.203 212.962 243.027 213.269 242.9C213.582 242.767 213.962 242.7 214.409 242.7C214.749 242.7 215.089 242.747 215.429 242.84C215.769 242.927 216.049 243.043 216.269 243.19L215.959 243.76C215.726 243.6 215.476 243.487 215.209 243.42C214.942 243.347 214.676 243.31 214.409 243.31C213.936 243.31 213.586 243.393 213.359 243.56C213.139 243.72 213.029 243.927 213.029 244.18C213.029 244.38 213.089 244.537 213.209 244.65C213.336 244.763 213.499 244.853 213.699 244.92C213.906 244.98 214.129 245.03 214.369 245.07C214.616 245.11 214.859 245.16 215.099 245.22C215.346 245.273 215.569 245.35 215.769 245.45C215.976 245.543 216.139 245.68 216.259 245.86C216.386 246.033 216.449 246.263 216.449 246.55C216.449 246.857 216.362 247.123 216.189 247.35C216.022 247.57 215.776 247.743 215.449 247.87C215.129 247.99 214.739 248.05 214.279 248.05ZM219.582 242.7C220.128 242.7 220.608 242.817 221.022 243.05C221.435 243.277 221.758 243.59 221.992 243.99C222.225 244.39 222.342 244.85 222.342 245.37C222.342 245.89 222.228 246.353 222.002 246.76C221.782 247.16 221.478 247.477 221.092 247.71C220.705 247.937 220.265 248.05 219.772 248.05C219.278 248.05 218.838 247.937 218.452 247.71C218.072 247.483 217.772 247.17 217.552 246.77C217.332 246.363 217.222 245.897 217.222 245.37C217.222 245.343 217.222 245.31 217.222 245.27C217.228 245.23 217.232 245.193 217.232 245.16H221.802V245.69H217.612L217.892 245.48C217.892 245.853 217.972 246.19 218.132 246.49C218.298 246.783 218.522 247.017 218.802 247.19C219.082 247.357 219.405 247.44 219.772 247.44C220.138 247.44 220.462 247.357 220.742 247.19C221.028 247.017 221.252 246.78 221.412 246.48C221.572 246.18 221.652 245.84 221.652 245.46V245.34C221.652 244.94 221.562 244.59 221.382 244.29C221.208 243.99 220.965 243.753 220.652 243.58C220.338 243.407 219.975 243.32 219.562 243.32C219.235 243.32 218.935 243.377 218.662 243.49C218.388 243.603 218.152 243.78 217.952 244.02L217.552 243.55C217.792 243.27 218.085 243.06 218.432 242.92C218.785 242.773 219.168 242.7 219.582 242.7ZM226.467 242.7C226.894 242.7 227.267 242.783 227.587 242.95C227.914 243.11 228.167 243.357 228.347 243.69C228.534 244.023 228.627 244.443 228.627 244.95V248H227.917V245.02C227.917 244.467 227.777 244.05 227.497 243.77C227.224 243.483 226.837 243.34 226.337 243.34C225.964 243.34 225.637 243.417 225.357 243.57C225.084 243.717 224.87 243.933 224.717 244.22C224.57 244.5 224.497 244.84 224.497 245.24V248H223.787V242.75H224.467V244.19L224.357 243.92C224.524 243.54 224.79 243.243 225.157 243.03C225.524 242.81 225.96 242.7 226.467 242.7Z" fill="black"/>
</svg>
