<svg width="232" height="333" viewBox="0 0 232 333" fill="none" xmlns="http://www.w3.org/2000/svg">
<path d="M2.23219 78.6279L2 76.3389L13.1873 69.0577L42.2291 73.8922L54.5774 72.6759L56.9517 70.6692L58.1575 68.2107L60.2397 57.5819L60.8973 55.8268L64.8148 52.385L68.1853 47.8422L70.3409 42.1748L73.5467 27.2901L73.6649 25.9139L73.5467 24.5494L73.2186 23.2084L68.6795 17.1858L66.1405 14.7039L63.5654 13.3394L59.6929 13.5793L57.1822 14.3157L57.1987 14.224L58.7507 5.87939L68.696 2L79.8098 4.02088L92.0561 4.98541L104.414 3.75032L118.24 8.80833L133.043 11.0198L139.967 12.0902L152.761 14.0734L171.336 2.45407L170.678 6.54752L169.472 10.3751L167.684 11.8008L165.957 13.3888L165.143 21.8392L167.071 30.0991L168.643 37.6979L170.951 44.0781L175.016 42.7583L178.88 39.6764L189.465 40.7233L198.332 49.1643L202.844 52.7614L205.065 57.4407L206.337 60.3767L207.302 62.6069L211.476 67.3074L205.375 67.792L203.946 68.6083L200.226 70.7351L192.938 72.0431L186.499 75.4543L182.6 81.2534L177.103 84.4458L172.344 80.9546L166.93 78.2774L162.025 81.3146L157.889 83.8107L156.591 84.5941L154.143 91.4988L155.541 97.4508L159.595 100.121L163.24 103.612L169.36 116.366L172.382 130.792L174.208 137.96L174.868 142.472L175.258 145.149L174.309 147.06L172.344 151.007L169.952 157.319L170.655 163.448L174.572 164.956L177.996 166.616L181.047 169.334L188.382 168.461L189.651 166.322L193.81 159.316L193.841 159.265L198.645 157.608L203.505 158.114L205.996 163.104L206.6 167.492L206.891 169.607L198.945 170.912L195.994 174.295L194.233 176.314L197.281 179.664L197.735 182.15L198.231 184.889L198.351 185.541L195.009 190.401L190.114 193.77L194.459 194.64L198.743 195.28L202.459 194.367L206.177 193.396L209.234 195.635L210.461 197.628L211.392 199.141L210.821 200.926L209.655 204.58L206.515 209.16L202.341 213.211L201.209 220.297L203.73 225.292L207.1 230.392L207.702 237.925L210.442 244.409L216.496 248.004L222.315 252.217L228.388 260.145L229.979 266.408L230 266.495L229.96 266.514L227.276 268.765L224.874 271.56L220.336 279.479L219.33 280.876L217.923 282.017L215.001 283.612L213.631 284.755L211.486 288.124L208.517 295.036L205.613 297.836L195.366 303.084L192.142 305.809L189.787 308.872L184.809 319.218L182.781 322.472L180.335 325.199L177.594 327.466L174.744 329.264L170.918 330.814L167.729 331L161.592 317.995L160.843 315.339L160.669 312.572L160.97 309.756L161.592 306.992L161.849 306.338L161.975 305.62L164.295 298.391L164.805 292.013L163.82 285.548L161.59 278.055L157.318 274.597L151.435 271.245L146.913 266.73L146.742 259.712L150.815 255.889L157.005 256.692L167.745 262.164L169.919 261.846L178.111 255.984L181.829 255.842L183.38 255.075L182.767 253.478L182.541 252.888L181.355 251.518L180.187 250.443L172.64 245.126L168.368 240.605L166.65 237.238L165.719 233.599L164.413 230.279L161.59 227.939L148.878 222.241L143.09 217.733L140.66 210.541L142.977 204.648L148.584 201.169L161.527 198.731L161.59 198.717L163.729 197.675L164.934 195.995L164.998 193.85L163.783 191.434L163.839 187.644L165.903 185.748L168.478 184.148L170.067 181.233L169.538 177.452L167.374 174.486L164.441 172.566L161.592 171.938L150.432 173.006L146.944 172.401L144.295 170.479L140.131 164.821L137.628 162.768L131.581 162.328L119.506 168.536L113.37 169.816L109.443 168.593L106.851 166.104L102.703 158.211L100.155 155.065L97.1143 153.343L90.4112 151.395L84.8581 146.93L78.045 133.048L73.2141 128.314L62.0628 124.936L56.2387 121.946L52.4726 120.01L44.5092 112.037L43.1489 109.256L35.2485 92.9269L31.4225 88.6711L26.5915 86.2738L8.16134 84.3682L2.5544 81.8274L2.23219 78.6279Z" fill="#ECE7E2" stroke="#FFAC1C" stroke-width="3" stroke-linejoin="round"/>
<path d="M88.78 34.26L88.75 33.36L92.99 29H93.84L90.75 32.24L90.33 32.69L88.78 34.26ZM88.14 36V29H88.88V36H88.14ZM93.17 36L90.15 32.52L90.65 31.98L94.05 36H93.17ZM96.6852 30.7C97.2319 30.7 97.7119 30.8167 98.1252 31.05C98.5386 31.2767 98.8619 31.59 99.0952 31.99C99.3286 32.39 99.4452 32.85 99.4452 33.37C99.4452 33.89 99.3319 34.3533 99.1052 34.76C98.8852 35.16 98.5819 35.4767 98.1952 35.71C97.8086 35.9367 97.3686 36.05 96.8752 36.05C96.3819 36.05 95.9419 35.9367 95.5552 35.71C95.1752 35.4833 94.8752 35.17 94.6552 34.77C94.4352 34.3633 94.3252 33.8967 94.3252 33.37C94.3252 33.3433 94.3252 33.31 94.3252 33.27C94.3319 33.23 94.3352 33.1933 94.3352 33.16H98.9052V33.69H94.7152L94.9952 33.48C94.9952 33.8533 95.0752 34.19 95.2352 34.49C95.4019 34.7833 95.6252 35.0167 95.9052 35.19C96.1852 35.3567 96.5086 35.44 96.8752 35.44C97.2419 35.44 97.5652 35.3567 97.8452 35.19C98.1319 35.0167 98.3552 34.78 98.5152 34.48C98.6752 34.18 98.7552 33.84 98.7552 33.46V33.34C98.7552 32.94 98.6652 32.59 98.4852 32.29C98.3119 31.99 98.0686 31.7533 97.7552 31.58C97.4419 31.4067 97.0786 31.32 96.6652 31.32C96.3386 31.32 96.0386 31.3767 95.7652 31.49C95.4919 31.6033 95.2552 31.78 95.0552 32.02L94.6552 31.55C94.8952 31.27 95.1886 31.06 95.5352 30.92C95.8886 30.7733 96.2719 30.7 96.6852 30.7ZM100.89 36V28.58H101.6V36H100.89ZM106.286 36.05C105.826 36.05 105.413 35.9467 105.046 35.74C104.679 35.5267 104.389 35.22 104.176 34.82C103.963 34.42 103.856 33.9367 103.856 33.37C103.856 32.7967 103.963 32.3133 104.176 31.92C104.396 31.52 104.689 31.2167 105.056 31.01C105.423 30.8033 105.833 30.7 106.286 30.7C106.786 30.7 107.233 30.8133 107.626 31.04C108.026 31.26 108.339 31.57 108.566 31.97C108.793 32.37 108.906 32.8367 108.906 33.37C108.906 33.8967 108.793 34.3633 108.566 34.77C108.339 35.17 108.026 35.4833 107.626 35.71C107.233 35.9367 106.786 36.05 106.286 36.05ZM103.576 36V28.58H104.286V32.3L104.186 33.36L104.256 34.42V36H103.576ZM106.236 35.42C106.609 35.42 106.943 35.3367 107.236 35.17C107.529 34.9967 107.763 34.7567 107.936 34.45C108.109 34.1367 108.196 33.7767 108.196 33.37C108.196 32.9567 108.109 32.5967 107.936 32.29C107.763 31.9833 107.529 31.7467 107.236 31.58C106.943 31.4067 106.609 31.32 106.236 31.32C105.863 31.32 105.526 31.4067 105.226 31.58C104.933 31.7467 104.699 31.9833 104.526 32.29C104.359 32.5967 104.276 32.9567 104.276 33.37C104.276 33.7767 104.359 34.1367 104.526 34.45C104.699 34.7567 104.933 34.9967 105.226 35.17C105.526 35.3367 105.863 35.42 106.236 35.42ZM112.183 30.7C112.73 30.7 113.21 30.8167 113.623 31.05C114.037 31.2767 114.36 31.59 114.593 31.99C114.827 32.39 114.943 32.85 114.943 33.37C114.943 33.89 114.83 34.3533 114.603 34.76C114.383 35.16 114.08 35.4767 113.693 35.71C113.307 35.9367 112.867 36.05 112.373 36.05C111.88 36.05 111.44 35.9367 111.053 35.71C110.673 35.4833 110.373 35.17 110.153 34.77C109.933 34.3633 109.823 33.8967 109.823 33.37C109.823 33.3433 109.823 33.31 109.823 33.27C109.83 33.23 109.833 33.1933 109.833 33.16H114.403V33.69H110.213L110.493 33.48C110.493 33.8533 110.573 34.19 110.733 34.49C110.9 34.7833 111.123 35.0167 111.403 35.19C111.683 35.3567 112.007 35.44 112.373 35.44C112.74 35.44 113.063 35.3567 113.343 35.19C113.63 35.0167 113.853 34.78 114.013 34.48C114.173 34.18 114.253 33.84 114.253 33.46V33.34C114.253 32.94 114.163 32.59 113.983 32.29C113.81 31.99 113.567 31.7533 113.253 31.58C112.94 31.4067 112.577 31.32 112.163 31.32C111.837 31.32 111.537 31.3767 111.263 31.49C110.99 31.6033 110.753 31.78 110.553 32.02L110.153 31.55C110.393 31.27 110.687 31.06 111.033 30.92C111.387 30.7733 111.77 30.7 112.183 30.7ZM118.568 36.05C118.048 36.05 117.582 35.9367 117.168 35.71C116.762 35.4767 116.442 35.16 116.208 34.76C115.975 34.3533 115.858 33.89 115.858 33.37C115.858 32.8433 115.975 32.38 116.208 31.98C116.442 31.58 116.762 31.2667 117.168 31.04C117.582 30.8133 118.048 30.7 118.568 30.7C119.015 30.7 119.418 30.7867 119.778 30.96C120.138 31.1333 120.422 31.3933 120.628 31.74L120.098 32.1C119.918 31.8333 119.695 31.6367 119.428 31.51C119.162 31.3833 118.872 31.32 118.558 31.32C118.185 31.32 117.848 31.4067 117.548 31.58C117.248 31.7467 117.012 31.9833 116.838 32.29C116.665 32.5967 116.578 32.9567 116.578 33.37C116.578 33.7833 116.665 34.1433 116.838 34.45C117.012 34.7567 117.248 34.9967 117.548 35.17C117.848 35.3367 118.185 35.42 118.558 35.42C118.872 35.42 119.162 35.3567 119.428 35.23C119.695 35.1033 119.918 34.91 120.098 34.65L120.628 35.01C120.422 35.35 120.138 35.61 119.778 35.79C119.418 35.9633 119.015 36.05 118.568 36.05ZM118.148 38.2C117.982 38.2 117.828 38.18 117.688 38.14C117.555 38.1 117.428 38.0433 117.308 37.97L117.478 37.59C117.578 37.65 117.682 37.6967 117.788 37.73C117.902 37.7633 118.018 37.78 118.138 37.78C118.338 37.78 118.492 37.7367 118.598 37.65C118.705 37.57 118.758 37.4567 118.758 37.31C118.758 37.1767 118.705 37.0667 118.598 36.98C118.498 36.8933 118.345 36.85 118.138 36.85H117.908L118.148 35.94H118.578L118.428 36.52C118.702 36.54 118.912 36.6233 119.058 36.77C119.205 36.9233 119.278 37.11 119.278 37.33C119.278 37.5967 119.172 37.8067 118.958 37.96C118.752 38.12 118.482 38.2 118.148 38.2ZM123.765 30.7C124.312 30.7 124.792 30.8167 125.205 31.05C125.619 31.2767 125.942 31.59 126.175 31.99C126.409 32.39 126.525 32.85 126.525 33.37C126.525 33.89 126.412 34.3533 126.185 34.76C125.965 35.16 125.662 35.4767 125.275 35.71C124.889 35.9367 124.449 36.05 123.955 36.05C123.462 36.05 123.022 35.9367 122.635 35.71C122.255 35.4833 121.955 35.17 121.735 34.77C121.515 34.3633 121.405 33.8967 121.405 33.37C121.405 33.3433 121.405 33.31 121.405 33.27C121.412 33.23 121.415 33.1933 121.415 33.16H125.985V33.69H121.795L122.075 33.48C122.075 33.8533 122.155 34.19 122.315 34.49C122.482 34.7833 122.705 35.0167 122.985 35.19C123.265 35.3567 123.589 35.44 123.955 35.44C124.322 35.44 124.645 35.3567 124.925 35.19C125.212 35.0167 125.435 34.78 125.595 34.48C125.755 34.18 125.835 33.84 125.835 33.46V33.34C125.835 32.94 125.745 32.59 125.565 32.29C125.392 31.99 125.149 31.7533 124.835 31.58C124.522 31.4067 124.159 31.32 123.745 31.32C123.419 31.32 123.119 31.3767 122.845 31.49C122.572 31.6033 122.335 31.78 122.135 32.02L121.735 31.55C121.975 31.27 122.269 31.06 122.615 30.92C122.969 30.7733 123.352 30.7 123.765 30.7ZM127.97 36V30.75H128.65V32.18L128.58 31.93C128.727 31.53 128.974 31.2267 129.32 31.02C129.667 30.8067 130.097 30.7 130.61 30.7V31.39C130.584 31.39 130.557 31.39 130.53 31.39C130.504 31.3833 130.477 31.38 130.45 31.38C129.897 31.38 129.464 31.55 129.15 31.89C128.837 32.2233 128.68 32.7 128.68 33.32V36H127.97Z" fill="black"/>
<path d="M119.14 120V113H119.88V119.36H123.8V120H119.14ZM128.169 120V118.84L128.139 118.65V116.71C128.139 116.263 128.012 115.92 127.759 115.68C127.512 115.44 127.142 115.32 126.649 115.32C126.309 115.32 125.985 115.377 125.679 115.49C125.372 115.603 125.112 115.753 124.899 115.94L124.579 115.41C124.845 115.183 125.165 115.01 125.539 114.89C125.912 114.763 126.305 114.7 126.719 114.7C127.399 114.7 127.922 114.87 128.289 115.21C128.662 115.543 128.849 116.053 128.849 116.74V120H128.169ZM126.359 120.05C125.965 120.05 125.622 119.987 125.329 119.86C125.042 119.727 124.822 119.547 124.669 119.32C124.515 119.087 124.439 118.82 124.439 118.52C124.439 118.247 124.502 118 124.629 117.78C124.762 117.553 124.975 117.373 125.269 117.24C125.569 117.1 125.969 117.03 126.469 117.03H128.279V117.56H126.489C125.982 117.56 125.629 117.65 125.429 117.83C125.235 118.01 125.139 118.233 125.139 118.5C125.139 118.8 125.255 119.04 125.489 119.22C125.722 119.4 126.049 119.49 126.469 119.49C126.869 119.49 127.212 119.4 127.499 119.22C127.792 119.033 128.005 118.767 128.139 118.42L128.299 118.91C128.165 119.257 127.932 119.533 127.599 119.74C127.272 119.947 126.859 120.05 126.359 120.05ZM132.957 120.05C132.437 120.05 131.97 119.937 131.557 119.71C131.15 119.477 130.83 119.16 130.597 118.76C130.364 118.353 130.247 117.89 130.247 117.37C130.247 116.843 130.364 116.38 130.597 115.98C130.83 115.58 131.15 115.267 131.557 115.04C131.97 114.813 132.437 114.7 132.957 114.7C133.404 114.7 133.807 114.787 134.167 114.96C134.527 115.133 134.81 115.393 135.017 115.74L134.487 116.1C134.307 115.833 134.084 115.637 133.817 115.51C133.55 115.383 133.26 115.32 132.947 115.32C132.574 115.32 132.237 115.407 131.937 115.58C131.637 115.747 131.4 115.983 131.227 116.29C131.054 116.597 130.967 116.957 130.967 117.37C130.967 117.783 131.054 118.143 131.227 118.45C131.4 118.757 131.637 118.997 131.937 119.17C132.237 119.337 132.574 119.42 132.947 119.42C133.26 119.42 133.55 119.357 133.817 119.23C134.084 119.103 134.307 118.91 134.487 118.65L135.017 119.01C134.81 119.35 134.527 119.61 134.167 119.79C133.807 119.963 133.404 120.05 132.957 120.05ZM132.537 122.2C132.37 122.2 132.217 122.18 132.077 122.14C131.944 122.1 131.817 122.043 131.697 121.97L131.867 121.59C131.967 121.65 132.07 121.697 132.177 121.73C132.29 121.763 132.407 121.78 132.527 121.78C132.727 121.78 132.88 121.737 132.987 121.65C133.094 121.57 133.147 121.457 133.147 121.31C133.147 121.177 133.094 121.067 132.987 120.98C132.887 120.893 132.734 120.85 132.527 120.85H132.297L132.537 119.94H132.967L132.817 120.52C133.09 120.54 133.3 120.623 133.447 120.77C133.594 120.923 133.667 121.11 133.667 121.33C133.667 121.597 133.56 121.807 133.347 121.96C133.14 122.12 132.87 122.2 132.537 122.2ZM136.412 120V114.75H137.122V120H136.412ZM141.777 114.7C142.204 114.7 142.577 114.783 142.897 114.95C143.224 115.11 143.477 115.357 143.657 115.69C143.844 116.023 143.937 116.443 143.937 116.95V120H143.227V117.02C143.227 116.467 143.087 116.05 142.807 115.77C142.534 115.483 142.147 115.34 141.647 115.34C141.274 115.34 140.947 115.417 140.667 115.57C140.394 115.717 140.181 115.933 140.027 116.22C139.881 116.5 139.807 116.84 139.807 117.24V120H139.097V114.75H139.777V116.19L139.667 115.92C139.834 115.54 140.101 115.243 140.467 115.03C140.834 114.81 141.271 114.7 141.777 114.7Z" fill="black"/>
<path d="M165.2 219.06C164.673 219.06 164.183 218.973 163.73 218.8C163.283 218.62 162.893 218.37 162.56 218.05C162.233 217.723 161.977 217.347 161.79 216.92C161.61 216.487 161.52 216.013 161.52 215.5C161.52 214.987 161.61 214.517 161.79 214.09C161.977 213.657 162.233 213.28 162.56 212.96C162.893 212.633 163.283 212.383 163.73 212.21C164.177 212.03 164.667 211.94 165.2 211.94C165.727 211.94 166.213 212.03 166.66 212.21C167.107 212.383 167.493 212.63 167.82 212.95C168.153 213.27 168.41 213.647 168.59 214.08C168.777 214.513 168.87 214.987 168.87 215.5C168.87 216.013 168.777 216.487 168.59 216.92C168.41 217.353 168.153 217.73 167.82 218.05C167.493 218.37 167.107 218.62 166.66 218.8C166.213 218.973 165.727 219.06 165.2 219.06ZM167.49 220.39C167.277 220.39 167.07 220.363 166.87 220.31C166.67 220.257 166.467 220.17 166.26 220.05C166.06 219.937 165.853 219.787 165.64 219.6C165.427 219.413 165.193 219.187 164.94 218.92L165.75 218.72C165.957 218.967 166.157 219.17 166.35 219.33C166.55 219.49 166.743 219.607 166.93 219.68C167.123 219.76 167.313 219.8 167.5 219.8C168.02 219.8 168.463 219.587 168.83 219.16L169.19 219.59C168.75 220.123 168.183 220.39 167.49 220.39ZM165.2 218.4C165.62 218.4 166.007 218.33 166.36 218.19C166.72 218.043 167.03 217.837 167.29 217.57C167.557 217.303 167.763 216.997 167.91 216.65C168.057 216.297 168.13 215.913 168.13 215.5C168.13 215.08 168.057 214.697 167.91 214.35C167.763 213.997 167.557 213.69 167.29 213.43C167.03 213.163 166.72 212.96 166.36 212.82C166.007 212.673 165.62 212.6 165.2 212.6C164.78 212.6 164.39 212.673 164.03 212.82C163.67 212.96 163.357 213.163 163.09 213.43C162.83 213.69 162.623 213.997 162.47 214.35C162.323 214.697 162.25 215.08 162.25 215.5C162.25 215.913 162.323 216.297 162.47 216.65C162.623 216.997 162.83 217.303 163.09 217.57C163.357 217.837 163.67 218.043 164.03 218.19C164.39 218.33 164.78 218.4 165.2 218.4ZM172.549 219.05C172.102 219.05 171.712 218.967 171.379 218.8C171.045 218.633 170.785 218.383 170.599 218.05C170.419 217.717 170.329 217.3 170.329 216.8V213.75H171.039V216.72C171.039 217.28 171.175 217.703 171.449 217.99C171.729 218.27 172.119 218.41 172.619 218.41C172.985 218.41 173.302 218.337 173.569 218.19C173.842 218.037 174.049 217.817 174.189 217.53C174.335 217.243 174.409 216.9 174.409 216.5V213.75H175.119V219H174.439V217.56L174.549 217.82C174.382 218.207 174.122 218.51 173.769 218.73C173.422 218.943 173.015 219.05 172.549 219.05ZM179.807 219.05C179.347 219.05 178.934 218.947 178.567 218.74C178.201 218.527 177.911 218.22 177.697 217.82C177.484 217.42 177.377 216.937 177.377 216.37C177.377 215.797 177.484 215.313 177.697 214.92C177.917 214.52 178.211 214.217 178.577 214.01C178.944 213.803 179.354 213.7 179.807 213.7C180.307 213.7 180.754 213.813 181.147 214.04C181.547 214.26 181.861 214.57 182.087 214.97C182.314 215.37 182.427 215.837 182.427 216.37C182.427 216.897 182.314 217.363 182.087 217.77C181.861 218.17 181.547 218.483 181.147 218.71C180.754 218.937 180.307 219.05 179.807 219.05ZM177.097 219V211.58H177.807V215.3L177.707 216.36L177.777 217.42V219H177.097ZM179.757 218.42C180.131 218.42 180.464 218.337 180.757 218.17C181.051 217.997 181.284 217.757 181.457 217.45C181.631 217.137 181.717 216.777 181.717 216.37C181.717 215.957 181.631 215.597 181.457 215.29C181.284 214.983 181.051 214.747 180.757 214.58C180.464 214.407 180.131 214.32 179.757 214.32C179.384 214.32 179.047 214.407 178.747 214.58C178.454 214.747 178.221 214.983 178.047 215.29C177.881 215.597 177.797 215.957 177.797 216.37C177.797 216.777 177.881 217.137 178.047 217.45C178.221 217.757 178.454 217.997 178.747 218.17C179.047 218.337 179.384 218.42 179.757 218.42ZM187.135 219V217.84L187.105 217.65V215.71C187.105 215.263 186.979 214.92 186.725 214.68C186.479 214.44 186.109 214.32 185.615 214.32C185.275 214.32 184.952 214.377 184.645 214.49C184.339 214.603 184.079 214.753 183.865 214.94L183.545 214.41C183.812 214.183 184.132 214.01 184.505 213.89C184.879 213.763 185.272 213.7 185.685 213.7C186.365 213.7 186.889 213.87 187.255 214.21C187.629 214.543 187.815 215.053 187.815 215.74V219H187.135ZM185.325 219.05C184.932 219.05 184.589 218.987 184.295 218.86C184.009 218.727 183.789 218.547 183.635 218.32C183.482 218.087 183.405 217.82 183.405 217.52C183.405 217.247 183.469 217 183.595 216.78C183.729 216.553 183.942 216.373 184.235 216.24C184.535 216.1 184.935 216.03 185.435 216.03H187.245V216.56H185.455C184.949 216.56 184.595 216.65 184.395 216.83C184.202 217.01 184.105 217.233 184.105 217.5C184.105 217.8 184.222 218.04 184.455 218.22C184.689 218.4 185.015 218.49 185.435 218.49C185.835 218.49 186.179 218.4 186.465 218.22C186.759 218.033 186.972 217.767 187.105 217.42L187.265 217.91C187.132 218.257 186.899 218.533 186.565 218.74C186.239 218.947 185.825 219.05 185.325 219.05ZM191.834 219.05C191.334 219.05 190.884 218.937 190.484 218.71C190.091 218.483 189.781 218.17 189.554 217.77C189.327 217.363 189.214 216.897 189.214 216.37C189.214 215.837 189.327 215.37 189.554 214.97C189.781 214.57 190.091 214.26 190.484 214.04C190.884 213.813 191.334 213.7 191.834 213.7C192.294 213.7 192.704 213.803 193.064 214.01C193.431 214.217 193.721 214.52 193.934 214.92C194.154 215.313 194.264 215.797 194.264 216.37C194.264 216.937 194.157 217.42 193.944 217.82C193.731 218.22 193.441 218.527 193.074 218.74C192.714 218.947 192.301 219.05 191.834 219.05ZM191.884 218.42C192.257 218.42 192.591 218.337 192.884 218.17C193.184 217.997 193.417 217.757 193.584 217.45C193.757 217.137 193.844 216.777 193.844 216.37C193.844 215.957 193.757 215.597 193.584 215.29C193.417 214.983 193.184 214.747 192.884 214.58C192.591 214.407 192.257 214.32 191.884 214.32C191.517 214.32 191.187 214.407 190.894 214.58C190.601 214.747 190.367 214.983 190.194 215.29C190.021 215.597 189.934 215.957 189.934 216.37C189.934 216.777 190.021 217.137 190.194 217.45C190.367 217.757 190.601 217.997 190.894 218.17C191.187 218.337 191.517 218.42 191.884 218.42ZM193.864 219V217.42L193.934 216.36L193.834 215.3V211.58H194.544V219H193.864ZM196.521 219V211.58H197.231V219H196.521ZM199.207 219V213.75H199.917V219H199.207Z" fill="black"/>
<path d="M166.45 279V278.49L171.31 272.36L171.39 272.64H166.52V272H172.07V272.51L167.22 278.64L167.13 278.36H172.19V279H166.45ZM175.187 273.7C175.734 273.7 176.214 273.817 176.627 274.05C177.041 274.277 177.364 274.59 177.597 274.99C177.831 275.39 177.947 275.85 177.947 276.37C177.947 276.89 177.834 277.353 177.607 277.76C177.387 278.16 177.084 278.477 176.697 278.71C176.311 278.937 175.871 279.05 175.377 279.05C174.884 279.05 174.444 278.937 174.057 278.71C173.677 278.483 173.377 278.17 173.157 277.77C172.937 277.363 172.827 276.897 172.827 276.37C172.827 276.343 172.827 276.31 172.827 276.27C172.834 276.23 172.837 276.193 172.837 276.16H177.407V276.69H173.217L173.497 276.48C173.497 276.853 173.577 277.19 173.737 277.49C173.904 277.783 174.127 278.017 174.407 278.19C174.687 278.357 175.011 278.44 175.377 278.44C175.744 278.44 176.067 278.357 176.347 278.19C176.634 278.017 176.857 277.78 177.017 277.48C177.177 277.18 177.257 276.84 177.257 276.46V276.34C177.257 275.94 177.167 275.59 176.987 275.29C176.814 274.99 176.571 274.753 176.257 274.58C175.944 274.407 175.581 274.32 175.167 274.32C174.841 274.32 174.541 274.377 174.267 274.49C173.994 274.603 173.757 274.78 173.557 275.02L173.157 274.55C173.397 274.27 173.691 274.06 174.037 273.92C174.391 273.773 174.774 273.7 175.187 273.7ZM182.072 273.7C182.499 273.7 182.872 273.783 183.192 273.95C183.519 274.11 183.772 274.357 183.952 274.69C184.139 275.023 184.232 275.443 184.232 275.95V279H183.522V276.02C183.522 275.467 183.382 275.05 183.102 274.77C182.829 274.483 182.442 274.34 181.942 274.34C181.569 274.34 181.242 274.417 180.962 274.57C180.689 274.717 180.476 274.933 180.322 275.22C180.176 275.5 180.102 275.84 180.102 276.24V279H179.392V273.75H180.072V275.19L179.962 274.92C180.129 274.54 180.396 274.243 180.762 274.03C181.129 273.81 181.566 273.7 182.072 273.7ZM188.24 279.05C187.74 279.05 187.29 278.937 186.89 278.71C186.497 278.483 186.187 278.17 185.96 277.77C185.733 277.37 185.62 276.903 185.62 276.37C185.62 275.843 185.733 275.38 185.96 274.98C186.187 274.573 186.497 274.26 186.89 274.04C187.29 273.813 187.74 273.7 188.24 273.7C188.707 273.7 189.12 273.803 189.48 274.01C189.847 274.217 190.137 274.52 190.35 274.92C190.563 275.313 190.67 275.797 190.67 276.37C190.67 276.943 190.56 277.43 190.34 277.83C190.127 278.223 189.837 278.527 189.47 278.74C189.11 278.947 188.7 279.05 188.24 279.05ZM188.29 278.42C188.663 278.42 188.997 278.337 189.29 278.17C189.59 277.997 189.823 277.757 189.99 277.45C190.163 277.137 190.25 276.777 190.25 276.37C190.25 275.963 190.163 275.607 189.99 275.3C189.823 274.993 189.59 274.753 189.29 274.58C188.997 274.407 188.663 274.32 188.29 274.32C187.923 274.32 187.593 274.407 187.3 274.58C187.007 274.753 186.773 274.993 186.6 275.3C186.427 275.607 186.34 275.963 186.34 276.37C186.34 276.777 186.427 277.137 186.6 277.45C186.773 277.757 187.007 277.997 187.3 278.17C187.593 278.337 187.923 278.42 188.29 278.42ZM190.24 280.94V277.44L190.34 276.38L190.27 275.33V273.75H190.95V280.94H190.24ZM192.928 279V273.75H193.638V279H192.928ZM193.288 272.59C193.141 272.59 193.018 272.54 192.918 272.44C192.818 272.34 192.768 272.22 192.768 272.08C192.768 271.94 192.818 271.823 192.918 271.73C193.018 271.63 193.141 271.58 193.288 271.58C193.434 271.58 193.558 271.627 193.658 271.72C193.758 271.813 193.808 271.93 193.808 272.07C193.808 272.217 193.758 272.34 193.658 272.44C193.564 272.54 193.441 272.59 193.288 272.59ZM195.613 279V271.58H196.323V279H195.613ZM201.589 279V277.84L201.559 277.65V275.71C201.559 275.263 201.432 274.92 201.179 274.68C200.932 274.44 200.562 274.32 200.069 274.32C199.729 274.32 199.405 274.377 199.099 274.49C198.792 274.603 198.532 274.753 198.319 274.94L197.999 274.41C198.265 274.183 198.585 274.01 198.959 273.89C199.332 273.763 199.725 273.7 200.139 273.7C200.819 273.7 201.342 273.87 201.709 274.21C202.082 274.543 202.269 275.053 202.269 275.74V279H201.589ZM199.779 279.05C199.385 279.05 199.042 278.987 198.749 278.86C198.462 278.727 198.242 278.547 198.089 278.32C197.935 278.087 197.859 277.82 197.859 277.52C197.859 277.247 197.922 277 198.049 276.78C198.182 276.553 198.395 276.373 198.689 276.24C198.989 276.1 199.389 276.03 199.889 276.03H201.699V276.56H199.909C199.402 276.56 199.049 276.65 198.849 276.83C198.655 277.01 198.559 277.233 198.559 277.5C198.559 277.8 198.675 278.04 198.909 278.22C199.142 278.4 199.469 278.49 199.889 278.49C200.289 278.49 200.632 278.4 200.919 278.22C201.212 278.033 201.425 277.767 201.559 277.42L201.719 277.91C201.585 278.257 201.352 278.533 201.019 278.74C200.692 278.947 200.279 279.05 199.779 279.05ZM206.877 273.7C207.304 273.7 207.677 273.783 207.997 273.95C208.324 274.11 208.577 274.357 208.757 274.69C208.944 275.023 209.037 275.443 209.037 275.95V279H208.327V276.02C208.327 275.467 208.187 275.05 207.907 274.77C207.634 274.483 207.247 274.34 206.747 274.34C206.374 274.34 206.047 274.417 205.767 274.57C205.494 274.717 205.28 274.933 205.127 275.22C204.98 275.5 204.907 275.84 204.907 276.24V279H204.197V273.75H204.877V275.19L204.767 274.92C204.934 274.54 205.2 274.243 205.567 274.03C205.934 273.81 206.37 273.7 206.877 273.7Z" fill="black"/>
</svg>
