<svg width="214" height="308" viewBox="0 0 214 308" fill="none" xmlns="http://www.w3.org/2000/svg">
<path d="M103.92 299.605L93.3354 305.6L91.1865 306L88.5368 305.281L83.6042 303.072L80.8276 303.149L77.8911 304.51L77.8676 304.423L76.2782 298.167L70.203 290.247L64.3817 286.038L58.3229 282.447L55.5838 275.969L54.9796 268.444L51.6081 263.349L49.0854 258.36L50.2186 251.281L54.3942 247.234L57.5376 242.658L58.7038 239.008L59.2727 237.224L58.3417 235.713L57.1168 233.723L54.0556 231.485L50.3385 232.456L46.6191 233.368L42.3354 232.729L37.9859 231.859L42.8832 228.494L46.2265 223.638L46.1089 222.985L45.6105 220.251L45.1591 217.767L42.1074 214.421L43.8707 212.404L46.8213 209.025L54.7704 207.72L54.4788 205.608L53.8769 201.224L51.3824 196.24L46.5227 195.734L41.7171 197.389L41.6841 197.441L37.5251 204.439L36.2531 206.576L28.9153 207.448L25.866 204.733L22.4404 203.074L18.5212 201.568L17.8182 195.445L20.2116 189.14L22.1748 185.196L23.1246 183.288L22.7343 180.613L22.076 176.106L20.2492 168.945L17.2234 154.533L11.1011 141.793L7.45688 138.306L3.39889 135.638L2 129.69L4.44984 122.794L5.74764 122.012L9.88794 119.518L14.7923 116.484L20.2116 119.159L24.9702 122.646L30.4694 119.457L34.3723 113.664L40.8119 110.256L48.1027 108.949L51.8268 106.825L53.2563 106.009L59.3574 105.525L55.1818 100.83L54.2155 98.6017L52.9436 95.6686L50.7218 90.9941L46.21 87.4007L37.337 78.9683L26.7476 77.9224L22.8824 81.0012L18.8174 82.3196L16.5062 75.946L14.9334 68.3549L13.0078 60.1034L13.8213 51.6616L15.547 50.0752L17.3385 48.651L18.5447 44.8272L19.203 40.738L20.3385 39.2432L22.8401 35.953L25.297 32.7215L26.4091 32.2891L28.4451 31.4994L35.0917 28.9213L43.605 23.6005L52.3675 19.6898L57.6599 19.8825L58.9812 19.9295L65.569 19.725L67.6638 18.5006L69.3801 17.4947L72.9796 14.7239L76.3981 12.1927L79.8871 9.93654L83.8534 6.047L88.0736 2L89.3997 5.584L90.2861 9.44299L92.9357 13.4195L96.0862 16.9283L97.2194 22.3619L98.3973 27.7227L100.335 30.1551L102.829 31.9882L105.897 37.6498L110.092 41.49L115.252 43.3819L114.895 50.0258L114.448 57.9906L114.867 65.9272L115.981 70.1763L116.766 74.5922L129.293 73.5535L141.975 73.9177L134.694 81.2785L126.387 86.6721L125.675 91.9483L130.955 96.4982L126.058 100.912L124.951 101.264L119.498 103.001L119.223 109.34L118.784 115.772L116.574 117.549L114.3 118.961L118.21 130.296L132.613 133.396L132.726 133.422L140.228 130.576L148.001 129.396L152.021 136.07L148.238 144.139L146.922 145.234L145.525 146.092L147.074 149.544L150.074 156.219L156.552 160.343L158.818 161.788L161.505 170.67L156.58 180.355L170.155 176.705L183.879 173.384L186.766 180.176L192.641 181.744L196.906 186.717L200.771 192.928L211.991 202.348L212 211.598V211.706L208.819 213.499L199.464 223.034L197.179 224.597L193.215 225.046L180.843 229.283L173.442 233.377L167.668 238.24L158.879 249.591L158.858 249.612L153.013 255.617L147.702 258.642L145.65 259.812L128.033 266.698L119.574 271.892L117.857 273.85L117.255 276.127L110.858 286.378L107.882 295.032L106.967 296.721L105.121 298.919L103.92 299.605Z" fill="#ECE7E2" stroke="#FFAC1C" stroke-width="3" stroke-linejoin="round"/>
<path d="M120.11 197L118.39 194.37H118.34L116.62 197H115.15L117.55 193.41L115.32 190.01H116.78L118.34 192.37H118.39L119.95 190.01H121.41L119.18 193.41L121.58 197H120.11ZM123.456 195.6C123.776 195.92 124.18 196.08 124.666 196.08C125.153 196.08 125.553 195.92 125.866 195.6C126.186 195.273 126.346 194.853 126.346 194.34C126.346 193.827 126.186 193.41 125.866 193.09C125.553 192.763 125.153 192.6 124.666 192.6C124.18 192.6 123.776 192.763 123.456 193.09C123.143 193.41 122.986 193.827 122.986 194.34C122.986 194.853 123.143 195.273 123.456 195.6ZM126.666 196.29C126.133 196.817 125.466 197.08 124.666 197.08C123.866 197.08 123.2 196.817 122.666 196.29C122.133 195.757 121.866 195.107 121.866 194.34C121.866 193.573 122.133 192.927 122.666 192.4C123.2 191.867 123.866 191.6 124.666 191.6C125.466 191.6 126.133 191.867 126.666 192.4C127.2 192.927 127.466 193.573 127.466 194.34C127.466 195.107 127.2 195.757 126.666 196.29ZM131.1 197.08C130.36 197.08 129.723 196.83 129.19 196.33C128.656 195.823 128.39 195.163 128.39 194.35C128.39 193.537 128.666 192.877 129.22 192.37C129.78 191.857 130.46 191.6 131.26 191.6C132.06 191.6 132.736 191.877 133.29 192.43L132.63 193.24C132.17 192.84 131.706 192.64 131.24 192.64C130.773 192.64 130.366 192.797 130.02 193.11C129.68 193.417 129.51 193.817 129.51 194.31C129.51 194.797 129.68 195.21 130.02 195.55C130.36 195.89 130.776 196.06 131.27 196.06C131.77 196.06 132.24 195.833 132.68 195.38L133.34 196.1C132.693 196.753 131.946 197.08 131.1 197.08ZM138.772 197H137.752V196.29C137.312 196.817 136.722 197.08 135.982 197.08C135.429 197.08 134.969 196.923 134.602 196.61C134.242 196.297 134.062 195.88 134.062 195.36C134.062 194.833 134.256 194.44 134.642 194.18C135.029 193.92 135.552 193.79 136.212 193.79H137.662V193.59C137.662 192.883 137.269 192.53 136.482 192.53C135.989 192.53 135.476 192.71 134.942 193.07L134.442 192.37C135.089 191.857 135.822 191.6 136.642 191.6C137.269 191.6 137.779 191.76 138.172 192.08C138.572 192.393 138.772 192.89 138.772 193.57V197ZM137.652 195.02V194.57H136.392C135.586 194.57 135.182 194.823 135.182 195.33C135.182 195.59 135.282 195.79 135.482 195.93C135.682 196.063 135.959 196.13 136.312 196.13C136.672 196.13 136.986 196.03 137.252 195.83C137.519 195.63 137.652 195.36 137.652 195.02ZM141.683 197L139.543 191.68H140.703L142.323 195.7L143.943 191.68H145.103L142.963 197H141.683ZM147.696 191.54C148.209 191.54 148.659 191.643 149.046 191.85C149.432 192.057 149.732 192.363 149.946 192.77C150.166 193.177 150.276 193.68 150.276 194.28C150.276 194.867 150.176 195.37 149.976 195.79C149.782 196.21 149.506 196.533 149.146 196.76C148.792 196.987 148.379 197.1 147.906 197.1C147.452 197.1 147.059 197 146.726 196.8C146.392 196.6 146.136 196.32 145.956 195.96C145.782 195.593 145.696 195.167 145.696 194.68V194.15H149.366C149.352 193.543 149.196 193.083 148.896 192.77C148.602 192.45 148.189 192.29 147.656 192.29C147.316 192.29 147.012 192.323 146.746 192.39C146.486 192.45 146.216 192.54 145.936 192.66V191.89C146.209 191.77 146.479 191.683 146.746 191.63C147.012 191.57 147.329 191.54 147.696 191.54ZM146.616 194.85C146.622 195.15 146.669 195.417 146.756 195.65C146.849 195.877 146.992 196.057 147.186 196.19C147.379 196.317 147.622 196.38 147.916 196.38C148.336 196.38 148.666 196.247 148.906 195.98C149.152 195.707 149.299 195.33 149.346 194.85H146.616ZM152.76 194.12V197H151.64V191.68H152.76V192.65C152.94 192.323 153.187 192.067 153.5 191.88C153.82 191.693 154.163 191.6 154.53 191.6C155.13 191.6 155.613 191.783 155.98 192.15C156.353 192.517 156.54 193.047 156.54 193.74V197H155.42V194.08C155.42 193.1 155.013 192.61 154.2 192.61C153.813 192.61 153.477 192.74 153.19 193C152.903 193.253 152.76 193.627 152.76 194.12ZM160.275 197.08C159.602 197.08 159.015 196.827 158.515 196.32C158.015 195.813 157.765 195.147 157.765 194.32C157.765 193.493 158.022 192.833 158.535 192.34C159.048 191.847 159.658 191.6 160.365 191.6C161.078 191.6 161.652 191.9 162.085 192.5V189.58H163.205V197H162.085V196.2C161.672 196.787 161.068 197.08 160.275 197.08ZM158.885 194.37C158.885 194.877 159.048 195.29 159.375 195.61C159.702 195.93 160.085 196.09 160.525 196.09C160.965 196.09 161.338 195.93 161.645 195.61C161.952 195.283 162.105 194.867 162.105 194.36C162.105 193.853 161.952 193.43 161.645 193.09C161.338 192.75 160.962 192.58 160.515 192.58C160.068 192.58 159.685 192.75 159.365 193.09C159.045 193.43 158.885 193.857 158.885 194.37Z" fill="black"/>
<path d="M142.8 220.39H146.5V221.03H142.8V220.39ZM142.88 224H142.14V217H146.94V217.64H142.88V224ZM148.318 224V218.75H149.028V224H148.318ZM148.678 217.59C148.531 217.59 148.408 217.54 148.308 217.44C148.208 217.34 148.158 217.22 148.158 217.08C148.158 216.94 148.208 216.823 148.308 216.73C148.408 216.63 148.531 216.58 148.678 216.58C148.825 216.58 148.948 216.627 149.048 216.72C149.148 216.813 149.198 216.93 149.198 217.07C149.198 217.217 149.148 217.34 149.048 217.44C148.955 217.54 148.831 217.59 148.678 217.59ZM150.434 224V223.53L153.934 219.1L154.084 219.34H150.494V218.75H154.644V219.21L151.154 223.65L150.974 223.41H154.714V224H150.434ZM158.281 224.05C157.834 224.05 157.444 223.967 157.111 223.8C156.778 223.633 156.518 223.383 156.331 223.05C156.151 222.717 156.061 222.3 156.061 221.8V218.75H156.771V221.72C156.771 222.28 156.908 222.703 157.181 222.99C157.461 223.27 157.851 223.41 158.351 223.41C158.718 223.41 159.034 223.337 159.301 223.19C159.574 223.037 159.781 222.817 159.921 222.53C160.068 222.243 160.141 221.9 160.141 221.5V218.75H160.851V224H160.171V222.56L160.281 222.82C160.114 223.207 159.854 223.51 159.501 223.73C159.154 223.943 158.748 224.05 158.281 224.05ZM162.83 224V216.58H163.54V224H162.83ZM165.515 224V218.75H166.225V224H165.515ZM165.875 217.59C165.729 217.59 165.605 217.54 165.505 217.44C165.405 217.34 165.355 217.22 165.355 217.08C165.355 216.94 165.405 216.823 165.505 216.73C165.605 216.63 165.729 216.58 165.875 216.58C166.022 216.58 166.145 216.627 166.245 216.72C166.345 216.813 166.395 216.93 166.395 217.07C166.395 217.217 166.345 217.34 166.245 217.44C166.152 217.54 166.029 217.59 165.875 217.59Z" fill="black"/>
<path d="M66.18 281.06C65.6533 281.06 65.1667 280.973 64.72 280.8C64.2733 280.62 63.8867 280.37 63.56 280.05C63.2333 279.73 62.9767 279.353 62.79 278.92C62.61 278.487 62.52 278.013 62.52 277.5C62.52 276.987 62.61 276.513 62.79 276.08C62.9767 275.647 63.2333 275.27 63.56 274.95C63.8933 274.63 64.2833 274.383 64.73 274.21C65.1767 274.03 65.6633 273.94 66.19 273.94C66.6967 273.94 67.1733 274.027 67.62 274.2C68.0667 274.367 68.4433 274.62 68.75 274.96L68.28 275.43C67.9933 275.137 67.6767 274.927 67.33 274.8C66.9833 274.667 66.61 274.6 66.21 274.6C65.79 274.6 65.4 274.673 65.04 274.82C64.68 274.96 64.3667 275.163 64.1 275.43C63.8333 275.69 63.6233 275.997 63.47 276.35C63.3233 276.697 63.25 277.08 63.25 277.5C63.25 277.92 63.3233 278.307 63.47 278.66C63.6233 279.007 63.8333 279.313 64.1 279.58C64.3667 279.84 64.68 280.043 65.04 280.19C65.4 280.33 65.79 280.4 66.21 280.4C66.61 280.4 66.9833 280.333 67.33 280.2C67.6767 280.067 67.9933 279.853 68.28 279.56L68.75 280.03C68.4433 280.37 68.0667 280.627 67.62 280.8C67.1733 280.973 66.6933 281.06 66.18 281.06ZM71.7731 275.7C72.3198 275.7 72.7998 275.817 73.2131 276.05C73.6265 276.277 73.9498 276.59 74.1831 276.99C74.4165 277.39 74.5331 277.85 74.5331 278.37C74.5331 278.89 74.4198 279.353 74.1931 279.76C73.9731 280.16 73.6698 280.477 73.2831 280.71C72.8965 280.937 72.4565 281.05 71.9631 281.05C71.4698 281.05 71.0298 280.937 70.6431 280.71C70.2631 280.483 69.9631 280.17 69.7431 279.77C69.5231 279.363 69.4131 278.897 69.4131 278.37C69.4131 278.343 69.4131 278.31 69.4131 278.27C69.4198 278.23 69.4231 278.193 69.4231 278.16H73.9931V278.69H69.8031L70.0831 278.48C70.0831 278.853 70.1631 279.19 70.3231 279.49C70.4898 279.783 70.7131 280.017 70.9931 280.19C71.2731 280.357 71.5965 280.44 71.9631 280.44C72.3298 280.44 72.6531 280.357 72.9331 280.19C73.2198 280.017 73.4431 279.78 73.6031 279.48C73.7631 279.18 73.8431 278.84 73.8431 278.46V278.34C73.8431 277.94 73.7531 277.59 73.5731 277.29C73.3998 276.99 73.1565 276.753 72.8431 276.58C72.5298 276.407 72.1665 276.32 71.7531 276.32C71.4265 276.32 71.1265 276.377 70.8531 276.49C70.5798 276.603 70.3431 276.78 70.1431 277.02L69.7431 276.55C69.9831 276.27 70.2765 276.06 70.6231 275.92C70.9765 275.773 71.3598 275.7 71.7731 275.7ZM78.6883 281.05C78.2283 281.05 77.8149 280.947 77.4483 280.74C77.0816 280.527 76.7916 280.22 76.5783 279.82C76.3649 279.42 76.2583 278.937 76.2583 278.37C76.2583 277.797 76.3649 277.313 76.5783 276.92C76.7983 276.52 77.0916 276.217 77.4583 276.01C77.8249 275.803 78.2349 275.7 78.6883 275.7C79.1883 275.7 79.6349 275.813 80.0283 276.04C80.4283 276.26 80.7416 276.57 80.9683 276.97C81.1949 277.37 81.3083 277.837 81.3083 278.37C81.3083 278.897 81.1949 279.363 80.9683 279.77C80.7416 280.17 80.4283 280.483 80.0283 280.71C79.6349 280.937 79.1883 281.05 78.6883 281.05ZM75.9783 281V273.58H76.6883V277.3L76.5883 278.36L76.6583 279.42V281H75.9783ZM78.6383 280.42C79.0116 280.42 79.3449 280.337 79.6383 280.17C79.9316 279.997 80.1649 279.757 80.3383 279.45C80.5116 279.137 80.5983 278.777 80.5983 278.37C80.5983 277.957 80.5116 277.597 80.3383 277.29C80.1649 276.983 79.9316 276.747 79.6383 276.58C79.3449 276.407 79.0116 276.32 78.6383 276.32C78.2649 276.32 77.9283 276.407 77.6283 276.58C77.3349 276.747 77.1016 276.983 76.9283 277.29C76.7616 277.597 76.6783 277.957 76.6783 278.37C76.6783 278.777 76.7616 279.137 76.9283 279.45C77.1016 279.757 77.3349 279.997 77.6283 280.17C77.9283 280.337 78.2649 280.42 78.6383 280.42ZM82.7556 281V275.75H83.4356V277.18L83.3656 276.93C83.5123 276.53 83.759 276.227 84.1056 276.02C84.4523 275.807 84.8823 275.7 85.3956 275.7V276.39C85.369 276.39 85.3423 276.39 85.3156 276.39C85.289 276.383 85.2623 276.38 85.2356 276.38C84.6823 276.38 84.249 276.55 83.9356 276.89C83.6223 277.223 83.4656 277.7 83.4656 278.32V281H82.7556ZM89.5905 281V279.84L89.5605 279.65V277.71C89.5605 277.263 89.4339 276.92 89.1805 276.68C88.9339 276.44 88.5639 276.32 88.0705 276.32C87.7305 276.32 87.4072 276.377 87.1005 276.49C86.7939 276.603 86.5339 276.753 86.3205 276.94L86.0005 276.41C86.2672 276.183 86.5872 276.01 86.9605 275.89C87.3339 275.763 87.7272 275.7 88.1405 275.7C88.8205 275.7 89.3439 275.87 89.7105 276.21C90.0839 276.543 90.2705 277.053 90.2705 277.74V281H89.5905ZM87.7805 281.05C87.3872 281.05 87.0439 280.987 86.7505 280.86C86.4639 280.727 86.2439 280.547 86.0905 280.32C85.9372 280.087 85.8605 279.82 85.8605 279.52C85.8605 279.247 85.9239 279 86.0505 278.78C86.1839 278.553 86.3972 278.373 86.6905 278.24C86.9905 278.1 87.3905 278.03 87.8905 278.03H89.7005V278.56H87.9105C87.4039 278.56 87.0505 278.65 86.8505 278.83C86.6572 279.01 86.5605 279.233 86.5605 279.5C86.5605 279.8 86.6772 280.04 86.9105 280.22C87.1439 280.4 87.4705 280.49 87.8905 280.49C88.2905 280.49 88.6339 280.4 88.9205 280.22C89.2139 280.033 89.4272 279.767 89.5605 279.42L89.7205 279.91C89.5872 280.257 89.3539 280.533 89.0205 280.74C88.6939 280.947 88.2805 281.05 87.7805 281.05ZM92.1413 282.99C91.8947 282.99 91.658 282.95 91.4313 282.87C91.2113 282.79 91.0213 282.67 90.8613 282.51L91.1913 281.98C91.3247 282.107 91.468 282.203 91.6213 282.27C91.7813 282.343 91.958 282.38 92.1513 282.38C92.3847 282.38 92.5847 282.313 92.7513 282.18C92.9247 282.053 93.088 281.827 93.2413 281.5L93.5813 280.73L93.6613 280.62L95.8213 275.75H96.5213L93.8913 281.63C93.7447 281.97 93.5813 282.24 93.4013 282.44C93.228 282.64 93.038 282.78 92.8313 282.86C92.6247 282.947 92.3947 282.99 92.1413 282.99ZM93.5413 281.15L91.1213 275.75H91.8613L94.0013 280.57L93.5413 281.15ZM97.5213 281V275.75H98.2313V281H97.5213ZM97.8813 274.59C97.7346 274.59 97.6113 274.54 97.5113 274.44C97.4113 274.34 97.3613 274.22 97.3613 274.08C97.3613 273.94 97.4113 273.823 97.5113 273.73C97.6113 273.63 97.7346 273.58 97.8813 273.58C98.0279 273.58 98.1513 273.627 98.2513 273.72C98.3513 273.813 98.4013 273.93 98.4013 274.07C98.4013 274.217 98.3513 274.34 98.2513 274.44C98.1579 274.54 98.0346 274.59 97.8813 274.59ZM100.207 281V273.58H100.917V281H100.207Z" fill="black"/>
<path d="M101.24 90.16C100.673 90.16 100.147 90.07 99.66 89.89C99.18 89.71 98.7633 89.4567 98.41 89.13C98.0567 88.7967 97.78 88.4067 97.58 87.96C97.3867 87.5133 97.29 87.0267 97.29 86.5C97.29 85.9667 97.3867 85.48 97.58 85.04C97.78 84.5933 98.0567 84.2067 98.41 83.88C98.7633 83.5467 99.18 83.29 99.66 83.11C100.147 82.93 100.673 82.84 101.24 82.84C101.813 82.84 102.34 82.93 102.82 83.11C103.3 83.29 103.717 83.5467 104.07 83.88C104.423 84.2067 104.697 84.5933 104.89 85.04C105.09 85.48 105.19 85.9667 105.19 86.5C105.19 87.0267 105.09 87.5133 104.89 87.96C104.697 88.4067 104.423 88.7967 104.07 89.13C103.717 89.4567 103.3 89.71 102.82 89.89C102.34 90.07 101.813 90.16 101.24 90.16ZM103.53 91.77C103.203 91.77 102.9 91.7367 102.62 91.67C102.34 91.61 102.067 91.5067 101.8 91.36C101.54 91.2133 101.267 91.01 100.98 90.75C100.693 90.4967 100.373 90.18 100.02 89.8L102.46 89.2C102.62 89.4467 102.757 89.6367 102.87 89.77C102.983 89.9033 103.093 89.9967 103.2 90.05C103.313 90.1033 103.44 90.13 103.58 90.13C103.927 90.13 104.25 89.98 104.55 89.68L105.57 90.88C105.07 91.4733 104.39 91.77 103.53 91.77ZM101.24 88.25C101.46 88.25 101.663 88.21 101.85 88.13C102.043 88.05 102.21 87.9367 102.35 87.79C102.497 87.6367 102.61 87.4533 102.69 87.24C102.77 87.02 102.81 86.7733 102.81 86.5C102.81 86.2267 102.77 85.9833 102.69 85.77C102.61 85.55 102.497 85.3667 102.35 85.22C102.21 85.0667 102.043 84.95 101.85 84.87C101.663 84.79 101.46 84.75 101.24 84.75C101.02 84.75 100.813 84.79 100.62 84.87C100.433 84.95 100.267 85.0667 100.12 85.22C99.98 85.3667 99.87 85.55 99.79 85.77C99.71 85.9833 99.67 86.2267 99.67 86.5C99.67 86.7733 99.71 87.02 99.79 87.24C99.87 87.4533 99.98 87.6367 100.12 87.79C100.267 87.9367 100.433 88.05 100.62 88.13C100.813 88.21 101.02 88.25 101.24 88.25ZM109.287 90V89.03L109.127 88.77V86.93C109.127 86.6633 109.043 86.46 108.877 86.32C108.717 86.18 108.453 86.11 108.087 86.11C107.84 86.11 107.59 86.15 107.337 86.23C107.083 86.3033 106.867 86.4067 106.687 86.54L105.967 85.05C106.287 84.85 106.67 84.6967 107.117 84.59C107.563 84.4833 108 84.43 108.427 84.43C109.367 84.43 110.093 84.64 110.607 85.06C111.127 85.48 111.387 86.1467 111.387 87.06V90H109.287ZM107.737 90.1C107.29 90.1 106.917 90.0233 106.617 89.87C106.317 89.7167 106.09 89.5133 105.937 89.26C105.783 89 105.707 88.7133 105.707 88.4C105.707 88.0467 105.797 87.7467 105.977 87.5C106.157 87.2533 106.43 87.0667 106.797 86.94C107.17 86.8133 107.64 86.75 108.207 86.75H109.347V87.84H108.567C108.327 87.84 108.15 87.88 108.037 87.96C107.93 88.0333 107.877 88.1467 107.877 88.3C107.877 88.4267 107.923 88.5333 108.017 88.62C108.117 88.7 108.25 88.74 108.417 88.74C108.57 88.74 108.71 88.7 108.837 88.62C108.97 88.5333 109.067 88.4 109.127 88.22L109.417 88.89C109.33 89.2967 109.147 89.6 108.867 89.8C108.587 90 108.21 90.1 107.737 90.1ZM112.363 90V84.53H114.513V86.18L114.163 85.71C114.33 85.2833 114.597 84.9633 114.963 84.75C115.33 84.5367 115.77 84.43 116.283 84.43V86.43C116.183 86.4167 116.093 86.4067 116.013 86.4C115.94 86.3933 115.863 86.39 115.783 86.39C115.443 86.39 115.163 86.48 114.943 86.66C114.73 86.8333 114.623 87.1367 114.623 87.57V90H112.363ZM119.931 90V89.03L119.771 88.77V86.93C119.771 86.6633 119.688 86.46 119.521 86.32C119.361 86.18 119.098 86.11 118.731 86.11C118.484 86.11 118.234 86.15 117.981 86.23C117.728 86.3033 117.511 86.4067 117.331 86.54L116.611 85.05C116.931 84.85 117.314 84.6967 117.761 84.59C118.208 84.4833 118.644 84.43 119.071 84.43C120.011 84.43 120.738 84.64 121.251 85.06C121.771 85.48 122.031 86.1467 122.031 87.06V90H119.931ZM118.381 90.1C117.934 90.1 117.561 90.0233 117.261 89.87C116.961 89.7167 116.734 89.5133 116.581 89.26C116.428 89 116.351 88.7133 116.351 88.4C116.351 88.0467 116.441 87.7467 116.621 87.5C116.801 87.2533 117.074 87.0667 117.441 86.94C117.814 86.8133 118.284 86.75 118.851 86.75H119.991V87.84H119.211C118.971 87.84 118.794 87.88 118.681 87.96C118.574 88.0333 118.521 88.1467 118.521 88.3C118.521 88.4267 118.568 88.5333 118.661 88.62C118.761 88.7 118.894 88.74 119.061 88.74C119.214 88.74 119.354 88.7 119.481 88.62C119.614 88.5333 119.711 88.4 119.771 88.22L120.061 88.89C119.974 89.2967 119.791 89.6 119.511 89.8C119.231 90 118.854 90.1 118.381 90.1ZM126.658 90.1C126.158 90.1 125.754 90 125.448 89.8C125.141 89.6 124.918 89.29 124.778 88.87C124.644 88.45 124.578 87.9133 124.578 87.26C124.578 86.6133 124.651 86.0833 124.798 85.67C124.944 85.25 125.171 84.94 125.478 84.74C125.791 84.5333 126.184 84.43 126.658 84.43C127.138 84.43 127.578 84.5433 127.978 84.77C128.378 84.9967 128.698 85.3233 128.938 85.75C129.178 86.17 129.298 86.6733 129.298 87.26C129.298 87.8467 129.178 88.3533 128.938 88.78C128.698 89.2 128.378 89.5267 127.978 89.76C127.578 89.9867 127.138 90.1 126.658 90.1ZM123.008 90V82.58H125.268V85.26L125.168 87.26L125.158 89.26V90H123.008ZM126.118 88.34C126.284 88.34 126.434 88.3 126.568 88.22C126.701 88.14 126.808 88.02 126.888 87.86C126.968 87.6933 127.008 87.4933 127.008 87.26C127.008 87.02 126.968 86.8233 126.888 86.67C126.808 86.51 126.701 86.39 126.568 86.31C126.434 86.23 126.284 86.19 126.118 86.19C125.951 86.19 125.801 86.23 125.668 86.31C125.534 86.39 125.428 86.51 125.348 86.67C125.268 86.8233 125.228 87.02 125.228 87.26C125.228 87.4933 125.268 87.6933 125.348 87.86C125.428 88.02 125.534 88.14 125.668 88.22C125.801 88.3 125.951 88.34 126.118 88.34ZM133.183 90V89.03L133.023 88.77V86.93C133.023 86.6633 132.94 86.46 132.773 86.32C132.613 86.18 132.35 86.11 131.983 86.11C131.736 86.11 131.486 86.15 131.233 86.23C130.98 86.3033 130.763 86.4067 130.583 86.54L129.863 85.05C130.183 84.85 130.566 84.6967 131.013 84.59C131.46 84.4833 131.896 84.43 132.323 84.43C133.263 84.43 133.99 84.64 134.503 85.06C135.023 85.48 135.283 86.1467 135.283 87.06V90H133.183ZM131.633 90.1C131.186 90.1 130.813 90.0233 130.513 89.87C130.213 89.7167 129.986 89.5133 129.833 89.26C129.68 89 129.603 88.7133 129.603 88.4C129.603 88.0467 129.693 87.7467 129.873 87.5C130.053 87.2533 130.326 87.0667 130.693 86.94C131.066 86.8133 131.536 86.75 132.103 86.75H133.243V87.84H132.463C132.223 87.84 132.046 87.88 131.933 87.96C131.826 88.0333 131.773 88.1467 131.773 88.3C131.773 88.4267 131.82 88.5333 131.913 88.62C132.013 88.7 132.146 88.74 132.313 88.74C132.466 88.74 132.606 88.7 132.733 88.62C132.866 88.5333 132.963 88.4 133.023 88.22L133.313 88.89C133.226 89.2967 133.043 89.6 132.763 89.8C132.483 90 132.106 90.1 131.633 90.1ZM139.137 92.04C138.597 92.04 138.091 91.9833 137.617 91.87C137.144 91.7567 136.737 91.5867 136.397 91.36L137.157 89.82C137.371 89.9867 137.641 90.1167 137.967 90.21C138.301 90.31 138.614 90.36 138.907 90.36C139.374 90.36 139.707 90.26 139.907 90.06C140.107 89.8667 140.207 89.5867 140.207 89.22V88.76L140.307 87.06L140.317 85.36V84.53H142.467V88.91C142.467 89.97 142.174 90.7567 141.587 91.27C141.001 91.7833 140.184 92.04 139.137 92.04ZM138.697 89.7C138.237 89.7 137.807 89.5933 137.407 89.38C137.007 89.16 136.684 88.8533 136.437 88.46C136.191 88.0667 136.067 87.6 136.067 87.06C136.067 86.52 136.191 86.0533 136.437 85.66C136.684 85.2667 137.007 84.9633 137.407 84.75C137.807 84.5367 138.237 84.43 138.697 84.43C139.171 84.43 139.557 84.5233 139.857 84.71C140.164 84.8967 140.391 85.1867 140.537 85.58C140.684 85.9667 140.757 86.46 140.757 87.06C140.757 87.66 140.684 88.1567 140.537 88.55C140.391 88.9367 140.164 89.2267 139.857 89.42C139.557 89.6067 139.171 89.7 138.697 89.7ZM139.297 87.94C139.477 87.94 139.637 87.9033 139.777 87.83C139.917 87.7567 140.027 87.6533 140.107 87.52C140.187 87.3867 140.227 87.2333 140.227 87.06C140.227 86.88 140.187 86.7267 140.107 86.6C140.027 86.4667 139.917 86.3667 139.777 86.3C139.637 86.2267 139.477 86.19 139.297 86.19C139.124 86.19 138.964 86.2267 138.817 86.3C138.677 86.3667 138.564 86.4667 138.477 86.6C138.397 86.7267 138.357 86.88 138.357 87.06C138.357 87.2333 138.397 87.3867 138.477 87.52C138.564 87.6533 138.677 87.7567 138.817 87.83C138.964 87.9033 139.124 87.94 139.297 87.94ZM139.407 84.03C138.807 84.03 138.314 83.88 137.927 83.58C137.547 83.2733 137.344 82.8567 137.317 82.33H138.667C138.681 82.5167 138.754 82.6667 138.887 82.78C139.027 82.8867 139.201 82.94 139.407 82.94C139.614 82.94 139.784 82.8867 139.917 82.78C140.057 82.6667 140.134 82.5167 140.147 82.33H141.497C141.471 82.8567 141.264 83.2733 140.877 83.58C140.497 83.88 140.007 84.03 139.407 84.03Z" fill="black"/>
<path d="M73.5 58V51.64H71.04V51H76.7V51.64H74.24V58H73.5ZM79.0153 52.7C79.562 52.7 80.042 52.8167 80.4553 53.05C80.8686 53.2767 81.192 53.59 81.4253 53.99C81.6586 54.39 81.7753 54.85 81.7753 55.37C81.7753 55.89 81.662 56.3533 81.4353 56.76C81.2153 57.16 80.912 57.4767 80.5253 57.71C80.1386 57.9367 79.6986 58.05 79.2053 58.05C78.712 58.05 78.272 57.9367 77.8853 57.71C77.5053 57.4833 77.2053 57.17 76.9853 56.77C76.7653 56.3633 76.6553 55.8967 76.6553 55.37C76.6553 55.3433 76.6553 55.31 76.6553 55.27C76.662 55.23 76.6653 55.1933 76.6653 55.16H81.2353V55.69H77.0453L77.3253 55.48C77.3253 55.8533 77.4053 56.19 77.5653 56.49C77.732 56.7833 77.9553 57.0167 78.2353 57.19C78.5153 57.3567 78.8386 57.44 79.2053 57.44C79.572 57.44 79.8953 57.3567 80.1753 57.19C80.462 57.0167 80.6853 56.78 80.8453 56.48C81.0053 56.18 81.0853 55.84 81.0853 55.46V55.34C81.0853 54.94 80.9953 54.59 80.8153 54.29C80.642 53.99 80.3986 53.7533 80.0853 53.58C79.772 53.4067 79.4086 53.32 78.9953 53.32C78.6686 53.32 78.3686 53.3767 78.0953 53.49C77.822 53.6033 77.5853 53.78 77.3853 54.02L76.9853 53.55C77.2253 53.27 77.5186 53.06 77.8653 52.92C78.2186 52.7733 78.602 52.7 79.0153 52.7ZM83.2205 58V52.75H83.9005V54.18L83.8305 53.93C83.9771 53.53 84.2238 53.2267 84.5705 53.02C84.9171 52.8067 85.3471 52.7 85.8605 52.7V53.39C85.8338 53.39 85.8071 53.39 85.7805 53.39C85.7538 53.3833 85.7271 53.38 85.7005 53.38C85.1471 53.38 84.7138 53.55 84.4005 53.89C84.0871 54.2233 83.9305 54.7 83.9305 55.32V58H83.2205ZM89.0406 58.05C88.5473 58.05 88.1673 57.9167 87.9006 57.65C87.634 57.3833 87.5006 57.0067 87.5006 56.52V51.59H88.2106V56.48C88.2106 56.7867 88.2873 57.0233 88.4406 57.19C88.6006 57.3567 88.8273 57.44 89.1206 57.44C89.434 57.44 89.694 57.35 89.9006 57.17L90.1506 57.68C90.0106 57.8067 89.8406 57.9 89.6406 57.96C89.4473 58.02 89.2473 58.05 89.0406 58.05ZM86.5606 53.34V52.75H89.8106V53.34H86.5606ZM93.0876 52.7C93.6342 52.7 94.1142 52.8167 94.5276 53.05C94.9409 53.2767 95.2642 53.59 95.4976 53.99C95.7309 54.39 95.8476 54.85 95.8476 55.37C95.8476 55.89 95.7342 56.3533 95.5076 56.76C95.2876 57.16 94.9842 57.4767 94.5976 57.71C94.2109 57.9367 93.7709 58.05 93.2776 58.05C92.7842 58.05 92.3442 57.9367 91.9576 57.71C91.5776 57.4833 91.2776 57.17 91.0576 56.77C90.8376 56.3633 90.7276 55.8967 90.7276 55.37C90.7276 55.3433 90.7276 55.31 90.7276 55.27C90.7342 55.23 90.7376 55.1933 90.7376 55.16H95.3076V55.69H91.1176L91.3976 55.48C91.3976 55.8533 91.4776 56.19 91.6376 56.49C91.8042 56.7833 92.0276 57.0167 92.3076 57.19C92.5876 57.3567 92.9109 57.44 93.2776 57.44C93.6442 57.44 93.9676 57.3567 94.2476 57.19C94.5342 57.0167 94.7576 56.78 94.9176 56.48C95.0776 56.18 95.1576 55.84 95.1576 55.46V55.34C95.1576 54.94 95.0676 54.59 94.8876 54.29C94.7142 53.99 94.4709 53.7533 94.1576 53.58C93.8442 53.4067 93.4809 53.32 93.0676 53.32C92.7409 53.32 92.4409 53.3767 92.1676 53.49C91.8942 53.6033 91.6576 53.78 91.4576 54.02L91.0576 53.55C91.2976 53.27 91.5909 53.06 91.9376 52.92C92.2909 52.7733 92.6742 52.7 93.0876 52.7ZM97.2927 58V52.75H97.9727V54.18L97.9027 53.93C98.0494 53.53 98.2961 53.2267 98.6427 53.02C98.9894 52.8067 99.4194 52.7 99.9327 52.7V53.39C99.9061 53.39 99.8794 53.39 99.8527 53.39C99.8261 53.3833 99.7994 53.38 99.7727 53.38C99.2194 53.38 98.7861 53.55 98.4727 53.89C98.1594 54.2233 98.0027 54.7 98.0027 55.32V58H97.2927Z" fill="black"/>
<path d="M65.02 124L68.22 117H68.95L72.15 124H71.37L68.43 117.43H68.73L65.79 124H65.02ZM66.28 122.13L66.5 121.53H70.57L70.79 122.13H66.28ZM75.3491 125.99C74.8691 125.99 74.4091 125.92 73.9691 125.78C73.5291 125.64 73.1725 125.44 72.8991 125.18L73.2591 124.64C73.5058 124.86 73.8091 125.033 74.1691 125.16C74.5358 125.293 74.9225 125.36 75.3291 125.36C75.9958 125.36 76.4858 125.203 76.7991 124.89C77.1125 124.583 77.2691 124.103 77.2691 123.45V122.14L77.3691 121.24L77.2991 120.34V118.75H77.9791V123.36C77.9791 124.267 77.7558 124.93 77.3091 125.35C76.8691 125.777 76.2158 125.99 75.3491 125.99ZM75.2191 123.8C74.7191 123.8 74.2691 123.693 73.8691 123.48C73.4691 123.26 73.1525 122.957 72.9191 122.57C72.6925 122.183 72.5791 121.74 72.5791 121.24C72.5791 120.74 72.6925 120.3 72.9191 119.92C73.1525 119.533 73.4691 119.233 73.8691 119.02C74.2691 118.807 74.7191 118.7 75.2191 118.7C75.6858 118.7 76.1058 118.797 76.4791 118.99C76.8525 119.183 77.1491 119.47 77.3691 119.85C77.5891 120.23 77.6991 120.693 77.6991 121.24C77.6991 121.787 77.5891 122.25 77.3691 122.63C77.1491 123.01 76.8525 123.3 76.4791 123.5C76.1058 123.7 75.6858 123.8 75.2191 123.8ZM75.2891 123.17C75.6758 123.17 76.0191 123.09 76.3191 122.93C76.6191 122.763 76.8558 122.537 77.0291 122.25C77.2025 121.957 77.2891 121.62 77.2891 121.24C77.2891 120.86 77.2025 120.527 77.0291 120.24C76.8558 119.953 76.6191 119.73 76.3191 119.57C76.0191 119.403 75.6758 119.32 75.2891 119.32C74.9091 119.32 74.5658 119.403 74.2591 119.57C73.9591 119.73 73.7225 119.953 73.5491 120.24C73.3825 120.527 73.2991 120.86 73.2991 121.24C73.2991 121.62 73.3825 121.957 73.5491 122.25C73.7225 122.537 73.9591 122.763 74.2591 122.93C74.5658 123.09 74.9091 123.17 75.2891 123.17ZM75.3691 117.98C74.9491 117.98 74.5925 117.867 74.2991 117.64C74.0125 117.407 73.8625 117.09 73.8491 116.69H74.3491C74.3625 116.95 74.4658 117.157 74.6591 117.31C74.8591 117.463 75.0958 117.54 75.3691 117.54C75.6491 117.54 75.8858 117.463 76.0791 117.31C76.2791 117.157 76.3825 116.95 76.3891 116.69H76.8891C76.8758 117.09 76.7225 117.407 76.4291 117.64C76.1425 117.867 75.7891 117.98 75.3691 117.98ZM82.0448 124.05C81.5448 124.05 81.0948 123.937 80.6948 123.71C80.3015 123.483 79.9915 123.17 79.7648 122.77C79.5382 122.363 79.4248 121.897 79.4248 121.37C79.4248 120.837 79.5382 120.37 79.7648 119.97C79.9915 119.57 80.3015 119.26 80.6948 119.04C81.0948 118.813 81.5448 118.7 82.0448 118.7C82.5048 118.7 82.9148 118.803 83.2748 119.01C83.6415 119.217 83.9315 119.52 84.1448 119.92C84.3648 120.313 84.4748 120.797 84.4748 121.37C84.4748 121.937 84.3682 122.42 84.1548 122.82C83.9415 123.22 83.6515 123.527 83.2848 123.74C82.9248 123.947 82.5115 124.05 82.0448 124.05ZM82.0948 123.42C82.4682 123.42 82.8015 123.337 83.0948 123.17C83.3948 122.997 83.6282 122.757 83.7948 122.45C83.9682 122.137 84.0548 121.777 84.0548 121.37C84.0548 120.957 83.9682 120.597 83.7948 120.29C83.6282 119.983 83.3948 119.747 83.0948 119.58C82.8015 119.407 82.4682 119.32 82.0948 119.32C81.7282 119.32 81.3982 119.407 81.1048 119.58C80.8115 119.747 80.5782 119.983 80.4048 120.29C80.2315 120.597 80.1448 120.957 80.1448 121.37C80.1448 121.777 80.2315 122.137 80.4048 122.45C80.5782 122.757 80.8115 122.997 81.1048 123.17C81.3982 123.337 81.7282 123.42 82.0948 123.42ZM84.0748 124V122.42L84.1448 121.36L84.0448 120.3V116.58H84.7548V124H84.0748ZM90.0222 124V122.84L89.9922 122.65V120.71C89.9922 120.263 89.8655 119.92 89.6122 119.68C89.3655 119.44 88.9955 119.32 88.5022 119.32C88.1622 119.32 87.8389 119.377 87.5322 119.49C87.2255 119.603 86.9655 119.753 86.7522 119.94L86.4322 119.41C86.6989 119.183 87.0189 119.01 87.3922 118.89C87.7655 118.763 88.1589 118.7 88.5722 118.7C89.2522 118.7 89.7755 118.87 90.1422 119.21C90.5155 119.543 90.7022 120.053 90.7022 120.74V124H90.0222ZM88.2122 124.05C87.8189 124.05 87.4755 123.987 87.1822 123.86C86.8955 123.727 86.6755 123.547 86.5222 123.32C86.3689 123.087 86.2922 122.82 86.2922 122.52C86.2922 122.247 86.3555 122 86.4822 121.78C86.6155 121.553 86.8289 121.373 87.1222 121.24C87.4222 121.1 87.8222 121.03 88.3222 121.03H90.1322V121.56H88.3422C87.8355 121.56 87.4822 121.65 87.2822 121.83C87.0889 122.01 86.9922 122.233 86.9922 122.5C86.9922 122.8 87.1089 123.04 87.3422 123.22C87.5755 123.4 87.9022 123.49 88.3222 123.49C88.7222 123.49 89.0655 123.4 89.3522 123.22C89.6455 123.033 89.8589 122.767 89.9922 122.42L90.1522 122.91C90.0189 123.257 89.7855 123.533 89.4522 123.74C89.1255 123.947 88.7122 124.05 88.2122 124.05ZM99.1906 118.7C99.6173 118.7 99.9873 118.783 100.301 118.95C100.621 119.11 100.867 119.357 101.041 119.69C101.221 120.023 101.311 120.443 101.311 120.95V124H100.601V121.02C100.601 120.467 100.467 120.05 100.201 119.77C99.9406 119.483 99.5706 119.34 99.0906 119.34C98.7306 119.34 98.4173 119.417 98.1506 119.57C97.8906 119.717 97.6873 119.933 97.5406 120.22C97.4006 120.5 97.3306 120.84 97.3306 121.24V124H96.6206V121.02C96.6206 120.467 96.4873 120.05 96.2206 119.77C95.954 119.483 95.5806 119.34 95.1006 119.34C94.7473 119.34 94.4373 119.417 94.1706 119.57C93.904 119.717 93.6973 119.933 93.5506 120.22C93.4106 120.5 93.3406 120.84 93.3406 121.24V124H92.6306V118.75H93.3106V120.17L93.2006 119.92C93.3606 119.54 93.6173 119.243 93.9706 119.03C94.3306 118.81 94.754 118.7 95.2406 118.7C95.754 118.7 96.1906 118.83 96.5506 119.09C96.9106 119.343 97.144 119.727 97.2506 120.24L96.9706 120.13C97.124 119.703 97.394 119.36 97.7806 119.1C98.174 118.833 98.644 118.7 99.1906 118.7Z" fill="black"/>
<path d="M79.17 164L82.04 160.12V160.69L79.34 157H80.19L82.46 160.08L82.13 160.09L84.4 157H85.2L82.53 160.64V160.12L85.39 164H84.53L82.11 160.71H82.42L80.02 164H79.17ZM89.6863 164V162.84L89.6563 162.65V160.71C89.6563 160.263 89.5296 159.92 89.2763 159.68C89.0296 159.44 88.6596 159.32 88.1663 159.32C87.8263 159.32 87.5029 159.377 87.1963 159.49C86.8896 159.603 86.6296 159.753 86.4163 159.94L86.0963 159.41C86.3629 159.183 86.6829 159.01 87.0563 158.89C87.4296 158.763 87.8229 158.7 88.2363 158.7C88.9163 158.7 89.4396 158.87 89.8063 159.21C90.1796 159.543 90.3663 160.053 90.3663 160.74V164H89.6863ZM87.8763 164.05C87.4829 164.05 87.1396 163.987 86.8463 163.86C86.5596 163.727 86.3396 163.547 86.1863 163.32C86.0329 163.087 85.9563 162.82 85.9563 162.52C85.9563 162.247 86.0196 162 86.1463 161.78C86.2796 161.553 86.4929 161.373 86.7863 161.24C87.0863 161.1 87.4863 161.03 87.9863 161.03H89.7963V161.56H88.0063C87.4996 161.56 87.1463 161.65 86.9463 161.83C86.7529 162.01 86.6562 162.233 86.6562 162.5C86.6562 162.8 86.7729 163.04 87.0063 163.22C87.2396 163.4 87.5663 163.49 87.9863 163.49C88.3863 163.49 88.7296 163.4 89.0163 163.22C89.3096 163.033 89.5229 162.767 89.6563 162.42L89.8163 162.91C89.6829 163.257 89.4496 163.533 89.1163 163.74C88.7896 163.947 88.3763 164.05 87.8763 164.05ZM94.9747 158.7C95.4014 158.7 95.7747 158.783 96.0947 158.95C96.4214 159.11 96.6747 159.357 96.8547 159.69C97.0414 160.023 97.1347 160.443 97.1347 160.95V164H96.4247V161.02C96.4247 160.467 96.2847 160.05 96.0047 159.77C95.7314 159.483 95.3447 159.34 94.8447 159.34C94.4714 159.34 94.1447 159.417 93.8647 159.57C93.5914 159.717 93.378 159.933 93.2247 160.22C93.078 160.5 93.0047 160.84 93.0047 161.24V164H92.2947V158.75H92.9747V160.19L92.8647 159.92C93.0314 159.54 93.298 159.243 93.6647 159.03C94.0314 158.81 94.468 158.7 94.9747 158.7ZM99.6125 162.64L99.6325 161.73L102.903 158.75H103.773L101.463 160.96L101.063 161.3L99.6125 162.64ZM99.0525 164V156.58H99.7625V164H99.0525ZM103.123 164L100.933 161.27L101.393 160.72L103.993 164H103.123ZM106.683 158.7C107.23 158.7 107.71 158.817 108.123 159.05C108.537 159.277 108.86 159.59 109.093 159.99C109.327 160.39 109.443 160.85 109.443 161.37C109.443 161.89 109.33 162.353 109.103 162.76C108.883 163.16 108.58 163.477 108.193 163.71C107.807 163.937 107.367 164.05 106.873 164.05C106.38 164.05 105.94 163.937 105.553 163.71C105.173 163.483 104.873 163.17 104.653 162.77C104.433 162.363 104.323 161.897 104.323 161.37C104.323 161.343 104.323 161.31 104.323 161.27C104.33 161.23 104.333 161.193 104.333 161.16H108.903V161.69H104.713L104.993 161.48C104.993 161.853 105.073 162.19 105.233 162.49C105.4 162.783 105.623 163.017 105.903 163.19C106.183 163.357 106.507 163.44 106.873 163.44C107.24 163.44 107.563 163.357 107.843 163.19C108.13 163.017 108.353 162.78 108.513 162.48C108.673 162.18 108.753 161.84 108.753 161.46V161.34C108.753 160.94 108.663 160.59 108.483 160.29C108.31 159.99 108.067 159.753 107.753 159.58C107.44 159.407 107.077 159.32 106.663 159.32C106.337 159.32 106.037 159.377 105.763 159.49C105.49 159.603 105.253 159.78 105.053 160.02L104.653 159.55C104.893 159.27 105.187 159.06 105.533 158.92C105.887 158.773 106.27 158.7 106.683 158.7ZM113.568 158.7C113.995 158.7 114.368 158.783 114.688 158.95C115.015 159.11 115.268 159.357 115.448 159.69C115.635 160.023 115.728 160.443 115.728 160.95V164H115.018V161.02C115.018 160.467 114.878 160.05 114.598 159.77C114.325 159.483 113.938 159.34 113.438 159.34C113.065 159.34 112.738 159.417 112.458 159.57C112.185 159.717 111.972 159.933 111.818 160.22C111.672 160.5 111.598 160.84 111.598 161.24V164H110.888V158.75H111.568V160.19L111.458 159.92C111.625 159.54 111.892 159.243 112.258 159.03C112.625 158.81 113.062 158.7 113.568 158.7ZM119.736 164.05C119.236 164.05 118.786 163.937 118.386 163.71C117.993 163.483 117.683 163.17 117.456 162.77C117.23 162.363 117.116 161.897 117.116 161.37C117.116 160.837 117.23 160.37 117.456 159.97C117.683 159.57 117.993 159.26 118.386 159.04C118.786 158.813 119.236 158.7 119.736 158.7C120.196 158.7 120.606 158.803 120.966 159.01C121.333 159.217 121.623 159.52 121.836 159.92C122.056 160.313 122.166 160.797 122.166 161.37C122.166 161.937 122.06 162.42 121.846 162.82C121.633 163.22 121.343 163.527 120.976 163.74C120.616 163.947 120.203 164.05 119.736 164.05ZM119.786 163.42C120.16 163.42 120.493 163.337 120.786 163.17C121.086 162.997 121.32 162.757 121.486 162.45C121.66 162.137 121.746 161.777 121.746 161.37C121.746 160.957 121.66 160.597 121.486 160.29C121.32 159.983 121.086 159.747 120.786 159.58C120.493 159.407 120.16 159.32 119.786 159.32C119.42 159.32 119.09 159.407 118.796 159.58C118.503 159.747 118.27 159.983 118.096 160.29C117.923 160.597 117.836 160.957 117.836 161.37C117.836 161.777 117.923 162.137 118.096 162.45C118.27 162.757 118.503 162.997 118.796 163.17C119.09 163.337 119.42 163.42 119.786 163.42ZM121.766 164V162.42L121.836 161.36L121.736 160.3V156.58H122.446V164H121.766ZM124.424 164V158.75H125.134V164H124.424ZM124.784 157.59C124.637 157.59 124.514 157.54 124.414 157.44C124.314 157.34 124.264 157.22 124.264 157.08C124.264 156.94 124.314 156.823 124.414 156.73C124.514 156.63 124.637 156.58 124.784 156.58C124.93 156.58 125.054 156.627 125.154 156.72C125.254 156.813 125.304 156.93 125.304 157.07C125.304 157.217 125.254 157.34 125.154 157.44C125.06 157.54 124.937 157.59 124.784 157.59Z" fill="black"/>
<path d="M36.07 186.06C35.55 186.06 35.05 185.977 34.57 185.81C34.0967 185.637 33.73 185.417 33.47 185.15L33.76 184.58C34.0067 184.82 34.3367 185.023 34.75 185.19C35.17 185.35 35.61 185.43 36.07 185.43C36.51 185.43 36.8667 185.377 37.14 185.27C37.42 185.157 37.6233 185.007 37.75 184.82C37.8833 184.633 37.95 184.427 37.95 184.2C37.95 183.927 37.87 183.707 37.71 183.54C37.5567 183.373 37.3533 183.243 37.1 183.15C36.8467 183.05 36.5667 182.963 36.26 182.89C35.9533 182.817 35.6467 182.74 35.34 182.66C35.0333 182.573 34.75 182.46 34.49 182.32C34.2367 182.18 34.03 181.997 33.87 181.77C33.7167 181.537 33.64 181.233 33.64 180.86C33.64 180.513 33.73 180.197 33.91 179.91C34.0967 179.617 34.38 179.383 34.76 179.21C35.14 179.03 35.6267 178.94 36.22 178.94C36.6133 178.94 37.0033 178.997 37.39 179.11C37.7767 179.217 38.11 179.367 38.39 179.56L38.14 180.15C37.84 179.95 37.52 179.803 37.18 179.71C36.8467 179.617 36.5233 179.57 36.21 179.57C35.79 179.57 35.4433 179.627 35.17 179.74C34.8967 179.853 34.6933 180.007 34.56 180.2C34.4333 180.387 34.37 180.6 34.37 180.84C34.37 181.113 34.4467 181.333 34.6 181.5C34.76 181.667 34.9667 181.797 35.22 181.89C35.48 181.983 35.7633 182.067 36.07 182.14C36.3767 182.213 36.68 182.293 36.98 182.38C37.2867 182.467 37.5667 182.58 37.82 182.72C38.08 182.853 38.2867 183.033 38.44 183.26C38.6 183.487 38.68 183.783 38.68 184.15C38.68 184.49 38.5867 184.807 38.4 185.1C38.2133 185.387 37.9267 185.62 37.54 185.8C37.16 185.973 36.67 186.06 36.07 186.06ZM35.99 188.2C35.8233 188.2 35.67 188.18 35.53 188.14C35.3967 188.1 35.27 188.043 35.15 187.97L35.32 187.59C35.42 187.65 35.5233 187.697 35.63 187.73C35.7433 187.763 35.86 187.78 35.98 187.78C36.18 187.78 36.3333 187.737 36.44 187.65C36.5467 187.57 36.6 187.457 36.6 187.31C36.6 187.177 36.5467 187.067 36.44 186.98C36.34 186.893 36.1867 186.85 35.98 186.85H35.75L35.99 185.94H36.42L36.27 186.52C36.5433 186.54 36.7533 186.623 36.9 186.77C37.0467 186.923 37.12 187.11 37.12 187.33C37.12 187.597 37.0133 187.807 36.8 187.96C36.5933 188.12 36.3233 188.2 35.99 188.2ZM42.3123 186.05C41.8657 186.05 41.4757 185.967 41.1423 185.8C40.809 185.633 40.549 185.383 40.3623 185.05C40.1823 184.717 40.0923 184.3 40.0923 183.8V180.75H40.8023V183.72C40.8023 184.28 40.939 184.703 41.2123 184.99C41.4923 185.27 41.8823 185.41 42.3823 185.41C42.749 185.41 43.0657 185.337 43.3323 185.19C43.6057 185.037 43.8123 184.817 43.9523 184.53C44.099 184.243 44.1723 183.9 44.1723 183.5V180.75H44.8823V186H44.2023V184.56L44.3123 184.82C44.1457 185.207 43.8857 185.51 43.5323 185.73C43.1857 185.943 42.779 186.05 42.3123 186.05ZM48.2711 186.05C47.8378 186.05 47.4278 185.99 47.0411 185.87C46.6544 185.743 46.3511 185.587 46.1311 185.4L46.4511 184.84C46.6644 185 46.9378 185.14 47.2711 185.26C47.6044 185.373 47.9544 185.43 48.3211 185.43C48.8211 185.43 49.1811 185.353 49.4011 185.2C49.6211 185.04 49.7311 184.83 49.7311 184.57C49.7311 184.377 49.6678 184.227 49.5411 184.12C49.4211 184.007 49.2611 183.923 49.0611 183.87C48.8611 183.81 48.6378 183.76 48.3911 183.72C48.1444 183.68 47.8978 183.633 47.6511 183.58C47.4111 183.527 47.1911 183.45 46.9911 183.35C46.7911 183.243 46.6278 183.1 46.5011 182.92C46.3811 182.74 46.3211 182.5 46.3211 182.2C46.3211 181.913 46.4011 181.657 46.5611 181.43C46.7211 181.203 46.9544 181.027 47.2611 180.9C47.5744 180.767 47.9544 180.7 48.4011 180.7C48.7411 180.7 49.0811 180.747 49.4211 180.84C49.7611 180.927 50.0411 181.043 50.2611 181.19L49.9511 181.76C49.7178 181.6 49.4678 181.487 49.2011 181.42C48.9344 181.347 48.6678 181.31 48.4011 181.31C47.9278 181.31 47.5778 181.393 47.3511 181.56C47.1311 181.72 47.0211 181.927 47.0211 182.18C47.0211 182.38 47.0811 182.537 47.2011 182.65C47.3278 182.763 47.4911 182.853 47.6911 182.92C47.8978 182.98 48.1211 183.03 48.3611 183.07C48.6078 183.11 48.8511 183.16 49.0911 183.22C49.3378 183.273 49.5611 183.35 49.7611 183.45C49.9678 183.543 50.1311 183.68 50.2511 183.86C50.3778 184.033 50.4411 184.263 50.4411 184.55C50.4411 184.857 50.3544 185.123 50.1811 185.35C50.0144 185.57 49.7678 185.743 49.4411 185.87C49.1211 185.99 48.7311 186.05 48.2711 186.05ZM48.0811 188.2C47.9144 188.2 47.7611 188.18 47.6211 188.14C47.4878 188.1 47.3611 188.043 47.2411 187.97L47.4111 187.59C47.5111 187.65 47.6144 187.697 47.7211 187.73C47.8344 187.763 47.9511 187.78 48.0711 187.78C48.2711 187.78 48.4244 187.737 48.5311 187.65C48.6378 187.57 48.6911 187.457 48.6911 187.31C48.6911 187.177 48.6378 187.067 48.5311 186.98C48.4311 186.893 48.2778 186.85 48.0711 186.85H47.8411L48.0811 185.94H48.5111L48.3611 186.52C48.6344 186.54 48.8444 186.623 48.9911 186.77C49.1378 186.923 49.2111 187.11 49.2111 187.33C49.2111 187.597 49.1044 187.807 48.8911 187.96C48.6844 188.12 48.4144 188.2 48.0811 188.2ZM55.0339 186V184.84L55.0039 184.65V182.71C55.0039 182.263 54.8772 181.92 54.6239 181.68C54.3772 181.44 54.0072 181.32 53.5139 181.32C53.1739 181.32 52.8506 181.377 52.5439 181.49C52.2372 181.603 51.9772 181.753 51.7639 181.94L51.4439 181.41C51.7106 181.183 52.0306 181.01 52.4039 180.89C52.7772 180.763 53.1706 180.7 53.5839 180.7C54.2639 180.7 54.7872 180.87 55.1539 181.21C55.5272 181.543 55.7139 182.053 55.7139 182.74V186H55.0339ZM53.2239 186.05C52.8306 186.05 52.4872 185.987 52.1939 185.86C51.9072 185.727 51.6872 185.547 51.5339 185.32C51.3806 185.087 51.3039 184.82 51.3039 184.52C51.3039 184.247 51.3672 184 51.4939 183.78C51.6272 183.553 51.8406 183.373 52.1339 183.24C52.4339 183.1 52.8339 183.03 53.3339 183.03H55.1439V183.56H53.3539C52.8472 183.56 52.4939 183.65 52.2939 183.83C52.1006 184.01 52.0039 184.233 52.0039 184.5C52.0039 184.8 52.1206 185.04 52.3539 185.22C52.5872 185.4 52.9139 185.49 53.3339 185.49C53.7339 185.49 54.0772 185.4 54.3639 185.22C54.6572 185.033 54.8706 184.767 55.0039 184.42L55.1639 184.91C55.0306 185.257 54.7972 185.533 54.4639 185.74C54.1372 185.947 53.7239 186.05 53.2239 186.05Z" fill="black"/>
</svg>
