<svg width="224" height="237" viewBox="0 0 224 237" fill="none" xmlns="http://www.w3.org/2000/svg">
<path d="M56.9883 93.5559L57.8188 90.4833L57.9105 87.319L56.9671 84.4482L51.6289 73.0143L48.9681 70.404L38.8565 66.207L28.7825 56.4232L24.4677 50.3084L22.0892 44.203L22.4186 36.3746L25.6722 29.8935L30.7916 25.0016L36.7532 21.9102L47.8341 19.6826L57.1411 13.394L61.7312 11.9246L63.538 14.7672L64.0885 25.6237L70.4971 29.1846L73.0474 27.004L75.1059 24.3561L78.4232 22.6215L82.0909 22.1684L88.243 16.9972L93.5906 10.5842L99.818 10.5702L103.85 17.0676L105.78 25.2223L111.602 28.7996L117.032 23.6519L117.418 13.6734L117.947 10.4293L120.681 7.95523L122.189 4.71588L124.22 2.04696L127.153 2L129.979 3.51638L134.303 4.59617L138.757 4.49757L134.214 10.3448L130.254 16.7812L128.883 25.4922L130.245 34.2197L136.59 48.6324L134.642 64.1554L144.069 68.4229L154.792 67.6999L160.954 59.6086L167.892 52.0806L175.874 43.0387L184.722 36.1727L189.898 40.6538L193.39 48.0268L198.876 51.705L205.056 53.529L211.95 57.0007L219.226 58.8363L222 62.0756L221.179 66.1037L218.688 73.4533L217.841 76.9978L217.321 85.0374L216.514 89.8753L214.843 93.9151L201.57 103.229L194.573 105.955L189.663 101.936L190.223 99.2741L190.166 97.4431L190.425 95.9197L192.082 94.192L200.029 92.6381L202.751 91.2344L205.082 87.7556L206.522 83.2159L206.682 78.6644L204.68 74.3781L201.139 72.5542L192.686 72.3054V70.2773L191.651 60.9419L190.973 58.3293L187.835 55.6885L184.48 54.8177L176.923 55.0759L174.82 55.8176L173.785 57.6345L173.093 59.949L171.625 63.2305L171.482 64.3878L171.538 66.8596L171.164 68.6365L170.315 69.12L169.451 69.1106L169.019 69.343L168.687 79.9671L169.291 85.5538L172.171 90.4363L171.451 95.9831L166.701 112.278L166.08 113.757L162.626 121.898L162.194 122.424L157.185 128.522L150.79 126.862L150.92 134.914L151.308 138.62L152.101 142.186L153.498 145.695L156.333 152.801L156.387 154.772L157.284 187.659L158.307 225.62V225.658L146.885 223.277L141.225 223.237L137.265 225.397L133.774 228.925L129.294 231.733L124.502 233.779L120.244 235L112.078 234.324L111.177 234.249L105.526 228.754L100.698 220.665L98.397 217.759L94.0047 212.205L91.3721 208.475L88.3913 205.217L85.4834 200.663L82.6508 198.074L80.364 195.011L79.1313 189.03L77.1009 184.14H72.9415L63.9733 188.323L58.5339 188.196L55.332 185.168L52.5535 181.051L43.9805 174.178L43.6488 170.356L44.3805 165.941L43.5547 162.645L43.0842 160.775L40.8539 158.897L17.431 147.313L5.9289 138.111L2.41879 131.649L2 122.323L3.64451 119.745L12.9162 114.001L13.4268 112.534L13.3915 110.823L13.9938 109.356L46.6602 103.567L53.9463 99.0441L53.9651 98.9971H53.991L55.5908 96.591L56.9624 93.6686L56.9883 93.5559Z" fill="#ECE7E2" stroke="#FFAC1C" stroke-width="3" stroke-linejoin="round"/>
<path d="M87.57 189V182H89.93V187.17H93.09V189H87.57ZM96.1819 183.43C96.8552 183.43 97.4385 183.553 97.9319 183.8C98.4252 184.047 98.8085 184.383 99.0819 184.81C99.3552 185.237 99.4919 185.723 99.4919 186.27C99.4919 186.823 99.3552 187.313 99.0819 187.74C98.8152 188.167 98.4485 188.5 97.9819 188.74C97.5152 188.98 96.9852 189.1 96.3919 189.1C95.8519 189.1 95.3519 188.993 94.8919 188.78C94.4385 188.567 94.0719 188.25 93.7919 187.83C93.5185 187.403 93.3819 186.883 93.3819 186.27C93.3819 186.19 93.3852 186.103 93.3919 186.01C93.3985 185.91 93.4052 185.82 93.4119 185.74H97.6219V186.83H94.6119L95.4619 186.54C95.4619 186.747 95.4985 186.927 95.5719 187.08C95.6519 187.233 95.7585 187.353 95.8919 187.44C96.0319 187.52 96.1919 187.56 96.3719 187.56C96.5585 187.56 96.7185 187.52 96.8519 187.44C96.9919 187.353 97.0985 187.233 97.1719 187.08C97.2452 186.927 97.2819 186.747 97.2819 186.54V186.2C97.2819 185.96 97.2352 185.76 97.1419 185.6C97.0485 185.433 96.9152 185.31 96.7419 185.23C96.5685 185.143 96.3585 185.1 96.1119 185.1C95.8652 185.1 95.6585 185.133 95.4919 185.2C95.3252 185.267 95.1519 185.367 94.9719 185.5L93.7919 184.31C94.0585 184.017 94.3852 183.797 94.7719 183.65C95.1652 183.503 95.6352 183.43 96.1819 183.43ZM104.005 183.43C104.425 183.43 104.805 183.517 105.145 183.69C105.485 183.857 105.752 184.12 105.945 184.48C106.145 184.84 106.245 185.307 106.245 185.88V189H103.985V186.27C103.985 185.93 103.925 185.69 103.805 185.55C103.685 185.403 103.522 185.33 103.315 185.33C103.162 185.33 103.018 185.367 102.885 185.44C102.758 185.507 102.655 185.62 102.575 185.78C102.502 185.94 102.465 186.157 102.465 186.43V189H100.205V183.53H102.355V185.13L101.925 184.67C102.138 184.257 102.425 183.947 102.785 183.74C103.152 183.533 103.558 183.43 104.005 183.43ZM109.117 188.1L109.167 185.44L111.057 183.53H113.727L111.227 186.15L110.097 187.06L109.117 188.1ZM107.227 189V181.58H109.487V189H107.227ZM111.177 189L109.677 187.1L111.067 185.39L113.907 189H111.177ZM116.621 183.43C117.295 183.43 117.878 183.553 118.371 183.8C118.865 184.047 119.248 184.383 119.521 184.81C119.795 185.237 119.931 185.723 119.931 186.27C119.931 186.823 119.795 187.313 119.521 187.74C119.255 188.167 118.888 188.5 118.421 188.74C117.955 188.98 117.425 189.1 116.831 189.1C116.291 189.1 115.791 188.993 115.331 188.78C114.878 188.567 114.511 188.25 114.231 187.83C113.958 187.403 113.821 186.883 113.821 186.27C113.821 186.19 113.825 186.103 113.831 186.01C113.838 185.91 113.845 185.82 113.851 185.74H118.061V186.83H115.051L115.901 186.54C115.901 186.747 115.938 186.927 116.011 187.08C116.091 187.233 116.198 187.353 116.331 187.44C116.471 187.52 116.631 187.56 116.811 187.56C116.998 187.56 117.158 187.52 117.291 187.44C117.431 187.353 117.538 187.233 117.611 187.08C117.685 186.927 117.721 186.747 117.721 186.54V186.2C117.721 185.96 117.675 185.76 117.581 185.6C117.488 185.433 117.355 185.31 117.181 185.23C117.008 185.143 116.798 185.1 116.551 185.1C116.305 185.1 116.098 185.133 115.931 185.2C115.765 185.267 115.591 185.367 115.411 185.5L114.231 184.31C114.498 184.017 114.825 183.797 115.211 183.65C115.605 183.503 116.075 183.43 116.621 183.43ZM120.645 189V183.53H122.795V185.18L122.445 184.71C122.611 184.283 122.878 183.963 123.245 183.75C123.611 183.537 124.051 183.43 124.565 183.43V185.43C124.465 185.417 124.375 185.407 124.295 185.4C124.221 185.393 124.145 185.39 124.065 185.39C123.725 185.39 123.445 185.48 123.225 185.66C123.011 185.833 122.905 186.137 122.905 186.57V189H120.645ZM128.212 189V188.03L128.052 187.77V185.93C128.052 185.663 127.969 185.46 127.802 185.32C127.642 185.18 127.379 185.11 127.012 185.11C126.766 185.11 126.516 185.15 126.262 185.23C126.009 185.303 125.792 185.407 125.612 185.54L124.892 184.05C125.212 183.85 125.596 183.697 126.042 183.59C126.489 183.483 126.926 183.43 127.352 183.43C128.292 183.43 129.019 183.64 129.532 184.06C130.052 184.48 130.312 185.147 130.312 186.06V189H128.212ZM126.662 189.1C126.216 189.1 125.842 189.023 125.542 188.87C125.242 188.717 125.016 188.513 124.862 188.26C124.709 188 124.632 187.713 124.632 187.4C124.632 187.047 124.722 186.747 124.902 186.5C125.082 186.253 125.356 186.067 125.722 185.94C126.096 185.813 126.566 185.75 127.132 185.75H128.272V186.84H127.492C127.252 186.84 127.076 186.88 126.962 186.96C126.856 187.033 126.802 187.147 126.802 187.3C126.802 187.427 126.849 187.533 126.942 187.62C127.042 187.7 127.176 187.74 127.342 187.74C127.496 187.74 127.636 187.7 127.762 187.62C127.896 187.533 127.992 187.4 128.052 187.22L128.342 187.89C128.256 188.297 128.072 188.6 127.792 188.8C127.512 189 127.136 189.1 126.662 189.1ZM135.089 183.43C135.509 183.43 135.889 183.517 136.229 183.69C136.569 183.857 136.836 184.12 137.029 184.48C137.229 184.84 137.329 185.307 137.329 185.88V189H135.069V186.27C135.069 185.93 135.009 185.69 134.889 185.55C134.769 185.403 134.606 185.33 134.399 185.33C134.246 185.33 134.102 185.367 133.969 185.44C133.842 185.507 133.739 185.62 133.659 185.78C133.586 185.94 133.549 186.157 133.549 186.43V189H131.289V183.53H133.439V185.13L133.009 184.67C133.222 184.257 133.509 183.947 133.869 183.74C134.236 183.533 134.642 183.43 135.089 183.43Z" fill="black"/>
<path d="M102.97 148V141.01H104.15V146.88H107.34V148H102.97ZM113.424 145.83H109.254C109.281 146.217 109.457 146.53 109.784 146.77C110.111 147.003 110.484 147.12 110.904 147.12C111.571 147.12 112.077 146.91 112.424 146.49L113.064 147.19C112.491 147.783 111.744 148.08 110.824 148.08C110.077 148.08 109.441 147.833 108.914 147.34C108.394 146.84 108.134 146.173 108.134 145.34C108.134 144.5 108.401 143.833 108.934 143.34C109.467 142.847 110.094 142.6 110.814 142.6C111.541 142.6 112.157 142.82 112.664 143.26C113.171 143.693 113.424 144.293 113.424 145.06V145.83ZM109.254 144.95H112.304C112.304 144.503 112.164 144.16 111.884 143.92C111.604 143.68 111.257 143.56 110.844 143.56C110.437 143.56 110.071 143.687 109.744 143.94C109.417 144.187 109.254 144.523 109.254 144.95ZM117.446 143.73C116.892 143.73 116.476 143.91 116.196 144.27C115.916 144.63 115.776 145.113 115.776 145.72V148H114.656V142.68H115.776V143.75C115.956 143.417 116.199 143.143 116.506 142.93C116.819 142.717 117.149 142.607 117.496 142.6L117.506 143.73C117.486 143.73 117.466 143.73 117.446 143.73ZM119.75 148H118.63V142.68H119.75V148ZM118.7 141.62C118.56 141.48 118.49 141.313 118.49 141.12C118.49 140.927 118.56 140.76 118.7 140.62C118.84 140.48 119.007 140.41 119.2 140.41C119.394 140.41 119.56 140.48 119.7 140.62C119.84 140.76 119.91 140.927 119.91 141.12C119.91 141.313 119.84 141.48 119.7 141.62C119.56 141.76 119.394 141.83 119.2 141.83C119.007 141.83 118.84 141.76 118.7 141.62ZM122.494 148H121.374V140.58H122.494V144.94L124.654 142.68H126.094L124.074 144.79L126.244 148H124.884L123.304 145.67L122.494 146.49V148Z" fill="black"/>
<path d="M36.72 126H35.52V123.24L32.92 119.01H34.21L36.12 122.19L38.03 119.01H39.32L36.72 123.24V126ZM43.872 126H42.852V125.29C42.412 125.817 41.822 126.08 41.082 126.08C40.5286 126.08 40.0686 125.923 39.702 125.61C39.342 125.297 39.162 124.88 39.162 124.36C39.162 123.833 39.3553 123.44 39.742 123.18C40.1286 122.92 40.652 122.79 41.312 122.79H42.762V122.59C42.762 121.883 42.3686 121.53 41.582 121.53C41.0886 121.53 40.5753 121.71 40.042 122.07L39.542 121.37C40.1886 120.857 40.922 120.6 41.742 120.6C42.3686 120.6 42.8786 120.76 43.272 121.08C43.672 121.393 43.872 121.89 43.872 122.57V126ZM42.752 124.02V123.57H41.492C40.6853 123.57 40.282 123.823 40.282 124.33C40.282 124.59 40.382 124.79 40.582 124.93C40.782 125.063 41.0586 125.13 41.412 125.13C41.772 125.13 42.0853 125.03 42.352 124.83C42.6186 124.63 42.752 124.36 42.752 124.02ZM48.2211 121.73C47.6678 121.73 47.2511 121.91 46.9711 122.27C46.6911 122.63 46.5511 123.113 46.5511 123.72V126H45.4311V120.68H46.5511V121.75C46.7311 121.417 46.9744 121.143 47.2811 120.93C47.5944 120.717 47.9244 120.607 48.2711 120.6L48.2811 121.73C48.2611 121.73 48.2411 121.73 48.2211 121.73ZM51.5757 126.08C50.9024 126.08 50.3157 125.827 49.8157 125.32C49.3157 124.813 49.0657 124.147 49.0657 123.32C49.0657 122.493 49.3224 121.833 49.8357 121.34C50.349 120.847 50.959 120.6 51.6657 120.6C52.379 120.6 52.9524 120.9 53.3857 121.5V118.58H54.5057V126H53.3857V125.2C52.9724 125.787 52.369 126.08 51.5757 126.08ZM50.1857 123.37C50.1857 123.877 50.349 124.29 50.6757 124.61C51.0024 124.93 51.3857 125.09 51.8257 125.09C52.2657 125.09 52.639 124.93 52.9457 124.61C53.2524 124.283 53.4057 123.867 53.4057 123.36C53.4057 122.853 53.2524 122.43 52.9457 122.09C52.639 121.75 52.2624 121.58 51.8157 121.58C51.369 121.58 50.9857 121.75 50.6657 122.09C50.3457 122.43 50.1857 122.857 50.1857 123.37ZM56.1245 120.68H57.2445V126H56.1245V120.68ZM59.9886 123.12V126H58.8686V120.68H59.9886V121.65C60.1486 121.323 60.3886 121.067 60.7086 120.88C61.0353 120.693 61.3853 120.6 61.7586 120.6C62.5986 120.6 63.1686 120.947 63.4686 121.64C63.9953 120.947 64.6519 120.6 65.4386 120.6C66.0386 120.6 66.5219 120.783 66.8886 121.15C67.2619 121.517 67.4486 122.047 67.4486 122.74V126H66.3286V123.08C66.3286 122.1 65.9219 121.61 65.1086 121.61C64.7286 121.61 64.3953 121.733 64.1086 121.98C63.8286 122.22 63.6819 122.573 63.6686 123.04V126H62.5486V123.08C62.5486 122.573 62.4586 122.203 62.2786 121.97C62.0986 121.73 61.8153 121.61 61.4286 121.61C61.0419 121.61 60.7053 121.74 60.4186 122C60.1319 122.253 59.9886 122.627 59.9886 123.12ZM70.1253 126H69.0053V118.58H70.1253V126ZM71.7495 120.68H72.8695V126H71.7495V120.68Z" fill="black"/>
<path d="M113.14 106V99H113.75L116.95 104.46H116.63L119.8 99H120.41V106H119.7V100.11H119.87L116.95 105.11H116.6L113.66 100.11H113.85V106H113.14ZM125.831 106V104.84L125.801 104.65V102.71C125.801 102.263 125.674 101.92 125.421 101.68C125.174 101.44 124.804 101.32 124.311 101.32C123.971 101.32 123.647 101.377 123.341 101.49C123.034 101.603 122.774 101.753 122.561 101.94L122.241 101.41C122.507 101.183 122.827 101.01 123.201 100.89C123.574 100.763 123.967 100.7 124.381 100.7C125.061 100.7 125.584 100.87 125.951 101.21C126.324 101.543 126.511 102.053 126.511 102.74V106H125.831ZM124.021 106.05C123.627 106.05 123.284 105.987 122.991 105.86C122.704 105.727 122.484 105.547 122.331 105.32C122.177 105.087 122.101 104.82 122.101 104.52C122.101 104.247 122.164 104 122.291 103.78C122.424 103.553 122.637 103.373 122.931 103.24C123.231 103.1 123.631 103.03 124.131 103.03H125.941V103.56H124.151C123.644 103.56 123.291 103.65 123.091 103.83C122.897 104.01 122.801 104.233 122.801 104.5C122.801 104.8 122.917 105.04 123.151 105.22C123.384 105.4 123.711 105.49 124.131 105.49C124.531 105.49 124.874 105.4 125.161 105.22C125.454 105.033 125.667 104.767 125.801 104.42L125.961 104.91C125.827 105.257 125.594 105.533 125.261 105.74C124.934 105.947 124.521 106.05 124.021 106.05ZM129.849 106.05C129.416 106.05 129.006 105.99 128.619 105.87C128.233 105.743 127.929 105.587 127.709 105.4L128.029 104.84C128.243 105 128.516 105.14 128.849 105.26C129.183 105.373 129.533 105.43 129.899 105.43C130.399 105.43 130.759 105.353 130.979 105.2C131.199 105.04 131.309 104.83 131.309 104.57C131.309 104.377 131.246 104.227 131.119 104.12C130.999 104.007 130.839 103.923 130.639 103.87C130.439 103.81 130.216 103.76 129.969 103.72C129.723 103.68 129.476 103.633 129.229 103.58C128.989 103.527 128.769 103.45 128.569 103.35C128.369 103.243 128.206 103.1 128.079 102.92C127.959 102.74 127.899 102.5 127.899 102.2C127.899 101.913 127.979 101.657 128.139 101.43C128.299 101.203 128.533 101.027 128.839 100.9C129.153 100.767 129.533 100.7 129.979 100.7C130.319 100.7 130.659 100.747 130.999 100.84C131.339 100.927 131.619 101.043 131.839 101.19L131.529 101.76C131.296 101.6 131.046 101.487 130.779 101.42C130.513 101.347 130.246 101.31 129.979 101.31C129.506 101.31 129.156 101.393 128.929 101.56C128.709 101.72 128.599 101.927 128.599 102.18C128.599 102.38 128.659 102.537 128.779 102.65C128.906 102.763 129.069 102.853 129.269 102.92C129.476 102.98 129.699 103.03 129.939 103.07C130.186 103.11 130.429 103.16 130.669 103.22C130.916 103.273 131.139 103.35 131.339 103.45C131.546 103.543 131.709 103.68 131.829 103.86C131.956 104.033 132.019 104.263 132.019 104.55C132.019 104.857 131.933 105.123 131.759 105.35C131.593 105.57 131.346 105.743 131.019 105.87C130.699 105.99 130.309 106.05 129.849 106.05ZM136.612 106V104.84L136.582 104.65V102.71C136.582 102.263 136.455 101.92 136.202 101.68C135.955 101.44 135.585 101.32 135.092 101.32C134.752 101.32 134.429 101.377 134.122 101.49C133.815 101.603 133.555 101.753 133.342 101.94L133.022 101.41C133.289 101.183 133.609 101.01 133.982 100.89C134.355 100.763 134.749 100.7 135.162 100.7C135.842 100.7 136.365 100.87 136.732 101.21C137.105 101.543 137.292 102.053 137.292 102.74V106H136.612ZM134.802 106.05C134.409 106.05 134.065 105.987 133.772 105.86C133.485 105.727 133.265 105.547 133.112 105.32C132.959 105.087 132.882 104.82 132.882 104.52C132.882 104.247 132.945 104 133.072 103.78C133.205 103.553 133.419 103.373 133.712 103.24C134.012 103.1 134.412 103.03 134.912 103.03H136.722V103.56H134.932C134.425 103.56 134.072 103.65 133.872 103.83C133.679 104.01 133.582 104.233 133.582 104.5C133.582 104.8 133.699 105.04 133.932 105.22C134.165 105.4 134.492 105.49 134.912 105.49C135.312 105.49 135.655 105.4 135.942 105.22C136.235 105.033 136.449 104.767 136.582 104.42L136.742 104.91C136.609 105.257 136.375 105.533 136.042 105.74C135.715 105.947 135.302 106.05 134.802 106.05ZM139.22 106V98.58H139.93V106H139.22ZM141.906 106V98.58H142.616V106H141.906ZM144.592 106V100.75H145.302V106H144.592Z" fill="black"/>
<path d="M64.18 51.06C63.6533 51.06 63.1667 50.9733 62.72 50.8C62.2733 50.62 61.8867 50.37 61.56 50.05C61.2333 49.73 60.9767 49.3533 60.79 48.92C60.61 48.4867 60.52 48.0133 60.52 47.5C60.52 46.9867 60.61 46.5133 60.79 46.08C60.9767 45.6467 61.2333 45.27 61.56 44.95C61.8933 44.63 62.2833 44.3833 62.73 44.21C63.1767 44.03 63.6633 43.94 64.19 43.94C64.6967 43.94 65.1733 44.0267 65.62 44.2C66.0667 44.3667 66.4433 44.62 66.75 44.96L66.28 45.43C65.9933 45.1367 65.6767 44.9267 65.33 44.8C64.9833 44.6667 64.61 44.6 64.21 44.6C63.79 44.6 63.4 44.6733 63.04 44.82C62.68 44.96 62.3667 45.1633 62.1 45.43C61.8333 45.69 61.6233 45.9967 61.47 46.35C61.3233 46.6967 61.25 47.08 61.25 47.5C61.25 47.92 61.3233 48.3067 61.47 48.66C61.6233 49.0067 61.8333 49.3133 62.1 49.58C62.3667 49.84 62.68 50.0433 63.04 50.19C63.4 50.33 63.79 50.4 64.21 50.4C64.61 50.4 64.9833 50.3333 65.33 50.2C65.6767 50.0667 65.9933 49.8533 66.28 49.56L66.75 50.03C66.4433 50.37 66.0667 50.6267 65.62 50.8C65.1733 50.9733 64.6933 51.06 64.18 51.06ZM69.7731 45.7C70.3198 45.7 70.7998 45.8167 71.2131 46.05C71.6265 46.2767 71.9498 46.59 72.1831 46.99C72.4165 47.39 72.5331 47.85 72.5331 48.37C72.5331 48.89 72.4198 49.3533 72.1931 49.76C71.9731 50.16 71.6698 50.4767 71.2831 50.71C70.8965 50.9367 70.4565 51.05 69.9631 51.05C69.4698 51.05 69.0298 50.9367 68.6431 50.71C68.2631 50.4833 67.9631 50.17 67.7431 49.77C67.5231 49.3633 67.4131 48.8967 67.4131 48.37C67.4131 48.3433 67.4131 48.31 67.4131 48.27C67.4198 48.23 67.4231 48.1933 67.4231 48.16H71.9931V48.69H67.8031L68.0831 48.48C68.0831 48.8533 68.1631 49.19 68.3231 49.49C68.4898 49.7833 68.7131 50.0167 68.9931 50.19C69.2731 50.3567 69.5965 50.44 69.9631 50.44C70.3298 50.44 70.6531 50.3567 70.9331 50.19C71.2198 50.0167 71.4431 49.78 71.6031 49.48C71.7631 49.18 71.8431 48.84 71.8431 48.46V48.34C71.8431 47.94 71.7531 47.59 71.5731 47.29C71.3998 46.99 71.1565 46.7533 70.8431 46.58C70.5298 46.4067 70.1665 46.32 69.7531 46.32C69.4265 46.32 69.1265 46.3767 68.8531 46.49C68.5798 46.6033 68.3431 46.78 68.1431 47.02L67.7431 46.55C67.9831 46.27 68.2765 46.06 68.6231 45.92C68.9765 45.7733 69.3598 45.7 69.7731 45.7ZM73.9783 51V43.58H74.6883V51H73.9783ZM76.6638 51V45.75H77.3738V51H76.6638ZM77.0238 44.59C76.8772 44.59 76.7538 44.54 76.6538 44.44C76.5538 44.34 76.5038 44.22 76.5038 44.08C76.5038 43.94 76.5538 43.8233 76.6538 43.73C76.7538 43.63 76.8772 43.58 77.0238 43.58C77.1705 43.58 77.2938 43.6267 77.3938 43.72C77.4938 43.8133 77.5438 43.93 77.5438 44.07C77.5438 44.2167 77.4938 44.34 77.3938 44.44C77.3005 44.54 77.1772 44.59 77.0238 44.59ZM79.3494 51V43.58H80.0594V51H79.3494ZM85.3249 51V49.84L85.2949 49.65V47.71C85.2949 47.2633 85.1683 46.92 84.9149 46.68C84.6683 46.44 84.2983 46.32 83.8049 46.32C83.4649 46.32 83.1416 46.3767 82.8349 46.49C82.5283 46.6033 82.2683 46.7533 82.0549 46.94L81.7349 46.41C82.0016 46.1833 82.3216 46.01 82.6949 45.89C83.0683 45.7633 83.4616 45.7 83.8749 45.7C84.5549 45.7 85.0783 45.87 85.4449 46.21C85.8183 46.5433 86.0049 47.0533 86.0049 47.74V51H85.3249ZM83.5149 51.05C83.1216 51.05 82.7783 50.9867 82.4849 50.86C82.1983 50.7267 81.9783 50.5467 81.8249 50.32C81.6716 50.0867 81.5949 49.82 81.5949 49.52C81.5949 49.2467 81.6583 49 81.7849 48.78C81.9183 48.5533 82.1316 48.3733 82.4249 48.24C82.7249 48.1 83.1249 48.03 83.6249 48.03H85.4349V48.56H83.6449C83.1383 48.56 82.7849 48.65 82.5849 48.83C82.3916 49.01 82.2949 49.2333 82.2949 49.5C82.2949 49.8 82.4116 50.04 82.6449 50.22C82.8783 50.4 83.2049 50.49 83.6249 50.49C84.0249 50.49 84.3683 50.4 84.6549 50.22C84.9483 50.0333 85.1616 49.7667 85.2949 49.42L85.4549 49.91C85.3216 50.2567 85.0883 50.5333 84.7549 50.74C84.4283 50.9467 84.0149 51.05 83.5149 51.05ZM90.6434 51.05C90.1834 51.05 89.77 50.9467 89.4034 50.74C89.0367 50.5267 88.7467 50.22 88.5334 49.82C88.32 49.42 88.2134 48.9367 88.2134 48.37C88.2134 47.7967 88.32 47.3133 88.5334 46.92C88.7534 46.52 89.0467 46.2167 89.4134 46.01C89.78 45.8033 90.19 45.7 90.6434 45.7C91.1434 45.7 91.59 45.8133 91.9834 46.04C92.3834 46.26 92.6967 46.57 92.9234 46.97C93.15 47.37 93.2634 47.8367 93.2634 48.37C93.2634 48.8967 93.15 49.3633 92.9234 49.77C92.6967 50.17 92.3834 50.4833 91.9834 50.71C91.59 50.9367 91.1434 51.05 90.6434 51.05ZM87.9334 51V43.58H88.6434V47.3L88.5434 48.36L88.6134 49.42V51H87.9334ZM90.5934 50.42C90.9667 50.42 91.3 50.3367 91.5934 50.17C91.8867 49.9967 92.12 49.7567 92.2934 49.45C92.4667 49.1367 92.5534 48.7767 92.5534 48.37C92.5534 47.9567 92.4667 47.5967 92.2934 47.29C92.12 46.9833 91.8867 46.7467 91.5934 46.58C91.3 46.4067 90.9667 46.32 90.5934 46.32C90.22 46.32 89.8834 46.4067 89.5834 46.58C89.29 46.7467 89.0567 46.9833 88.8834 47.29C88.7167 47.5967 88.6334 47.9567 88.6334 48.37C88.6334 48.7767 88.7167 49.1367 88.8834 49.45C89.0567 49.7567 89.29 49.9967 89.5834 50.17C89.8834 50.3367 90.22 50.42 90.5934 50.42ZM97.9714 51V49.84L97.9414 49.65V47.71C97.9414 47.2633 97.8147 46.92 97.5614 46.68C97.3147 46.44 96.9447 46.32 96.4514 46.32C96.1114 46.32 95.7881 46.3767 95.4814 46.49C95.1747 46.6033 94.9147 46.7533 94.7014 46.94L94.3814 46.41C94.6481 46.1833 94.9681 46.01 95.3414 45.89C95.7147 45.7633 96.1081 45.7 96.5214 45.7C97.2014 45.7 97.7247 45.87 98.0914 46.21C98.4647 46.5433 98.6514 47.0533 98.6514 47.74V51H97.9714ZM96.1614 51.05C95.7681 51.05 95.4247 50.9867 95.1314 50.86C94.8447 50.7267 94.6247 50.5467 94.4714 50.32C94.3181 50.0867 94.2414 49.82 94.2414 49.52C94.2414 49.2467 94.3047 49 94.4314 48.78C94.5647 48.5533 94.7781 48.3733 95.0714 48.24C95.3714 48.1 95.7714 48.03 96.2714 48.03H98.0814V48.56H96.2914C95.7847 48.56 95.4314 48.65 95.2314 48.83C95.0381 49.01 94.9414 49.2333 94.9414 49.5C94.9414 49.8 95.0581 50.04 95.2914 50.22C95.5247 50.4 95.8514 50.49 96.2714 50.49C96.6714 50.49 97.0147 50.4 97.3014 50.22C97.5947 50.0333 97.8081 49.7667 97.9414 49.42L98.1014 49.91C97.9681 50.2567 97.7347 50.5333 97.4014 50.74C97.0747 50.9467 96.6614 51.05 96.1614 51.05ZM102.67 51.05C102.17 51.05 101.72 50.9367 101.32 50.71C100.927 50.4833 100.617 50.17 100.39 49.77C100.163 49.3633 100.05 48.8967 100.05 48.37C100.05 47.8367 100.163 47.37 100.39 46.97C100.617 46.57 100.927 46.26 101.32 46.04C101.72 45.8133 102.17 45.7 102.67 45.7C103.13 45.7 103.54 45.8033 103.9 46.01C104.267 46.2167 104.557 46.52 104.77 46.92C104.99 47.3133 105.1 47.7967 105.1 48.37C105.1 48.9367 104.993 49.42 104.78 49.82C104.567 50.22 104.277 50.5267 103.91 50.74C103.55 50.9467 103.137 51.05 102.67 51.05ZM102.72 50.42C103.093 50.42 103.427 50.3367 103.72 50.17C104.02 49.9967 104.253 49.7567 104.42 49.45C104.593 49.1367 104.68 48.7767 104.68 48.37C104.68 47.9567 104.593 47.5967 104.42 47.29C104.253 46.9833 104.02 46.7467 103.72 46.58C103.427 46.4067 103.093 46.32 102.72 46.32C102.353 46.32 102.023 46.4067 101.73 46.58C101.437 46.7467 101.203 46.9833 101.03 47.29C100.857 47.5967 100.77 47.9567 100.77 48.37C100.77 48.7767 100.857 49.1367 101.03 49.45C101.203 49.7567 101.437 49.9967 101.73 50.17C102.023 50.3367 102.353 50.42 102.72 50.42ZM104.7 51V49.42L104.77 48.36L104.67 47.3V43.58H105.38V51H104.7Z" fill="black"/>
</svg>
