<svg width="45" height="45" viewBox="0 0 45 45" fill="none" xmlns="http://www.w3.org/2000/svg">
<rect width="45" height="45" rx="6" fill="#ECE7E2"/>
<path d="M16.675 13.2498C16.6747 13.9128 16.4109 14.5486 15.9419 15.0172C15.4728 15.4858 14.8368 15.7489 14.1737 15.7485C13.5107 15.7482 12.8749 15.4845 12.4063 15.0154C11.9377 14.5463 11.6747 13.9103 11.675 13.2473C11.6753 12.5842 11.939 11.9485 12.4081 11.4799C12.8772 11.0113 13.5132 10.7482 14.1762 10.7485C14.8393 10.7489 15.475 11.0126 15.9436 11.4817C16.4122 11.9507 16.6753 12.5867 16.675 13.2498ZM16.75 17.5998H11.75V33.2498H16.75V17.5998ZM24.65 17.5998H19.675V33.2498H24.6V25.0373C24.6 20.4623 30.5625 20.0373 30.5625 25.0373V33.2498H35.5V23.3373C35.5 15.6248 26.675 15.9123 24.6 19.6998L24.65 17.5998Z" fill="#FFAC1C"/>
</svg>
