<svg width="26" height="26" viewBox="0 0 26 26" fill="none" xmlns="http://www.w3.org/2000/svg">
<rect width="26" height="26" rx="6" fill="#ECE7E2"/>
<path d="M4.66107 9.58829C4.69132 8.89813 4.98678 8.24627 5.48586 7.76861C5.98494 7.29096 6.64912 7.02437 7.33994 7.02441H18.6608C19.3516 7.02437 20.0158 7.29096 20.5149 7.76861C21.0139 8.24627 21.3094 8.89813 21.3396 9.58829L20.4602 10.0769L13.0004 14.0934L5.54052 10.0769L4.66107 9.58829ZM4.65869 10.9498V17.4515C4.65869 18.1626 4.94118 18.8446 5.44401 19.3474C5.94684 19.8503 6.62883 20.1327 7.33994 20.1327H18.6608C19.3719 20.1327 20.0539 19.8503 20.5567 19.3474C21.0595 18.8446 21.342 18.1626 21.342 17.4515V10.9498L21.0286 11.1243L13.2828 15.2952C13.196 15.3419 13.0989 15.3664 13.0004 15.3664C12.9018 15.3664 12.8047 15.3419 12.7179 15.2952L4.96495 11.1202L4.65869 10.9498Z" fill="#FFAC1C"/>
</svg>
