<svg width="24" height="24" viewBox="0 0 24 24" fill="none" xmlns="http://www.w3.org/2000/svg">
<path d="M23.4332 15.5449C22.6929 17.9614 21.2094 20.0829 19.1936 21.6075C17.4238 22.9395 15.3178 23.7519 13.112 23.9534C10.9062 24.155 8.68783 23.7378 6.70595 22.7486C4.72407 21.7595 3.05709 20.2375 1.89214 18.3536C0.727185 16.4697 0.110359 14.2983 0.110896 12.0833C0.102932 9.49793 0.943412 6.98132 2.5034 4.91958C4.02797 2.90382 6.14947 1.42025 8.566 0.679995C8.72527 0.630954 8.89489 0.626258 9.05663 0.666412C9.21837 0.706566 9.3661 0.790052 9.48394 0.90789C9.60178 1.02573 9.68526 1.17346 9.72542 1.3352C9.76557 1.49694 9.76087 1.66656 9.71183 1.82583C9.18342 3.57372 9.13912 5.43222 9.58364 7.2033C10.0282 8.97438 10.9449 10.5917 12.236 11.8829C13.5272 13.1741 15.1445 14.0907 16.9156 14.5353C18.6867 14.9798 20.5452 14.9355 22.2931 14.4071C22.4523 14.358 22.622 14.3533 22.7837 14.3935C22.9454 14.4336 23.0932 14.5171 23.211 14.635C23.3289 14.7528 23.4123 14.9005 23.4525 15.0623C23.4926 15.224 23.488 15.3936 23.4389 15.5529L23.4332 15.5449Z" fill="#323232"/>
</svg>
