<svg width="46" height="46" viewBox="0 0 46 46" fill="none" xmlns="http://www.w3.org/2000/svg">
<circle cx="22.6635" cy="23.3363" r="22.1637" transform="rotate(-180 22.6635 23.3363)" fill="#323232" fill-opacity="0.5" stroke="#ECE7E2"/>
<path d="M15.7435 14.4166L15.7435 32.4166C15.7441 32.5988 15.7944 32.7775 15.8889 32.9333C15.9835 33.0891 16.1187 33.2161 16.2801 33.3008C16.4415 33.3854 16.6229 33.4245 16.8048 33.4137C16.9868 33.4029 17.1623 33.3427 17.3125 33.2396L30.3125 24.2396C30.8515 23.8666 30.8515 22.9686 30.3125 22.5946L17.3125 13.5946C17.1626 13.4904 16.987 13.4293 16.8048 13.418C16.6225 13.4066 16.4407 13.4454 16.2789 13.5301C16.1172 13.6148 15.9818 13.7423 15.8874 13.8986C15.793 14.0548 15.7433 14.234 15.7435 14.4166Z" fill="white"/>
</svg>
