<svg width="45" height="45" viewBox="0 0 45 45" fill="none" xmlns="http://www.w3.org/2000/svg">
<rect width="45" height="45" rx="6" fill="#ECE7E2"/>
<path d="M35.8903 28.8843C35.6605 30.578 34.8026 32.1328 33.4771 33.2581C32.1515 34.3834 30.4488 35.0023 28.687 34.9993C18.4519 34.9993 10.1245 26.9243 10.1245 16.9993C10.1214 15.2909 10.7596 13.6398 11.9201 12.3544C13.0806 11.069 14.6839 10.2371 16.4306 10.0143C16.8723 9.96196 17.3196 10.0496 17.7057 10.2641C18.0919 10.4785 18.3961 10.8083 18.573 11.2043L21.2955 17.098V17.113C21.431 17.4161 21.4869 17.747 21.4584 18.0761C21.4298 18.4052 21.3176 18.7224 21.1318 18.9993C21.1086 19.033 21.0841 19.0643 21.0584 19.0955L18.3745 22.1805C19.34 24.083 21.3922 26.0555 23.38 26.9943L26.5175 24.4055C26.5483 24.3804 26.5806 24.357 26.6142 24.3355C26.8995 24.151 27.2277 24.0384 27.5691 24.0078C27.9105 23.9773 28.2545 24.0298 28.5697 24.1605L28.5865 24.168L34.6593 26.8068C35.0683 26.9777 35.4092 27.2725 35.6311 27.647C35.853 28.0214 35.9439 28.4555 35.8903 28.8843Z" fill="#FFAC1C"/>
</svg>
