<svg width="46" height="46" viewBox="0 0 46 46" fill="none" xmlns="http://www.w3.org/2000/svg">
<circle cx="23.0802" cy="22.6637" r="22.1637" fill="#323232" fill-opacity="0.5" stroke="#ECE7E2"/>
<path d="M30.0001 31.5834V13.5834C29.9995 13.4012 29.9493 13.2225 29.8547 13.0667C29.7602 12.9109 29.6249 12.7839 29.4636 12.6992C29.3022 12.6146 29.1207 12.5755 28.9388 12.5863C28.7569 12.5971 28.5814 12.6573 28.4311 12.7604L15.4311 21.7604C14.8921 22.1334 14.8921 23.0314 15.4311 23.4054L28.4311 32.4054C28.581 32.5096 28.7567 32.5707 28.9389 32.582C29.1211 32.5934 29.303 32.5546 29.4647 32.4699C29.6264 32.3852 29.7619 32.2577 29.8562 32.1014C29.9506 31.9452 30.0004 31.766 30.0001 31.5834Z" fill="white"/>
</svg>
