<svg width="14" height="13" viewBox="0 0 14 13" fill="none" xmlns="http://www.w3.org/2000/svg">
<path d="M2.06742 1.65504C2.085 1.3574 2.22376 1.07869 2.45322 0.880139C2.68268 0.681585 2.98408 0.57942 3.29122 0.596086L12.5789 1.10569C12.886 1.12273 13.1736 1.25721 13.3784 1.47959C13.5833 1.70198 13.6887 1.99408 13.6715 2.29174L13.1457 11.2929C13.118 11.5832 12.9752 11.8518 12.7474 12.0421C12.5196 12.2325 12.2245 12.3299 11.9241 12.3138C11.6239 12.2969 11.342 12.1679 11.1378 11.9538C10.9336 11.7397 10.823 11.4573 10.8293 11.1658L11.1967 4.87559L2.60703 12.3082C2.37738 12.5069 2.07569 12.6091 1.76831 12.5922C1.46094 12.5754 1.17307 12.4409 0.968031 12.2183C0.762991 11.9957 0.657578 11.7033 0.67498 11.4055C0.692382 11.1076 0.831173 10.8286 1.06082 10.6299L9.65051 3.19721L3.16007 2.84109C2.85296 2.82405 2.56538 2.68957 2.36051 2.46719C2.15564 2.2448 2.05022 1.9527 2.06742 1.65504Z" fill="#ECE7E2"/>
</svg>
