<svg width="34" height="34" viewBox="0 0 34 34" fill="none" xmlns="http://www.w3.org/2000/svg">
<circle cx="17" cy="17" r="15.5" fill="#323232" stroke="#ECE7E2"/>
<path d="M12.6641 11.655C12.6811 11.3574 12.8156 11.0787 13.038 10.8801C13.2604 10.6816 13.5525 10.5794 13.8501 10.5961L22.8513 11.1057C23.149 11.1227 23.4277 11.2572 23.6262 11.4796C23.8248 11.702 23.927 11.9941 23.9103 12.2917L23.4007 21.2929C23.3738 21.5832 23.2354 21.8518 23.0146 22.0421C22.7938 22.2325 22.5079 22.3299 22.2168 22.3138C21.9258 22.2969 21.6526 22.1679 21.4547 21.9538C21.2568 21.7397 21.1496 21.4573 21.1557 21.1658L21.5118 14.8756L13.1871 22.3082C12.9645 22.5069 12.6721 22.6091 12.3742 22.5922C12.0763 22.5754 11.7973 22.4409 11.5986 22.2183C11.3999 21.9957 11.2977 21.7033 11.3146 21.4055C11.3315 21.1076 11.466 20.8286 11.6885 20.6299L20.0133 13.1972L13.723 12.8411C13.4254 12.8241 13.1467 12.6896 12.9481 12.4672C12.7496 12.2448 12.6474 11.9527 12.6641 11.655Z" fill="#ECE7E2"/>
</svg>
