<svg width="279" height="237" viewBox="0 0 279 237" fill="none" xmlns="http://www.w3.org/2000/svg">
<path d="M116.51 31.4427L128.592 15.725L137.117 2L138.955 3.63951L144.385 6.94837L150.619 12.59L166.192 34.2964L172.224 40.4277L174.696 44.1138L175.715 49.857L187.768 63.4981L194.505 78.1349L198.083 79.4493L201.057 82.5592L203.296 86.2242L204.761 89.2756L208.854 95.3183L209.573 96.7271L210.465 97.6958L214.831 99.0283L216.312 99.8624L218.941 103.83L225.319 117.211L225.333 117.24L230.664 128.448L233.22 132.228L235.433 136.627L236.494 141.75L238.677 162.11L239.799 166.416L241.738 168.229L242.945 170.93L245.947 187.706L254.365 201.766L275.538 225.849L277 228.08L276.247 228.393L269.176 228.212L262.381 229.431L254.09 231.695L245.442 230.915L237.99 228.235L230.948 223.721L225.969 221.812L221.572 218.72L220.34 210.062L216.427 206.694L212.587 208L209.814 211.131L208.984 214.906L207.798 218.326L202.061 221.75L195.702 223.742L189.947 225.905L184.008 226.255L178.198 229.936L172.933 235L164.023 230.063L154.964 225.651L143.152 222.173L131.705 217.288L117.912 213.306L103.628 213.172L93.2457 203.876L79.8917 202.922L70.2958 198.421L60.8736 192.923L55.9301 190.109L50.9232 187.978L45.6323 187.513L40.4142 186.334L26.4569 178.111L21.9406 164.163L15.4103 163.047L8.96221 161.579L3.33327 157.821L2 154.847L4.6924 154.606L12.171 152.313L16.3211 149.703L17.0699 147.411L16.1756 144.402L15.3751 139.57L15.8845 134.675L17.5253 132.392L19.8797 130.692L22.4688 127.556L23.9664 123.279L24.8044 119.596L26.6658 117.625L31.2455 118.416L35.2125 116.14L41.0221 99.2888L44.3695 92.7745L50.2002 89.1572L70.5493 85.1852L75.758 82.3584L84.9995 74.3245L100.26 64.7364L104.299 60.3121L107.867 53.5236L115.311 33.0015L116.51 31.4427Z" fill="#ECE7E2" stroke="#FFAC1C" stroke-width="3" stroke-linejoin="round"/>
<path d="M71.2 111.06C70.6733 111.06 70.1833 110.973 69.73 110.8C69.2833 110.62 68.8933 110.37 68.56 110.05C68.2333 109.723 67.9767 109.347 67.79 108.92C67.61 108.487 67.52 108.013 67.52 107.5C67.52 106.987 67.61 106.517 67.79 106.09C67.9767 105.657 68.2333 105.28 68.56 104.96C68.8933 104.633 69.2833 104.383 69.73 104.21C70.1767 104.03 70.6667 103.94 71.2 103.94C71.7267 103.94 72.2133 104.03 72.66 104.21C73.1067 104.383 73.4933 104.63 73.82 104.95C74.1533 105.27 74.41 105.647 74.59 106.08C74.7767 106.513 74.87 106.987 74.87 107.5C74.87 108.013 74.7767 108.487 74.59 108.92C74.41 109.353 74.1533 109.73 73.82 110.05C73.4933 110.37 73.1067 110.62 72.66 110.8C72.2133 110.973 71.7267 111.06 71.2 111.06ZM73.49 112.39C73.2767 112.39 73.07 112.363 72.87 112.31C72.67 112.257 72.4667 112.17 72.26 112.05C72.06 111.937 71.8533 111.787 71.64 111.6C71.4267 111.413 71.1933 111.187 70.94 110.92L71.75 110.72C71.9567 110.967 72.1567 111.17 72.35 111.33C72.55 111.49 72.7433 111.607 72.93 111.68C73.1233 111.76 73.3133 111.8 73.5 111.8C74.02 111.8 74.4633 111.587 74.83 111.16L75.19 111.59C74.75 112.123 74.1833 112.39 73.49 112.39ZM71.2 110.4C71.62 110.4 72.0067 110.33 72.36 110.19C72.72 110.043 73.03 109.837 73.29 109.57C73.5567 109.303 73.7633 108.997 73.91 108.65C74.0567 108.297 74.13 107.913 74.13 107.5C74.13 107.08 74.0567 106.697 73.91 106.35C73.7633 105.997 73.5567 105.69 73.29 105.43C73.03 105.163 72.72 104.96 72.36 104.82C72.0067 104.673 71.62 104.6 71.2 104.6C70.78 104.6 70.39 104.673 70.03 104.82C69.67 104.96 69.3567 105.163 69.09 105.43C68.83 105.69 68.6233 105.997 68.47 106.35C68.3233 106.697 68.25 107.08 68.25 107.5C68.25 107.913 68.3233 108.297 68.47 108.65C68.6233 108.997 68.83 109.303 69.09 109.57C69.3567 109.837 69.67 110.043 70.03 110.19C70.39 110.33 70.78 110.4 71.2 110.4ZM78.5487 111.05C78.102 111.05 77.712 110.967 77.3787 110.8C77.0453 110.633 76.7853 110.383 76.5987 110.05C76.4187 109.717 76.3287 109.3 76.3287 108.8V105.75H77.0387V108.72C77.0387 109.28 77.1753 109.703 77.4487 109.99C77.7287 110.27 78.1187 110.41 78.6187 110.41C78.9853 110.41 79.302 110.337 79.5687 110.19C79.842 110.037 80.0487 109.817 80.1887 109.53C80.3353 109.243 80.4087 108.9 80.4087 108.5V105.75H81.1187V111H80.4387V109.56L80.5487 109.82C80.382 110.207 80.122 110.51 79.7687 110.73C79.422 110.943 79.0153 111.05 78.5487 111.05ZM84.5074 111.05C84.0741 111.05 83.6641 110.99 83.2774 110.87C82.8908 110.743 82.5874 110.587 82.3674 110.4L82.6874 109.84C82.9008 110 83.1741 110.14 83.5074 110.26C83.8408 110.373 84.1908 110.43 84.5574 110.43C85.0574 110.43 85.4174 110.353 85.6374 110.2C85.8574 110.04 85.9674 109.83 85.9674 109.57C85.9674 109.377 85.9041 109.227 85.7774 109.12C85.6574 109.007 85.4974 108.923 85.2974 108.87C85.0974 108.81 84.8741 108.76 84.6274 108.72C84.3808 108.68 84.1341 108.633 83.8874 108.58C83.6474 108.527 83.4274 108.45 83.2274 108.35C83.0274 108.243 82.8641 108.1 82.7374 107.92C82.6174 107.74 82.5574 107.5 82.5574 107.2C82.5574 106.913 82.6374 106.657 82.7974 106.43C82.9574 106.203 83.1908 106.027 83.4974 105.9C83.8108 105.767 84.1908 105.7 84.6374 105.7C84.9774 105.7 85.3174 105.747 85.6574 105.84C85.9974 105.927 86.2774 106.043 86.4974 106.19L86.1874 106.76C85.9541 106.6 85.7041 106.487 85.4374 106.42C85.1708 106.347 84.9041 106.31 84.6374 106.31C84.1641 106.31 83.8141 106.393 83.5874 106.56C83.3674 106.72 83.2574 106.927 83.2574 107.18C83.2574 107.38 83.3174 107.537 83.4374 107.65C83.5641 107.763 83.7274 107.853 83.9274 107.92C84.1341 107.98 84.3574 108.03 84.5974 108.07C84.8441 108.11 85.0874 108.16 85.3274 108.22C85.5741 108.273 85.7974 108.35 85.9974 108.45C86.2041 108.543 86.3674 108.68 86.4874 108.86C86.6141 109.033 86.6774 109.263 86.6774 109.55C86.6774 109.857 86.5908 110.123 86.4174 110.35C86.2508 110.57 86.0041 110.743 85.6774 110.87C85.3574 110.99 84.9674 111.05 84.5074 111.05ZM91.2702 111V109.84L91.2402 109.65V107.71C91.2402 107.263 91.1136 106.92 90.8602 106.68C90.6136 106.44 90.2436 106.32 89.7502 106.32C89.4102 106.32 89.0869 106.377 88.7802 106.49C88.4736 106.603 88.2136 106.753 88.0002 106.94L87.6802 106.41C87.9469 106.183 88.2669 106.01 88.6402 105.89C89.0136 105.763 89.4069 105.7 89.8202 105.7C90.5002 105.7 91.0236 105.87 91.3902 106.21C91.7636 106.543 91.9502 107.053 91.9502 107.74V111H91.2702ZM89.4602 111.05C89.0669 111.05 88.7236 110.987 88.4302 110.86C88.1436 110.727 87.9236 110.547 87.7702 110.32C87.6169 110.087 87.5402 109.82 87.5402 109.52C87.5402 109.247 87.6036 109 87.7302 108.78C87.8636 108.553 88.0769 108.373 88.3702 108.24C88.6702 108.1 89.0702 108.03 89.5702 108.03H91.3802V108.56H89.5902C89.0836 108.56 88.7302 108.65 88.5302 108.83C88.3369 109.01 88.2402 109.233 88.2402 109.5C88.2402 109.8 88.3569 110.04 88.5902 110.22C88.8236 110.4 89.1502 110.49 89.5702 110.49C89.9702 110.49 90.3136 110.4 90.6002 110.22C90.8936 110.033 91.1069 109.767 91.2402 109.42L91.4002 109.91C91.2669 110.257 91.0336 110.533 90.7002 110.74C90.3736 110.947 89.9602 111.05 89.4602 111.05ZM93.8787 111V105.75H94.5587V107.18L94.4887 106.93C94.6353 106.53 94.882 106.227 95.2287 106.02C95.5753 105.807 96.0053 105.7 96.5187 105.7V106.39C96.492 106.39 96.4653 106.39 96.4387 106.39C96.412 106.383 96.3853 106.38 96.3587 106.38C95.8053 106.38 95.372 106.55 95.0587 106.89C94.7453 107.223 94.5887 107.7 94.5887 108.32V111H93.8787Z" fill="black"/>
<path d="M174.07 131.06C173.55 131.06 173.05 130.977 172.57 130.81C172.097 130.637 171.73 130.417 171.47 130.15L171.76 129.58C172.007 129.82 172.337 130.023 172.75 130.19C173.17 130.35 173.61 130.43 174.07 130.43C174.51 130.43 174.867 130.377 175.14 130.27C175.42 130.157 175.623 130.007 175.75 129.82C175.883 129.633 175.95 129.427 175.95 129.2C175.95 128.927 175.87 128.707 175.71 128.54C175.557 128.373 175.353 128.243 175.1 128.15C174.847 128.05 174.567 127.963 174.26 127.89C173.953 127.817 173.647 127.74 173.34 127.66C173.033 127.573 172.75 127.46 172.49 127.32C172.237 127.18 172.03 126.997 171.87 126.77C171.717 126.537 171.64 126.233 171.64 125.86C171.64 125.513 171.73 125.197 171.91 124.91C172.097 124.617 172.38 124.383 172.76 124.21C173.14 124.03 173.627 123.94 174.22 123.94C174.613 123.94 175.003 123.997 175.39 124.11C175.777 124.217 176.11 124.367 176.39 124.56L176.14 125.15C175.84 124.95 175.52 124.803 175.18 124.71C174.847 124.617 174.523 124.57 174.21 124.57C173.79 124.57 173.443 124.627 173.17 124.74C172.897 124.853 172.693 125.007 172.56 125.2C172.433 125.387 172.37 125.6 172.37 125.84C172.37 126.113 172.447 126.333 172.6 126.5C172.76 126.667 172.967 126.797 173.22 126.89C173.48 126.983 173.763 127.067 174.07 127.14C174.377 127.213 174.68 127.293 174.98 127.38C175.287 127.467 175.567 127.58 175.82 127.72C176.08 127.853 176.287 128.033 176.44 128.26C176.6 128.487 176.68 128.783 176.68 129.15C176.68 129.49 176.587 129.807 176.4 130.1C176.213 130.387 175.927 130.62 175.54 130.8C175.16 130.973 174.67 131.06 174.07 131.06ZM173.99 133.2C173.823 133.2 173.67 133.18 173.53 133.14C173.397 133.1 173.27 133.043 173.15 132.97L173.32 132.59C173.42 132.65 173.523 132.697 173.63 132.73C173.743 132.763 173.86 132.78 173.98 132.78C174.18 132.78 174.333 132.737 174.44 132.65C174.547 132.57 174.6 132.457 174.6 132.31C174.6 132.177 174.547 132.067 174.44 131.98C174.34 131.893 174.187 131.85 173.98 131.85H173.75L173.99 130.94H174.42L174.27 131.52C174.543 131.54 174.753 131.623 174.9 131.77C175.047 131.923 175.12 132.11 175.12 132.33C175.12 132.597 175.013 132.807 174.8 132.96C174.593 133.12 174.323 133.2 173.99 133.2ZM181.432 131V129.84L181.402 129.65V127.71C181.402 127.263 181.276 126.92 181.022 126.68C180.776 126.44 180.406 126.32 179.912 126.32C179.572 126.32 179.249 126.377 178.942 126.49C178.636 126.603 178.376 126.753 178.162 126.94L177.842 126.41C178.109 126.183 178.429 126.01 178.802 125.89C179.176 125.763 179.569 125.7 179.982 125.7C180.662 125.7 181.186 125.87 181.552 126.21C181.926 126.543 182.112 127.053 182.112 127.74V131H181.432ZM179.622 131.05C179.229 131.05 178.886 130.987 178.592 130.86C178.306 130.727 178.086 130.547 177.932 130.32C177.779 130.087 177.702 129.82 177.702 129.52C177.702 129.247 177.766 129 177.892 128.78C178.026 128.553 178.239 128.373 178.532 128.24C178.832 128.1 179.232 128.03 179.732 128.03H181.542V128.56H179.752C179.246 128.56 178.892 128.65 178.692 128.83C178.499 129.01 178.402 129.233 178.402 129.5C178.402 129.8 178.519 130.04 178.752 130.22C178.986 130.4 179.312 130.49 179.732 130.49C180.132 130.49 180.476 130.4 180.762 130.22C181.056 130.033 181.269 129.767 181.402 129.42L181.562 129.91C181.429 130.257 181.196 130.533 180.862 130.74C180.536 130.947 180.122 131.05 179.622 131.05ZM186.751 131.05C186.291 131.05 185.877 130.947 185.511 130.74C185.144 130.527 184.854 130.22 184.641 129.82C184.427 129.42 184.321 128.937 184.321 128.37C184.321 127.797 184.427 127.313 184.641 126.92C184.861 126.52 185.154 126.217 185.521 126.01C185.887 125.803 186.297 125.7 186.751 125.7C187.251 125.7 187.697 125.813 188.091 126.04C188.491 126.26 188.804 126.57 189.031 126.97C189.257 127.37 189.371 127.837 189.371 128.37C189.371 128.897 189.257 129.363 189.031 129.77C188.804 130.17 188.491 130.483 188.091 130.71C187.697 130.937 187.251 131.05 186.751 131.05ZM184.041 131V123.58H184.751V127.3L184.651 128.36L184.721 129.42V131H184.041ZM186.701 130.42C187.074 130.42 187.407 130.337 187.701 130.17C187.994 129.997 188.227 129.757 188.401 129.45C188.574 129.137 188.661 128.777 188.661 128.37C188.661 127.957 188.574 127.597 188.401 127.29C188.227 126.983 187.994 126.747 187.701 126.58C187.407 126.407 187.074 126.32 186.701 126.32C186.327 126.32 185.991 126.407 185.691 126.58C185.397 126.747 185.164 126.983 184.991 127.29C184.824 127.597 184.741 127.957 184.741 128.37C184.741 128.777 184.824 129.137 184.991 129.45C185.164 129.757 185.397 129.997 185.691 130.17C185.991 130.337 186.327 130.42 186.701 130.42ZM190.818 131V125.75H191.498V127.18L191.428 126.93C191.575 126.53 191.821 126.227 192.168 126.02C192.515 125.807 192.945 125.7 193.458 125.7V126.39C193.431 126.39 193.405 126.39 193.378 126.39C193.351 126.383 193.325 126.38 193.298 126.38C192.745 126.38 192.311 126.55 191.998 126.89C191.685 127.223 191.528 127.7 191.528 128.32V131H190.818ZM197.653 131V129.84L197.623 129.65V127.71C197.623 127.263 197.496 126.92 197.243 126.68C196.996 126.44 196.626 126.32 196.133 126.32C195.793 126.32 195.47 126.377 195.163 126.49C194.856 126.603 194.596 126.753 194.383 126.94L194.063 126.41C194.33 126.183 194.65 126.01 195.023 125.89C195.396 125.763 195.79 125.7 196.203 125.7C196.883 125.7 197.406 125.87 197.773 126.21C198.146 126.543 198.333 127.053 198.333 127.74V131H197.653ZM195.843 131.05C195.45 131.05 195.106 130.987 194.813 130.86C194.526 130.727 194.306 130.547 194.153 130.32C194 130.087 193.923 129.82 193.923 129.52C193.923 129.247 193.986 129 194.113 128.78C194.246 128.553 194.46 128.373 194.753 128.24C195.053 128.1 195.453 128.03 195.953 128.03H197.763V128.56H195.973C195.466 128.56 195.113 128.65 194.913 128.83C194.72 129.01 194.623 129.233 194.623 129.5C194.623 129.8 194.74 130.04 194.973 130.22C195.206 130.4 195.533 130.49 195.953 130.49C196.353 130.49 196.696 130.4 196.983 130.22C197.276 130.033 197.49 129.767 197.623 129.42L197.783 129.91C197.65 130.257 197.416 130.533 197.083 130.74C196.756 130.947 196.343 131.05 195.843 131.05ZM202.941 125.7C203.368 125.7 203.741 125.783 204.061 125.95C204.388 126.11 204.641 126.357 204.821 126.69C205.008 127.023 205.101 127.443 205.101 127.95V131H204.391V128.02C204.391 127.467 204.251 127.05 203.971 126.77C203.698 126.483 203.311 126.34 202.811 126.34C202.438 126.34 202.111 126.417 201.831 126.57C201.558 126.717 201.345 126.933 201.191 127.22C201.045 127.5 200.971 127.84 200.971 128.24V131H200.261V125.75H200.941V127.19L200.831 126.92C200.998 126.54 201.265 126.243 201.631 126.03C201.998 125.81 202.435 125.7 202.941 125.7Z" fill="black"/>
<path d="M194.07 192.06C193.55 192.06 193.05 191.977 192.57 191.81C192.097 191.637 191.73 191.417 191.47 191.15L191.76 190.58C192.007 190.82 192.337 191.023 192.75 191.19C193.17 191.35 193.61 191.43 194.07 191.43C194.51 191.43 194.867 191.377 195.14 191.27C195.42 191.157 195.623 191.007 195.75 190.82C195.883 190.633 195.95 190.427 195.95 190.2C195.95 189.927 195.87 189.707 195.71 189.54C195.557 189.373 195.353 189.243 195.1 189.15C194.847 189.05 194.567 188.963 194.26 188.89C193.953 188.817 193.647 188.74 193.34 188.66C193.033 188.573 192.75 188.46 192.49 188.32C192.237 188.18 192.03 187.997 191.87 187.77C191.717 187.537 191.64 187.233 191.64 186.86C191.64 186.513 191.73 186.197 191.91 185.91C192.097 185.617 192.38 185.383 192.76 185.21C193.14 185.03 193.627 184.94 194.22 184.94C194.613 184.94 195.003 184.997 195.39 185.11C195.777 185.217 196.11 185.367 196.39 185.56L196.14 186.15C195.84 185.95 195.52 185.803 195.18 185.71C194.847 185.617 194.523 185.57 194.21 185.57C193.79 185.57 193.443 185.627 193.17 185.74C192.897 185.853 192.693 186.007 192.56 186.2C192.433 186.387 192.37 186.6 192.37 186.84C192.37 187.113 192.447 187.333 192.6 187.5C192.76 187.667 192.967 187.797 193.22 187.89C193.48 187.983 193.763 188.067 194.07 188.14C194.377 188.213 194.68 188.293 194.98 188.38C195.287 188.467 195.567 188.58 195.82 188.72C196.08 188.853 196.287 189.033 196.44 189.26C196.6 189.487 196.68 189.783 196.68 190.15C196.68 190.49 196.587 190.807 196.4 191.1C196.213 191.387 195.927 191.62 195.54 191.8C195.16 191.973 194.67 192.06 194.07 192.06ZM198.142 192V186.75H198.852V192H198.142ZM198.502 185.59C198.356 185.59 198.232 185.54 198.132 185.44C198.032 185.34 197.982 185.22 197.982 185.08C197.982 184.94 198.032 184.823 198.132 184.73C198.232 184.63 198.356 184.58 198.502 184.58C198.649 184.58 198.772 184.627 198.872 184.72C198.972 184.813 199.022 184.93 199.022 185.07C199.022 185.217 198.972 185.34 198.872 185.44C198.779 185.54 198.656 185.59 198.502 185.59ZM200.868 193.99C200.621 193.99 200.385 193.95 200.158 193.87C199.938 193.79 199.748 193.67 199.588 193.51L199.918 192.98C200.051 193.107 200.195 193.203 200.348 193.27C200.508 193.343 200.685 193.38 200.878 193.38C201.111 193.38 201.311 193.313 201.478 193.18C201.651 193.053 201.815 192.827 201.968 192.5L202.308 191.73L202.388 191.62L204.548 186.75H205.248L202.618 192.63C202.471 192.97 202.308 193.24 202.128 193.44C201.955 193.64 201.765 193.78 201.558 193.86C201.351 193.947 201.121 193.99 200.868 193.99ZM202.268 192.15L199.848 186.75H200.588L202.728 191.57L202.268 192.15ZM207.931 186.7C208.478 186.7 208.958 186.817 209.371 187.05C209.785 187.277 210.108 187.59 210.341 187.99C210.575 188.39 210.691 188.85 210.691 189.37C210.691 189.89 210.578 190.353 210.351 190.76C210.131 191.16 209.828 191.477 209.441 191.71C209.055 191.937 208.615 192.05 208.121 192.05C207.628 192.05 207.188 191.937 206.801 191.71C206.421 191.483 206.121 191.17 205.901 190.77C205.681 190.363 205.571 189.897 205.571 189.37C205.571 189.343 205.571 189.31 205.571 189.27C205.578 189.23 205.581 189.193 205.581 189.16H210.151V189.69H205.961L206.241 189.48C206.241 189.853 206.321 190.19 206.481 190.49C206.648 190.783 206.871 191.017 207.151 191.19C207.431 191.357 207.755 191.44 208.121 191.44C208.488 191.44 208.811 191.357 209.091 191.19C209.378 191.017 209.601 190.78 209.761 190.48C209.921 190.18 210.001 189.84 210.001 189.46V189.34C210.001 188.94 209.911 188.59 209.731 188.29C209.558 187.99 209.315 187.753 209.001 187.58C208.688 187.407 208.325 187.32 207.911 187.32C207.585 187.32 207.285 187.377 207.011 187.49C206.738 187.603 206.501 187.78 206.301 188.02L205.901 187.55C206.141 187.27 206.435 187.06 206.781 186.92C207.135 186.773 207.518 186.7 207.931 186.7ZM211.479 192V191.53L214.979 187.1L215.129 187.34H211.539V186.75H215.689V187.21L212.199 191.65L212.019 191.41H215.759V192H211.479ZM218.898 186.7C219.445 186.7 219.925 186.817 220.338 187.05C220.751 187.277 221.075 187.59 221.308 187.99C221.541 188.39 221.658 188.85 221.658 189.37C221.658 189.89 221.545 190.353 221.318 190.76C221.098 191.16 220.795 191.477 220.408 191.71C220.021 191.937 219.581 192.05 219.088 192.05C218.595 192.05 218.155 191.937 217.768 191.71C217.388 191.483 217.088 191.17 216.868 190.77C216.648 190.363 216.538 189.897 216.538 189.37C216.538 189.343 216.538 189.31 216.538 189.27C216.545 189.23 216.548 189.193 216.548 189.16H221.118V189.69H216.928L217.208 189.48C217.208 189.853 217.288 190.19 217.448 190.49C217.615 190.783 217.838 191.017 218.118 191.19C218.398 191.357 218.721 191.44 219.088 191.44C219.455 191.44 219.778 191.357 220.058 191.19C220.345 191.017 220.568 190.78 220.728 190.48C220.888 190.18 220.968 189.84 220.968 189.46V189.34C220.968 188.94 220.878 188.59 220.698 188.29C220.525 187.99 220.281 187.753 219.968 187.58C219.655 187.407 219.291 187.32 218.878 187.32C218.551 187.32 218.251 187.377 217.978 187.49C217.705 187.603 217.468 187.78 217.268 188.02L216.868 187.55C217.108 187.27 217.401 187.06 217.748 186.92C218.101 186.773 218.485 186.7 218.898 186.7ZM225.783 186.7C226.21 186.7 226.583 186.783 226.903 186.95C227.23 187.11 227.483 187.357 227.663 187.69C227.85 188.023 227.943 188.443 227.943 188.95V192H227.233V189.02C227.233 188.467 227.093 188.05 226.813 187.77C226.54 187.483 226.153 187.34 225.653 187.34C225.28 187.34 224.953 187.417 224.673 187.57C224.4 187.717 224.187 187.933 224.033 188.22C223.887 188.5 223.813 188.84 223.813 189.24V192H223.103V186.75H223.783V188.19L223.673 187.92C223.84 187.54 224.107 187.243 224.473 187.03C224.84 186.81 225.277 186.7 225.783 186.7Z" fill="black"/>
<path d="M122.2 199.06C121.673 199.06 121.183 198.973 120.73 198.8C120.283 198.62 119.893 198.37 119.56 198.05C119.233 197.723 118.977 197.347 118.79 196.92C118.61 196.487 118.52 196.013 118.52 195.5C118.52 194.987 118.61 194.517 118.79 194.09C118.977 193.657 119.233 193.28 119.56 192.96C119.893 192.633 120.283 192.383 120.73 192.21C121.177 192.03 121.667 191.94 122.2 191.94C122.727 191.94 123.213 192.03 123.66 192.21C124.107 192.383 124.493 192.63 124.82 192.95C125.153 193.27 125.41 193.647 125.59 194.08C125.777 194.513 125.87 194.987 125.87 195.5C125.87 196.013 125.777 196.487 125.59 196.92C125.41 197.353 125.153 197.73 124.82 198.05C124.493 198.37 124.107 198.62 123.66 198.8C123.213 198.973 122.727 199.06 122.2 199.06ZM124.49 200.39C124.277 200.39 124.07 200.363 123.87 200.31C123.67 200.257 123.467 200.17 123.26 200.05C123.06 199.937 122.853 199.787 122.64 199.6C122.427 199.413 122.193 199.187 121.94 198.92L122.75 198.72C122.957 198.967 123.157 199.17 123.35 199.33C123.55 199.49 123.743 199.607 123.93 199.68C124.123 199.76 124.313 199.8 124.5 199.8C125.02 199.8 125.463 199.587 125.83 199.16L126.19 199.59C125.75 200.123 125.183 200.39 124.49 200.39ZM122.2 198.4C122.62 198.4 123.007 198.33 123.36 198.19C123.72 198.043 124.03 197.837 124.29 197.57C124.557 197.303 124.763 196.997 124.91 196.65C125.057 196.297 125.13 195.913 125.13 195.5C125.13 195.08 125.057 194.697 124.91 194.35C124.763 193.997 124.557 193.69 124.29 193.43C124.03 193.163 123.72 192.96 123.36 192.82C123.007 192.673 122.62 192.6 122.2 192.6C121.78 192.6 121.39 192.673 121.03 192.82C120.67 192.96 120.357 193.163 120.09 193.43C119.83 193.69 119.623 193.997 119.47 194.35C119.323 194.697 119.25 195.08 119.25 195.5C119.25 195.913 119.323 196.297 119.47 196.65C119.623 196.997 119.83 197.303 120.09 197.57C120.357 197.837 120.67 198.043 121.03 198.19C121.39 198.33 121.78 198.4 122.2 198.4ZM129.549 199.05C129.102 199.05 128.712 198.967 128.379 198.8C128.045 198.633 127.785 198.383 127.599 198.05C127.419 197.717 127.329 197.3 127.329 196.8V193.75H128.039V196.72C128.039 197.28 128.175 197.703 128.449 197.99C128.729 198.27 129.119 198.41 129.619 198.41C129.985 198.41 130.302 198.337 130.569 198.19C130.842 198.037 131.049 197.817 131.189 197.53C131.335 197.243 131.409 196.9 131.409 196.5V193.75H132.119V199H131.439V197.56L131.549 197.82C131.382 198.207 131.122 198.51 130.769 198.73C130.422 198.943 130.015 199.05 129.549 199.05ZM136.807 199.05C136.347 199.05 135.934 198.947 135.567 198.74C135.201 198.527 134.911 198.22 134.697 197.82C134.484 197.42 134.377 196.937 134.377 196.37C134.377 195.797 134.484 195.313 134.697 194.92C134.917 194.52 135.211 194.217 135.577 194.01C135.944 193.803 136.354 193.7 136.807 193.7C137.307 193.7 137.754 193.813 138.147 194.04C138.547 194.26 138.861 194.57 139.087 194.97C139.314 195.37 139.427 195.837 139.427 196.37C139.427 196.897 139.314 197.363 139.087 197.77C138.861 198.17 138.547 198.483 138.147 198.71C137.754 198.937 137.307 199.05 136.807 199.05ZM134.097 199V191.58H134.807V195.3L134.707 196.36L134.777 197.42V199H134.097ZM136.757 198.42C137.131 198.42 137.464 198.337 137.757 198.17C138.051 197.997 138.284 197.757 138.457 197.45C138.631 197.137 138.717 196.777 138.717 196.37C138.717 195.957 138.631 195.597 138.457 195.29C138.284 194.983 138.051 194.747 137.757 194.58C137.464 194.407 137.131 194.32 136.757 194.32C136.384 194.32 136.047 194.407 135.747 194.58C135.454 194.747 135.221 194.983 135.047 195.29C134.881 195.597 134.797 195.957 134.797 196.37C134.797 196.777 134.881 197.137 135.047 197.45C135.221 197.757 135.454 197.997 135.747 198.17C136.047 198.337 136.384 198.42 136.757 198.42ZM144.135 199V197.84L144.105 197.65V195.71C144.105 195.263 143.979 194.92 143.725 194.68C143.479 194.44 143.109 194.32 142.615 194.32C142.275 194.32 141.952 194.377 141.645 194.49C141.339 194.603 141.079 194.753 140.865 194.94L140.545 194.41C140.812 194.183 141.132 194.01 141.505 193.89C141.879 193.763 142.272 193.7 142.685 193.7C143.365 193.7 143.889 193.87 144.255 194.21C144.629 194.543 144.815 195.053 144.815 195.74V199H144.135ZM142.325 199.05C141.932 199.05 141.589 198.987 141.295 198.86C141.009 198.727 140.789 198.547 140.635 198.32C140.482 198.087 140.405 197.82 140.405 197.52C140.405 197.247 140.469 197 140.595 196.78C140.729 196.553 140.942 196.373 141.235 196.24C141.535 196.1 141.935 196.03 142.435 196.03H144.245V196.56H142.455C141.949 196.56 141.595 196.65 141.395 196.83C141.202 197.01 141.105 197.233 141.105 197.5C141.105 197.8 141.222 198.04 141.455 198.22C141.689 198.4 142.015 198.49 142.435 198.49C142.835 198.49 143.179 198.4 143.465 198.22C143.759 198.033 143.972 197.767 144.105 197.42L144.265 197.91C144.132 198.257 143.899 198.533 143.565 198.74C143.239 198.947 142.825 199.05 142.325 199.05Z" fill="black"/>
<path d="M125.17 79L128.04 75.12V75.69L125.34 72H126.19L128.46 75.08L128.13 75.09L130.4 72H131.2L128.53 75.64V75.12L131.39 79H130.53L128.11 75.71H128.42L126.02 79H125.17ZM135.686 79V77.84L135.656 77.65V75.71C135.656 75.2633 135.53 74.92 135.276 74.68C135.03 74.44 134.66 74.32 134.166 74.32C133.826 74.32 133.503 74.3767 133.196 74.49C132.89 74.6033 132.63 74.7533 132.416 74.94L132.096 74.41C132.363 74.1833 132.683 74.01 133.056 73.89C133.43 73.7633 133.823 73.7 134.236 73.7C134.916 73.7 135.44 73.87 135.806 74.21C136.18 74.5433 136.366 75.0533 136.366 75.74V79H135.686ZM133.876 79.05C133.483 79.05 133.14 78.9867 132.846 78.86C132.56 78.7267 132.34 78.5467 132.186 78.32C132.033 78.0867 131.956 77.82 131.956 77.52C131.956 77.2467 132.02 77 132.146 76.78C132.28 76.5533 132.493 76.3733 132.786 76.24C133.086 76.1 133.486 76.03 133.986 76.03H135.796V76.56H134.006C133.5 76.56 133.146 76.65 132.946 76.83C132.753 77.01 132.656 77.2333 132.656 77.5C132.656 77.8 132.773 78.04 133.006 78.22C133.24 78.4 133.566 78.49 133.986 78.49C134.386 78.49 134.73 78.4 135.016 78.22C135.31 78.0333 135.523 77.7667 135.656 77.42L135.816 77.91C135.683 78.2567 135.45 78.5333 135.116 78.74C134.79 78.9467 134.376 79.05 133.876 79.05ZM140.475 79.05C139.955 79.05 139.488 78.9367 139.075 78.71C138.668 78.4767 138.348 78.16 138.115 77.76C137.881 77.3533 137.765 76.89 137.765 76.37C137.765 75.8433 137.881 75.38 138.115 74.98C138.348 74.58 138.668 74.2667 139.075 74.04C139.488 73.8133 139.955 73.7 140.475 73.7C140.921 73.7 141.325 73.7867 141.685 73.96C142.045 74.1333 142.328 74.3933 142.535 74.74L142.005 75.1C141.825 74.8333 141.601 74.6367 141.335 74.51C141.068 74.3833 140.778 74.32 140.465 74.32C140.091 74.32 139.755 74.4067 139.455 74.58C139.155 74.7467 138.918 74.9833 138.745 75.29C138.571 75.5967 138.485 75.9567 138.485 76.37C138.485 76.7833 138.571 77.1433 138.745 77.45C138.918 77.7567 139.155 77.9967 139.455 78.17C139.755 78.3367 140.091 78.42 140.465 78.42C140.778 78.42 141.068 78.3567 141.335 78.23C141.601 78.1033 141.825 77.91 142.005 77.65L142.535 78.01C142.328 78.35 142.045 78.61 141.685 78.79C141.325 78.9633 140.921 79.05 140.475 79.05ZM140.055 81.2C139.888 81.2 139.735 81.18 139.595 81.14C139.461 81.1 139.335 81.0433 139.215 80.97L139.385 80.59C139.485 80.65 139.588 80.6967 139.695 80.73C139.808 80.7633 139.925 80.78 140.045 80.78C140.245 80.78 140.398 80.7367 140.505 80.65C140.611 80.57 140.665 80.4567 140.665 80.31C140.665 80.1767 140.611 80.0667 140.505 79.98C140.405 79.8933 140.251 79.85 140.045 79.85H139.815L140.055 78.94H140.485L140.335 79.52C140.608 79.54 140.818 79.6233 140.965 79.77C141.111 79.9233 141.185 80.11 141.185 80.33C141.185 80.5967 141.078 80.8067 140.865 80.96C140.658 81.12 140.388 81.2 140.055 81.2ZM150.489 73.7C150.916 73.7 151.286 73.7833 151.599 73.95C151.919 74.11 152.166 74.3567 152.339 74.69C152.519 75.0233 152.609 75.4433 152.609 75.95V79H151.899V76.02C151.899 75.4667 151.766 75.05 151.499 74.77C151.239 74.4833 150.869 74.34 150.389 74.34C150.029 74.34 149.716 74.4167 149.449 74.57C149.189 74.7167 148.986 74.9333 148.839 75.22C148.699 75.5 148.629 75.84 148.629 76.24V79H147.919V76.02C147.919 75.4667 147.786 75.05 147.519 74.77C147.253 74.4833 146.879 74.34 146.399 74.34C146.046 74.34 145.736 74.4167 145.469 74.57C145.203 74.7167 144.996 74.9333 144.849 75.22C144.709 75.5 144.639 75.84 144.639 76.24V79H143.929V73.75H144.609V75.17L144.499 74.92C144.659 74.54 144.916 74.2433 145.269 74.03C145.629 73.81 146.053 73.7 146.539 73.7C147.053 73.7 147.489 73.83 147.849 74.09C148.209 74.3433 148.443 74.7267 148.549 75.24L148.269 75.13C148.423 74.7033 148.693 74.36 149.079 74.1C149.473 73.8333 149.943 73.7 150.489 73.7ZM157.825 79V77.84L157.795 77.65V75.71C157.795 75.2633 157.668 74.92 157.415 74.68C157.168 74.44 156.798 74.32 156.305 74.32C155.965 74.32 155.642 74.3767 155.335 74.49C155.028 74.6033 154.768 74.7533 154.555 74.94L154.235 74.41C154.502 74.1833 154.822 74.01 155.195 73.89C155.568 73.7633 155.962 73.7 156.375 73.7C157.055 73.7 157.578 73.87 157.945 74.21C158.318 74.5433 158.505 75.0533 158.505 75.74V79H157.825ZM156.015 79.05C155.622 79.05 155.278 78.9867 154.985 78.86C154.698 78.7267 154.478 78.5467 154.325 78.32C154.172 78.0867 154.095 77.82 154.095 77.52C154.095 77.2467 154.158 77 154.285 76.78C154.418 76.5533 154.632 76.3733 154.925 76.24C155.225 76.1 155.625 76.03 156.125 76.03H157.935V76.56H156.145C155.638 76.56 155.285 76.65 155.085 76.83C154.892 77.01 154.795 77.2333 154.795 77.5C154.795 77.8 154.912 78.04 155.145 78.22C155.378 78.4 155.705 78.49 156.125 78.49C156.525 78.49 156.868 78.4 157.155 78.22C157.448 78.0333 157.662 77.7667 157.795 77.42L157.955 77.91C157.822 78.2567 157.588 78.5333 157.255 78.74C156.928 78.9467 156.515 79.05 156.015 79.05ZM159.863 79V78.53L163.363 74.1L163.513 74.34H159.923V73.75H164.073V74.21L160.583 78.65L160.403 78.41H164.143V79H159.863Z" fill="black"/>
</svg>
