<svg width="331" height="299" viewBox="0 0 331 299" fill="none" xmlns="http://www.w3.org/2000/svg">
<path d="M46.3832 2L50.1714 3.01563L54.9343 2.81882L63.0932 3.93816L66.2802 5.84451L67.2642 10.3457L66.4164 20.0077L67.3911 24.0507L70.5217 26.6858L73.8801 26.6618L76.945 24.6652L82.6967 19.5901L86.3275 18.2874L93.4648 16.806L95.595 15.1789L96.6589 14.3662L99.6345 11.2922L101.114 11.33L101.861 13.9726L103.451 23.3068L104.4 26.5385L106.114 29.2894L117.716 40.0932L120.736 41.9712L122.963 42.6036L127.564 43.2167L129.628 44.2471L130.45 45.6279L131.399 49.9772L132.054 51.7983L134.445 55.054L143.226 62.5808L147.587 69.7112L149.121 76.8025L151.667 81.1969L151.885 81.167L159.105 80.1695L162.482 78.8232L165.878 78.1246L169.072 78.9811L171.865 82.2743L173.161 86.3743L173.781 90.3871L175.03 93.8486L178.152 96.2209L178.544 96.6492L179.932 98.0794L180.773 100.195L181.355 102.493L182.306 104.89L187.771 111.817L189.115 114.615L189.77 120.39L189.444 132.752L191.196 138.157L194.3 141.28L207.734 149.435L211.762 150.953L213.228 151.507L231.516 153.272L235.367 154.602L240.351 161.616L243.555 164.185L247.169 164.221L253.421 160.032L256.833 158.668L260.375 159.094L269.621 163.834L274.859 166.521L278.245 167.24L290.566 166.13L291.9 169.114L297.532 172.887L303.983 174.358L310.519 175.478L315.035 189.474L329 197.725L326.236 200.964L324.256 204.959L323.333 209.287L321.881 213.037L319.453 212.466L316.954 212.155L315.411 214.62L314.472 217.489L316.28 225.18L320.569 232.55L319.993 239.838L314.848 244.206L312.208 244.696L309.918 245.599L309.326 250.77L309.162 256.148L302.334 261.636L294.312 265.277L289.138 269.708L285.495 276.544L281.005 282.766L276.258 288.703L270.464 291.501L264.187 291.699L257.341 293.323L250.852 297L245.093 293.627L240.804 288.93L240.356 278.691L239.726 268.476L232.753 269.824L226.027 268.228L222.925 266.668L219.794 265.701L218.04 266.536L216.645 267.394L212.326 267.358L207.917 265.416L200.653 263.585L193.314 262.067L179.88 256.193L166.411 250.595L150.577 241.669L134.532 233.46L119.637 225.246L104.461 220.546L103.629 214.316L101.074 208.945L100.015 202.091L99.2587 195.538L92.213 191.284L84.1716 190.994L78.9977 187.018L79.9841 185.62L81.4613 178.056L82.3937 169.979L84.1082 163.636L85.1486 162.175L87.4854 159.971L88.5258 158.474L88.9016 156.928L89.0918 152.799L89.4394 150.984L90.9894 149.143L92.4526 149.362L92.9998 149.07L91.8866 145.631L86.3369 137.073L82.9221 133.219L81.7361 131.194L81.5247 131.053L80.2941 130.228L77.5557 131.315L74.7655 124.727L66.0947 119.513L48.8985 112.197L40.6315 104.451L37.0359 103.559L34.9715 102.593L25.7369 96.1625L22.6979 92.2246L21.1267 87.0743L19.7176 77.8302L19.4569 76.119L15.5348 68.55L15.1332 67.2263L12.686 67.3241L11.5187 69.1119L10.6427 71.2977L9.09267 72.5837L4.33683 68.5844L2.08221 57.9175L2 45.8803L3.67217 37.7449L7.08464 34.0925L10.9363 33.6628L19.2032 35.5663L22.8834 35.2104L25.7041 33.8235L28.2757 31.5024L35.8686 22.1665L39.6569 15.9843L46.3832 2Z" fill="#ECE7E2" stroke="#FFAC1C" stroke-width="3" stroke-linejoin="round"/>
<path d="M136.35 150.06L136.2 150.07C135.16 150.07 134.287 149.727 133.58 149.04C132.873 148.347 132.52 147.487 132.52 146.46C132.52 145.427 132.873 144.567 133.58 143.88C134.287 143.187 135.16 142.84 136.2 142.84C137.24 142.84 138.113 143.187 138.82 143.88C139.527 144.567 139.88 145.423 139.88 146.45C139.88 147.23 139.67 147.923 139.25 148.53C138.83 149.13 138.27 149.563 137.57 149.83C137.797 150.13 138.083 150.28 138.43 150.28C138.683 150.28 138.93 150.213 139.17 150.08C139.417 149.947 139.603 149.773 139.73 149.56L140.4 150.49C139.82 151.103 139.157 151.41 138.41 151.41C137.983 151.41 137.573 151.29 137.18 151.05C136.787 150.81 136.51 150.48 136.35 150.06ZM137.95 144.66C137.477 144.167 136.893 143.92 136.2 143.92C135.507 143.92 134.92 144.167 134.44 144.66C133.967 145.153 133.73 145.753 133.73 146.46C133.73 147.16 133.967 147.757 134.44 148.25C134.92 148.743 135.507 148.99 136.2 148.99C136.893 148.99 137.477 148.743 137.95 148.25C138.43 147.757 138.67 147.16 138.67 146.46C138.67 145.753 138.43 145.153 137.95 144.66ZM145.518 150H144.498V149.29C144.058 149.817 143.468 150.08 142.728 150.08C142.175 150.08 141.715 149.923 141.348 149.61C140.988 149.297 140.808 148.88 140.808 148.36C140.808 147.833 141.002 147.44 141.388 147.18C141.775 146.92 142.298 146.79 142.958 146.79H144.408V146.59C144.408 145.883 144.015 145.53 143.228 145.53C142.735 145.53 142.222 145.71 141.688 146.07L141.188 145.37C141.835 144.857 142.568 144.6 143.388 144.6C144.015 144.6 144.525 144.76 144.918 145.08C145.318 145.393 145.518 145.89 145.518 146.57V150ZM144.398 148.02V147.57H143.138C142.332 147.57 141.928 147.823 141.928 148.33C141.928 148.59 142.028 148.79 142.228 148.93C142.428 149.063 142.705 149.13 143.058 149.13C143.418 149.13 143.732 149.03 143.998 148.83C144.265 148.63 144.398 148.36 144.398 148.02ZM147.928 144.68L149.068 146.43L150.248 144.68H151.578L149.718 147.28L151.658 150H150.278L149.008 148.23L147.768 150H146.458L148.348 147.29L146.558 144.68H147.928Z" fill="black"/>
<path d="M178.02 211.09C178.02 211.517 177.917 211.88 177.71 212.18C177.503 212.473 177.207 212.7 176.82 212.86C176.44 213.02 175.99 213.1 175.47 213.1C175.203 213.1 174.947 213.087 174.7 213.06C174.46 213.033 174.24 212.997 174.04 212.95C173.84 212.897 173.663 212.833 173.51 212.76V211.9C173.75 212.007 174.047 212.103 174.4 212.19C174.76 212.277 175.13 212.32 175.51 212.32C175.863 212.32 176.16 212.273 176.4 212.18C176.64 212.087 176.82 211.953 176.94 211.78C177.06 211.607 177.12 211.403 177.12 211.17C177.12 210.937 177.07 210.74 176.97 210.58C176.87 210.42 176.697 210.273 176.45 210.14C176.21 210 175.873 209.853 175.44 209.7C175.133 209.587 174.863 209.467 174.63 209.34C174.403 209.207 174.213 209.057 174.06 208.89C173.907 208.723 173.79 208.533 173.71 208.32C173.637 208.107 173.6 207.86 173.6 207.58C173.6 207.2 173.697 206.877 173.89 206.61C174.083 206.337 174.35 206.127 174.69 205.98C175.037 205.833 175.433 205.76 175.88 205.76C176.273 205.76 176.633 205.797 176.96 205.87C177.287 205.943 177.583 206.04 177.85 206.16L177.57 206.93C177.323 206.823 177.053 206.733 176.76 206.66C176.473 206.587 176.173 206.55 175.86 206.55C175.56 206.55 175.31 206.593 175.11 206.68C174.91 206.767 174.76 206.89 174.66 207.05C174.56 207.203 174.51 207.383 174.51 207.59C174.51 207.83 174.56 208.03 174.66 208.19C174.76 208.35 174.923 208.493 175.15 208.62C175.377 208.747 175.683 208.883 176.07 209.03C176.49 209.183 176.843 209.35 177.13 209.53C177.423 209.703 177.643 209.913 177.79 210.16C177.943 210.407 178.02 210.717 178.02 211.09ZM176.56 214.39C176.56 214.603 176.503 214.783 176.39 214.93C176.283 215.083 176.12 215.2 175.9 215.28C175.68 215.36 175.407 215.4 175.08 215.4C174.98 215.4 174.883 215.393 174.79 215.38C174.703 215.373 174.633 215.363 174.58 215.35V214.8C174.64 214.813 174.72 214.823 174.82 214.83C174.92 214.843 175.017 214.85 175.11 214.85C175.35 214.85 175.533 214.817 175.66 214.75C175.787 214.69 175.85 214.577 175.85 214.41C175.85 214.237 175.76 214.11 175.58 214.03C175.407 213.95 175.193 213.893 174.94 213.86L175.37 213H175.95L175.69 213.53C175.85 213.563 175.997 213.613 176.13 213.68C176.263 213.753 176.367 213.847 176.44 213.96C176.52 214.073 176.56 214.217 176.56 214.39ZM180.998 207.54C181.512 207.54 181.962 207.643 182.348 207.85C182.735 208.057 183.035 208.363 183.248 208.77C183.468 209.177 183.578 209.68 183.578 210.28C183.578 210.867 183.478 211.37 183.278 211.79C183.085 212.21 182.808 212.533 182.448 212.76C182.095 212.987 181.682 213.1 181.208 213.1C180.755 213.1 180.362 213 180.028 212.8C179.695 212.6 179.438 212.32 179.258 211.96C179.085 211.593 178.998 211.167 178.998 210.68V210.15H182.668C182.655 209.543 182.498 209.083 182.198 208.77C181.905 208.45 181.492 208.29 180.958 208.29C180.618 208.29 180.315 208.323 180.048 208.39C179.788 208.45 179.518 208.54 179.238 208.66V207.89C179.512 207.77 179.782 207.683 180.048 207.63C180.315 207.57 180.632 207.54 180.998 207.54ZM179.918 210.85C179.925 211.15 179.972 211.417 180.058 211.65C180.152 211.877 180.295 212.057 180.488 212.19C180.682 212.317 180.925 212.38 181.218 212.38C181.638 212.38 181.968 212.247 182.208 211.98C182.455 211.707 182.602 211.33 182.648 210.85H179.918ZM186.063 213H184.943V205.58H186.063V209.94L188.223 207.68H189.663L187.643 209.79L189.813 213H188.453L186.873 210.67L186.063 211.49V213ZM191.873 213H190.753V207.68H191.873V213ZM190.823 206.62C190.683 206.48 190.613 206.313 190.613 206.12C190.613 205.927 190.683 205.76 190.823 205.62C190.963 205.48 191.13 205.41 191.323 205.41C191.517 205.41 191.683 205.48 191.823 205.62C191.963 205.76 192.033 205.927 192.033 206.12C192.033 206.313 191.963 206.48 191.823 206.62C191.683 206.76 191.517 206.83 191.323 206.83C191.13 206.83 190.963 206.76 190.823 206.62Z" fill="black"/>
<path d="M254.95 205.66C254.477 205.167 253.893 204.92 253.2 204.92C252.507 204.92 251.92 205.167 251.44 205.66C250.967 206.153 250.73 206.753 250.73 207.46C250.73 208.16 250.967 208.757 251.44 209.25C251.92 209.743 252.507 209.99 253.2 209.99C253.893 209.99 254.477 209.743 254.95 209.25C255.43 208.757 255.67 208.16 255.67 207.46C255.67 206.753 255.43 206.153 254.95 205.66ZM255.82 210.04C255.113 210.727 254.24 211.07 253.2 211.07C252.16 211.07 251.287 210.727 250.58 210.04C249.873 209.347 249.52 208.487 249.52 207.46C249.52 206.427 249.873 205.567 250.58 204.88C251.287 204.187 252.16 203.84 253.2 203.84C254.24 203.84 255.113 204.187 255.82 204.88C256.527 205.567 256.88 206.427 256.88 207.46C256.88 208.487 256.527 209.347 255.82 210.04ZM260.148 205.54C260.502 205.54 260.818 205.607 261.098 205.74C261.385 205.873 261.628 206.077 261.828 206.35H261.878L261.998 205.64H262.698V211.09C262.698 211.597 262.612 212.02 262.438 212.36C262.265 212.707 262.002 212.967 261.648 213.14C261.295 213.313 260.845 213.4 260.298 213.4C259.912 213.4 259.555 213.37 259.228 213.31C258.908 213.257 258.622 213.173 258.368 213.06V212.25C258.542 212.337 258.732 212.41 258.938 212.47C259.145 212.537 259.368 212.587 259.608 212.62C259.848 212.653 260.095 212.67 260.348 212.67C260.808 212.67 261.168 212.533 261.428 212.26C261.695 211.993 261.828 211.627 261.828 211.16V210.95C261.828 210.87 261.832 210.757 261.838 210.61C261.845 210.457 261.852 210.35 261.858 210.29H261.818C261.632 210.563 261.398 210.767 261.118 210.9C260.845 211.033 260.525 211.1 260.158 211.1C259.465 211.1 258.922 210.857 258.528 210.37C258.142 209.883 257.948 209.203 257.948 208.33C257.948 207.757 258.035 207.263 258.208 206.85C258.388 206.43 258.642 206.107 258.968 205.88C259.295 205.653 259.688 205.54 260.148 205.54ZM260.268 206.28C259.968 206.28 259.712 206.36 259.498 206.52C259.292 206.68 259.132 206.913 259.018 207.22C258.912 207.527 258.858 207.9 258.858 208.34C258.858 209 258.978 209.507 259.218 209.86C259.465 210.207 259.822 210.38 260.288 210.38C260.562 210.38 260.795 210.347 260.988 210.28C261.182 210.207 261.342 210.097 261.468 209.95C261.595 209.797 261.688 209.603 261.748 209.37C261.808 209.137 261.838 208.86 261.838 208.54V208.33C261.838 207.843 261.782 207.45 261.668 207.15C261.562 206.85 261.392 206.63 261.158 206.49C260.925 206.35 260.628 206.28 260.268 206.28ZM261.918 203.6C261.898 203.867 261.822 204.1 261.688 204.3C261.562 204.5 261.385 204.657 261.158 204.77C260.932 204.883 260.658 204.94 260.338 204.94C259.845 204.94 259.472 204.82 259.218 204.58C258.972 204.333 258.835 204.007 258.808 203.6H259.348C259.368 203.78 259.418 203.917 259.498 204.01C259.585 204.097 259.698 204.157 259.838 204.19C259.985 204.217 260.158 204.23 260.358 204.23C260.532 204.23 260.688 204.213 260.828 204.18C260.975 204.147 261.095 204.087 261.188 204C261.288 203.907 261.348 203.773 261.368 203.6H261.918ZM268.081 208.56V205.68H269.201V211H268.081V210.03C267.901 210.357 267.651 210.613 267.331 210.8C267.017 210.987 266.677 211.08 266.311 211.08C265.711 211.08 265.224 210.897 264.851 210.53C264.484 210.163 264.301 209.633 264.301 208.94V205.68H265.421V208.6C265.421 209.58 265.827 210.07 266.641 210.07C267.027 210.07 267.364 209.943 267.651 209.69C267.937 209.43 268.081 209.053 268.081 208.56ZM270.656 206.66V205.7H274.816V206.71L271.826 210.03H274.976V211H270.456V209.91L273.366 206.66H270.656Z" fill="black"/>
<path d="M253.35 253.06L253.2 253.07C252.16 253.07 251.287 252.727 250.58 252.04C249.873 251.347 249.52 250.487 249.52 249.46C249.52 248.427 249.873 247.567 250.58 246.88C251.287 246.187 252.16 245.84 253.2 245.84C254.24 245.84 255.113 246.187 255.82 246.88C256.527 247.567 256.88 248.423 256.88 249.45C256.88 250.23 256.67 250.923 256.25 251.53C255.83 252.13 255.27 252.563 254.57 252.83C254.797 253.13 255.083 253.28 255.43 253.28C255.683 253.28 255.93 253.213 256.17 253.08C256.417 252.947 256.603 252.773 256.73 252.56L257.4 253.49C256.82 254.103 256.157 254.41 255.41 254.41C254.983 254.41 254.573 254.29 254.18 254.05C253.787 253.81 253.51 253.48 253.35 253.06ZM254.95 247.66C254.477 247.167 253.893 246.92 253.2 246.92C252.507 246.92 251.92 247.167 251.44 247.66C250.967 248.153 250.73 248.753 250.73 249.46C250.73 250.16 250.967 250.757 251.44 251.25C251.92 251.743 252.507 251.99 253.2 251.99C253.893 251.99 254.477 251.743 254.95 251.25C255.43 250.757 255.67 250.16 255.67 249.46C255.67 248.753 255.43 248.153 254.95 247.66ZM259.908 247.54C260.422 247.54 260.872 247.643 261.258 247.85C261.645 248.057 261.945 248.363 262.158 248.77C262.378 249.177 262.488 249.68 262.488 250.28C262.488 250.867 262.388 251.37 262.188 251.79C261.995 252.21 261.718 252.533 261.358 252.76C261.005 252.987 260.592 253.1 260.118 253.1C259.665 253.1 259.272 253 258.938 252.8C258.605 252.6 258.348 252.32 258.168 251.96C257.995 251.593 257.908 251.167 257.908 250.68V250.15H261.578C261.565 249.543 261.408 249.083 261.108 248.77C260.815 248.45 260.402 248.29 259.868 248.29C259.528 248.29 259.225 248.323 258.958 248.39C258.698 248.45 258.428 248.54 258.148 248.66V247.89C258.422 247.77 258.692 247.683 258.958 247.63C259.225 247.57 259.542 247.54 259.908 247.54ZM258.828 250.85C258.835 251.15 258.882 251.417 258.968 251.65C259.062 251.877 259.205 252.057 259.398 252.19C259.592 252.317 259.835 252.38 260.128 252.38C260.548 252.38 260.878 252.247 261.118 251.98C261.365 251.707 261.512 251.33 261.558 250.85H258.828ZM266.703 247.6C267.416 247.6 268.026 247.847 268.533 248.34C269.04 248.833 269.293 249.49 269.293 250.31C269.293 251.13 269.04 251.797 268.533 252.31C268.033 252.823 267.446 253.08 266.773 253.08C266.106 253.08 265.506 252.787 264.973 252.2V253H263.853V245.58H264.973V248.61C265.413 247.937 265.99 247.6 266.703 247.6ZM264.953 250.35C264.953 250.857 265.106 251.273 265.413 251.6C265.72 251.92 266.093 252.08 266.533 252.08C266.973 252.08 267.356 251.92 267.683 251.6C268.01 251.28 268.173 250.867 268.173 250.36C268.173 249.847 268.013 249.423 267.693 249.09C267.373 248.75 266.99 248.58 266.543 248.58C266.096 248.58 265.72 248.75 265.413 249.09C265.106 249.423 264.953 249.843 264.953 250.35ZM272.272 247.54C272.785 247.54 273.235 247.643 273.622 247.85C274.008 248.057 274.308 248.363 274.522 248.77C274.742 249.177 274.852 249.68 274.852 250.28C274.852 250.867 274.752 251.37 274.552 251.79C274.358 252.21 274.082 252.533 273.722 252.76C273.368 252.987 272.955 253.1 272.482 253.1C272.028 253.1 271.635 253 271.302 252.8C270.968 252.6 270.712 252.32 270.532 251.96C270.358 251.593 270.272 251.167 270.272 250.68V250.15H273.942C273.928 249.543 273.772 249.083 273.472 248.77C273.178 248.45 272.765 248.29 272.232 248.29C271.892 248.29 271.588 248.323 271.322 248.39C271.062 248.45 270.792 248.54 270.512 248.66V247.89C270.785 247.77 271.055 247.683 271.322 247.63C271.588 247.57 271.905 247.54 272.272 247.54ZM271.192 250.85C271.198 251.15 271.245 251.417 271.332 251.65C271.425 251.877 271.568 252.057 271.762 252.19C271.955 252.317 272.198 252.38 272.492 252.38C272.912 252.38 273.242 252.247 273.482 251.98C273.728 251.707 273.875 251.33 273.922 250.85H271.192ZM277.336 253H276.216V245.58H277.336V253ZM280.66 247.54C281.174 247.54 281.624 247.643 282.01 247.85C282.397 248.057 282.697 248.363 282.91 248.77C283.13 249.177 283.24 249.68 283.24 250.28C283.24 250.867 283.14 251.37 282.94 251.79C282.747 252.21 282.47 252.533 282.11 252.76C281.757 252.987 281.344 253.1 280.87 253.1C280.417 253.1 280.024 253 279.69 252.8C279.357 252.6 279.1 252.32 278.92 251.96C278.747 251.593 278.66 251.167 278.66 250.68V250.15H282.33C282.317 249.543 282.16 249.083 281.86 248.77C281.567 248.45 281.154 248.29 280.62 248.29C280.28 248.29 279.977 248.323 279.71 248.39C279.45 248.45 279.18 248.54 278.9 248.66V247.89C279.174 247.77 279.444 247.683 279.71 247.63C279.977 247.57 280.294 247.54 280.66 247.54ZM279.58 250.85C279.587 251.15 279.634 251.417 279.72 251.65C279.814 251.877 279.957 252.057 280.15 252.19C280.344 252.317 280.587 252.38 280.88 252.38C281.3 252.38 281.63 252.247 281.87 251.98C282.117 251.707 282.264 251.33 282.31 250.85H279.58Z" fill="black"/>
<path d="M36.03 68H32.97V61.01H35.69C36.1633 61.01 36.57 61.0667 36.91 61.18C37.2567 61.2933 37.5133 61.4467 37.68 61.64C38 62 38.16 62.4067 38.16 62.86C38.16 63.4067 37.9867 63.8133 37.64 64.08C37.5133 64.1733 37.4267 64.2333 37.38 64.26C37.3333 64.28 37.25 64.3167 37.13 64.37C37.5633 64.4633 37.9067 64.66 38.16 64.96C38.42 65.2533 38.55 65.62 38.55 66.06C38.55 66.5467 38.3833 66.9767 38.05 67.35C37.6567 67.7833 36.9833 68 36.03 68ZM34.15 63.91H35.65C36.5033 63.91 36.93 63.62 36.93 63.04C36.93 62.7067 36.8267 62.4667 36.62 62.32C36.4133 62.1733 36.0933 62.1 35.66 62.1H34.15V63.91ZM34.15 66.91H36C36.4333 66.91 36.7633 66.8433 36.99 66.71C37.2233 66.57 37.34 66.31 37.34 65.93C37.34 65.31 36.8433 65 35.85 65H34.15V66.91ZM41.5705 62.54C42.0839 62.54 42.5339 62.6433 42.9205 62.85C43.3072 63.0567 43.6072 63.3633 43.8205 63.77C44.0405 64.1767 44.1505 64.68 44.1505 65.28C44.1505 65.8667 44.0505 66.37 43.8505 66.79C43.6572 67.21 43.3805 67.5333 43.0205 67.76C42.6672 67.9867 42.2539 68.1 41.7805 68.1C41.3272 68.1 40.9339 68 40.6005 67.8C40.2672 67.6 40.0105 67.32 39.8305 66.96C39.6572 66.5933 39.5705 66.1667 39.5705 65.68V65.15H43.2405C43.2272 64.5433 43.0705 64.0833 42.7705 63.77C42.4772 63.45 42.0639 63.29 41.5305 63.29C41.1905 63.29 40.8872 63.3233 40.6205 63.39C40.3605 63.45 40.0905 63.54 39.8105 63.66V62.89C40.0839 62.77 40.3539 62.6833 40.6205 62.63C40.8872 62.57 41.2039 62.54 41.5705 62.54ZM40.4905 65.85C40.4972 66.15 40.5439 66.4167 40.6305 66.65C40.7239 66.8767 40.8672 67.0567 41.0605 67.19C41.2539 67.3167 41.4972 67.38 41.7905 67.38C42.2105 67.38 42.5405 67.2467 42.7805 66.98C43.0272 66.7067 43.1739 66.33 43.2205 65.85H40.4905ZM46.6351 68H45.5151V60.58H46.6351V68ZM52.5692 68H51.5492V67.29C51.1092 67.8167 50.5192 68.08 49.7792 68.08C49.2259 68.08 48.7659 67.9233 48.3992 67.61C48.0392 67.2967 47.8592 66.88 47.8592 66.36C47.8592 65.8333 48.0526 65.44 48.4392 65.18C48.8259 64.92 49.3492 64.79 50.0092 64.79H51.4592V64.59C51.4592 63.8833 51.0659 63.53 50.2792 63.53C49.7859 63.53 49.2726 63.71 48.7392 64.07L48.2392 63.37C48.8859 62.8567 49.6192 62.6 50.4392 62.6C51.0659 62.6 51.5759 62.76 51.9692 63.08C52.3692 63.3933 52.5692 63.89 52.5692 64.57V68ZM51.4492 66.02V65.57H50.1892C49.3826 65.57 48.9792 65.8233 48.9792 66.33C48.9792 66.59 49.0792 66.79 49.2792 66.93C49.4792 67.0633 49.7559 67.13 50.1092 67.13C50.4692 67.13 50.7826 67.03 51.0492 66.83C51.3159 66.63 51.4492 66.36 51.4492 66.02ZM55.2484 68H54.1284V60.58H55.2484V64.94L57.4084 62.68H58.8484L56.8284 64.79L58.9984 68H57.6384L56.0584 65.67L55.2484 66.49V68ZM61.6389 62.54C62.1522 62.54 62.6022 62.6433 62.9889 62.85C63.3756 63.0567 63.6756 63.3633 63.8889 63.77C64.1089 64.1767 64.2189 64.68 64.2189 65.28C64.2189 65.8667 64.1189 66.37 63.9189 66.79C63.7256 67.21 63.4489 67.5333 63.0889 67.76C62.7356 67.9867 62.3222 68.1 61.8489 68.1C61.3956 68.1 61.0022 68 60.6689 67.8C60.3356 67.6 60.0789 67.32 59.8989 66.96C59.7256 66.5933 59.6389 66.1667 59.6389 65.68V65.15H63.3089C63.2956 64.5433 63.1389 64.0833 62.8389 63.77C62.5456 63.45 62.1322 63.29 61.5989 63.29C61.2589 63.29 60.9556 63.3233 60.6889 63.39C60.4289 63.45 60.1589 63.54 59.8789 63.66V62.89C60.1522 62.77 60.4222 62.6833 60.6889 62.63C60.9556 62.57 61.2722 62.54 61.6389 62.54ZM60.5589 65.85C60.5656 66.15 60.6122 66.4167 60.6989 66.65C60.7922 66.8767 60.9356 67.0567 61.1289 67.19C61.3222 67.3167 61.5656 67.38 61.8589 67.38C62.2789 67.38 62.6089 67.2467 62.8489 66.98C63.0956 66.7067 63.2422 66.33 63.2889 65.85H60.5589ZM66.7034 65.12V68H65.5834V62.68H66.7034V63.65C66.8834 63.3233 67.1301 63.0667 67.4434 62.88C67.7634 62.6933 68.1068 62.6 68.4734 62.6C69.0734 62.6 69.5568 62.7833 69.9234 63.15C70.2968 63.5167 70.4834 64.0467 70.4834 64.74V68H69.3634V65.08C69.3634 64.1 68.9568 63.61 68.1434 63.61C67.7568 63.61 67.4201 63.74 67.1334 64C66.8468 64.2533 66.7034 64.6267 66.7034 65.12Z" fill="black"/>
<path d="M88.54 99.09H84.6V98.01H90.18V98.93L86.12 103.88V103.91H90.24V105H84.47V104.09L88.54 99.12V99.09ZM95.868 105H94.848V104.29C94.408 104.817 93.818 105.08 93.078 105.08C92.5247 105.08 92.0647 104.923 91.698 104.61C91.338 104.297 91.158 103.88 91.158 103.36C91.158 102.833 91.3514 102.44 91.738 102.18C92.1247 101.92 92.648 101.79 93.308 101.79H94.758V101.59C94.758 100.883 94.3647 100.53 93.578 100.53C93.0847 100.53 92.5714 100.71 92.038 101.07L91.538 100.37C92.1847 99.8567 92.918 99.6 93.738 99.6C94.3647 99.6 94.8747 99.76 95.268 100.08C95.668 100.393 95.868 100.89 95.868 101.57V105ZM94.748 103.02V102.57H93.488C92.6814 102.57 92.278 102.823 92.278 103.33C92.278 103.59 92.378 103.79 92.578 103.93C92.778 104.063 93.0547 104.13 93.408 104.13C93.768 104.13 94.0814 104.03 94.348 103.83C94.6147 103.63 94.748 103.36 94.748 103.02ZM99.5972 105.08C98.9305 105.08 98.3439 104.823 97.8372 104.31C97.3372 103.797 97.0872 103.13 97.0872 102.31C97.0872 101.49 97.3405 100.833 97.8472 100.34C98.3539 99.8467 98.9639 99.6 99.6772 99.6C100.391 99.6 100.967 99.9367 101.407 100.61V99.68H102.527V106.94H101.407V104.2C100.874 104.787 100.271 105.08 99.5972 105.08ZM98.2072 102.36C98.2072 102.867 98.3705 103.28 98.6972 103.6C99.0239 103.92 99.4072 104.08 99.8472 104.08C100.287 104.08 100.661 103.92 100.967 103.6C101.274 103.273 101.427 102.857 101.427 102.35C101.427 101.843 101.274 101.423 100.967 101.09C100.661 100.75 100.284 100.58 99.8372 100.58C99.3905 100.58 99.0072 100.75 98.6872 101.09C98.3672 101.423 98.2072 101.847 98.2072 102.36ZM108.456 105H107.436V104.29C106.996 104.817 106.406 105.08 105.666 105.08C105.113 105.08 104.653 104.923 104.286 104.61C103.926 104.297 103.746 103.88 103.746 103.36C103.746 102.833 103.939 102.44 104.326 102.18C104.713 101.92 105.236 101.79 105.896 101.79H107.346V101.59C107.346 100.883 106.953 100.53 106.166 100.53C105.673 100.53 105.159 100.71 104.626 101.07L104.126 100.37C104.773 99.8567 105.506 99.6 106.326 99.6C106.953 99.6 107.463 99.76 107.856 100.08C108.256 100.393 108.456 100.89 108.456 101.57V105ZM107.336 103.02V102.57H106.076C105.269 102.57 104.866 102.823 104.866 103.33C104.866 103.59 104.966 103.79 105.166 103.93C105.366 104.063 105.643 104.13 105.996 104.13C106.356 104.13 106.669 104.03 106.936 103.83C107.203 103.63 107.336 103.36 107.336 103.02ZM111.336 100.58V103.28C111.336 103.533 111.403 103.737 111.536 103.89C111.67 104.037 111.856 104.11 112.096 104.11C112.336 104.11 112.566 103.993 112.786 103.76L113.246 104.55C112.853 104.903 112.416 105.08 111.936 105.08C111.463 105.08 111.056 104.917 110.716 104.59C110.383 104.257 110.216 103.81 110.216 103.25V100.58H109.546V99.68H110.216V98.01H111.336V99.68H112.736V100.58H111.336ZM118.446 105H117.426V104.29C116.986 104.817 116.396 105.08 115.656 105.08C115.103 105.08 114.643 104.923 114.276 104.61C113.916 104.297 113.736 103.88 113.736 103.36C113.736 102.833 113.93 102.44 114.316 102.18C114.703 101.92 115.226 101.79 115.886 101.79H117.336V101.59C117.336 100.883 116.943 100.53 116.156 100.53C115.663 100.53 115.15 100.71 114.616 101.07L114.116 100.37C114.763 99.8567 115.496 99.6 116.316 99.6C116.943 99.6 117.453 99.76 117.846 100.08C118.246 100.393 118.446 100.89 118.446 101.57V105ZM117.326 103.02V102.57H116.066C115.26 102.57 114.856 102.823 114.856 103.33C114.856 103.59 114.956 103.79 115.156 103.93C115.356 104.063 115.633 104.13 115.986 104.13C116.346 104.13 116.66 104.03 116.926 103.83C117.193 103.63 117.326 103.36 117.326 103.02ZM121.125 105H120.005V97.58H121.125V105ZM127.059 105H126.039V104.29C125.599 104.817 125.009 105.08 124.269 105.08C123.716 105.08 123.256 104.923 122.889 104.61C122.529 104.297 122.349 103.88 122.349 103.36C122.349 102.833 122.543 102.44 122.929 102.18C123.316 101.92 123.839 101.79 124.499 101.79H125.949V101.59C125.949 100.883 125.556 100.53 124.769 100.53C124.276 100.53 123.763 100.71 123.229 101.07L122.729 100.37C123.376 99.8567 124.109 99.6 124.929 99.6C125.556 99.6 126.066 99.76 126.459 100.08C126.859 100.393 127.059 100.89 127.059 101.57V105ZM125.939 103.02V102.57H124.679C123.873 102.57 123.469 102.823 123.469 103.33C123.469 103.59 123.569 103.79 123.769 103.93C123.969 104.063 124.246 104.13 124.599 104.13C124.959 104.13 125.273 104.03 125.539 103.83C125.806 103.63 125.939 103.36 125.939 103.02Z" fill="black"/>
</svg>
