<svg width="70" height="71" viewBox="0 0 70 71" fill="none" xmlns="http://www.w3.org/2000/svg">
<circle cx="35" cy="35.5293" r="34.5" fill="#323232" fill-opacity="0.5" stroke="#ECE7E2"/>
<path d="M35.5981 20.542C36.0595 20.0811 36.685 19.8223 37.3371 19.8223C37.9893 19.8223 38.6148 20.0811 39.0762 20.542L53.0215 34.4873C53.4824 34.9487 53.7412 35.5742 53.7412 36.2263C53.7412 36.8785 53.4824 37.504 53.0215 37.9654L39.0762 51.9107C38.6094 52.3452 37.9923 52.5818 37.3547 52.5708C36.7171 52.5597 36.1086 52.302 35.6571 51.8517C35.2068 51.4002 34.949 50.7916 34.938 50.154C34.927 49.5164 35.1636 48.8994 35.5981 48.4326L45.3434 38.6873L20.9309 38.6873C20.2782 38.6873 19.6522 38.428 19.1907 37.9665C18.7292 37.505 18.4699 36.879 18.4699 36.2263C18.4699 35.5737 18.7292 34.9477 19.1907 34.4862C19.6522 34.0247 20.2782 33.7654 20.9309 33.7654L45.3434 33.7654L35.5981 24.0201C35.1372 23.5587 34.8784 22.9332 34.8784 22.281C34.8784 21.6289 35.1372 21.0034 35.5981 20.542Z" fill="#ECE7E2"/>
</svg>
