<svg width="332" height="308" viewBox="0 0 332 308" fill="none" xmlns="http://www.w3.org/2000/svg">
<path d="M108.404 23.4213L108.693 23.8637L110.274 27.6434L114.012 30.9006L122.06 35.9159L126 34.8686L129.336 37.8198L132.499 41.7783L136.037 43.7482L137.977 46.0216L137.185 51.1357L134.108 59.8436L133.06 64.3669L132.799 66.8169L133.015 69.4104L133.748 70.8908L136.121 73.8632L136.64 75.0587L136.755 75.2564L137.991 77.3275L141.125 80.3164L144.576 82.9358L146.949 84.0466L154.627 84.5126L158.076 85.4423L160.881 87.0732L167.177 92.698L168.166 93.1852L170.656 94.4043L179.511 95.5998L187.074 97.9886L191.244 98.3581L194.479 97.6944L204.296 93.5805L208.525 92.8416L228.638 93.5805L230.12 95.0585L230.896 96.6895L231.471 98.3769L232.261 99.9514L235.411 103.846L238.775 106.906L242.356 108.913L258.329 112.361L261.421 114.105L263.361 117.591L265.518 122.966L268.191 127.962L271.685 130.139L275.524 131.54L278.801 135.086L281.39 139.749L283.142 144.559L284.956 163.726L286.178 165.632L287.644 169.974L288.548 174.766L287.975 177.983L284.58 171.36L280.915 165.634L276.531 160.487L267.804 153.349L264.078 151.259L260.081 149.767L252.188 148.671L245.546 146.479L242.008 146.006L240.025 146.232L237.624 147.291L235.984 147.736H229.199L226.094 149.068L220.112 154.076H216.574L215.31 152.952L213.038 149.297L211.643 147.739L209.789 146.99L205.246 146.197L200.615 143.665L197.108 145.63L191.241 150.913L192.451 156.411L187.475 161.537L180.286 165.305L168.556 167.967L158.261 173.977L144.748 179.004L141.583 181.334L134.798 188.856L131.749 191.005L129.794 193.539L129.421 198.543L130.384 204.834L130.511 207.3L120.98 211.028L119.211 214.603L119.643 219.27L122.058 223.953L123.639 225.683L126.155 227.658L127.537 229.397L128.27 231.774L127.278 233.24L125.509 234.386L122.403 237.281L121.024 237.966L119.702 238.933L118.435 241.291L117.63 244.052L117.531 246.13L118.435 250.759L120.463 255.704L121.067 258.389L120.249 261.063L118.694 262.779L117.345 263.903L116.366 265.217L116.023 267.422L116.337 268.705L116.927 269.924L117.402 271.303L117.23 272.934L116.483 273.946L113.608 276.073L112.529 279.335L112.602 280.778L113.608 282.371L112.802 285.388L113.81 288.535L117.834 294.153L117.618 296.118L115.189 298.001L110.617 300.582L106.16 306L104.405 299.055L103.656 291.314L103.282 281.383L105.819 272.503L105.646 266.532L104.88 260.743L102.467 257.083L99.8193 253.614L97.5122 246.307L94.3524 240.009L91.1221 235.349L87.5792 231.131L86.0827 227.293L85.7162 222.76L81.9009 216.17L78.3698 209.305L76.9438 201.558L72.6539 195.733L64.5558 194.406L56.1569 194.526L49.6939 193.956L43.5574 192.167L38.4194 185.373L33.4153 177.835L28.3384 172.104L22.8151 166.915L18.0037 161.652L16.3897 153.083L22.4768 155.554L28.1458 159.452L31.5265 161.664L34.6652 158.08L38.5557 154.133L42.3874 150.12L47.3727 144.943L53.4364 142.945L56.958 139.283L59.6527 134.154L64.7014 131.187L70.2787 130.142L75.647 127.751L80.6769 123.677L85.5635 118.725L89.2684 111.912L77.7472 105.769L68.263 95.8752L60.6676 87.9675L51.1551 84.6609L43.4211 78.8525L36.5282 71.3097L32.7481 66.3721L28.5593 62.4136L19.1009 55.2519L8.87651 52.1924L2 42.1667L4.24602 30.3617L9.51553 25.2899L15.3301 21.5997L21.274 21.249L27.0369 19.0838L33.3989 17.0857L39.1407 13.6567L40.3271 10.2301L41.1587 6.4457L43.9333 3.30853L47.7768 2L51.6931 5.37487L52.9265 14.0498L57.3269 17.1469L62.3122 19.0603L69.3578 23.586L76.8169 26.2713L85.4718 27.0503L93.7697 24.7816L100.571 23.5601L107.647 23.7437L108.404 23.4213ZM328.792 159.692L325.47 158.833L323.255 159.551L320.64 157.36L318.913 153.921L319.318 150.909L321.618 152.721L323.314 152.182L324.867 150.993L326.678 150.909L329.211 153.639L330 157.284L328.792 159.692ZM288.076 136.079L285.445 136.684L281.937 136.496L282.814 130.841L277.048 122.968L277.121 117.431L279.278 118.596L281.937 117.715L283.145 119.163L283.547 124.018L285.273 126.571L287.472 128.57L289.284 131.728L289.458 134.491L288.076 136.079Z" fill="#ECE7E2" stroke="#FFAC1C" stroke-width="3" stroke-linejoin="round"/>
<path d="M230.684 131V122.6H235.172C236.332 122.6 237.188 122.808 237.74 123.224C238.292 123.632 238.568 124.156 238.568 124.796C238.568 125.22 238.448 125.6 238.208 125.936C237.976 126.264 237.636 126.524 237.188 126.716C236.74 126.908 236.188 127.004 235.532 127.004L235.772 126.356C236.428 126.356 236.992 126.448 237.464 126.632C237.944 126.816 238.312 127.084 238.568 127.436C238.832 127.78 238.964 128.196 238.964 128.684C238.964 129.412 238.66 129.98 238.052 130.388C237.452 130.796 236.572 131 235.412 131H230.684ZM233.468 129.02H235.172C235.484 129.02 235.716 128.964 235.868 128.852C236.028 128.74 236.108 128.576 236.108 128.36C236.108 128.144 236.028 127.98 235.868 127.868C235.716 127.756 235.484 127.7 235.172 127.7H233.276V125.828H234.788C235.108 125.828 235.34 125.776 235.484 125.672C235.636 125.56 235.712 125.404 235.712 125.204C235.712 124.996 235.636 124.84 235.484 124.736C235.34 124.632 235.108 124.58 234.788 124.58H233.468V129.02ZM243.853 131V129.836L243.661 129.524V127.316C243.661 126.996 243.561 126.752 243.361 126.584C243.169 126.416 242.853 126.332 242.413 126.332C242.117 126.332 241.817 126.38 241.513 126.476C241.209 126.564 240.949 126.688 240.733 126.848L239.869 125.06C240.253 124.82 240.713 124.636 241.249 124.508C241.785 124.38 242.309 124.316 242.821 124.316C243.949 124.316 244.821 124.568 245.437 125.072C246.061 125.576 246.373 126.376 246.373 127.472V131H243.853ZM241.993 131.12C241.457 131.12 241.009 131.028 240.649 130.844C240.289 130.66 240.017 130.416 239.833 130.112C239.649 129.8 239.557 129.456 239.557 129.08C239.557 128.656 239.665 128.296 239.881 128C240.097 127.704 240.425 127.48 240.865 127.328C241.313 127.176 241.877 127.1 242.557 127.1H243.925V128.408H242.989C242.701 128.408 242.489 128.456 242.353 128.552C242.225 128.64 242.161 128.776 242.161 128.96C242.161 129.112 242.217 129.24 242.329 129.344C242.449 129.44 242.609 129.488 242.809 129.488C242.993 129.488 243.161 129.44 243.313 129.344C243.473 129.24 243.589 129.08 243.661 128.864L244.009 129.668C243.905 130.156 243.685 130.52 243.349 130.76C243.013 131 242.561 131.12 241.993 131.12ZM249.813 129.92L249.873 126.728L252.141 124.436H255.345L252.345 127.58L250.989 128.672L249.813 129.92ZM247.545 131V122.096H250.257V131H247.545ZM252.285 131L250.485 128.72L252.153 126.668L255.561 131H252.285ZM256.1 131V124.436H258.812V131H256.1Z" fill="black"/>
<path d="M183.17 112L186.04 108.12V108.69L183.34 105H184.19L186.46 108.08L186.13 108.09L188.4 105H189.2L186.53 108.64V108.12L189.39 112H188.53L186.11 108.71H186.42L184.02 112H183.17ZM190.455 112V106.75H191.165V112H190.455ZM193.14 112V106.75H193.82V108.18L193.75 107.93C193.897 107.53 194.144 107.227 194.49 107.02C194.837 106.807 195.267 106.7 195.78 106.7V107.39C195.754 107.39 195.727 107.39 195.7 107.39C195.674 107.383 195.647 107.38 195.62 107.38C195.067 107.38 194.634 107.55 194.32 107.89C194.007 108.223 193.85 108.7 193.85 109.32V112H193.14ZM199.117 112.05C198.617 112.05 198.167 111.937 197.767 111.71C197.374 111.483 197.064 111.17 196.837 110.77C196.61 110.363 196.497 109.897 196.497 109.37C196.497 108.837 196.61 108.37 196.837 107.97C197.064 107.57 197.374 107.26 197.767 107.04C198.167 106.813 198.617 106.7 199.117 106.7C199.577 106.7 199.987 106.803 200.347 107.01C200.714 107.217 201.004 107.52 201.217 107.92C201.437 108.313 201.547 108.797 201.547 109.37C201.547 109.937 201.44 110.42 201.227 110.82C201.014 111.22 200.724 111.527 200.357 111.74C199.997 111.947 199.584 112.05 199.117 112.05ZM199.167 111.42C199.54 111.42 199.874 111.337 200.167 111.17C200.467 110.997 200.7 110.757 200.867 110.45C201.04 110.137 201.127 109.777 201.127 109.37C201.127 108.957 201.04 108.597 200.867 108.29C200.7 107.983 200.467 107.747 200.167 107.58C199.874 107.407 199.54 107.32 199.167 107.32C198.8 107.32 198.47 107.407 198.177 107.58C197.884 107.747 197.65 107.983 197.477 108.29C197.304 108.597 197.217 108.957 197.217 109.37C197.217 109.777 197.304 110.137 197.477 110.45C197.65 110.757 197.884 110.997 198.177 111.17C198.47 111.337 198.8 111.42 199.167 111.42ZM201.147 112V110.42L201.217 109.36L201.117 108.3V104.58H201.827V112H201.147ZM207.094 112V110.84L207.064 110.65V108.71C207.064 108.263 206.938 107.92 206.684 107.68C206.438 107.44 206.068 107.32 205.574 107.32C205.234 107.32 204.911 107.377 204.604 107.49C204.298 107.603 204.038 107.753 203.824 107.94L203.504 107.41C203.771 107.183 204.091 107.01 204.464 106.89C204.838 106.763 205.231 106.7 205.644 106.7C206.324 106.7 206.848 106.87 207.214 107.21C207.588 107.543 207.774 108.053 207.774 108.74V112H207.094ZM205.284 112.05C204.891 112.05 204.548 111.987 204.254 111.86C203.968 111.727 203.748 111.547 203.594 111.32C203.441 111.087 203.364 110.82 203.364 110.52C203.364 110.247 203.428 110 203.554 109.78C203.688 109.553 203.901 109.373 204.194 109.24C204.494 109.1 204.894 109.03 205.394 109.03H207.204V109.56H205.414C204.908 109.56 204.554 109.65 204.354 109.83C204.161 110.01 204.064 110.233 204.064 110.5C204.064 110.8 204.181 111.04 204.414 111.22C204.648 111.4 204.974 111.49 205.394 111.49C205.794 111.49 206.138 111.4 206.424 111.22C206.718 111.033 206.931 110.767 207.064 110.42L207.224 110.91C207.091 111.257 206.858 111.533 206.524 111.74C206.198 111.947 205.784 112.05 205.284 112.05ZM209.703 112V104.58H210.413V112H209.703ZM215.678 112V110.84L215.648 110.65V108.71C215.648 108.263 215.522 107.92 215.268 107.68C215.022 107.44 214.652 107.32 214.158 107.32C213.818 107.32 213.495 107.377 213.188 107.49C212.882 107.603 212.622 107.753 212.408 107.94L212.088 107.41C212.355 107.183 212.675 107.01 213.048 106.89C213.422 106.763 213.815 106.7 214.228 106.7C214.908 106.7 215.432 106.87 215.798 107.21C216.172 107.543 216.358 108.053 216.358 108.74V112H215.678ZM213.868 112.05C213.475 112.05 213.132 111.987 212.838 111.86C212.552 111.727 212.332 111.547 212.178 111.32C212.025 111.087 211.948 110.82 211.948 110.52C211.948 110.247 212.012 110 212.138 109.78C212.272 109.553 212.485 109.373 212.778 109.24C213.078 109.1 213.478 109.03 213.978 109.03H215.788V109.56H213.998C213.492 109.56 213.138 109.65 212.938 109.83C212.745 110.01 212.648 110.233 212.648 110.5C212.648 110.8 212.765 111.04 212.998 111.22C213.232 111.4 213.558 111.49 213.978 111.49C214.378 111.49 214.722 111.4 215.008 111.22C215.302 111.033 215.515 110.767 215.648 110.42L215.808 110.91C215.675 111.257 215.442 111.533 215.108 111.74C214.782 111.947 214.368 112.05 213.868 112.05ZM220.967 106.7C221.394 106.7 221.767 106.783 222.087 106.95C222.414 107.11 222.667 107.357 222.847 107.69C223.034 108.023 223.127 108.443 223.127 108.95V112H222.417V109.02C222.417 108.467 222.277 108.05 221.997 107.77C221.724 107.483 221.337 107.34 220.837 107.34C220.464 107.34 220.137 107.417 219.857 107.57C219.584 107.717 219.37 107.933 219.217 108.22C219.07 108.5 218.997 108.84 218.997 109.24V112H218.287V106.75H218.967V108.19L218.857 107.92C219.024 107.54 219.29 107.243 219.657 107.03C220.024 106.81 220.46 106.7 220.967 106.7Z" fill="black"/>
<path d="M101.08 98.93C100.74 98.93 100.46 99 100.24 99.14C100.02 99.28 99.91 99.4933 99.91 99.78C99.91 100.06 100.02 100.277 100.24 100.43C100.46 100.577 100.927 100.737 101.64 100.91C102.36 101.083 102.9 101.327 103.26 101.64C103.627 101.953 103.81 102.417 103.81 103.03C103.81 103.637 103.58 104.13 103.12 104.51C102.66 104.89 102.057 105.08 101.31 105.08C100.217 105.08 99.2467 104.703 98.4 103.95L99.14 103.06C99.8467 103.673 100.58 103.98 101.34 103.98C101.72 103.98 102.02 103.9 102.24 103.74C102.467 103.573 102.58 103.357 102.58 103.09C102.58 102.817 102.473 102.607 102.26 102.46C102.053 102.307 101.693 102.17 101.18 102.05C100.667 101.923 100.277 101.81 100.01 101.71C99.7433 101.603 99.5067 101.467 99.3 101.3C98.8867 100.987 98.68 100.507 98.68 99.86C98.68 99.2133 98.9133 98.7167 99.38 98.37C99.8533 98.0167 100.437 97.84 101.13 97.84C101.577 97.84 102.02 97.9133 102.46 98.06C102.9 98.2067 103.28 98.4133 103.6 98.68L102.97 99.57C102.763 99.3833 102.483 99.23 102.13 99.11C101.777 98.99 101.427 98.93 101.08 98.93ZM108.77 102.56V99.68H109.89V105H108.77V104.03C108.59 104.357 108.34 104.613 108.02 104.8C107.707 104.987 107.367 105.08 107 105.08C106.4 105.08 105.914 104.897 105.54 104.53C105.174 104.163 104.99 103.633 104.99 102.94V99.68H106.11V102.6C106.11 103.58 106.517 104.07 107.33 104.07C107.717 104.07 108.054 103.943 108.34 103.69C108.627 103.43 108.77 103.053 108.77 102.56ZM112.635 102.12V105H111.515V99.68H112.635V100.65C112.795 100.323 113.035 100.067 113.355 99.88C113.682 99.6933 114.032 99.6 114.405 99.6C115.245 99.6 115.815 99.9467 116.115 100.64C116.642 99.9467 117.298 99.6 118.085 99.6C118.685 99.6 119.168 99.7833 119.535 100.15C119.908 100.517 120.095 101.047 120.095 101.74V105H118.975V102.08C118.975 101.1 118.568 100.61 117.755 100.61C117.375 100.61 117.042 100.733 116.755 100.98C116.475 101.22 116.328 101.573 116.315 102.04V105H115.195V102.08C115.195 101.573 115.105 101.203 114.925 100.97C114.745 100.73 114.462 100.61 114.075 100.61C113.688 100.61 113.352 100.74 113.065 101C112.778 101.253 112.635 101.627 112.635 102.12ZM123.822 105.08C123.155 105.08 122.568 104.823 122.062 104.31C121.562 103.797 121.312 103.13 121.312 102.31C121.312 101.49 121.565 100.833 122.072 100.34C122.578 99.8467 123.188 99.6 123.902 99.6C124.615 99.6 125.192 99.9367 125.632 100.61V99.68H126.752V106.94H125.632V104.2C125.098 104.787 124.495 105.08 123.822 105.08ZM122.432 102.36C122.432 102.867 122.595 103.28 122.922 103.6C123.248 103.92 123.632 104.08 124.072 104.08C124.512 104.08 124.885 103.92 125.192 103.6C125.498 103.273 125.652 102.857 125.652 102.35C125.652 101.843 125.498 101.423 125.192 101.09C124.885 100.75 124.508 100.58 124.062 100.58C123.615 100.58 123.232 100.75 122.912 101.09C122.592 101.423 122.432 101.847 122.432 102.36ZM132.681 105H131.661V104.29C131.221 104.817 130.631 105.08 129.891 105.08C129.337 105.08 128.877 104.923 128.511 104.61C128.151 104.297 127.971 103.88 127.971 103.36C127.971 102.833 128.164 102.44 128.551 102.18C128.937 101.92 129.461 101.79 130.121 101.79H131.571V101.59C131.571 100.883 131.177 100.53 130.391 100.53C129.897 100.53 129.384 100.71 128.851 101.07L128.351 100.37C128.997 99.8567 129.731 99.6 130.551 99.6C131.177 99.6 131.687 99.76 132.081 100.08C132.481 100.393 132.681 100.89 132.681 101.57V105ZM131.561 103.02V102.57H130.301C129.494 102.57 129.091 102.823 129.091 103.33C129.091 103.59 129.191 103.79 129.391 103.93C129.591 104.063 129.867 104.13 130.221 104.13C130.581 104.13 130.894 104.03 131.161 103.83C131.427 103.63 131.561 103.36 131.561 103.02ZM134.851 107.12C134.364 107.12 133.924 106.943 133.531 106.59L134.041 105.68C134.274 105.9 134.514 106.01 134.761 106.01C135.014 106.01 135.218 105.92 135.371 105.74C135.531 105.56 135.611 105.363 135.611 105.15C135.611 105.057 134.894 103.233 133.461 99.68H134.661L136.251 103.6L137.841 99.68H139.041L136.461 106C136.308 106.347 136.088 106.62 135.801 106.82C135.514 107.02 135.198 107.12 134.851 107.12ZM139.923 99.68H141.043V105H139.923V99.68ZM144.047 100.58V103.28C144.047 103.533 144.114 103.737 144.247 103.89C144.381 104.037 144.567 104.11 144.807 104.11C145.047 104.11 145.277 103.993 145.497 103.76L145.957 104.55C145.564 104.903 145.127 105.08 144.647 105.08C144.174 105.08 143.767 104.917 143.427 104.59C143.094 104.257 142.927 103.81 142.927 103.25V100.58H142.257V99.68H142.927V98.01H144.047V99.68H145.447V100.58H144.047Z" fill="black"/>
<path d="M50.13 44L53.04 40.03V40.8L50.29 37H51.43L53.61 39.99L53.16 40L55.33 37H56.42L53.69 40.74V40.02L56.6 44H55.45L53.13 40.81H53.57L51.28 44H50.13ZM57.5409 44V38.7H58.5009V44H57.5409ZM59.8238 44V43.38L63.2238 39.16L63.4138 39.49H59.8838V38.7H64.1838V39.33L60.7838 43.54L60.5638 43.21H64.2638V44H59.8238ZM65.5487 44V38.7H66.5087V44H65.5487Z" fill="black"/>
<path d="M54.2 165.06C53.6733 165.06 53.1833 164.973 52.73 164.8C52.2833 164.62 51.8933 164.37 51.56 164.05C51.2333 163.723 50.9767 163.347 50.79 162.92C50.61 162.487 50.52 162.013 50.52 161.5C50.52 160.987 50.61 160.517 50.79 160.09C50.9767 159.657 51.2333 159.28 51.56 158.96C51.8933 158.633 52.2833 158.383 52.73 158.21C53.1767 158.03 53.6667 157.94 54.2 157.94C54.7267 157.94 55.2133 158.03 55.66 158.21C56.1067 158.383 56.4933 158.63 56.82 158.95C57.1533 159.27 57.41 159.647 57.59 160.08C57.7767 160.513 57.87 160.987 57.87 161.5C57.87 162.013 57.7767 162.487 57.59 162.92C57.41 163.353 57.1533 163.73 56.82 164.05C56.4933 164.37 56.1067 164.62 55.66 164.8C55.2133 164.973 54.7267 165.06 54.2 165.06ZM56.49 166.39C56.2767 166.39 56.07 166.363 55.87 166.31C55.67 166.257 55.4667 166.17 55.26 166.05C55.06 165.937 54.8533 165.787 54.64 165.6C54.4267 165.413 54.1933 165.187 53.94 164.92L54.75 164.72C54.9567 164.967 55.1567 165.17 55.35 165.33C55.55 165.49 55.7433 165.607 55.93 165.68C56.1233 165.76 56.3133 165.8 56.5 165.8C57.02 165.8 57.4633 165.587 57.83 165.16L58.19 165.59C57.75 166.123 57.1833 166.39 56.49 166.39ZM54.2 164.4C54.62 164.4 55.0067 164.33 55.36 164.19C55.72 164.043 56.03 163.837 56.29 163.57C56.5567 163.303 56.7633 162.997 56.91 162.65C57.0567 162.297 57.13 161.913 57.13 161.5C57.13 161.08 57.0567 160.697 56.91 160.35C56.7633 159.997 56.5567 159.69 56.29 159.43C56.03 159.163 55.72 158.96 55.36 158.82C55.0067 158.673 54.62 158.6 54.2 158.6C53.78 158.6 53.39 158.673 53.03 158.82C52.67 158.96 52.3567 159.163 52.09 159.43C51.83 159.69 51.6233 159.997 51.47 160.35C51.3233 160.697 51.25 161.08 51.25 161.5C51.25 161.913 51.3233 162.297 51.47 162.65C51.6233 162.997 51.83 163.303 52.09 163.57C52.3567 163.837 52.67 164.043 53.03 164.19C53.39 164.33 53.78 164.4 54.2 164.4ZM62.6687 165V163.84L62.6387 163.65V161.71C62.6387 161.263 62.512 160.92 62.2587 160.68C62.012 160.44 61.642 160.32 61.1487 160.32C60.8087 160.32 60.4853 160.377 60.1787 160.49C59.872 160.603 59.612 160.753 59.3987 160.94L59.0787 160.41C59.3453 160.183 59.6653 160.01 60.0387 159.89C60.412 159.763 60.8053 159.7 61.2187 159.7C61.8987 159.7 62.422 159.87 62.7887 160.21C63.162 160.543 63.3487 161.053 63.3487 161.74V165H62.6687ZM60.8587 165.05C60.4653 165.05 60.122 164.987 59.8287 164.86C59.542 164.727 59.322 164.547 59.1687 164.32C59.0153 164.087 58.9387 163.82 58.9387 163.52C58.9387 163.247 59.002 163 59.1287 162.78C59.262 162.553 59.4753 162.373 59.7687 162.24C60.0687 162.1 60.4687 162.03 60.9687 162.03H62.7787V162.56H60.9887C60.482 162.56 60.1287 162.65 59.9287 162.83C59.7353 163.01 59.6387 163.233 59.6387 163.5C59.6387 163.8 59.7553 164.04 59.9887 164.22C60.222 164.4 60.5487 164.49 60.9687 164.49C61.3687 164.49 61.712 164.4 61.9987 164.22C62.292 164.033 62.5053 163.767 62.6387 163.42L62.7987 163.91C62.6653 164.257 62.432 164.533 62.0987 164.74C61.772 164.947 61.3587 165.05 60.8587 165.05ZM65.2771 165V159.75H65.9571V161.18L65.8871 160.93C66.0338 160.53 66.2804 160.227 66.6271 160.02C66.9738 159.807 67.4038 159.7 67.9171 159.7V160.39C67.8904 160.39 67.8638 160.39 67.8371 160.39C67.8104 160.383 67.7838 160.38 67.7571 160.38C67.2038 160.38 66.7704 160.55 66.4571 160.89C66.1438 161.223 65.9871 161.7 65.9871 162.32V165H65.2771ZM72.112 165V163.84L72.082 163.65V161.71C72.082 161.263 71.9554 160.92 71.702 160.68C71.4554 160.44 71.0854 160.32 70.592 160.32C70.252 160.32 69.9287 160.377 69.622 160.49C69.3154 160.603 69.0554 160.753 68.842 160.94L68.522 160.41C68.7887 160.183 69.1087 160.01 69.482 159.89C69.8554 159.763 70.2487 159.7 70.662 159.7C71.342 159.7 71.8654 159.87 72.232 160.21C72.6054 160.543 72.792 161.053 72.792 161.74V165H72.112ZM70.302 165.05C69.9087 165.05 69.5654 164.987 69.272 164.86C68.9854 164.727 68.7654 164.547 68.612 164.32C68.4587 164.087 68.382 163.82 68.382 163.52C68.382 163.247 68.4454 163 68.572 162.78C68.7054 162.553 68.9187 162.373 69.212 162.24C69.512 162.1 69.912 162.03 70.412 162.03H72.222V162.56H70.432C69.9254 162.56 69.572 162.65 69.372 162.83C69.1787 163.01 69.082 163.233 69.082 163.5C69.082 163.8 69.1987 164.04 69.432 164.22C69.6654 164.4 69.992 164.49 70.412 164.49C70.812 164.49 71.1554 164.4 71.442 164.22C71.7354 164.033 71.9487 163.767 72.082 163.42L72.242 163.91C72.1087 164.257 71.8754 164.533 71.542 164.74C71.2154 164.947 70.802 165.05 70.302 165.05ZM76.8105 165.05C76.3105 165.05 75.8605 164.937 75.4605 164.71C75.0671 164.483 74.7571 164.17 74.5305 163.77C74.3038 163.363 74.1905 162.897 74.1905 162.37C74.1905 161.837 74.3038 161.37 74.5305 160.97C74.7571 160.57 75.0671 160.26 75.4605 160.04C75.8605 159.813 76.3105 159.7 76.8105 159.7C77.2705 159.7 77.6805 159.803 78.0405 160.01C78.4071 160.217 78.6971 160.52 78.9105 160.92C79.1305 161.313 79.2405 161.797 79.2405 162.37C79.2405 162.937 79.1338 163.42 78.9205 163.82C78.7071 164.22 78.4171 164.527 78.0505 164.74C77.6905 164.947 77.2771 165.05 76.8105 165.05ZM76.8605 164.42C77.2338 164.42 77.5671 164.337 77.8605 164.17C78.1605 163.997 78.3938 163.757 78.5605 163.45C78.7338 163.137 78.8205 162.777 78.8205 162.37C78.8205 161.957 78.7338 161.597 78.5605 161.29C78.3938 160.983 78.1605 160.747 77.8605 160.58C77.5671 160.407 77.2338 160.32 76.8605 160.32C76.4938 160.32 76.1638 160.407 75.8705 160.58C75.5771 160.747 75.3438 160.983 75.1705 161.29C74.9971 161.597 74.9105 161.957 74.9105 162.37C74.9105 162.777 74.9971 163.137 75.1705 163.45C75.3438 163.757 75.5771 163.997 75.8705 164.17C76.1638 164.337 76.4938 164.42 76.8605 164.42ZM78.8405 165V163.42L78.9105 162.36L78.8105 161.3V157.58H79.5205V165H78.8405ZM84.7878 165V163.84L84.7578 163.65V161.71C84.7578 161.263 84.6311 160.92 84.3778 160.68C84.1311 160.44 83.7611 160.32 83.2678 160.32C82.9278 160.32 82.6045 160.377 82.2978 160.49C81.9911 160.603 81.7311 160.753 81.5178 160.94L81.1978 160.41C81.4645 160.183 81.7845 160.01 82.1578 159.89C82.5311 159.763 82.9245 159.7 83.3378 159.7C84.0178 159.7 84.5411 159.87 84.9078 160.21C85.2811 160.543 85.4678 161.053 85.4678 161.74V165H84.7878ZM82.9778 165.05C82.5845 165.05 82.2411 164.987 81.9478 164.86C81.6611 164.727 81.4411 164.547 81.2878 164.32C81.1345 164.087 81.0578 163.82 81.0578 163.52C81.0578 163.247 81.1211 163 81.2478 162.78C81.3811 162.553 81.5945 162.373 81.8878 162.24C82.1878 162.1 82.5878 162.03 83.0878 162.03H84.8978V162.56H83.1078C82.6011 162.56 82.2478 162.65 82.0478 162.83C81.8545 163.01 81.7578 163.233 81.7578 163.5C81.7578 163.8 81.8745 164.04 82.1078 164.22C82.3411 164.4 82.6678 164.49 83.0878 164.49C83.4878 164.49 83.8311 164.4 84.1178 164.22C84.4111 164.033 84.6245 163.767 84.7578 163.42L84.9178 163.91C84.7845 164.257 84.5511 164.533 84.2178 164.74C83.8911 164.947 83.4778 165.05 82.9778 165.05ZM89.6363 166.99C89.1563 166.99 88.6963 166.92 88.2563 166.78C87.8163 166.64 87.4596 166.44 87.1863 166.18L87.5463 165.64C87.7929 165.86 88.0963 166.033 88.4563 166.16C88.8229 166.293 89.2096 166.36 89.6163 166.36C90.2829 166.36 90.7729 166.203 91.0863 165.89C91.3996 165.583 91.5563 165.103 91.5563 164.45V163.14L91.6563 162.24L91.5863 161.34V159.75H92.2663V164.36C92.2663 165.267 92.0429 165.93 91.5963 166.35C91.1563 166.777 90.5029 166.99 89.6363 166.99ZM89.5063 164.8C89.0063 164.8 88.5563 164.693 88.1563 164.48C87.7563 164.26 87.4396 163.957 87.2063 163.57C86.9796 163.183 86.8663 162.74 86.8663 162.24C86.8663 161.74 86.9796 161.3 87.2063 160.92C87.4396 160.533 87.7563 160.233 88.1563 160.02C88.5563 159.807 89.0063 159.7 89.5063 159.7C89.9729 159.7 90.3929 159.797 90.7663 159.99C91.1396 160.183 91.4363 160.47 91.6563 160.85C91.8763 161.23 91.9863 161.693 91.9863 162.24C91.9863 162.787 91.8763 163.25 91.6563 163.63C91.4363 164.01 91.1396 164.3 90.7663 164.5C90.3929 164.7 89.9729 164.8 89.5063 164.8ZM89.5763 164.17C89.9629 164.17 90.3063 164.09 90.6063 163.93C90.9063 163.763 91.1429 163.537 91.3163 163.25C91.4896 162.957 91.5763 162.62 91.5763 162.24C91.5763 161.86 91.4896 161.527 91.3163 161.24C91.1429 160.953 90.9063 160.73 90.6063 160.57C90.3063 160.403 89.9629 160.32 89.5763 160.32C89.1963 160.32 88.8529 160.403 88.5463 160.57C88.2463 160.73 88.0096 160.953 87.8363 161.24C87.6696 161.527 87.5863 161.86 87.5863 162.24C87.5863 162.62 87.6696 162.957 87.8363 163.25C88.0096 163.537 88.2463 163.763 88.5463 163.93C88.8529 164.09 89.1963 164.17 89.5763 164.17ZM89.6563 158.98C89.2363 158.98 88.8796 158.867 88.5863 158.64C88.2996 158.407 88.1496 158.09 88.1363 157.69H88.6363C88.6496 157.95 88.7529 158.157 88.9463 158.31C89.1463 158.463 89.3829 158.54 89.6563 158.54C89.9363 158.54 90.1729 158.463 90.3663 158.31C90.5663 158.157 90.6696 157.95 90.6763 157.69H91.1763C91.1629 158.09 91.0096 158.407 90.7163 158.64C90.4296 158.867 90.0763 158.98 89.6563 158.98Z" fill="black"/>
</svg>
