<svg width="181" height="177" viewBox="0 0 181 177" fill="none" xmlns="http://www.w3.org/2000/svg">
<g filter="url(#filter0_d_126_208)">
<path d="M92.1293 41.7541C92.8266 43.154 90.7357 66.9531 89.6922 72.9029C88.6488 78.8526 17.3728 92.8521 12.4034 68.703C7.43398 44.554 49.0366 5.81022 100.833 1.15568C152.629 -3.49886 230.693 97.4019 86.5585 145C84.9477 145.032 97.6775 36.196 96.6562 32.3045C95.6349 28.413 80.2932 28.8046 81.3377 35.4543C82.3821 42.1041 91.432 40.3541 92.1293 41.7541Z" fill="black"/>
<path d="M92.1293 41.7541C92.8266 43.154 90.7357 66.9531 89.6922 72.9029C88.6488 78.8526 17.3728 92.8521 12.4034 68.703C7.43398 44.554 49.0366 5.81022 100.833 1.15568C152.629 -3.49886 230.693 97.4019 86.5585 145C84.9477 145.032 97.6775 36.196 96.6562 32.3045C95.6349 28.413 80.2932 28.8046 81.3377 35.4543C82.3821 42.1041 91.432 40.3541 92.1293 41.7541Z" stroke="#FFAC1C" stroke-width="2"/>
</g>
<defs>
<filter id="filter0_d_126_208" x="0.699748" y="-9.15527e-05" width="179.6" height="176.3" filterUnits="userSpaceOnUse" color-interpolation-filters="sRGB">
<feFlood flood-opacity="0" result="BackgroundImageFix"/>
<feColorMatrix in="SourceAlpha" type="matrix" values="0 0 0 0 0 0 0 0 0 0 0 0 0 0 0 0 0 0 127 0" result="hardAlpha"/>
<feOffset dy="20"/>
<feGaussianBlur stdDeviation="5.15"/>
<feComposite in2="hardAlpha" operator="out"/>
<feColorMatrix type="matrix" values="0 0 0 0 1 0 0 0 0 0.443137 0 0 0 0 0.0627451 0 0 0 0.3 0"/>
<feBlend mode="normal" in2="BackgroundImageFix" result="effect1_dropShadow_126_208"/>
<feBlend mode="normal" in="SourceGraphic" in2="effect1_dropShadow_126_208" result="shape"/>
</filter>
</defs>
</svg>
