<svg width="34" height="34" viewBox="0 0 34 34" fill="none" xmlns="http://www.w3.org/2000/svg">
<circle cx="17" cy="17" r="15.5" fill="#323232" stroke="#ECE7E2"/>
<path d="M12.6641 11.6549C12.6811 11.3573 12.8156 11.0786 13.038 10.88C13.2604 10.6815 13.5525 10.5793 13.8501 10.596L22.8513 11.1056C23.149 11.1226 23.4277 11.2571 23.6262 11.4795C23.8248 11.7019 23.927 11.994 23.9103 12.2916L23.4007 21.2928C23.3738 21.5831 23.2354 21.8516 23.0146 22.042C22.7938 22.2324 22.5079 22.3297 22.2168 22.3136C21.9258 22.2968 21.6526 22.1678 21.4547 21.9537C21.2568 21.7396 21.1496 21.4572 21.1557 21.1657L21.5118 14.8755L13.1871 22.3081C12.9645 22.5068 12.6721 22.609 12.3742 22.5921C12.0763 22.5753 11.7973 22.4407 11.5986 22.2182C11.3999 21.9956 11.2977 21.7032 11.3146 21.4053C11.3315 21.1074 11.466 20.8284 11.6885 20.6297L20.0133 13.1971L13.723 12.841C13.4254 12.8239 13.1467 12.6895 12.9481 12.4671C12.7496 12.2447 12.6474 11.9526 12.6641 11.6549Z" fill="#ECE7E2"/>
</svg>
