<svg width="45" height="45" viewBox="0 0 45 45" fill="none" xmlns="http://www.w3.org/2000/svg">
<rect width="45" height="45" rx="6" fill="#ECE7E2"/>
<path d="M34.4997 15.5333H25.7498V13H34.4997V15.5333ZM36.6572 28.2C36.1047 29.8429 34.121 32 30.281 32C26.4385 32 23.3261 29.8099 23.3261 24.8117C23.3261 19.859 26.2323 17.313 30.1585 17.313C34.011 17.313 36.3634 19.5702 36.8772 22.9193C36.9747 23.5602 37.0134 24.4241 36.9959 25.6299H26.9623C27.1248 29.6972 31.316 29.8251 32.6972 28.2H36.6572ZM27.0498 23.1333H33.256C33.1247 21.1738 31.836 20.3226 30.1597 20.3226C28.3273 20.3226 27.3135 21.2954 27.0498 23.1333ZM15.0824 31.9848H7V13.0266H15.6912C22.5361 13.1292 22.6661 19.9223 19.0911 21.7742C23.4173 23.3702 23.5623 31.9848 15.0824 31.9848ZM10.75 20.6H15.2299C18.3649 20.6 18.8624 16.8 14.8399 16.8H10.75V20.6ZM14.9887 24.4H10.75V28.2203H14.9262C18.7449 28.2203 18.5111 24.4 14.9887 24.4Z" fill="#FFAC1C"/>
</svg>
