<svg width="478" height="429" viewBox="0 0 478 429" fill="none" xmlns="http://www.w3.org/2000/svg">
<path d="M219.103 294.372L219.023 294.351L216.973 297.431L215.125 299.142L212.948 299.691L199.483 299.43L195.277 300.569L191.854 302.959L189.1 305.781L181.502 313.567L160.206 325.602V325.496L160.196 316.228L148.963 306.791L145.093 300.569L140.823 295.587L134.941 294.017L132.05 287.213L118.31 290.54L104.719 294.196L109.65 284.494L106.96 275.597L104.69 274.149L98.2053 270.017L95.204 263.331L93.6505 259.872L95.0511 259.013L96.3669 257.916L100.154 249.834L96.1315 243.147L88.347 244.329L80.8356 247.18L80.7226 247.154L66.3024 244.049L62.3878 232.694L64.6641 231.279L66.8768 229.5L67.317 223.056L67.5924 216.706L73.0512 214.966L74.1599 214.613L79.0631 210.192L73.7762 205.634L74.4894 200.349L82.8059 194.945L90.096 187.572L77.3989 187.207L64.8571 188.247L64.0709 183.824L62.9551 179.567L62.5362 171.617L62.9834 163.638L63.3412 156.982L58.1743 155.087L53.9749 151.24L50.903 145.568L48.4055 143.732L46.4658 141.295L45.2865 135.925L44.1519 130.482L40.9976 126.967L38.3447 122.984L37.4573 119.118L36.132 115.528L40.2114 113.665L42.1228 108.719L42.8808 105.152L41.3978 103.021L35.9579 103.777L30.8804 102.164L29.8635 92.0198L30.146 82.054L25.6194 76.9828L19.5533 76.4154L12.4562 80.7874L9.27131 75.6432L14.6948 68.1236L19.1414 60.95L13.2236 56.8511L6.10764 55.7893L2 48.976L5.10251 39.9213L6.57605 30.4711L6.00876 20.576L5.43205 11.3513L7.05157 2L22.2627 6.6945L37.1913 14.8993L53.2711 23.0998L69.1413 32.0155L82.6434 37.607L96.108 43.474L103.464 44.9901L110.745 46.8194L115.163 48.7594L119.49 48.7947L120.89 47.9377L122.649 47.1043L125.784 48.0696L128.896 49.6281L135.638 51.222L142.626 49.8753L143.257 60.0789L143.707 70.306L148.005 74.9958L153.777 78.3671L160.281 74.6944L167.143 73.0723L173.435 72.8745L179.242 70.08L185.353 71.7751L191.362 73.861L195.898 75.3819L200.317 75.0193L209.236 75.9846L218.218 78.951L227.603 81.4701L235.087 87.7985L230.732 98.4894L231.419 107.867L238.674 106.103L245.79 103.346L242.25 112.95L240.696 122.92L245.517 127.44L251.755 126.268L254.775 129.157L258.626 132.846L263.557 128.761L268.771 124.361L276.638 123.753L283.608 127.151L284.084 136.377L284.284 145.072L289.545 146.958L294.549 149.484L298.445 157.319L304.502 162.376L306.787 155.299L310.457 150.096L317.592 151.831L324.581 153.87L331.845 158.164L339.446 161.787L345.529 164.791L351.336 161.858L356.486 156.005L358.819 146.981L367.446 151.746L377.17 150.75L378.787 159.322L383.61 164.587L389.142 169.775L394.229 175.511L399.243 183.051L404.391 189.846L410.539 191.638L417.015 192.205L425.43 192.085L433.544 193.413L437.845 199.24L439.272 206.992L442.81 213.86L446.635 220.452L447 224.984L448.499 228.824L452.049 233.045L455.288 237.707L458.451 244.007L460.765 251.317L463.418 254.787L465.833 258.446L466.601 264.237L466.775 270.213L464.233 279.095L464.607 289.031L465.358 296.772L467.116 303.721L463.312 308.352L459.913 314.104L460.085 318.059L458.025 321.873L456.21 326.93L454.812 332.256L454.05 336.889L454.13 340.07L454.207 343.088L455.963 347.326L472.443 362.438L474.576 365.058L476 368.022L475.84 369.028L475.049 369.84L473.94 377.47L474.185 379.761L475.668 382.388L473.493 381.242L471.864 379.808L470.64 378.085L469.647 376.138H468.552L469.216 379.528L470.713 383.273L472.888 386.551L475.668 388.505V390.209L471.678 389.249L469.171 386.466L466.923 383.198L457.849 377.162L451.957 379.434L447.39 385.357L445.575 392.618L445.705 417.632L445.086 420.634L442.311 417.385L435.03 415.544L428.133 412.062L421.949 410.233L416.46 406.543L412.966 399.151L407.788 394.654L398.932 401.543L390.948 410.609L384.006 418.16L377.841 426.275L367.112 427L357.679 422.72L359.629 407.151L353.28 392.698L351.917 383.942L353.289 375.208L357.249 368.75L361.797 362.885L357.34 362.984L353.014 361.901L350.187 360.38L347.252 360.427L345.22 363.104L343.711 366.353L340.976 368.835L340.444 372.091L340.06 382.099L334.627 387.259L328.799 383.671L326.871 375.492L322.837 368.978L316.606 368.99L311.255 375.422L305.1 380.608L301.43 381.063L298.111 382.803L296.051 385.458L293.499 387.645L287.087 384.074L286.537 373.185L284.729 370.334L286.593 369.736L282.66 361.437L277.683 354.591L265.556 343.354L235.807 307.512L224.96 297.348L221.537 294.982L219.103 294.372Z" fill="#ECE7E2" stroke="#FFAC1C" stroke-width="3" stroke-linejoin="round"/>
<path d="M42.14 61V54H42.75L45.95 59.46H45.63L48.8 54H49.41V61H48.7V55.11H48.87L45.95 60.11H45.6L42.66 55.11H42.85V61H42.14ZM51.5408 61V55.75H52.2508V61H51.5408ZM51.9008 54.59C51.7541 54.59 51.6308 54.54 51.5308 54.44C51.4308 54.34 51.3808 54.22 51.3808 54.08C51.3808 53.94 51.4308 53.8233 51.5308 53.73C51.6308 53.63 51.7541 53.58 51.9008 53.58C52.0474 53.58 52.1708 53.6267 52.2708 53.72C52.3708 53.8133 52.4208 53.93 52.4208 54.07C52.4208 54.2167 52.3708 54.34 52.2708 54.44C52.1774 54.54 52.0541 54.59 51.9008 54.59ZM56.9063 55.7C57.333 55.7 57.7063 55.7833 58.0263 55.95C58.353 56.11 58.6063 56.3567 58.7863 56.69C58.973 57.0233 59.0663 57.4433 59.0663 57.95V61H58.3563V58.02C58.3563 57.4667 58.2163 57.05 57.9363 56.77C57.663 56.4833 57.2763 56.34 56.7763 56.34C56.403 56.34 56.0763 56.4167 55.7963 56.57C55.523 56.7167 55.3097 56.9333 55.1563 57.22C55.0097 57.5 54.9363 57.84 54.9363 58.24V61H54.2263V55.75H54.9063V57.19L54.7963 56.92C54.963 56.54 55.2297 56.2433 55.5963 56.03C55.963 55.81 56.3997 55.7 56.9063 55.7ZM63.2241 62.99C62.7441 62.99 62.2841 62.92 61.8441 62.78C61.4041 62.64 61.0475 62.44 60.7741 62.18L61.1341 61.64C61.3808 61.86 61.6841 62.0333 62.0441 62.16C62.4108 62.2933 62.7975 62.36 63.2041 62.36C63.8708 62.36 64.3608 62.2033 64.6741 61.89C64.9875 61.5833 65.1441 61.1033 65.1441 60.45V59.14L65.2441 58.24L65.1741 57.34V55.75H65.8541V60.36C65.8541 61.2667 65.6308 61.93 65.1841 62.35C64.7441 62.7767 64.0908 62.99 63.2241 62.99ZM63.0941 60.8C62.5941 60.8 62.1441 60.6933 61.7441 60.48C61.3441 60.26 61.0275 59.9567 60.7941 59.57C60.5675 59.1833 60.4541 58.74 60.4541 58.24C60.4541 57.74 60.5675 57.3 60.7941 56.92C61.0275 56.5333 61.3441 56.2333 61.7441 56.02C62.1441 55.8067 62.5941 55.7 63.0941 55.7C63.5608 55.7 63.9808 55.7967 64.3541 55.99C64.7275 56.1833 65.0241 56.47 65.2441 56.85C65.4641 57.23 65.5741 57.6933 65.5741 58.24C65.5741 58.7867 65.4641 59.25 65.2441 59.63C65.0241 60.01 64.7275 60.3 64.3541 60.5C63.9808 60.7 63.5608 60.8 63.0941 60.8ZM63.1641 60.17C63.5508 60.17 63.8941 60.09 64.1941 59.93C64.4941 59.7633 64.7308 59.5367 64.9041 59.25C65.0775 58.9567 65.1641 58.62 65.1641 58.24C65.1641 57.86 65.0775 57.5267 64.9041 57.24C64.7308 56.9533 64.4941 56.73 64.1941 56.57C63.8941 56.4033 63.5508 56.32 63.1641 56.32C62.7841 56.32 62.4408 56.4033 62.1341 56.57C61.8341 56.73 61.5975 56.9533 61.4241 57.24C61.2575 57.5267 61.1741 57.86 61.1741 58.24C61.1741 58.62 61.2575 58.9567 61.4241 59.25C61.5975 59.5367 61.8341 59.7633 62.1341 59.93C62.4408 60.09 62.7841 60.17 63.1641 60.17ZM69.6598 55.7C70.2065 55.7 70.6865 55.8167 71.0998 56.05C71.5132 56.2767 71.8365 56.59 72.0698 56.99C72.3032 57.39 72.4198 57.85 72.4198 58.37C72.4198 58.89 72.3065 59.3533 72.0798 59.76C71.8598 60.16 71.5565 60.4767 71.1698 60.71C70.7832 60.9367 70.3432 61.05 69.8498 61.05C69.3565 61.05 68.9165 60.9367 68.5298 60.71C68.1498 60.4833 67.8498 60.17 67.6298 59.77C67.4098 59.3633 67.2998 58.8967 67.2998 58.37C67.2998 58.3433 67.2998 58.31 67.2998 58.27C67.3065 58.23 67.3098 58.1933 67.3098 58.16H71.8798V58.69H67.6898L67.9698 58.48C67.9698 58.8533 68.0498 59.19 68.2098 59.49C68.3765 59.7833 68.5998 60.0167 68.8798 60.19C69.1598 60.3567 69.4832 60.44 69.8498 60.44C70.2165 60.44 70.5398 60.3567 70.8198 60.19C71.1065 60.0167 71.3298 59.78 71.4898 59.48C71.6498 59.18 71.7298 58.84 71.7298 58.46V58.34C71.7298 57.94 71.6398 57.59 71.4598 57.29C71.2865 56.99 71.0432 56.7533 70.7298 56.58C70.4165 56.4067 70.0532 56.32 69.6398 56.32C69.3132 56.32 69.0132 56.3767 68.7398 56.49C68.4665 56.6033 68.2298 56.78 68.0298 57.02L67.6298 56.55C67.8698 56.27 68.1632 56.06 68.5098 55.92C68.8632 55.7733 69.2465 55.7 69.6598 55.7ZM76.045 61.05C75.525 61.05 75.0583 60.9367 74.645 60.71C74.2383 60.4767 73.9183 60.16 73.685 59.76C73.4517 59.3533 73.335 58.89 73.335 58.37C73.335 57.8433 73.4517 57.38 73.685 56.98C73.9183 56.58 74.2383 56.2667 74.645 56.04C75.0583 55.8133 75.525 55.7 76.045 55.7C76.4917 55.7 76.895 55.7867 77.255 55.96C77.615 56.1333 77.8983 56.3933 78.105 56.74L77.575 57.1C77.395 56.8333 77.1717 56.6367 76.905 56.51C76.6383 56.3833 76.3483 56.32 76.035 56.32C75.6617 56.32 75.325 56.4067 75.025 56.58C74.725 56.7467 74.4883 56.9833 74.315 57.29C74.1417 57.5967 74.055 57.9567 74.055 58.37C74.055 58.7833 74.1417 59.1433 74.315 59.45C74.4883 59.7567 74.725 59.9967 75.025 60.17C75.325 60.3367 75.6617 60.42 76.035 60.42C76.3483 60.42 76.6383 60.3567 76.905 60.23C77.1717 60.1033 77.395 59.91 77.575 59.65L78.105 60.01C77.8983 60.35 77.615 60.61 77.255 60.79C76.895 60.9633 76.4917 61.05 76.045 61.05ZM75.625 63.2C75.4583 63.2 75.305 63.18 75.165 63.14C75.0317 63.1 74.905 63.0433 74.785 62.97L74.955 62.59C75.055 62.65 75.1583 62.6967 75.265 62.73C75.3783 62.7633 75.495 62.78 75.615 62.78C75.815 62.78 75.9683 62.7367 76.075 62.65C76.1817 62.57 76.235 62.4567 76.235 62.31C76.235 62.1767 76.1817 62.0667 76.075 61.98C75.975 61.8933 75.8217 61.85 75.615 61.85H75.385L75.625 60.94H76.055L75.905 61.52C76.1783 61.54 76.3883 61.6233 76.535 61.77C76.6817 61.9233 76.755 62.11 76.755 62.33C76.755 62.5967 76.6483 62.8067 76.435 62.96C76.2283 63.12 75.9583 63.2 75.625 63.2ZM81.6419 61.05C81.0952 61.05 80.6152 60.9367 80.2019 60.71C79.7885 60.4767 79.4652 60.16 79.2319 59.76C78.9985 59.3533 78.8819 58.89 78.8819 58.37C78.8819 57.85 78.9919 57.39 79.2119 56.99C79.4385 56.59 79.7452 56.2767 80.1319 56.05C80.5252 55.8167 80.9652 55.7 81.4519 55.7C81.9452 55.7 82.3819 55.8133 82.7619 56.04C83.1485 56.26 83.4519 56.5733 83.6719 56.98C83.8919 57.38 84.0019 57.8433 84.0019 58.37C84.0019 58.4033 83.9985 58.44 83.9919 58.48C83.9919 58.5133 83.9919 58.55 83.9919 58.59H79.4219V58.06H83.6119L83.3319 58.27C83.3319 57.89 83.2485 57.5533 83.0819 57.26C82.9219 56.96 82.7019 56.7267 82.4219 56.56C82.1419 56.3933 81.8185 56.31 81.4519 56.31C81.0919 56.31 80.7685 56.3933 80.4819 56.56C80.1952 56.7267 79.9719 56.96 79.8119 57.26C79.6519 57.56 79.5719 57.9033 79.5719 58.29V58.4C79.5719 58.8 79.6585 59.1533 79.8319 59.46C80.0119 59.76 80.2585 59.9967 80.5719 60.17C80.8919 60.3367 81.2552 60.42 81.6619 60.42C81.9819 60.42 82.2785 60.3633 82.5519 60.25C82.8319 60.1367 83.0719 59.9633 83.2719 59.73L83.6719 60.19C83.4385 60.47 83.1452 60.6833 82.7919 60.83C82.4452 60.9767 82.0619 61.05 81.6419 61.05ZM86.6994 61L84.3694 55.75H85.1094L87.2494 60.62H86.8994L89.0694 55.75H89.7694L87.4294 61H86.6994ZM90.7693 61V55.75H91.4793V61H90.7693ZM91.1293 54.59C90.9826 54.59 90.8593 54.54 90.7593 54.44C90.6593 54.34 90.6093 54.22 90.6093 54.08C90.6093 53.94 90.6593 53.8233 90.7593 53.73C90.8593 53.63 90.9826 53.58 91.1293 53.58C91.276 53.58 91.3993 53.6267 91.4993 53.72C91.5993 53.8133 91.6493 53.93 91.6493 54.07C91.6493 54.2167 91.5993 54.34 91.4993 54.44C91.406 54.54 91.2826 54.59 91.1293 54.59ZM93.4548 61V55.75H94.1348V57.18L94.0648 56.93C94.2115 56.53 94.4582 56.2267 94.8048 56.02C95.1515 55.8067 95.5815 55.7 96.0948 55.7V56.39C96.0682 56.39 96.0415 56.39 96.0148 56.39C95.9882 56.3833 95.9615 56.38 95.9348 56.38C95.3815 56.38 94.9482 56.55 94.6348 56.89C94.3215 57.2233 94.1648 57.7 94.1648 58.32V61H93.4548Z" fill="black"/>
<path d="M71.81 94V91.4L71.98 91.86L69.01 87H69.8L72.41 91.27H71.99L74.6 87H75.34L72.37 91.86L72.54 91.4V94H71.81ZM77.972 94.05C77.4253 94.05 76.9453 93.9367 76.532 93.71C76.1186 93.4767 75.7953 93.16 75.562 92.76C75.3286 92.3533 75.212 91.89 75.212 91.37C75.212 90.85 75.322 90.39 75.542 89.99C75.7686 89.59 76.0753 89.2767 76.462 89.05C76.8553 88.8167 77.2953 88.7 77.782 88.7C78.2753 88.7 78.712 88.8133 79.092 89.04C79.4786 89.26 79.782 89.5733 80.002 89.98C80.222 90.38 80.332 90.8433 80.332 91.37C80.332 91.4033 80.3286 91.44 80.322 91.48C80.322 91.5133 80.322 91.55 80.322 91.59H75.752V91.06H79.942L79.662 91.27C79.662 90.89 79.5786 90.5533 79.412 90.26C79.252 89.96 79.032 89.7267 78.752 89.56C78.472 89.3933 78.1486 89.31 77.782 89.31C77.422 89.31 77.0986 89.3933 76.812 89.56C76.5253 89.7267 76.302 89.96 76.142 90.26C75.982 90.56 75.902 90.9033 75.902 91.29V91.4C75.902 91.8 75.9886 92.1533 76.162 92.46C76.342 92.76 76.5886 92.9967 76.902 93.17C77.222 93.3367 77.5853 93.42 77.992 93.42C78.312 93.42 78.6086 93.3633 78.882 93.25C79.162 93.1367 79.402 92.9633 79.602 92.73L80.002 93.19C79.7686 93.47 79.4753 93.6833 79.122 93.83C78.7753 93.9767 78.392 94.05 77.972 94.05ZM83.0295 94L80.6995 88.75H81.4395L83.5795 93.62H83.2295L85.3995 88.75H86.0995L83.7595 94H83.0295ZM87.0994 94V86.58H87.8094V94H87.0994ZM93.0749 94V92.84L93.0449 92.65V90.71C93.0449 90.2633 92.9183 89.92 92.6649 89.68C92.4183 89.44 92.0483 89.32 91.5549 89.32C91.2149 89.32 90.8916 89.3767 90.5849 89.49C90.2783 89.6033 90.0183 89.7533 89.8049 89.94L89.4849 89.41C89.7516 89.1833 90.0716 89.01 90.4449 88.89C90.8183 88.7633 91.2116 88.7 91.6249 88.7C92.3049 88.7 92.8283 88.87 93.1949 89.21C93.5683 89.5433 93.7549 90.0533 93.7549 90.74V94H93.0749ZM91.2649 94.05C90.8716 94.05 90.5283 93.9867 90.2349 93.86C89.9483 93.7267 89.7283 93.5467 89.5749 93.32C89.4216 93.0867 89.3449 92.82 89.3449 92.52C89.3449 92.2467 89.4083 92 89.5349 91.78C89.6683 91.5533 89.8816 91.3733 90.1749 91.24C90.4749 91.1 90.8749 91.03 91.3749 91.03H93.1849V91.56H91.3949C90.8883 91.56 90.5349 91.65 90.3349 91.83C90.1416 92.01 90.0449 92.2333 90.0449 92.5C90.0449 92.8 90.1616 93.04 90.3949 93.22C90.6283 93.4 90.9549 93.49 91.3749 93.49C91.7749 93.49 92.1183 93.4 92.4049 93.22C92.6983 93.0333 92.9116 92.7667 93.0449 92.42L93.2049 92.91C93.0716 93.2567 92.8383 93.5333 92.5049 93.74C92.1783 93.9467 91.7649 94.05 91.2649 94.05ZM94.8834 94L97.1034 91.12L97.0934 91.47L94.9834 88.75H95.7834L97.5134 91L97.2134 90.99L98.9434 88.75H99.7234L97.5934 91.5L97.6034 91.12L99.8434 94H99.0334L97.2034 91.6L97.4834 91.64L95.6834 94H94.8834Z" fill="black"/>
<path d="M185.21 101.06C184.677 101.06 184.183 100.973 183.73 100.8C183.283 100.62 182.893 100.37 182.56 100.05C182.233 99.73 181.977 99.3533 181.79 98.92C181.61 98.4867 181.52 98.0133 181.52 97.5C181.52 96.9867 181.61 96.5133 181.79 96.08C181.977 95.6467 182.237 95.27 182.57 94.95C182.903 94.63 183.293 94.3833 183.74 94.21C184.193 94.03 184.687 93.94 185.22 93.94C185.753 93.94 186.24 94.0233 186.68 94.19C187.127 94.3567 187.507 94.61 187.82 94.95L187.36 95.42C187.067 95.1267 186.743 94.9167 186.39 94.79C186.037 94.6633 185.657 94.6 185.25 94.6C184.817 94.6 184.417 94.6733 184.05 94.82C183.69 94.96 183.373 95.1633 183.1 95.43C182.833 95.69 182.623 95.9967 182.47 96.35C182.323 96.6967 182.25 97.08 182.25 97.5C182.25 97.9133 182.323 98.2967 182.47 98.65C182.623 99.0033 182.833 99.3133 183.1 99.58C183.373 99.84 183.69 100.043 184.05 100.19C184.417 100.33 184.813 100.4 185.24 100.4C185.64 100.4 186.017 100.34 186.37 100.22C186.73 100.1 187.06 99.8967 187.36 99.61L187.78 100.17C187.447 100.463 187.057 100.687 186.61 100.84C186.163 100.987 185.697 101.06 185.21 101.06ZM187.07 100.08V97.5H187.78V100.17L187.07 100.08ZM191.864 101.05C191.358 101.05 190.901 100.937 190.494 100.71C190.094 100.477 189.778 100.16 189.544 99.76C189.311 99.3533 189.194 98.89 189.194 98.37C189.194 97.8433 189.311 97.38 189.544 96.98C189.778 96.58 190.094 96.2667 190.494 96.04C190.894 95.8133 191.351 95.7 191.864 95.7C192.384 95.7 192.844 95.8133 193.244 96.04C193.651 96.2667 193.968 96.58 194.194 96.98C194.428 97.38 194.544 97.8433 194.544 98.37C194.544 98.89 194.428 99.3533 194.194 99.76C193.968 100.16 193.651 100.477 193.244 100.71C192.838 100.937 192.378 101.05 191.864 101.05ZM191.864 100.42C192.244 100.42 192.581 100.337 192.874 100.17C193.168 99.9967 193.398 99.7567 193.564 99.45C193.738 99.1367 193.824 98.7767 193.824 98.37C193.824 97.9567 193.738 97.5967 193.564 97.29C193.398 96.9833 193.168 96.7467 192.874 96.58C192.581 96.4067 192.248 96.32 191.874 96.32C191.501 96.32 191.168 96.4067 190.874 96.58C190.581 96.7467 190.348 96.9833 190.174 97.29C190.001 97.5967 189.914 97.9567 189.914 98.37C189.914 98.7767 190.001 99.1367 190.174 99.45C190.348 99.7567 190.581 99.9967 190.874 100.17C191.168 100.337 191.498 100.42 191.864 100.42ZM192.754 94.7C192.641 94.7 192.541 94.66 192.454 94.58C192.368 94.5 192.324 94.3967 192.324 94.27C192.324 94.1433 192.368 94.04 192.454 93.96C192.541 93.88 192.641 93.84 192.754 93.84C192.874 93.84 192.974 93.88 193.054 93.96C193.141 94.04 193.184 94.1433 193.184 94.27C193.184 94.3967 193.141 94.5 193.054 94.58C192.974 94.66 192.874 94.7 192.754 94.7ZM190.974 94.7C190.854 94.7 190.751 94.66 190.664 94.58C190.584 94.5 190.544 94.3967 190.544 94.27C190.544 94.1433 190.584 94.04 190.664 93.96C190.751 93.88 190.854 93.84 190.974 93.84C191.088 93.84 191.188 93.88 191.274 93.96C191.361 94.04 191.404 94.1433 191.404 94.27C191.404 94.3967 191.361 94.5 191.274 94.58C191.188 94.66 191.088 94.7 190.974 94.7ZM195.887 102.99C195.641 102.99 195.404 102.95 195.177 102.87C194.957 102.79 194.767 102.67 194.607 102.51L194.937 101.98C195.071 102.107 195.214 102.203 195.367 102.27C195.527 102.343 195.704 102.38 195.897 102.38C196.131 102.38 196.331 102.313 196.497 102.18C196.671 102.053 196.834 101.827 196.987 101.5L197.327 100.73L197.407 100.62L199.567 95.75H200.267L197.637 101.63C197.491 101.97 197.327 102.24 197.147 102.44C196.974 102.64 196.784 102.78 196.577 102.86C196.371 102.947 196.141 102.99 195.887 102.99ZM197.287 101.15L194.867 95.75H195.607L197.747 100.57L197.287 101.15ZM203.301 101.05C202.781 101.05 202.314 100.937 201.901 100.71C201.494 100.477 201.174 100.16 200.941 99.76C200.708 99.3533 200.591 98.89 200.591 98.37C200.591 97.8433 200.708 97.38 200.941 96.98C201.174 96.58 201.494 96.2667 201.901 96.04C202.314 95.8133 202.781 95.7 203.301 95.7C203.748 95.7 204.151 95.7867 204.511 95.96C204.871 96.1333 205.154 96.3933 205.361 96.74L204.831 97.1C204.651 96.8333 204.428 96.6367 204.161 96.51C203.894 96.3833 203.604 96.32 203.291 96.32C202.918 96.32 202.581 96.4067 202.281 96.58C201.981 96.7467 201.744 96.9833 201.571 97.29C201.398 97.5967 201.311 97.9567 201.311 98.37C201.311 98.7833 201.398 99.1433 201.571 99.45C201.744 99.7567 201.981 99.9967 202.281 100.17C202.581 100.337 202.918 100.42 203.291 100.42C203.604 100.42 203.894 100.357 204.161 100.23C204.428 100.103 204.651 99.91 204.831 99.65L205.361 100.01C205.154 100.35 204.871 100.61 204.511 100.79C204.151 100.963 203.748 101.05 203.301 101.05ZM202.881 103.2C202.714 103.2 202.561 103.18 202.421 103.14C202.288 103.1 202.161 103.043 202.041 102.97L202.211 102.59C202.311 102.65 202.414 102.697 202.521 102.73C202.634 102.763 202.751 102.78 202.871 102.78C203.071 102.78 203.224 102.737 203.331 102.65C203.438 102.57 203.491 102.457 203.491 102.31C203.491 102.177 203.438 102.067 203.331 101.98C203.231 101.893 203.078 101.85 202.871 101.85H202.641L202.881 100.94H203.311L203.161 101.52C203.434 101.54 203.644 101.623 203.791 101.77C203.938 101.923 204.011 102.11 204.011 102.33C204.011 102.597 203.904 102.807 203.691 102.96C203.484 103.12 203.214 103.2 202.881 103.2ZM210.046 101V99.84L210.016 99.65V97.71C210.016 97.2633 209.889 96.92 209.636 96.68C209.389 96.44 209.019 96.32 208.526 96.32C208.186 96.32 207.862 96.3767 207.556 96.49C207.249 96.6033 206.989 96.7533 206.776 96.94L206.456 96.41C206.722 96.1833 207.042 96.01 207.416 95.89C207.789 95.7633 208.182 95.7 208.596 95.7C209.276 95.7 209.799 95.87 210.166 96.21C210.539 96.5433 210.726 97.0533 210.726 97.74V101H210.046ZM208.236 101.05C207.842 101.05 207.499 100.987 207.206 100.86C206.919 100.727 206.699 100.547 206.546 100.32C206.392 100.087 206.316 99.82 206.316 99.52C206.316 99.2467 206.379 99 206.506 98.78C206.639 98.5533 206.852 98.3733 207.146 98.24C207.446 98.1 207.846 98.03 208.346 98.03H210.156V98.56H208.366C207.859 98.56 207.506 98.65 207.306 98.83C207.112 99.01 207.016 99.2333 207.016 99.5C207.016 99.8 207.132 100.04 207.366 100.22C207.599 100.4 207.926 100.49 208.346 100.49C208.746 100.49 209.089 100.4 209.376 100.22C209.669 100.033 209.882 99.7667 210.016 99.42L210.176 99.91C210.042 100.257 209.809 100.533 209.476 100.74C209.149 100.947 208.736 101.05 208.236 101.05ZM212.596 102.99C212.35 102.99 212.113 102.95 211.886 102.87C211.666 102.79 211.476 102.67 211.316 102.51L211.646 101.98C211.78 102.107 211.923 102.203 212.076 102.27C212.236 102.343 212.413 102.38 212.606 102.38C212.84 102.38 213.04 102.313 213.206 102.18C213.38 102.053 213.543 101.827 213.696 101.5L214.036 100.73L214.116 100.62L216.276 95.75H216.976L214.346 101.63C214.2 101.97 214.036 102.24 213.856 102.44C213.683 102.64 213.493 102.78 213.286 102.86C213.08 102.947 212.85 102.99 212.596 102.99ZM213.996 101.15L211.576 95.75H212.316L214.456 100.57L213.996 101.15Z" fill="black"/>
<path d="M178.96 153.06C178.067 153.06 177.363 152.803 176.85 152.29C176.337 151.777 176.08 151.017 176.08 150.01V146H176.82V149.98C176.82 150.807 177.007 151.417 177.38 151.81C177.753 152.203 178.28 152.4 178.96 152.4C179.647 152.4 180.177 152.203 180.55 151.81C180.923 151.417 181.11 150.807 181.11 149.98V146H181.83V150.01C181.83 151.017 181.573 151.777 181.06 152.29C180.553 152.803 179.853 153.06 178.96 153.06ZM186.09 153.05C185.57 153.05 185.103 152.937 184.69 152.71C184.283 152.477 183.963 152.16 183.73 151.76C183.497 151.353 183.38 150.89 183.38 150.37C183.38 149.843 183.497 149.38 183.73 148.98C183.963 148.58 184.283 148.267 184.69 148.04C185.103 147.813 185.57 147.7 186.09 147.7C186.537 147.7 186.94 147.787 187.3 147.96C187.66 148.133 187.943 148.393 188.15 148.74L187.62 149.1C187.44 148.833 187.217 148.637 186.95 148.51C186.683 148.383 186.393 148.32 186.08 148.32C185.707 148.32 185.37 148.407 185.07 148.58C184.77 148.747 184.533 148.983 184.36 149.29C184.187 149.597 184.1 149.957 184.1 150.37C184.1 150.783 184.187 151.143 184.36 151.45C184.533 151.757 184.77 151.997 185.07 152.17C185.37 152.337 185.707 152.42 186.08 152.42C186.393 152.42 186.683 152.357 186.95 152.23C187.217 152.103 187.44 151.91 187.62 151.65L188.15 152.01C187.943 152.35 187.66 152.61 187.3 152.79C186.94 152.963 186.537 153.05 186.09 153.05ZM192.835 153V151.84L192.805 151.65V149.71C192.805 149.263 192.678 148.92 192.425 148.68C192.178 148.44 191.808 148.32 191.315 148.32C190.975 148.32 190.651 148.377 190.345 148.49C190.038 148.603 189.778 148.753 189.565 148.94L189.245 148.41C189.511 148.183 189.831 148.01 190.205 147.89C190.578 147.763 190.971 147.7 191.385 147.7C192.065 147.7 192.588 147.87 192.955 148.21C193.328 148.543 193.515 149.053 193.515 149.74V153H192.835ZM191.025 153.05C190.631 153.05 190.288 152.987 189.995 152.86C189.708 152.727 189.488 152.547 189.335 152.32C189.181 152.087 189.105 151.82 189.105 151.52C189.105 151.247 189.168 151 189.295 150.78C189.428 150.553 189.641 150.373 189.935 150.24C190.235 150.1 190.635 150.03 191.135 150.03H192.945V150.56H191.155C190.648 150.56 190.295 150.65 190.095 150.83C189.901 151.01 189.805 151.233 189.805 151.5C189.805 151.8 189.921 152.04 190.155 152.22C190.388 152.4 190.715 152.49 191.135 152.49C191.535 152.49 191.878 152.4 192.165 152.22C192.458 152.033 192.671 151.767 192.805 151.42L192.965 151.91C192.831 152.257 192.598 152.533 192.265 152.74C191.938 152.947 191.525 153.05 191.025 153.05ZM195.443 153V147.75H196.123V149.18L196.053 148.93C196.2 148.53 196.446 148.227 196.793 148.02C197.14 147.807 197.57 147.7 198.083 147.7V148.39C198.056 148.39 198.03 148.39 198.003 148.39C197.976 148.383 197.95 148.38 197.923 148.38C197.37 148.38 196.936 148.55 196.623 148.89C196.31 149.223 196.153 149.7 196.153 150.32V153H195.443Z" fill="black"/>
<path d="M74.14 145V138H77.16C77.94 138 78.5433 138.157 78.97 138.47C79.4033 138.783 79.62 139.227 79.62 139.8C79.62 140.18 79.53 140.5 79.35 140.76C79.1767 141.02 78.9367 141.217 78.63 141.35C78.33 141.483 78 141.55 77.64 141.55L77.81 141.31C78.2567 141.31 78.64 141.38 78.96 141.52C79.2867 141.653 79.54 141.857 79.72 142.13C79.9 142.397 79.99 142.73 79.99 143.13C79.99 143.723 79.77 144.183 79.33 144.51C78.8967 144.837 78.24 145 77.36 145H74.14ZM74.88 144.39H77.35C77.9633 144.39 78.4333 144.287 78.76 144.08C79.0867 143.867 79.25 143.53 79.25 143.07C79.25 142.617 79.0867 142.287 78.76 142.08C78.4333 141.867 77.9633 141.76 77.35 141.76H74.8V141.15H77.11C77.67 141.15 78.1033 141.043 78.41 140.83C78.7233 140.617 78.88 140.3 78.88 139.88C78.88 139.453 78.7233 139.137 78.41 138.93C78.1033 138.717 77.67 138.61 77.11 138.61H74.88V144.39ZM83.3591 139.7C83.9057 139.7 84.3857 139.817 84.7991 140.05C85.2124 140.277 85.5357 140.59 85.7691 140.99C86.0024 141.39 86.1191 141.85 86.1191 142.37C86.1191 142.89 86.0057 143.353 85.7791 143.76C85.5591 144.16 85.2557 144.477 84.8691 144.71C84.4824 144.937 84.0424 145.05 83.5491 145.05C83.0557 145.05 82.6157 144.937 82.2291 144.71C81.8491 144.483 81.5491 144.17 81.3291 143.77C81.1091 143.363 80.9991 142.897 80.9991 142.37C80.9991 142.343 80.9991 142.31 80.9991 142.27C81.0057 142.23 81.0091 142.193 81.0091 142.16H85.5791V142.69H81.3891L81.6691 142.48C81.6691 142.853 81.7491 143.19 81.9091 143.49C82.0757 143.783 82.2991 144.017 82.5791 144.19C82.8591 144.357 83.1824 144.44 83.5491 144.44C83.9157 144.44 84.2391 144.357 84.5191 144.19C84.8057 144.017 85.0291 143.78 85.1891 143.48C85.3491 143.18 85.4291 142.84 85.4291 142.46V142.34C85.4291 141.94 85.3391 141.59 85.1591 141.29C84.9857 140.99 84.7424 140.753 84.4291 140.58C84.1157 140.407 83.7524 140.32 83.3391 140.32C83.0124 140.32 82.7124 140.377 82.4391 140.49C82.1657 140.603 81.9291 140.78 81.7291 141.02L81.3291 140.55C81.5691 140.27 81.8624 140.06 82.2091 139.92C82.5624 139.773 82.9457 139.7 83.3591 139.7ZM87.5642 145V139.75H88.2442V141.18L88.1742 140.93C88.3209 140.53 88.5676 140.227 88.9142 140.02C89.2609 139.807 89.6909 139.7 90.2042 139.7V140.39C90.1776 140.39 90.1509 140.39 90.1242 140.39C90.0976 140.383 90.0709 140.38 90.0442 140.38C89.4909 140.38 89.0576 140.55 88.7442 140.89C88.4309 141.223 88.2742 141.7 88.2742 142.32V145H87.5642ZM93.5409 145.05C93.0409 145.05 92.5909 144.937 92.1909 144.71C91.7976 144.483 91.4876 144.17 91.2609 143.77C91.0343 143.363 90.9209 142.897 90.9209 142.37C90.9209 141.837 91.0343 141.37 91.2609 140.97C91.4876 140.57 91.7976 140.26 92.1909 140.04C92.5909 139.813 93.0409 139.7 93.5409 139.7C94.0009 139.7 94.4109 139.803 94.7709 140.01C95.1376 140.217 95.4276 140.52 95.6409 140.92C95.8609 141.313 95.9709 141.797 95.9709 142.37C95.9709 142.937 95.8643 143.42 95.6509 143.82C95.4376 144.22 95.1476 144.527 94.7809 144.74C94.4209 144.947 94.0076 145.05 93.5409 145.05ZM93.5909 144.42C93.9643 144.42 94.2976 144.337 94.5909 144.17C94.8909 143.997 95.1243 143.757 95.2909 143.45C95.4643 143.137 95.5509 142.777 95.5509 142.37C95.5509 141.957 95.4643 141.597 95.2909 141.29C95.1243 140.983 94.8909 140.747 94.5909 140.58C94.2976 140.407 93.9643 140.32 93.5909 140.32C93.2243 140.32 92.8943 140.407 92.6009 140.58C92.3076 140.747 92.0743 140.983 91.9009 141.29C91.7276 141.597 91.6409 141.957 91.6409 142.37C91.6409 142.777 91.7276 143.137 91.9009 143.45C92.0743 143.757 92.3076 143.997 92.6009 144.17C92.8943 144.337 93.2243 144.42 93.5909 144.42ZM95.5709 145V143.42L95.6409 142.36L95.5409 141.3V137.58H96.2509V145H95.5709ZM100.058 139.7C100.605 139.7 101.085 139.817 101.498 140.05C101.912 140.277 102.235 140.59 102.468 140.99C102.702 141.39 102.818 141.85 102.818 142.37C102.818 142.89 102.705 143.353 102.478 143.76C102.258 144.16 101.955 144.477 101.568 144.71C101.182 144.937 100.742 145.05 100.248 145.05C99.7549 145.05 99.3149 144.937 98.9283 144.71C98.5483 144.483 98.2483 144.17 98.0283 143.77C97.8083 143.363 97.6983 142.897 97.6983 142.37C97.6983 142.343 97.6983 142.31 97.6983 142.27C97.7049 142.23 97.7083 142.193 97.7083 142.16H102.278V142.69H98.0883L98.3683 142.48C98.3683 142.853 98.4483 143.19 98.6083 143.49C98.7749 143.783 98.9983 144.017 99.2783 144.19C99.5583 144.357 99.8816 144.44 100.248 144.44C100.615 144.44 100.938 144.357 101.218 144.19C101.505 144.017 101.728 143.78 101.888 143.48C102.048 143.18 102.128 142.84 102.128 142.46V142.34C102.128 141.94 102.038 141.59 101.858 141.29C101.685 140.99 101.442 140.753 101.128 140.58C100.815 140.407 100.452 140.32 100.038 140.32C99.7116 140.32 99.4116 140.377 99.1383 140.49C98.8649 140.603 98.6283 140.78 98.4283 141.02L98.0283 140.55C98.2683 140.27 98.5616 140.06 98.9083 139.92C99.2616 139.773 99.6449 139.7 100.058 139.7Z" fill="black"/>
<path d="M105.02 239L108.22 232H108.95L112.15 239H111.37L108.43 232.43H108.73L105.79 239H105.02ZM106.28 237.13L106.5 236.53H110.57L110.79 237.13H106.28ZM115.349 240.99C114.869 240.99 114.409 240.92 113.969 240.78C113.529 240.64 113.172 240.44 112.899 240.18L113.259 239.64C113.506 239.86 113.809 240.033 114.169 240.16C114.536 240.293 114.922 240.36 115.329 240.36C115.996 240.36 116.486 240.203 116.799 239.89C117.112 239.583 117.269 239.103 117.269 238.45V237.14L117.369 236.24L117.299 235.34V233.75H117.979V238.36C117.979 239.267 117.756 239.93 117.309 240.35C116.869 240.777 116.216 240.99 115.349 240.99ZM115.219 238.8C114.719 238.8 114.269 238.693 113.869 238.48C113.469 238.26 113.152 237.957 112.919 237.57C112.692 237.183 112.579 236.74 112.579 236.24C112.579 235.74 112.692 235.3 112.919 234.92C113.152 234.533 113.469 234.233 113.869 234.02C114.269 233.807 114.719 233.7 115.219 233.7C115.686 233.7 116.106 233.797 116.479 233.99C116.852 234.183 117.149 234.47 117.369 234.85C117.589 235.23 117.699 235.693 117.699 236.24C117.699 236.787 117.589 237.25 117.369 237.63C117.149 238.01 116.852 238.3 116.479 238.5C116.106 238.7 115.686 238.8 115.219 238.8ZM115.289 238.17C115.676 238.17 116.019 238.09 116.319 237.93C116.619 237.763 116.856 237.537 117.029 237.25C117.202 236.957 117.289 236.62 117.289 236.24C117.289 235.86 117.202 235.527 117.029 235.24C116.856 234.953 116.619 234.73 116.319 234.57C116.019 234.403 115.676 234.32 115.289 234.32C114.909 234.32 114.566 234.403 114.259 234.57C113.959 234.73 113.722 234.953 113.549 235.24C113.382 235.527 113.299 235.86 113.299 236.24C113.299 236.62 113.382 236.957 113.549 237.25C113.722 237.537 113.959 237.763 114.259 237.93C114.566 238.09 114.909 238.17 115.289 238.17ZM115.369 232.98C114.949 232.98 114.592 232.867 114.299 232.64C114.012 232.407 113.862 232.09 113.849 231.69H114.349C114.362 231.95 114.466 232.157 114.659 232.31C114.859 232.463 115.096 232.54 115.369 232.54C115.649 232.54 115.886 232.463 116.079 232.31C116.279 232.157 116.382 231.95 116.389 231.69H116.889C116.876 232.09 116.722 232.407 116.429 232.64C116.142 232.867 115.789 232.98 115.369 232.98ZM122.135 239.05C121.615 239.05 121.148 238.937 120.735 238.71C120.328 238.477 120.008 238.16 119.775 237.76C119.542 237.353 119.425 236.89 119.425 236.37C119.425 235.843 119.542 235.38 119.775 234.98C120.008 234.58 120.328 234.267 120.735 234.04C121.148 233.813 121.615 233.7 122.135 233.7C122.582 233.7 122.985 233.787 123.345 233.96C123.705 234.133 123.988 234.393 124.195 234.74L123.665 235.1C123.485 234.833 123.262 234.637 122.995 234.51C122.728 234.383 122.438 234.32 122.125 234.32C121.752 234.32 121.415 234.407 121.115 234.58C120.815 234.747 120.578 234.983 120.405 235.29C120.232 235.597 120.145 235.957 120.145 236.37C120.145 236.783 120.232 237.143 120.405 237.45C120.578 237.757 120.815 237.997 121.115 238.17C121.415 238.337 121.752 238.42 122.125 238.42C122.438 238.42 122.728 238.357 122.995 238.23C123.262 238.103 123.485 237.91 123.665 237.65L124.195 238.01C123.988 238.35 123.705 238.61 123.345 238.79C122.985 238.963 122.582 239.05 122.135 239.05ZM128.88 239V237.84L128.85 237.65V235.71C128.85 235.263 128.723 234.92 128.47 234.68C128.223 234.44 127.853 234.32 127.36 234.32C127.02 234.32 126.696 234.377 126.39 234.49C126.083 234.603 125.823 234.753 125.61 234.94L125.29 234.41C125.556 234.183 125.876 234.01 126.25 233.89C126.623 233.763 127.016 233.7 127.43 233.7C128.11 233.7 128.633 233.87 129 234.21C129.373 234.543 129.56 235.053 129.56 235.74V239H128.88ZM127.07 239.05C126.676 239.05 126.333 238.987 126.04 238.86C125.753 238.727 125.533 238.547 125.38 238.32C125.226 238.087 125.15 237.82 125.15 237.52C125.15 237.247 125.213 237 125.34 236.78C125.473 236.553 125.686 236.373 125.98 236.24C126.28 236.1 126.68 236.03 127.18 236.03H128.99V236.56H127.2C126.693 236.56 126.34 236.65 126.14 236.83C125.946 237.01 125.85 237.233 125.85 237.5C125.85 237.8 125.966 238.04 126.2 238.22C126.433 238.4 126.76 238.49 127.18 238.49C127.58 238.49 127.923 238.4 128.21 238.22C128.503 238.033 128.716 237.767 128.85 237.42L129.01 237.91C128.876 238.257 128.643 238.533 128.31 238.74C127.983 238.947 127.57 239.05 127.07 239.05ZM134.198 239.05C133.738 239.05 133.325 238.947 132.958 238.74C132.591 238.527 132.301 238.22 132.088 237.82C131.875 237.42 131.768 236.937 131.768 236.37C131.768 235.797 131.875 235.313 132.088 234.92C132.308 234.52 132.601 234.217 132.968 234.01C133.335 233.803 133.745 233.7 134.198 233.7C134.698 233.7 135.145 233.813 135.538 234.04C135.938 234.26 136.251 234.57 136.478 234.97C136.705 235.37 136.818 235.837 136.818 236.37C136.818 236.897 136.705 237.363 136.478 237.77C136.251 238.17 135.938 238.483 135.538 238.71C135.145 238.937 134.698 239.05 134.198 239.05ZM131.488 239V231.58H132.198V235.3L132.098 236.36L132.168 237.42V239H131.488ZM134.148 238.42C134.521 238.42 134.855 238.337 135.148 238.17C135.441 237.997 135.675 237.757 135.848 237.45C136.021 237.137 136.108 236.777 136.108 236.37C136.108 235.957 136.021 235.597 135.848 235.29C135.675 234.983 135.441 234.747 135.148 234.58C134.855 234.407 134.521 234.32 134.148 234.32C133.775 234.32 133.438 234.407 133.138 234.58C132.845 234.747 132.611 234.983 132.438 235.29C132.271 235.597 132.188 235.957 132.188 236.37C132.188 236.777 132.271 237.137 132.438 237.45C132.611 237.757 132.845 237.997 133.138 238.17C133.438 238.337 133.775 238.42 134.148 238.42ZM140.095 233.7C140.642 233.7 141.122 233.817 141.535 234.05C141.949 234.277 142.272 234.59 142.505 234.99C142.739 235.39 142.855 235.85 142.855 236.37C142.855 236.89 142.742 237.353 142.515 237.76C142.295 238.16 141.992 238.477 141.605 238.71C141.219 238.937 140.779 239.05 140.285 239.05C139.792 239.05 139.352 238.937 138.965 238.71C138.585 238.483 138.285 238.17 138.065 237.77C137.845 237.363 137.735 236.897 137.735 236.37C137.735 236.343 137.735 236.31 137.735 236.27C137.742 236.23 137.745 236.193 137.745 236.16H142.315V236.69H138.125L138.405 236.48C138.405 236.853 138.485 237.19 138.645 237.49C138.812 237.783 139.035 238.017 139.315 238.19C139.595 238.357 139.919 238.44 140.285 238.44C140.652 238.44 140.975 238.357 141.255 238.19C141.542 238.017 141.765 237.78 141.925 237.48C142.085 237.18 142.165 236.84 142.165 236.46V236.34C142.165 235.94 142.075 235.59 141.895 235.29C141.722 234.99 141.479 234.753 141.165 234.58C140.852 234.407 140.489 234.32 140.075 234.32C139.749 234.32 139.449 234.377 139.175 234.49C138.902 234.603 138.665 234.78 138.465 235.02L138.065 234.55C138.305 234.27 138.599 234.06 138.945 233.92C139.299 233.773 139.682 233.7 140.095 233.7ZM146.391 239.05C145.891 239.05 145.441 238.937 145.041 238.71C144.647 238.483 144.337 238.17 144.111 237.77C143.884 237.363 143.771 236.897 143.771 236.37C143.771 235.837 143.884 235.37 144.111 234.97C144.337 234.57 144.647 234.26 145.041 234.04C145.441 233.813 145.891 233.7 146.391 233.7C146.851 233.7 147.261 233.803 147.621 234.01C147.987 234.217 148.277 234.52 148.491 234.92C148.711 235.313 148.821 235.797 148.821 236.37C148.821 236.937 148.714 237.42 148.501 237.82C148.287 238.22 147.997 238.527 147.631 238.74C147.271 238.947 146.857 239.05 146.391 239.05ZM146.441 238.42C146.814 238.42 147.147 238.337 147.441 238.17C147.741 237.997 147.974 237.757 148.141 237.45C148.314 237.137 148.401 236.777 148.401 236.37C148.401 235.957 148.314 235.597 148.141 235.29C147.974 234.983 147.741 234.747 147.441 234.58C147.147 234.407 146.814 234.32 146.441 234.32C146.074 234.32 145.744 234.407 145.451 234.58C145.157 234.747 144.924 234.983 144.751 235.29C144.577 235.597 144.491 235.957 144.491 236.37C144.491 236.777 144.577 237.137 144.751 237.45C144.924 237.757 145.157 237.997 145.451 238.17C145.744 238.337 146.074 238.42 146.441 238.42ZM148.421 239V237.42L148.491 236.36L148.391 235.3V231.58H149.101V239H148.421ZM151.078 239V233.75H151.788V239H151.078ZM151.438 232.59C151.291 232.59 151.168 232.54 151.068 232.44C150.968 232.34 150.918 232.22 150.918 232.08C150.918 231.94 150.968 231.823 151.068 231.73C151.168 231.63 151.291 231.58 151.438 231.58C151.585 231.58 151.708 231.627 151.808 231.72C151.908 231.813 151.958 231.93 151.958 232.07C151.958 232.217 151.908 232.34 151.808 232.44C151.715 232.54 151.591 232.59 151.438 232.59Z" fill="black"/>
<path d="M198.14 246V239H198.88V246H198.14ZM198.51 238.2C198.377 238.2 198.263 238.153 198.17 238.06C198.077 237.967 198.03 237.853 198.03 237.72C198.03 237.58 198.077 237.467 198.17 237.38C198.263 237.287 198.377 237.24 198.51 237.24C198.643 237.24 198.757 237.287 198.85 237.38C198.943 237.467 198.99 237.58 198.99 237.72C198.99 237.853 198.943 237.967 198.85 238.06C198.757 238.153 198.643 238.2 198.51 238.2ZM207.568 240.7C207.994 240.7 208.364 240.783 208.678 240.95C208.998 241.11 209.244 241.357 209.418 241.69C209.598 242.023 209.688 242.443 209.688 242.95V246H208.978V243.02C208.978 242.467 208.844 242.05 208.578 241.77C208.318 241.483 207.948 241.34 207.468 241.34C207.108 241.34 206.794 241.417 206.528 241.57C206.268 241.717 206.064 241.933 205.918 242.22C205.778 242.5 205.708 242.84 205.708 243.24V246H204.998V243.02C204.998 242.467 204.864 242.05 204.598 241.77C204.331 241.483 203.958 241.34 203.478 241.34C203.124 241.34 202.814 241.417 202.548 241.57C202.281 241.717 202.074 241.933 201.928 242.22C201.788 242.5 201.718 242.84 201.718 243.24V246H201.008V240.75H201.688V242.17L201.578 241.92C201.738 241.54 201.994 241.243 202.348 241.03C202.708 240.81 203.131 240.7 203.618 240.7C204.131 240.7 204.568 240.83 204.928 241.09C205.288 241.343 205.521 241.727 205.628 242.24L205.348 242.13C205.501 241.703 205.771 241.36 206.158 241.1C206.551 240.833 207.021 240.7 207.568 240.7ZM211.613 246V240.75H212.323V246H211.613ZM211.973 239.59C211.826 239.59 211.703 239.54 211.603 239.44C211.503 239.34 211.453 239.22 211.453 239.08C211.453 238.94 211.503 238.823 211.603 238.73C211.703 238.63 211.826 238.58 211.973 238.58C212.12 238.58 212.243 238.627 212.343 238.72C212.443 238.813 212.493 238.93 212.493 239.07C212.493 239.217 212.443 239.34 212.343 239.44C212.25 239.54 212.126 239.59 211.973 239.59ZM215.709 246.05C215.275 246.05 214.865 245.99 214.479 245.87C214.092 245.743 213.789 245.587 213.569 245.4L213.889 244.84C214.102 245 214.375 245.14 214.709 245.26C215.042 245.373 215.392 245.43 215.759 245.43C216.259 245.43 216.619 245.353 216.839 245.2C217.059 245.04 217.169 244.83 217.169 244.57C217.169 244.377 217.105 244.227 216.979 244.12C216.859 244.007 216.699 243.923 216.499 243.87C216.299 243.81 216.075 243.76 215.829 243.72C215.582 243.68 215.335 243.633 215.089 243.58C214.849 243.527 214.629 243.45 214.429 243.35C214.229 243.243 214.065 243.1 213.939 242.92C213.819 242.74 213.759 242.5 213.759 242.2C213.759 241.913 213.839 241.657 213.999 241.43C214.159 241.203 214.392 241.027 214.699 240.9C215.012 240.767 215.392 240.7 215.839 240.7C216.179 240.7 216.519 240.747 216.859 240.84C217.199 240.927 217.479 241.043 217.699 241.19L217.389 241.76C217.155 241.6 216.905 241.487 216.639 241.42C216.372 241.347 216.105 241.31 215.839 241.31C215.365 241.31 215.015 241.393 214.789 241.56C214.569 241.72 214.459 241.927 214.459 242.18C214.459 242.38 214.519 242.537 214.639 242.65C214.765 242.763 214.929 242.853 215.129 242.92C215.335 242.98 215.559 243.03 215.799 243.07C216.045 243.11 216.289 243.16 216.529 243.22C216.775 243.273 216.999 243.35 217.199 243.45C217.405 243.543 217.569 243.68 217.689 243.86C217.815 244.033 217.879 244.263 217.879 244.55C217.879 244.857 217.792 245.123 217.619 245.35C217.452 245.57 217.205 245.743 216.879 245.87C216.559 245.99 216.169 246.05 215.709 246.05ZM215.519 248.2C215.352 248.2 215.199 248.18 215.059 248.14C214.925 248.1 214.799 248.043 214.679 247.97L214.849 247.59C214.949 247.65 215.052 247.697 215.159 247.73C215.272 247.763 215.389 247.78 215.509 247.78C215.709 247.78 215.862 247.737 215.969 247.65C216.075 247.57 216.129 247.457 216.129 247.31C216.129 247.177 216.075 247.067 215.969 246.98C215.869 246.893 215.715 246.85 215.509 246.85H215.279L215.519 245.94H215.949L215.799 246.52C216.072 246.54 216.282 246.623 216.429 246.77C216.575 246.923 216.649 247.11 216.649 247.33C216.649 247.597 216.542 247.807 216.329 247.96C216.122 248.12 215.852 248.2 215.519 248.2ZM219.181 246V238.58H219.891V246H219.181ZM221.867 246V240.75H222.577V246H221.867ZM222.227 239.59C222.08 239.59 221.957 239.54 221.857 239.44C221.757 239.34 221.707 239.22 221.707 239.08C221.707 238.94 221.757 238.823 221.857 238.73C221.957 238.63 222.08 238.58 222.227 238.58C222.374 238.58 222.497 238.627 222.597 238.72C222.697 238.813 222.747 238.93 222.747 239.07C222.747 239.217 222.697 239.34 222.597 239.44C222.504 239.54 222.38 239.59 222.227 239.59Z" fill="black"/>
<path d="M150.45 176V175.49L155.31 169.36L155.39 169.64H150.52V169H156.07V169.51L151.22 175.64L151.13 175.36H156.19V176H150.45ZM159.187 170.7C159.734 170.7 160.214 170.817 160.627 171.05C161.041 171.277 161.364 171.59 161.597 171.99C161.831 172.39 161.947 172.85 161.947 173.37C161.947 173.89 161.834 174.353 161.607 174.76C161.387 175.16 161.084 175.477 160.697 175.71C160.311 175.937 159.871 176.05 159.377 176.05C158.884 176.05 158.444 175.937 158.057 175.71C157.677 175.483 157.377 175.17 157.157 174.77C156.937 174.363 156.827 173.897 156.827 173.37C156.827 173.343 156.827 173.31 156.827 173.27C156.834 173.23 156.837 173.193 156.837 173.16H161.407V173.69H157.217L157.497 173.48C157.497 173.853 157.577 174.19 157.737 174.49C157.904 174.783 158.127 175.017 158.407 175.19C158.687 175.357 159.011 175.44 159.377 175.44C159.744 175.44 160.067 175.357 160.347 175.19C160.634 175.017 160.857 174.78 161.017 174.48C161.177 174.18 161.257 173.84 161.257 173.46V173.34C161.257 172.94 161.167 172.59 160.987 172.29C160.814 171.99 160.571 171.753 160.257 171.58C159.944 171.407 159.581 171.32 159.167 171.32C158.841 171.32 158.541 171.377 158.267 171.49C157.994 171.603 157.757 171.78 157.557 172.02L157.157 171.55C157.397 171.27 157.691 171.06 158.037 170.92C158.391 170.773 158.774 170.7 159.187 170.7ZM163.392 176V170.75H164.072V172.18L164.002 171.93C164.149 171.53 164.396 171.227 164.742 171.02C165.089 170.807 165.519 170.7 166.032 170.7V171.39C166.006 171.39 165.979 171.39 165.952 171.39C165.926 171.383 165.899 171.38 165.872 171.38C165.319 171.38 164.886 171.55 164.572 171.89C164.259 172.223 164.102 172.7 164.102 173.32V176H163.392ZM169.369 176.05C168.869 176.05 168.419 175.937 168.019 175.71C167.626 175.483 167.316 175.17 167.089 174.77C166.862 174.363 166.749 173.897 166.749 173.37C166.749 172.837 166.862 172.37 167.089 171.97C167.316 171.57 167.626 171.26 168.019 171.04C168.419 170.813 168.869 170.7 169.369 170.7C169.829 170.7 170.239 170.803 170.599 171.01C170.966 171.217 171.256 171.52 171.469 171.92C171.689 172.313 171.799 172.797 171.799 173.37C171.799 173.937 171.692 174.42 171.479 174.82C171.266 175.22 170.976 175.527 170.609 175.74C170.249 175.947 169.836 176.05 169.369 176.05ZM169.419 175.42C169.792 175.42 170.126 175.337 170.419 175.17C170.719 174.997 170.952 174.757 171.119 174.45C171.292 174.137 171.379 173.777 171.379 173.37C171.379 172.957 171.292 172.597 171.119 172.29C170.952 171.983 170.719 171.747 170.419 171.58C170.126 171.407 169.792 171.32 169.419 171.32C169.052 171.32 168.722 171.407 168.429 171.58C168.136 171.747 167.902 171.983 167.729 172.29C167.556 172.597 167.469 172.957 167.469 173.37C167.469 173.777 167.556 174.137 167.729 174.45C167.902 174.757 168.136 174.997 168.429 175.17C168.722 175.337 169.052 175.42 169.419 175.42ZM171.399 176V174.42L171.469 173.36L171.369 172.3V168.58H172.079V176H171.399ZM177.346 176V174.84L177.316 174.65V172.71C177.316 172.263 177.19 171.92 176.936 171.68C176.69 171.44 176.32 171.32 175.826 171.32C175.486 171.32 175.163 171.377 174.856 171.49C174.55 171.603 174.29 171.753 174.076 171.94L173.756 171.41C174.023 171.183 174.343 171.01 174.716 170.89C175.09 170.763 175.483 170.7 175.896 170.7C176.576 170.7 177.1 170.87 177.466 171.21C177.84 171.543 178.026 172.053 178.026 172.74V176H177.346ZM175.536 176.05C175.143 176.05 174.8 175.987 174.506 175.86C174.22 175.727 174 175.547 173.846 175.32C173.693 175.087 173.616 174.82 173.616 174.52C173.616 174.247 173.68 174 173.806 173.78C173.94 173.553 174.153 173.373 174.446 173.24C174.746 173.1 175.146 173.03 175.646 173.03H177.456V173.56H175.666C175.16 173.56 174.806 173.65 174.606 173.83C174.413 174.01 174.316 174.233 174.316 174.5C174.316 174.8 174.433 175.04 174.666 175.22C174.9 175.4 175.226 175.49 175.646 175.49C176.046 175.49 176.39 175.4 176.676 175.22C176.97 175.033 177.183 174.767 177.316 174.42L177.476 174.91C177.343 175.257 177.11 175.533 176.776 175.74C176.45 175.947 176.036 176.05 175.536 176.05ZM182.665 176.05C182.205 176.05 181.792 175.947 181.425 175.74C181.058 175.527 180.768 175.22 180.555 174.82C180.342 174.42 180.235 173.937 180.235 173.37C180.235 172.797 180.342 172.313 180.555 171.92C180.775 171.52 181.068 171.217 181.435 171.01C181.802 170.803 182.212 170.7 182.665 170.7C183.165 170.7 183.612 170.813 184.005 171.04C184.405 171.26 184.718 171.57 184.945 171.97C185.172 172.37 185.285 172.837 185.285 173.37C185.285 173.897 185.172 174.363 184.945 174.77C184.718 175.17 184.405 175.483 184.005 175.71C183.612 175.937 183.165 176.05 182.665 176.05ZM179.955 176V168.58H180.665V172.3L180.565 173.36L180.635 174.42V176H179.955ZM182.615 175.42C182.988 175.42 183.322 175.337 183.615 175.17C183.908 174.997 184.142 174.757 184.315 174.45C184.488 174.137 184.575 173.777 184.575 173.37C184.575 172.957 184.488 172.597 184.315 172.29C184.142 171.983 183.908 171.747 183.615 171.58C183.322 171.407 182.988 171.32 182.615 171.32C182.242 171.32 181.905 171.407 181.605 171.58C181.312 171.747 181.078 171.983 180.905 172.29C180.738 172.597 180.655 172.957 180.655 173.37C180.655 173.777 180.738 174.137 180.905 174.45C181.078 174.757 181.312 174.997 181.605 175.17C181.905 175.337 182.242 175.42 182.615 175.42Z" fill="black"/>
<path d="M214.78 185.26L214.75 184.36L218.99 180H219.84L216.75 183.24L216.33 183.69L214.78 185.26ZM214.14 187V180H214.88V187H214.14ZM219.17 187L216.15 183.52L216.65 182.98L220.05 187H219.17ZM223.084 187.05C222.637 187.05 222.247 186.967 221.914 186.8C221.58 186.633 221.32 186.383 221.134 186.05C220.954 185.717 220.864 185.3 220.864 184.8V181.75H221.574V184.72C221.574 185.28 221.71 185.703 221.984 185.99C222.264 186.27 222.654 186.41 223.154 186.41C223.52 186.41 223.837 186.337 224.104 186.19C224.377 186.037 224.584 185.817 224.724 185.53C224.87 185.243 224.944 184.9 224.944 184.5V181.75H225.654V187H224.974V185.56L225.084 185.82C224.917 186.207 224.657 186.51 224.304 186.73C223.957 186.943 223.55 187.05 223.084 187.05ZM224.154 180.7C224.04 180.7 223.94 180.66 223.854 180.58C223.767 180.5 223.724 180.397 223.724 180.27C223.724 180.143 223.767 180.04 223.854 179.96C223.94 179.88 224.04 179.84 224.154 179.84C224.274 179.84 224.374 179.88 224.454 179.96C224.54 180.04 224.584 180.143 224.584 180.27C224.584 180.397 224.54 180.5 224.454 180.58C224.374 180.66 224.274 180.7 224.154 180.7ZM222.374 180.7C222.254 180.7 222.15 180.66 222.064 180.58C221.984 180.5 221.944 180.397 221.944 180.27C221.944 180.143 221.984 180.04 222.064 179.96C222.15 179.88 222.254 179.84 222.374 179.84C222.487 179.84 222.587 179.88 222.674 179.96C222.76 180.04 222.804 180.143 222.804 180.27C222.804 180.397 222.76 180.5 222.674 180.58C222.587 180.66 222.487 180.7 222.374 180.7ZM227.633 187V181.75H228.313V183.18L228.243 182.93C228.389 182.53 228.636 182.227 228.983 182.02C229.329 181.807 229.759 181.7 230.273 181.7V182.39C230.246 182.39 230.219 182.39 230.193 182.39C230.166 182.383 230.139 182.38 230.113 182.38C229.559 182.38 229.126 182.55 228.813 182.89C228.499 183.223 228.343 183.7 228.343 184.32V187H227.633ZM233.609 187.05C233.109 187.05 232.659 186.937 232.259 186.71C231.866 186.483 231.556 186.17 231.329 185.77C231.103 185.363 230.989 184.897 230.989 184.37C230.989 183.837 231.103 183.37 231.329 182.97C231.556 182.57 231.866 182.26 232.259 182.04C232.659 181.813 233.109 181.7 233.609 181.7C234.069 181.7 234.479 181.803 234.839 182.01C235.206 182.217 235.496 182.52 235.709 182.92C235.929 183.313 236.039 183.797 236.039 184.37C236.039 184.937 235.933 185.42 235.719 185.82C235.506 186.22 235.216 186.527 234.849 186.74C234.489 186.947 234.076 187.05 233.609 187.05ZM233.659 186.42C234.033 186.42 234.366 186.337 234.659 186.17C234.959 185.997 235.193 185.757 235.359 185.45C235.533 185.137 235.619 184.777 235.619 184.37C235.619 183.957 235.533 183.597 235.359 183.29C235.193 182.983 234.959 182.747 234.659 182.58C234.366 182.407 234.033 182.32 233.659 182.32C233.293 182.32 232.963 182.407 232.669 182.58C232.376 182.747 232.143 182.983 231.969 183.29C231.796 183.597 231.709 183.957 231.709 184.37C231.709 184.777 231.796 185.137 231.969 185.45C232.143 185.757 232.376 185.997 232.669 186.17C232.963 186.337 233.293 186.42 233.659 186.42ZM235.639 187V185.42L235.709 184.36L235.609 183.3V179.58H236.319V187H235.639ZM240.127 181.7C240.673 181.7 241.153 181.817 241.567 182.05C241.98 182.277 242.303 182.59 242.537 182.99C242.77 183.39 242.887 183.85 242.887 184.37C242.887 184.89 242.773 185.353 242.547 185.76C242.327 186.16 242.023 186.477 241.637 186.71C241.25 186.937 240.81 187.05 240.317 187.05C239.823 187.05 239.383 186.937 238.997 186.71C238.617 186.483 238.317 186.17 238.097 185.77C237.877 185.363 237.767 184.897 237.767 184.37C237.767 184.343 237.767 184.31 237.767 184.27C237.773 184.23 237.777 184.193 237.777 184.16H242.347V184.69H238.157L238.437 184.48C238.437 184.853 238.517 185.19 238.677 185.49C238.843 185.783 239.067 186.017 239.347 186.19C239.627 186.357 239.95 186.44 240.317 186.44C240.683 186.44 241.007 186.357 241.287 186.19C241.573 186.017 241.797 185.78 241.957 185.48C242.117 185.18 242.197 184.84 242.197 184.46V184.34C242.197 183.94 242.107 183.59 241.927 183.29C241.753 182.99 241.51 182.753 241.197 182.58C240.883 182.407 240.52 182.32 240.107 182.32C239.78 182.32 239.48 182.377 239.207 182.49C238.933 182.603 238.697 182.78 238.497 183.02L238.097 182.55C238.337 182.27 238.63 182.06 238.977 181.92C239.33 181.773 239.713 181.7 240.127 181.7ZM250.892 181.7C251.318 181.7 251.688 181.783 252.002 181.95C252.322 182.11 252.568 182.357 252.742 182.69C252.922 183.023 253.012 183.443 253.012 183.95V187H252.302V184.02C252.302 183.467 252.168 183.05 251.902 182.77C251.642 182.483 251.272 182.34 250.792 182.34C250.432 182.34 250.118 182.417 249.852 182.57C249.592 182.717 249.388 182.933 249.242 183.22C249.102 183.5 249.032 183.84 249.032 184.24V187H248.322V184.02C248.322 183.467 248.188 183.05 247.922 182.77C247.655 182.483 247.282 182.34 246.802 182.34C246.448 182.34 246.138 182.417 245.872 182.57C245.605 182.717 245.398 182.933 245.252 183.22C245.112 183.5 245.042 183.84 245.042 184.24V187H244.332V181.75H245.012V183.17L244.902 182.92C245.062 182.54 245.318 182.243 245.672 182.03C246.032 181.81 246.455 181.7 246.942 181.7C247.455 181.7 247.892 181.83 248.252 182.09C248.612 182.343 248.845 182.727 248.952 183.24L248.672 183.13C248.825 182.703 249.095 182.36 249.482 182.1C249.875 181.833 250.345 181.7 250.892 181.7ZM254.937 187V181.75H255.647V187H254.937ZM255.297 180.59C255.151 180.59 255.027 180.54 254.927 180.44C254.827 180.34 254.777 180.22 254.777 180.08C254.777 179.94 254.827 179.823 254.927 179.73C255.027 179.63 255.151 179.58 255.297 179.58C255.444 179.58 255.567 179.627 255.667 179.72C255.767 179.813 255.817 179.93 255.817 180.07C255.817 180.217 255.767 180.34 255.667 180.44C255.574 180.54 255.451 180.59 255.297 180.59ZM257.623 187V181.75H258.303V183.18L258.233 182.93C258.379 182.53 258.626 182.227 258.973 182.02C259.319 181.807 259.749 181.7 260.263 181.7V182.39C260.236 182.39 260.209 182.39 260.183 182.39C260.156 182.383 260.129 182.38 260.103 182.38C259.549 182.38 259.116 182.55 258.803 182.89C258.489 183.223 258.333 183.7 258.333 184.32V187H257.623Z" fill="black"/>
<path d="M167.14 278V271H170.16C170.94 271 171.543 271.157 171.97 271.47C172.403 271.783 172.62 272.227 172.62 272.8C172.62 273.18 172.53 273.5 172.35 273.76C172.177 274.02 171.937 274.217 171.63 274.35C171.33 274.483 171 274.55 170.64 274.55L170.81 274.31C171.257 274.31 171.64 274.38 171.96 274.52C172.287 274.653 172.54 274.857 172.72 275.13C172.9 275.397 172.99 275.73 172.99 276.13C172.99 276.723 172.77 277.183 172.33 277.51C171.897 277.837 171.24 278 170.36 278H167.14ZM167.88 277.39H170.35C170.963 277.39 171.433 277.287 171.76 277.08C172.087 276.867 172.25 276.53 172.25 276.07C172.25 275.617 172.087 275.287 171.76 275.08C171.433 274.867 170.963 274.76 170.35 274.76H167.8V274.15H170.11C170.67 274.15 171.103 274.043 171.41 273.83C171.723 273.617 171.88 273.3 171.88 272.88C171.88 272.453 171.723 272.137 171.41 271.93C171.103 271.717 170.67 271.61 170.11 271.61H167.88V277.39ZM176.759 278.05C176.212 278.05 175.732 277.937 175.319 277.71C174.906 277.477 174.582 277.16 174.349 276.76C174.116 276.353 173.999 275.89 173.999 275.37C173.999 274.85 174.109 274.39 174.329 273.99C174.556 273.59 174.862 273.277 175.249 273.05C175.642 272.817 176.082 272.7 176.569 272.7C177.062 272.7 177.499 272.813 177.879 273.04C178.266 273.26 178.569 273.573 178.789 273.98C179.009 274.38 179.119 274.843 179.119 275.37C179.119 275.403 179.116 275.44 179.109 275.48C179.109 275.513 179.109 275.55 179.109 275.59H174.539V275.06H178.729L178.449 275.27C178.449 274.89 178.366 274.553 178.199 274.26C178.039 273.96 177.819 273.727 177.539 273.56C177.259 273.393 176.936 273.31 176.569 273.31C176.209 273.31 175.886 273.393 175.599 273.56C175.312 273.727 175.089 273.96 174.929 274.26C174.769 274.56 174.689 274.903 174.689 275.29V275.4C174.689 275.8 174.776 276.153 174.949 276.46C175.129 276.76 175.376 276.997 175.689 277.17C176.009 277.337 176.372 277.42 176.779 277.42C177.099 277.42 177.396 277.363 177.669 277.25C177.949 277.137 178.189 276.963 178.389 276.73L178.789 277.19C178.556 277.47 178.262 277.683 177.909 277.83C177.562 277.977 177.179 278.05 176.759 278.05ZM180.507 279.99C180.26 279.99 180.023 279.95 179.797 279.87C179.577 279.79 179.387 279.67 179.227 279.51L179.557 278.98C179.69 279.107 179.833 279.203 179.987 279.27C180.147 279.343 180.323 279.38 180.517 279.38C180.75 279.38 180.95 279.313 181.117 279.18C181.29 279.053 181.453 278.827 181.607 278.5L181.947 277.73L182.027 277.62L184.187 272.75H184.887L182.257 278.63C182.11 278.97 181.947 279.24 181.767 279.44C181.593 279.64 181.403 279.78 181.197 279.86C180.99 279.947 180.76 279.99 180.507 279.99ZM181.907 278.15L179.487 272.75H180.227L182.367 277.57L181.907 278.15ZM185.886 278V270.58H186.596V278H185.886ZM190.402 272.7C190.949 272.7 191.429 272.817 191.842 273.05C192.255 273.277 192.579 273.59 192.812 273.99C193.045 274.39 193.162 274.85 193.162 275.37C193.162 275.89 193.049 276.353 192.822 276.76C192.602 277.16 192.299 277.477 191.912 277.71C191.525 277.937 191.085 278.05 190.592 278.05C190.099 278.05 189.659 277.937 189.272 277.71C188.892 277.483 188.592 277.17 188.372 276.77C188.152 276.363 188.042 275.897 188.042 275.37C188.042 275.343 188.042 275.31 188.042 275.27C188.049 275.23 188.052 275.193 188.052 275.16H192.622V275.69H188.432L188.712 275.48C188.712 275.853 188.792 276.19 188.952 276.49C189.119 276.783 189.342 277.017 189.622 277.19C189.902 277.357 190.225 277.44 190.592 277.44C190.959 277.44 191.282 277.357 191.562 277.19C191.849 277.017 192.072 276.78 192.232 276.48C192.392 276.18 192.472 275.84 192.472 275.46V275.34C192.472 274.94 192.382 274.59 192.202 274.29C192.029 273.99 191.785 273.753 191.472 273.58C191.159 273.407 190.795 273.32 190.382 273.32C190.055 273.32 189.755 273.377 189.482 273.49C189.209 273.603 188.972 273.78 188.772 274.02L188.372 273.55C188.612 273.27 188.905 273.06 189.252 272.92C189.605 272.773 189.989 272.7 190.402 272.7ZM196.697 278.05C196.197 278.05 195.747 277.937 195.347 277.71C194.954 277.483 194.644 277.17 194.417 276.77C194.191 276.37 194.077 275.903 194.077 275.37C194.077 274.843 194.191 274.38 194.417 273.98C194.644 273.573 194.954 273.26 195.347 273.04C195.747 272.813 196.197 272.7 196.697 272.7C197.164 272.7 197.577 272.803 197.937 273.01C198.304 273.217 198.594 273.52 198.807 273.92C199.021 274.313 199.127 274.797 199.127 275.37C199.127 275.943 199.017 276.43 198.797 276.83C198.584 277.223 198.294 277.527 197.927 277.74C197.567 277.947 197.157 278.05 196.697 278.05ZM196.747 277.42C197.121 277.42 197.454 277.337 197.747 277.17C198.047 276.997 198.281 276.757 198.447 276.45C198.621 276.137 198.707 275.777 198.707 275.37C198.707 274.963 198.621 274.607 198.447 274.3C198.281 273.993 198.047 273.753 197.747 273.58C197.454 273.407 197.121 273.32 196.747 273.32C196.381 273.32 196.051 273.407 195.757 273.58C195.464 273.753 195.231 273.993 195.057 274.3C194.884 274.607 194.797 274.963 194.797 275.37C194.797 275.777 194.884 276.137 195.057 276.45C195.231 276.757 195.464 276.997 195.757 277.17C196.051 277.337 196.381 277.42 196.747 277.42ZM198.697 279.94V276.44L198.797 275.38L198.727 274.33V272.75H199.407V279.94H198.697ZM204.675 278V276.84L204.645 276.65V274.71C204.645 274.263 204.518 273.92 204.265 273.68C204.018 273.44 203.648 273.32 203.155 273.32C202.815 273.32 202.491 273.377 202.185 273.49C201.878 273.603 201.618 273.753 201.405 273.94L201.085 273.41C201.351 273.183 201.671 273.01 202.045 272.89C202.418 272.763 202.811 272.7 203.225 272.7C203.905 272.7 204.428 272.87 204.795 273.21C205.168 273.543 205.355 274.053 205.355 274.74V278H204.675ZM202.865 278.05C202.471 278.05 202.128 277.987 201.835 277.86C201.548 277.727 201.328 277.547 201.175 277.32C201.021 277.087 200.945 276.82 200.945 276.52C200.945 276.247 201.008 276 201.135 275.78C201.268 275.553 201.481 275.373 201.775 275.24C202.075 275.1 202.475 275.03 202.975 275.03H204.785V275.56H202.995C202.488 275.56 202.135 275.65 201.935 275.83C201.741 276.01 201.645 276.233 201.645 276.5C201.645 276.8 201.761 277.04 201.995 277.22C202.228 277.4 202.555 277.49 202.975 277.49C203.375 277.49 203.718 277.4 204.005 277.22C204.298 277.033 204.511 276.767 204.645 276.42L204.805 276.91C204.671 277.257 204.438 277.533 204.105 277.74C203.778 277.947 203.365 278.05 202.865 278.05ZM209.963 272.7C210.39 272.7 210.763 272.783 211.083 272.95C211.41 273.11 211.663 273.357 211.843 273.69C212.03 274.023 212.123 274.443 212.123 274.95V278H211.413V275.02C211.413 274.467 211.273 274.05 210.993 273.77C210.72 273.483 210.333 273.34 209.833 273.34C209.46 273.34 209.133 273.417 208.853 273.57C208.58 273.717 208.366 273.933 208.213 274.22C208.066 274.5 207.993 274.84 207.993 275.24V278H207.283V272.75H207.963V274.19L207.853 273.92C208.02 273.54 208.286 273.243 208.653 273.03C209.02 272.81 209.456 272.7 209.963 272.7Z" fill="black"/>
<path d="M293.07 235.06C292.55 235.06 292.05 234.977 291.57 234.81C291.097 234.637 290.73 234.417 290.47 234.15L290.76 233.58C291.007 233.82 291.337 234.023 291.75 234.19C292.17 234.35 292.61 234.43 293.07 234.43C293.51 234.43 293.867 234.377 294.14 234.27C294.42 234.157 294.623 234.007 294.75 233.82C294.883 233.633 294.95 233.427 294.95 233.2C294.95 232.927 294.87 232.707 294.71 232.54C294.557 232.373 294.353 232.243 294.1 232.15C293.847 232.05 293.567 231.963 293.26 231.89C292.953 231.817 292.647 231.74 292.34 231.66C292.033 231.573 291.75 231.46 291.49 231.32C291.237 231.18 291.03 230.997 290.87 230.77C290.717 230.537 290.64 230.233 290.64 229.86C290.64 229.513 290.73 229.197 290.91 228.91C291.097 228.617 291.38 228.383 291.76 228.21C292.14 228.03 292.627 227.94 293.22 227.94C293.613 227.94 294.003 227.997 294.39 228.11C294.777 228.217 295.11 228.367 295.39 228.56L295.14 229.15C294.84 228.95 294.52 228.803 294.18 228.71C293.847 228.617 293.523 228.57 293.21 228.57C292.79 228.57 292.443 228.627 292.17 228.74C291.897 228.853 291.693 229.007 291.56 229.2C291.433 229.387 291.37 229.6 291.37 229.84C291.37 230.113 291.447 230.333 291.6 230.5C291.76 230.667 291.967 230.797 292.22 230.89C292.48 230.983 292.763 231.067 293.07 231.14C293.377 231.213 293.68 231.293 293.98 231.38C294.287 231.467 294.567 231.58 294.82 231.72C295.08 231.853 295.287 232.033 295.44 232.26C295.6 232.487 295.68 232.783 295.68 233.15C295.68 233.49 295.587 233.807 295.4 234.1C295.213 234.387 294.927 234.62 294.54 234.8C294.16 234.973 293.67 235.06 293.07 235.06ZM300.432 235V233.84L300.402 233.65V231.71C300.402 231.263 300.276 230.92 300.022 230.68C299.776 230.44 299.406 230.32 298.912 230.32C298.572 230.32 298.249 230.377 297.942 230.49C297.636 230.603 297.376 230.753 297.162 230.94L296.842 230.41C297.109 230.183 297.429 230.01 297.802 229.89C298.176 229.763 298.569 229.7 298.982 229.7C299.662 229.7 300.186 229.87 300.552 230.21C300.926 230.543 301.112 231.053 301.112 231.74V235H300.432ZM298.622 235.05C298.229 235.05 297.886 234.987 297.592 234.86C297.306 234.727 297.086 234.547 296.932 234.32C296.779 234.087 296.702 233.82 296.702 233.52C296.702 233.247 296.766 233 296.892 232.78C297.026 232.553 297.239 232.373 297.532 232.24C297.832 232.1 298.232 232.03 298.732 232.03H300.542V232.56H298.752C298.246 232.56 297.892 232.65 297.692 232.83C297.499 233.01 297.402 233.233 297.402 233.5C297.402 233.8 297.519 234.04 297.752 234.22C297.986 234.4 298.312 234.49 298.732 234.49C299.132 234.49 299.476 234.4 299.762 234.22C300.056 234.033 300.269 233.767 300.402 233.42L300.562 233.91C300.429 234.257 300.196 234.533 299.862 234.74C299.536 234.947 299.122 235.05 298.622 235.05ZM305.751 235.05C305.291 235.05 304.877 234.947 304.511 234.74C304.144 234.527 303.854 234.22 303.641 233.82C303.427 233.42 303.321 232.937 303.321 232.37C303.321 231.797 303.427 231.313 303.641 230.92C303.861 230.52 304.154 230.217 304.521 230.01C304.887 229.803 305.297 229.7 305.751 229.7C306.251 229.7 306.697 229.813 307.091 230.04C307.491 230.26 307.804 230.57 308.031 230.97C308.257 231.37 308.371 231.837 308.371 232.37C308.371 232.897 308.257 233.363 308.031 233.77C307.804 234.17 307.491 234.483 307.091 234.71C306.697 234.937 306.251 235.05 305.751 235.05ZM303.041 235V227.58H303.751V231.3L303.651 232.36L303.721 233.42V235H303.041ZM305.701 234.42C306.074 234.42 306.407 234.337 306.701 234.17C306.994 233.997 307.227 233.757 307.401 233.45C307.574 233.137 307.661 232.777 307.661 232.37C307.661 231.957 307.574 231.597 307.401 231.29C307.227 230.983 306.994 230.747 306.701 230.58C306.407 230.407 306.074 230.32 305.701 230.32C305.327 230.32 304.991 230.407 304.691 230.58C304.397 230.747 304.164 230.983 303.991 231.29C303.824 231.597 303.741 231.957 303.741 232.37C303.741 232.777 303.824 233.137 303.991 233.45C304.164 233.757 304.397 233.997 304.691 234.17C304.991 234.337 305.327 234.42 305.701 234.42ZM309.818 235V229.75H310.528V235H309.818ZM310.178 228.59C310.031 228.59 309.908 228.54 309.808 228.44C309.708 228.34 309.658 228.22 309.658 228.08C309.658 227.94 309.708 227.823 309.808 227.73C309.908 227.63 310.031 227.58 310.178 227.58C310.325 227.58 310.448 227.627 310.548 227.72C310.648 227.813 310.698 227.93 310.698 228.07C310.698 228.217 310.648 228.34 310.548 228.44C310.455 228.54 310.331 228.59 310.178 228.59ZM312.504 235V229.75H313.184V231.18L313.114 230.93C313.26 230.53 313.507 230.227 313.854 230.02C314.2 229.807 314.63 229.7 315.144 229.7V230.39C315.117 230.39 315.09 230.39 315.064 230.39C315.037 230.383 315.01 230.38 314.984 230.38C314.43 230.38 313.997 230.55 313.684 230.89C313.37 231.223 313.214 231.7 313.214 232.32V235H312.504ZM319.339 235V233.84L319.309 233.65V231.71C319.309 231.263 319.182 230.92 318.929 230.68C318.682 230.44 318.312 230.32 317.819 230.32C317.479 230.32 317.155 230.377 316.849 230.49C316.542 230.603 316.282 230.753 316.069 230.94L315.749 230.41C316.015 230.183 316.335 230.01 316.709 229.89C317.082 229.763 317.475 229.7 317.889 229.7C318.569 229.7 319.092 229.87 319.459 230.21C319.832 230.543 320.019 231.053 320.019 231.74V235H319.339ZM317.529 235.05C317.135 235.05 316.792 234.987 316.499 234.86C316.212 234.727 315.992 234.547 315.839 234.32C315.685 234.087 315.609 233.82 315.609 233.52C315.609 233.247 315.672 233 315.799 232.78C315.932 232.553 316.145 232.373 316.439 232.24C316.739 232.1 317.139 232.03 317.639 232.03H319.449V232.56H317.659C317.152 232.56 316.799 232.65 316.599 232.83C316.405 233.01 316.309 233.233 316.309 233.5C316.309 233.8 316.425 234.04 316.659 234.22C316.892 234.4 317.219 234.49 317.639 234.49C318.039 234.49 318.382 234.4 318.669 234.22C318.962 234.033 319.175 233.767 319.309 233.42L319.469 233.91C319.335 234.257 319.102 234.533 318.769 234.74C318.442 234.947 318.029 235.05 317.529 235.05ZM324.657 235.05C324.197 235.05 323.784 234.947 323.417 234.74C323.05 234.527 322.76 234.22 322.547 233.82C322.334 233.42 322.227 232.937 322.227 232.37C322.227 231.797 322.334 231.313 322.547 230.92C322.767 230.52 323.06 230.217 323.427 230.01C323.794 229.803 324.204 229.7 324.657 229.7C325.157 229.7 325.604 229.813 325.997 230.04C326.397 230.26 326.71 230.57 326.937 230.97C327.164 231.37 327.277 231.837 327.277 232.37C327.277 232.897 327.164 233.363 326.937 233.77C326.71 234.17 326.397 234.483 325.997 234.71C325.604 234.937 325.157 235.05 324.657 235.05ZM321.947 235V227.58H322.657V231.3L322.557 232.36L322.627 233.42V235H321.947ZM324.607 234.42C324.98 234.42 325.314 234.337 325.607 234.17C325.9 233.997 326.134 233.757 326.307 233.45C326.48 233.137 326.567 232.777 326.567 232.37C326.567 231.957 326.48 231.597 326.307 231.29C326.134 230.983 325.9 230.747 325.607 230.58C325.314 230.407 324.98 230.32 324.607 230.32C324.234 230.32 323.897 230.407 323.597 230.58C323.304 230.747 323.07 230.983 322.897 231.29C322.73 231.597 322.647 231.957 322.647 232.37C322.647 232.777 322.73 233.137 322.897 233.45C323.07 233.757 323.304 233.997 323.597 234.17C323.897 234.337 324.234 234.42 324.607 234.42ZM331.985 235V233.84L331.955 233.65V231.71C331.955 231.263 331.828 230.92 331.575 230.68C331.328 230.44 330.958 230.32 330.465 230.32C330.125 230.32 329.802 230.377 329.495 230.49C329.188 230.603 328.928 230.753 328.715 230.94L328.395 230.41C328.662 230.183 328.982 230.01 329.355 229.89C329.728 229.763 330.122 229.7 330.535 229.7C331.215 229.7 331.738 229.87 332.105 230.21C332.478 230.543 332.665 231.053 332.665 231.74V235H331.985ZM330.175 235.05C329.782 235.05 329.438 234.987 329.145 234.86C328.858 234.727 328.638 234.547 328.485 234.32C328.332 234.087 328.255 233.82 328.255 233.52C328.255 233.247 328.318 233 328.445 232.78C328.578 232.553 328.792 232.373 329.085 232.24C329.385 232.1 329.785 232.03 330.285 232.03H332.095V232.56H330.305C329.798 232.56 329.445 232.65 329.245 232.83C329.052 233.01 328.955 233.233 328.955 233.5C328.955 233.8 329.072 234.04 329.305 234.22C329.538 234.4 329.865 234.49 330.285 234.49C330.685 234.49 331.028 234.4 331.315 234.22C331.608 234.033 331.822 233.767 331.955 233.42L332.115 233.91C331.982 234.257 331.748 234.533 331.415 234.74C331.088 234.947 330.675 235.05 330.175 235.05ZM336.684 235.05C336.184 235.05 335.734 234.937 335.334 234.71C334.94 234.483 334.63 234.17 334.404 233.77C334.177 233.363 334.064 232.897 334.064 232.37C334.064 231.837 334.177 231.37 334.404 230.97C334.63 230.57 334.94 230.26 335.334 230.04C335.734 229.813 336.184 229.7 336.684 229.7C337.144 229.7 337.554 229.803 337.914 230.01C338.28 230.217 338.57 230.52 338.784 230.92C339.004 231.313 339.114 231.797 339.114 232.37C339.114 232.937 339.007 233.42 338.794 233.82C338.58 234.22 338.29 234.527 337.924 234.74C337.564 234.947 337.15 235.05 336.684 235.05ZM336.734 234.42C337.107 234.42 337.44 234.337 337.734 234.17C338.034 233.997 338.267 233.757 338.434 233.45C338.607 233.137 338.694 232.777 338.694 232.37C338.694 231.957 338.607 231.597 338.434 231.29C338.267 230.983 338.034 230.747 337.734 230.58C337.44 230.407 337.107 230.32 336.734 230.32C336.367 230.32 336.037 230.407 335.744 230.58C335.45 230.747 335.217 230.983 335.044 231.29C334.87 231.597 334.784 231.957 334.784 232.37C334.784 232.777 334.87 233.137 335.044 233.45C335.217 233.757 335.45 233.997 335.744 234.17C336.037 234.337 336.367 234.42 336.734 234.42ZM338.714 235V233.42L338.784 232.36L338.684 231.3V227.58H339.394V235H338.714Z" fill="black"/>
<path d="M352.07 298.06C351.55 298.06 351.05 297.977 350.57 297.81C350.097 297.637 349.73 297.417 349.47 297.15L349.76 296.58C350.007 296.82 350.337 297.023 350.75 297.19C351.17 297.35 351.61 297.43 352.07 297.43C352.51 297.43 352.867 297.377 353.14 297.27C353.42 297.157 353.623 297.007 353.75 296.82C353.883 296.633 353.95 296.427 353.95 296.2C353.95 295.927 353.87 295.707 353.71 295.54C353.557 295.373 353.353 295.243 353.1 295.15C352.847 295.05 352.567 294.963 352.26 294.89C351.953 294.817 351.647 294.74 351.34 294.66C351.033 294.573 350.75 294.46 350.49 294.32C350.237 294.18 350.03 293.997 349.87 293.77C349.717 293.537 349.64 293.233 349.64 292.86C349.64 292.513 349.73 292.197 349.91 291.91C350.097 291.617 350.38 291.383 350.76 291.21C351.14 291.03 351.627 290.94 352.22 290.94C352.613 290.94 353.003 290.997 353.39 291.11C353.777 291.217 354.11 291.367 354.39 291.56L354.14 292.15C353.84 291.95 353.52 291.803 353.18 291.71C352.847 291.617 352.523 291.57 352.21 291.57C351.79 291.57 351.443 291.627 351.17 291.74C350.897 291.853 350.693 292.007 350.56 292.2C350.433 292.387 350.37 292.6 350.37 292.84C350.37 293.113 350.447 293.333 350.6 293.5C350.76 293.667 350.967 293.797 351.22 293.89C351.48 293.983 351.763 294.067 352.07 294.14C352.377 294.213 352.68 294.293 352.98 294.38C353.287 294.467 353.567 294.58 353.82 294.72C354.08 294.853 354.287 295.033 354.44 295.26C354.6 295.487 354.68 295.783 354.68 296.15C354.68 296.49 354.587 296.807 354.4 297.1C354.213 297.387 353.927 297.62 353.54 297.8C353.16 297.973 352.67 298.06 352.07 298.06ZM359.432 298V296.84L359.402 296.65V294.71C359.402 294.263 359.276 293.92 359.022 293.68C358.776 293.44 358.406 293.32 357.912 293.32C357.572 293.32 357.249 293.377 356.942 293.49C356.636 293.603 356.376 293.753 356.162 293.94L355.842 293.41C356.109 293.183 356.429 293.01 356.802 292.89C357.176 292.763 357.569 292.7 357.982 292.7C358.662 292.7 359.186 292.87 359.552 293.21C359.926 293.543 360.112 294.053 360.112 294.74V298H359.432ZM357.622 298.05C357.229 298.05 356.886 297.987 356.592 297.86C356.306 297.727 356.086 297.547 355.932 297.32C355.779 297.087 355.702 296.82 355.702 296.52C355.702 296.247 355.766 296 355.892 295.78C356.026 295.553 356.239 295.373 356.532 295.24C356.832 295.1 357.232 295.03 357.732 295.03H359.542V295.56H357.752C357.246 295.56 356.892 295.65 356.692 295.83C356.499 296.01 356.402 296.233 356.402 296.5C356.402 296.8 356.519 297.04 356.752 297.22C356.986 297.4 357.312 297.49 357.732 297.49C358.132 297.49 358.476 297.4 358.762 297.22C359.056 297.033 359.269 296.767 359.402 296.42L359.562 296.91C359.429 297.257 359.196 297.533 358.862 297.74C358.536 297.947 358.122 298.05 357.622 298.05ZM365.331 298V296.84L365.301 296.65V294.71C365.301 294.263 365.174 293.92 364.921 293.68C364.674 293.44 364.304 293.32 363.811 293.32C363.471 293.32 363.147 293.377 362.841 293.49C362.534 293.603 362.274 293.753 362.061 293.94L361.741 293.41C362.007 293.183 362.327 293.01 362.701 292.89C363.074 292.763 363.467 292.7 363.881 292.7C364.561 292.7 365.084 292.87 365.451 293.21C365.824 293.543 366.011 294.053 366.011 294.74V298H365.331ZM363.521 298.05C363.127 298.05 362.784 297.987 362.491 297.86C362.204 297.727 361.984 297.547 361.831 297.32C361.677 297.087 361.601 296.82 361.601 296.52C361.601 296.247 361.664 296 361.791 295.78C361.924 295.553 362.137 295.373 362.431 295.24C362.731 295.1 363.131 295.03 363.631 295.03H365.441V295.56H363.651C363.144 295.56 362.791 295.65 362.591 295.83C362.397 296.01 362.301 296.233 362.301 296.5C362.301 296.8 362.417 297.04 362.651 297.22C362.884 297.4 363.211 297.49 363.631 297.49C364.031 297.49 364.374 297.4 364.661 297.22C364.954 297.033 365.167 296.767 365.301 296.42L365.461 296.91C365.327 297.257 365.094 297.533 364.761 297.74C364.434 297.947 364.021 298.05 363.521 298.05ZM369.599 298.05C369.106 298.05 368.726 297.917 368.459 297.65C368.193 297.383 368.059 297.007 368.059 296.52V291.59H368.769V296.48C368.769 296.787 368.846 297.023 368.999 297.19C369.159 297.357 369.386 297.44 369.679 297.44C369.993 297.44 370.253 297.35 370.459 297.17L370.709 297.68C370.569 297.807 370.399 297.9 370.199 297.96C370.006 298.02 369.806 298.05 369.599 298.05ZM367.119 293.34V292.75H370.369V293.34H367.119ZM372.002 298V290.58H372.712V298H372.002ZM374.687 298V292.75H375.397V298H374.687Z" fill="black"/>
<path d="M293.14 331V324H296.16C296.94 324 297.543 324.157 297.97 324.47C298.403 324.783 298.62 325.227 298.62 325.8C298.62 326.18 298.53 326.5 298.35 326.76C298.177 327.02 297.937 327.217 297.63 327.35C297.33 327.483 297 327.55 296.64 327.55L296.81 327.31C297.257 327.31 297.64 327.38 297.96 327.52C298.287 327.653 298.54 327.857 298.72 328.13C298.9 328.397 298.99 328.73 298.99 329.13C298.99 329.723 298.77 330.183 298.33 330.51C297.897 330.837 297.24 331 296.36 331H293.14ZM293.88 330.39H296.35C296.963 330.39 297.433 330.287 297.76 330.08C298.087 329.867 298.25 329.53 298.25 329.07C298.25 328.617 298.087 328.287 297.76 328.08C297.433 327.867 296.963 327.76 296.35 327.76H293.8V327.15H296.11C296.67 327.15 297.103 327.043 297.41 326.83C297.723 326.617 297.88 326.3 297.88 325.88C297.88 325.453 297.723 325.137 297.41 324.93C297.103 324.717 296.67 324.61 296.11 324.61H293.88V330.39ZM300.529 331V325.75H301.239V331H300.529ZM300.889 324.59C300.742 324.59 300.619 324.54 300.519 324.44C300.419 324.34 300.369 324.22 300.369 324.08C300.369 323.94 300.419 323.823 300.519 323.73C300.619 323.63 300.742 323.58 300.889 323.58C301.036 323.58 301.159 323.627 301.259 323.72C301.359 323.813 301.409 323.93 301.409 324.07C301.409 324.217 301.359 324.34 301.259 324.44C301.166 324.54 301.042 324.59 300.889 324.59ZM303.215 331V323.58H303.925V331H303.215ZM307.73 325.7C308.277 325.7 308.757 325.817 309.17 326.05C309.583 326.277 309.907 326.59 310.14 326.99C310.373 327.39 310.49 327.85 310.49 328.37C310.49 328.89 310.377 329.353 310.15 329.76C309.93 330.16 309.627 330.477 309.24 330.71C308.853 330.937 308.413 331.05 307.92 331.05C307.427 331.05 306.987 330.937 306.6 330.71C306.22 330.483 305.92 330.17 305.7 329.77C305.48 329.363 305.37 328.897 305.37 328.37C305.37 328.343 305.37 328.31 305.37 328.27C305.377 328.23 305.38 328.193 305.38 328.16H309.95V328.69H305.76L306.04 328.48C306.04 328.853 306.12 329.19 306.28 329.49C306.447 329.783 306.67 330.017 306.95 330.19C307.23 330.357 307.553 330.44 307.92 330.44C308.287 330.44 308.61 330.357 308.89 330.19C309.177 330.017 309.4 329.78 309.56 329.48C309.72 329.18 309.8 328.84 309.8 328.46V328.34C309.8 327.94 309.71 327.59 309.53 327.29C309.357 326.99 309.113 326.753 308.8 326.58C308.487 326.407 308.123 326.32 307.71 326.32C307.383 326.32 307.083 326.377 306.81 326.49C306.537 326.603 306.3 326.78 306.1 327.02L305.7 326.55C305.94 326.27 306.233 326.06 306.58 325.92C306.933 325.773 307.317 325.7 307.73 325.7ZM313.345 331.05C312.912 331.05 312.502 330.99 312.115 330.87C311.729 330.743 311.425 330.587 311.205 330.4L311.525 329.84C311.739 330 312.012 330.14 312.345 330.26C312.679 330.373 313.029 330.43 313.395 330.43C313.895 330.43 314.255 330.353 314.475 330.2C314.695 330.04 314.805 329.83 314.805 329.57C314.805 329.377 314.742 329.227 314.615 329.12C314.495 329.007 314.335 328.923 314.135 328.87C313.935 328.81 313.712 328.76 313.465 328.72C313.219 328.68 312.972 328.633 312.725 328.58C312.485 328.527 312.265 328.45 312.065 328.35C311.865 328.243 311.702 328.1 311.575 327.92C311.455 327.74 311.395 327.5 311.395 327.2C311.395 326.913 311.475 326.657 311.635 326.43C311.795 326.203 312.029 326.027 312.335 325.9C312.649 325.767 313.029 325.7 313.475 325.7C313.815 325.7 314.155 325.747 314.495 325.84C314.835 325.927 315.115 326.043 315.335 326.19L315.025 326.76C314.792 326.6 314.542 326.487 314.275 326.42C314.009 326.347 313.742 326.31 313.475 326.31C313.002 326.31 312.652 326.393 312.425 326.56C312.205 326.72 312.095 326.927 312.095 327.18C312.095 327.38 312.155 327.537 312.275 327.65C312.402 327.763 312.565 327.853 312.765 327.92C312.972 327.98 313.195 328.03 313.435 328.07C313.682 328.11 313.925 328.16 314.165 328.22C314.412 328.273 314.635 328.35 314.835 328.45C315.042 328.543 315.205 328.68 315.325 328.86C315.452 329.033 315.515 329.263 315.515 329.55C315.515 329.857 315.429 330.123 315.255 330.35C315.089 330.57 314.842 330.743 314.515 330.87C314.195 330.99 313.805 331.05 313.345 331.05ZM318.988 331.05C318.541 331.05 318.151 330.967 317.818 330.8C317.485 330.633 317.225 330.383 317.038 330.05C316.858 329.717 316.768 329.3 316.768 328.8V325.75H317.478V328.72C317.478 329.28 317.615 329.703 317.888 329.99C318.168 330.27 318.558 330.41 319.058 330.41C319.425 330.41 319.741 330.337 320.008 330.19C320.281 330.037 320.488 329.817 320.628 329.53C320.775 329.243 320.848 328.9 320.848 328.5V325.75H321.558V331H320.878V329.56L320.988 329.82C320.821 330.207 320.561 330.51 320.208 330.73C319.861 330.943 319.455 331.05 318.988 331.05ZM324.887 331L322.557 325.75H323.297L325.437 330.62H325.087L327.257 325.75H327.957L325.617 331H324.887ZM332.091 331V329.84L332.061 329.65V327.71C332.061 327.263 331.934 326.92 331.681 326.68C331.434 326.44 331.064 326.32 330.571 326.32C330.231 326.32 329.907 326.377 329.601 326.49C329.294 326.603 329.034 326.753 328.821 326.94L328.501 326.41C328.767 326.183 329.087 326.01 329.461 325.89C329.834 325.763 330.227 325.7 330.641 325.7C331.321 325.7 331.844 325.87 332.211 326.21C332.584 326.543 332.771 327.053 332.771 327.74V331H332.091ZM330.281 331.05C329.887 331.05 329.544 330.987 329.251 330.86C328.964 330.727 328.744 330.547 328.591 330.32C328.437 330.087 328.361 329.82 328.361 329.52C328.361 329.247 328.424 329 328.551 328.78C328.684 328.553 328.897 328.373 329.191 328.24C329.491 328.1 329.891 328.03 330.391 328.03H332.201V328.56H330.411C329.904 328.56 329.551 328.65 329.351 328.83C329.157 329.01 329.061 329.233 329.061 329.5C329.061 329.8 329.177 330.04 329.411 330.22C329.644 330.4 329.971 330.49 330.391 330.49C330.791 330.49 331.134 330.4 331.421 330.22C331.714 330.033 331.927 329.767 332.061 329.42L332.221 329.91C332.087 330.257 331.854 330.533 331.521 330.74C331.194 330.947 330.781 331.05 330.281 331.05ZM334.699 331V325.75H335.379V327.18L335.309 326.93C335.456 326.53 335.702 326.227 336.049 326.02C336.396 325.807 336.826 325.7 337.339 325.7V326.39C337.312 326.39 337.286 326.39 337.259 326.39C337.232 326.383 337.206 326.38 337.179 326.38C336.626 326.38 336.192 326.55 335.879 326.89C335.566 327.223 335.409 327.7 335.409 328.32V331H334.699Z" fill="black"/>
<path d="M382.14 385V378H382.75L387.58 384.08H387.26V378H387.99V385H387.38L382.56 378.92H382.88V385H382.14ZM392.355 385.05C391.808 385.05 391.328 384.937 390.915 384.71C390.501 384.477 390.178 384.16 389.945 383.76C389.711 383.353 389.595 382.89 389.595 382.37C389.595 381.85 389.705 381.39 389.925 380.99C390.151 380.59 390.458 380.277 390.845 380.05C391.238 379.817 391.678 379.7 392.165 379.7C392.658 379.7 393.095 379.813 393.475 380.04C393.861 380.26 394.165 380.573 394.385 380.98C394.605 381.38 394.715 381.843 394.715 382.37C394.715 382.403 394.711 382.44 394.705 382.48C394.705 382.513 394.705 382.55 394.705 382.59H390.135V382.06H394.325L394.045 382.27C394.045 381.89 393.961 381.553 393.795 381.26C393.635 380.96 393.415 380.727 393.135 380.56C392.855 380.393 392.531 380.31 392.165 380.31C391.805 380.31 391.481 380.393 391.195 380.56C390.908 380.727 390.685 380.96 390.525 381.26C390.365 381.56 390.285 381.903 390.285 382.29V382.4C390.285 382.8 390.371 383.153 390.545 383.46C390.725 383.76 390.971 383.997 391.285 384.17C391.605 384.337 391.968 384.42 392.375 384.42C392.695 384.42 392.991 384.363 393.265 384.25C393.545 384.137 393.785 383.963 393.985 383.73L394.385 384.19C394.151 384.47 393.858 384.683 393.505 384.83C393.158 384.977 392.775 385.05 392.355 385.05ZM396.28 385V379.09C396.28 378.623 396.417 378.247 396.69 377.96C396.963 377.673 397.357 377.53 397.87 377.53C398.07 377.53 398.263 377.557 398.45 377.61C398.637 377.663 398.793 377.747 398.92 377.86L398.68 378.39C398.58 378.303 398.463 378.24 398.33 378.2C398.197 378.153 398.053 378.13 397.9 378.13C397.6 378.13 397.37 378.213 397.21 378.38C397.05 378.547 396.97 378.793 396.97 379.12V379.92L396.99 380.25V385H396.28ZM395.34 380.34V379.75H398.59V380.34H395.34ZM401.209 385.05C400.715 385.05 400.335 384.917 400.069 384.65C399.802 384.383 399.669 384.007 399.669 383.52V378.59H400.379V383.48C400.379 383.787 400.455 384.023 400.609 384.19C400.769 384.357 400.995 384.44 401.289 384.44C401.602 384.44 401.862 384.35 402.069 384.17L402.319 384.68C402.179 384.807 402.009 384.9 401.809 384.96C401.615 385.02 401.415 385.05 401.209 385.05ZM398.729 380.34V379.75H401.979V380.34H398.729ZM405.606 385.05C405.086 385.05 404.619 384.937 404.206 384.71C403.799 384.477 403.479 384.16 403.246 383.76C403.012 383.353 402.896 382.89 402.896 382.37C402.896 381.843 403.012 381.38 403.246 380.98C403.479 380.58 403.799 380.267 404.206 380.04C404.619 379.813 405.086 379.7 405.606 379.7C406.052 379.7 406.456 379.787 406.816 379.96C407.176 380.133 407.459 380.393 407.666 380.74L407.136 381.1C406.956 380.833 406.732 380.637 406.466 380.51C406.199 380.383 405.909 380.32 405.596 380.32C405.222 380.32 404.886 380.407 404.586 380.58C404.286 380.747 404.049 380.983 403.876 381.29C403.702 381.597 403.616 381.957 403.616 382.37C403.616 382.783 403.702 383.143 403.876 383.45C404.049 383.757 404.286 383.997 404.586 384.17C404.886 384.337 405.222 384.42 405.596 384.42C405.909 384.42 406.199 384.357 406.466 384.23C406.732 384.103 406.956 383.91 407.136 383.65L407.666 384.01C407.459 384.35 407.176 384.61 406.816 384.79C406.456 384.963 406.052 385.05 405.606 385.05ZM405.186 387.2C405.019 387.2 404.866 387.18 404.726 387.14C404.592 387.1 404.466 387.043 404.346 386.97L404.516 386.59C404.616 386.65 404.719 386.697 404.826 386.73C404.939 386.763 405.056 386.78 405.176 386.78C405.376 386.78 405.529 386.737 405.636 386.65C405.742 386.57 405.796 386.457 405.796 386.31C405.796 386.177 405.742 386.067 405.636 385.98C405.536 385.893 405.382 385.85 405.176 385.85H404.946L405.186 384.94H405.616L405.466 385.52C405.739 385.54 405.949 385.623 406.096 385.77C406.242 385.923 406.316 386.11 406.316 386.33C406.316 386.597 406.209 386.807 405.996 386.96C405.789 387.12 405.519 387.2 405.186 387.2ZM412.35 385V383.84L412.32 383.65V381.71C412.32 381.263 412.194 380.92 411.94 380.68C411.694 380.44 411.324 380.32 410.83 380.32C410.49 380.32 410.167 380.377 409.86 380.49C409.554 380.603 409.294 380.753 409.08 380.94L408.76 380.41C409.027 380.183 409.347 380.01 409.72 379.89C410.094 379.763 410.487 379.7 410.9 379.7C411.58 379.7 412.104 379.87 412.47 380.21C412.844 380.543 413.03 381.053 413.03 381.74V385H412.35ZM410.54 385.05C410.147 385.05 409.804 384.987 409.51 384.86C409.224 384.727 409.004 384.547 408.85 384.32C408.697 384.087 408.62 383.82 408.62 383.52C408.62 383.247 408.684 383 408.81 382.78C408.944 382.553 409.157 382.373 409.45 382.24C409.75 382.1 410.15 382.03 410.65 382.03H412.46V382.56H410.67C410.164 382.56 409.81 382.65 409.61 382.83C409.417 383.01 409.32 383.233 409.32 383.5C409.32 383.8 409.437 384.04 409.67 384.22C409.904 384.4 410.23 384.49 410.65 384.49C411.05 384.49 411.394 384.4 411.68 384.22C411.974 384.033 412.187 383.767 412.32 383.42L412.48 383.91C412.347 384.257 412.114 384.533 411.78 384.74C411.454 384.947 411.04 385.05 410.54 385.05ZM414.959 385V377.58H415.669V385H414.959ZM420.934 385V383.84L420.904 383.65V381.71C420.904 381.263 420.778 380.92 420.524 380.68C420.278 380.44 419.908 380.32 419.414 380.32C419.074 380.32 418.751 380.377 418.444 380.49C418.138 380.603 417.878 380.753 417.664 380.94L417.344 380.41C417.611 380.183 417.931 380.01 418.304 379.89C418.678 379.763 419.071 379.7 419.484 379.7C420.164 379.7 420.688 379.87 421.054 380.21C421.428 380.543 421.614 381.053 421.614 381.74V385H420.934ZM419.124 385.05C418.731 385.05 418.388 384.987 418.094 384.86C417.808 384.727 417.588 384.547 417.434 384.32C417.281 384.087 417.204 383.82 417.204 383.52C417.204 383.247 417.268 383 417.394 382.78C417.528 382.553 417.741 382.373 418.034 382.24C418.334 382.1 418.734 382.03 419.234 382.03H421.044V382.56H419.254C418.748 382.56 418.394 382.65 418.194 382.83C418.001 383.01 417.904 383.233 417.904 383.5C417.904 383.8 418.021 384.04 418.254 384.22C418.488 384.4 418.814 384.49 419.234 384.49C419.634 384.49 419.978 384.4 420.264 384.22C420.558 384.033 420.771 383.767 420.904 383.42L421.064 383.91C420.931 384.257 420.698 384.533 420.364 384.74C420.038 384.947 419.624 385.05 419.124 385.05Z" fill="black"/>
<path d="M421.07 301.06C420.55 301.06 420.05 300.977 419.57 300.81C419.097 300.637 418.73 300.417 418.47 300.15L418.76 299.58C419.007 299.82 419.337 300.023 419.75 300.19C420.17 300.35 420.61 300.43 421.07 300.43C421.51 300.43 421.867 300.377 422.14 300.27C422.42 300.157 422.623 300.007 422.75 299.82C422.883 299.633 422.95 299.427 422.95 299.2C422.95 298.927 422.87 298.707 422.71 298.54C422.557 298.373 422.353 298.243 422.1 298.15C421.847 298.05 421.567 297.963 421.26 297.89C420.953 297.817 420.647 297.74 420.34 297.66C420.033 297.573 419.75 297.46 419.49 297.32C419.237 297.18 419.03 296.997 418.87 296.77C418.717 296.537 418.64 296.233 418.64 295.86C418.64 295.513 418.73 295.197 418.91 294.91C419.097 294.617 419.38 294.383 419.76 294.21C420.14 294.03 420.627 293.94 421.22 293.94C421.613 293.94 422.003 293.997 422.39 294.11C422.777 294.217 423.11 294.367 423.39 294.56L423.14 295.15C422.84 294.95 422.52 294.803 422.18 294.71C421.847 294.617 421.523 294.57 421.21 294.57C420.79 294.57 420.443 294.627 420.17 294.74C419.897 294.853 419.693 295.007 419.56 295.2C419.433 295.387 419.37 295.6 419.37 295.84C419.37 296.113 419.447 296.333 419.6 296.5C419.76 296.667 419.967 296.797 420.22 296.89C420.48 296.983 420.763 297.067 421.07 297.14C421.377 297.213 421.68 297.293 421.98 297.38C422.287 297.467 422.567 297.58 422.82 297.72C423.08 297.853 423.287 298.033 423.44 298.26C423.6 298.487 423.68 298.783 423.68 299.15C423.68 299.49 423.587 299.807 423.4 300.1C423.213 300.387 422.927 300.62 422.54 300.8C422.16 300.973 421.67 301.06 421.07 301.06ZM428.432 301V299.84L428.402 299.65V297.71C428.402 297.263 428.276 296.92 428.022 296.68C427.776 296.44 427.406 296.32 426.912 296.32C426.572 296.32 426.249 296.377 425.942 296.49C425.636 296.603 425.376 296.753 425.162 296.94L424.842 296.41C425.109 296.183 425.429 296.01 425.802 295.89C426.176 295.763 426.569 295.7 426.982 295.7C427.662 295.7 428.186 295.87 428.552 296.21C428.926 296.543 429.112 297.053 429.112 297.74V301H428.432ZM426.622 301.05C426.229 301.05 425.886 300.987 425.592 300.86C425.306 300.727 425.086 300.547 424.932 300.32C424.779 300.087 424.702 299.82 424.702 299.52C424.702 299.247 424.766 299 424.892 298.78C425.026 298.553 425.239 298.373 425.532 298.24C425.832 298.1 426.232 298.03 426.732 298.03H428.542V298.56H426.752C426.246 298.56 425.892 298.65 425.692 298.83C425.499 299.01 425.402 299.233 425.402 299.5C425.402 299.8 425.519 300.04 425.752 300.22C425.986 300.4 426.312 300.49 426.732 300.49C427.132 300.49 427.476 300.4 427.762 300.22C428.056 300.033 428.269 299.767 428.402 299.42L428.562 299.91C428.429 300.257 428.196 300.533 427.862 300.74C427.536 300.947 427.122 301.05 426.622 301.05ZM431.041 301V293.58H431.751V301H431.041ZM433.766 302.99C433.52 302.99 433.283 302.95 433.056 302.87C432.836 302.79 432.646 302.67 432.486 302.51L432.816 301.98C432.95 302.107 433.093 302.203 433.246 302.27C433.406 302.343 433.583 302.38 433.776 302.38C434.01 302.38 434.21 302.313 434.376 302.18C434.55 302.053 434.713 301.827 434.866 301.5L435.206 300.73L435.286 300.62L437.446 295.75H438.146L435.516 301.63C435.37 301.97 435.206 302.24 435.026 302.44C434.853 302.64 434.663 302.78 434.456 302.86C434.25 302.947 434.02 302.99 433.766 302.99ZM435.166 301.15L432.746 295.75H433.486L435.626 300.57L435.166 301.15ZM442.28 301V299.84L442.25 299.65V297.71C442.25 297.263 442.123 296.92 441.87 296.68C441.623 296.44 441.253 296.32 440.76 296.32C440.42 296.32 440.097 296.377 439.79 296.49C439.483 296.603 439.223 296.753 439.01 296.94L438.69 296.41C438.957 296.183 439.277 296.01 439.65 295.89C440.023 295.763 440.417 295.7 440.83 295.7C441.51 295.7 442.033 295.87 442.4 296.21C442.773 296.543 442.96 297.053 442.96 297.74V301H442.28ZM440.47 301.05C440.077 301.05 439.733 300.987 439.44 300.86C439.153 300.727 438.933 300.547 438.78 300.32C438.627 300.087 438.55 299.82 438.55 299.52C438.55 299.247 438.613 299 438.74 298.78C438.873 298.553 439.087 298.373 439.38 298.24C439.68 298.1 440.08 298.03 440.58 298.03H442.39V298.56H440.6C440.093 298.56 439.74 298.65 439.54 298.83C439.347 299.01 439.25 299.233 439.25 299.5C439.25 299.8 439.367 300.04 439.6 300.22C439.833 300.4 440.16 300.49 440.58 300.49C440.98 300.49 441.323 300.4 441.61 300.22C441.903 300.033 442.117 299.767 442.25 299.42L442.41 299.91C442.277 300.257 442.043 300.533 441.71 300.74C441.383 300.947 440.97 301.05 440.47 301.05ZM447.568 295.7C447.995 295.7 448.368 295.783 448.688 295.95C449.015 296.11 449.268 296.357 449.448 296.69C449.635 297.023 449.728 297.443 449.728 297.95V301H449.018V298.02C449.018 297.467 448.878 297.05 448.598 296.77C448.325 296.483 447.938 296.34 447.438 296.34C447.065 296.34 446.738 296.417 446.458 296.57C446.185 296.717 445.972 296.933 445.818 297.22C445.672 297.5 445.598 297.84 445.598 298.24V301H444.888V295.75H445.568V297.19L445.458 296.92C445.625 296.54 445.892 296.243 446.258 296.03C446.625 295.81 447.062 295.7 447.568 295.7Z" fill="black"/>
<path d="M334.26 185H334.99V192H334.26V185ZM329.88 192H329.14V185H329.88V192ZM334.33 188.77H329.8V188.12H334.33V188.77ZM340.415 192V190.84L340.385 190.65V188.71C340.385 188.263 340.258 187.92 340.005 187.68C339.758 187.44 339.388 187.32 338.895 187.32C338.555 187.32 338.231 187.377 337.925 187.49C337.618 187.603 337.358 187.753 337.145 187.94L336.825 187.41C337.091 187.183 337.411 187.01 337.785 186.89C338.158 186.763 338.551 186.7 338.965 186.7C339.645 186.7 340.168 186.87 340.535 187.21C340.908 187.543 341.095 188.053 341.095 188.74V192H340.415ZM338.605 192.05C338.211 192.05 337.868 191.987 337.575 191.86C337.288 191.727 337.068 191.547 336.915 191.32C336.761 191.087 336.685 190.82 336.685 190.52C336.685 190.247 336.748 190 336.875 189.78C337.008 189.553 337.221 189.373 337.515 189.24C337.815 189.1 338.215 189.03 338.715 189.03H340.525V189.56H338.735C338.228 189.56 337.875 189.65 337.675 189.83C337.481 190.01 337.385 190.233 337.385 190.5C337.385 190.8 337.501 191.04 337.735 191.22C337.968 191.4 338.295 191.49 338.715 191.49C339.115 191.49 339.458 191.4 339.745 191.22C340.038 191.033 340.251 190.767 340.385 190.42L340.545 190.91C340.411 191.257 340.178 191.533 339.845 191.74C339.518 191.947 339.105 192.05 338.605 192.05ZM345.203 192.05C344.683 192.05 344.217 191.937 343.803 191.71C343.397 191.477 343.077 191.16 342.843 190.76C342.61 190.353 342.493 189.89 342.493 189.37C342.493 188.843 342.61 188.38 342.843 187.98C343.077 187.58 343.397 187.267 343.803 187.04C344.217 186.813 344.683 186.7 345.203 186.7C345.65 186.7 346.053 186.787 346.413 186.96C346.773 187.133 347.057 187.393 347.263 187.74L346.733 188.1C346.553 187.833 346.33 187.637 346.063 187.51C345.797 187.383 345.507 187.32 345.193 187.32C344.82 187.32 344.483 187.407 344.183 187.58C343.883 187.747 343.647 187.983 343.473 188.29C343.3 188.597 343.213 188.957 343.213 189.37C343.213 189.783 343.3 190.143 343.473 190.45C343.647 190.757 343.883 190.997 344.183 191.17C344.483 191.337 344.82 191.42 345.193 191.42C345.507 191.42 345.797 191.357 346.063 191.23C346.33 191.103 346.553 190.91 346.733 190.65L347.263 191.01C347.057 191.35 346.773 191.61 346.413 191.79C346.053 191.963 345.65 192.05 345.203 192.05ZM348.658 192V186.75H349.368V192H348.658ZM353.434 192.05C352.934 192.05 352.484 191.937 352.084 191.71C351.69 191.483 351.38 191.17 351.154 190.77C350.927 190.37 350.814 189.903 350.814 189.37C350.814 188.843 350.927 188.38 351.154 187.98C351.38 187.573 351.69 187.26 352.084 187.04C352.484 186.813 352.934 186.7 353.434 186.7C353.9 186.7 354.314 186.803 354.674 187.01C355.04 187.217 355.33 187.52 355.544 187.92C355.757 188.313 355.864 188.797 355.864 189.37C355.864 189.943 355.754 190.43 355.534 190.83C355.32 191.223 355.03 191.527 354.664 191.74C354.304 191.947 353.894 192.05 353.434 192.05ZM353.484 191.42C353.857 191.42 354.19 191.337 354.484 191.17C354.784 190.997 355.017 190.757 355.184 190.45C355.357 190.137 355.444 189.777 355.444 189.37C355.444 188.963 355.357 188.607 355.184 188.3C355.017 187.993 354.784 187.753 354.484 187.58C354.19 187.407 353.857 187.32 353.484 187.32C353.117 187.32 352.787 187.407 352.494 187.58C352.2 187.753 351.967 187.993 351.794 188.3C351.62 188.607 351.534 188.963 351.534 189.37C351.534 189.777 351.62 190.137 351.794 190.45C351.967 190.757 352.2 190.997 352.494 191.17C352.787 191.337 353.117 191.42 353.484 191.42ZM355.434 193.94V190.44L355.534 189.38L355.464 188.33V186.75H356.144V193.94H355.434ZM361.411 192V190.84L361.381 190.65V188.71C361.381 188.263 361.254 187.92 361.001 187.68C360.754 187.44 360.384 187.32 359.891 187.32C359.551 187.32 359.228 187.377 358.921 187.49C358.614 187.603 358.354 187.753 358.141 187.94L357.821 187.41C358.088 187.183 358.408 187.01 358.781 186.89C359.154 186.763 359.548 186.7 359.961 186.7C360.641 186.7 361.164 186.87 361.531 187.21C361.904 187.543 362.091 188.053 362.091 188.74V192H361.411ZM359.601 192.05C359.208 192.05 358.864 191.987 358.571 191.86C358.284 191.727 358.064 191.547 357.911 191.32C357.758 191.087 357.681 190.82 357.681 190.52C357.681 190.247 357.744 190 357.871 189.78C358.004 189.553 358.218 189.373 358.511 189.24C358.811 189.1 359.211 189.03 359.711 189.03H361.521V189.56H359.731C359.224 189.56 358.871 189.65 358.671 189.83C358.478 190.01 358.381 190.233 358.381 190.5C358.381 190.8 358.498 191.04 358.731 191.22C358.964 191.4 359.291 191.49 359.711 191.49C360.111 191.49 360.454 191.4 360.741 191.22C361.034 191.033 361.248 190.767 361.381 190.42L361.541 190.91C361.408 191.257 361.174 191.533 360.841 191.74C360.514 191.947 360.101 192.05 359.601 192.05ZM366.729 192.05C366.269 192.05 365.856 191.947 365.489 191.74C365.123 191.527 364.833 191.22 364.619 190.82C364.406 190.42 364.299 189.937 364.299 189.37C364.299 188.797 364.406 188.313 364.619 187.92C364.839 187.52 365.133 187.217 365.499 187.01C365.866 186.803 366.276 186.7 366.729 186.7C367.229 186.7 367.676 186.813 368.069 187.04C368.469 187.26 368.783 187.57 369.009 187.97C369.236 188.37 369.349 188.837 369.349 189.37C369.349 189.897 369.236 190.363 369.009 190.77C368.783 191.17 368.469 191.483 368.069 191.71C367.676 191.937 367.229 192.05 366.729 192.05ZM364.019 192V184.58H364.729V188.3L364.629 189.36L364.699 190.42V192H364.019ZM366.679 191.42C367.053 191.42 367.386 191.337 367.679 191.17C367.973 190.997 368.206 190.757 368.379 190.45C368.553 190.137 368.639 189.777 368.639 189.37C368.639 188.957 368.553 188.597 368.379 188.29C368.206 187.983 367.973 187.747 367.679 187.58C367.386 187.407 367.053 187.32 366.679 187.32C366.306 187.32 365.969 187.407 365.669 187.58C365.376 187.747 365.143 187.983 364.969 188.29C364.803 188.597 364.719 188.957 364.719 189.37C364.719 189.777 364.803 190.137 364.969 190.45C365.143 190.757 365.376 190.997 365.669 191.17C365.969 191.337 366.306 191.42 366.679 191.42ZM372.967 192.05C372.52 192.05 372.13 191.967 371.797 191.8C371.463 191.633 371.203 191.383 371.017 191.05C370.837 190.717 370.747 190.3 370.747 189.8V186.75H371.457V189.72C371.457 190.28 371.593 190.703 371.867 190.99C372.147 191.27 372.537 191.41 373.037 191.41C373.403 191.41 373.72 191.337 373.987 191.19C374.26 191.037 374.467 190.817 374.607 190.53C374.753 190.243 374.827 189.9 374.827 189.5V186.75H375.537V192H374.857V190.56L374.967 190.82C374.8 191.207 374.54 191.51 374.187 191.73C373.84 191.943 373.433 192.05 372.967 192.05ZM377.515 192V184.58H378.225V192H377.515Z" fill="black"/>
</svg>
