<svg width="35" height="35" viewBox="0 0 35 35" fill="none" xmlns="http://www.w3.org/2000/svg">
<path d="M25.095 0C31.0275 0 35 4.165 35 10.36V24.6592C35 30.8367 31.0275 35 25.095 35H9.9225C3.99 35 0 30.8367 0 24.6592V10.36C0 4.165 3.99 0 9.9225 0H25.095ZM22.7675 12.1992C22.1725 11.6025 21.21 11.6025 20.5975 12.1992L17.5 15.3125L14.385 12.1992C13.7725 11.6025 12.81 11.6025 12.215 12.1992C11.62 12.7942 11.62 13.7742 12.215 14.3675L15.33 17.4842L12.215 20.5817C11.62 21.1942 11.62 22.1567 12.215 22.75C12.5125 23.0475 12.915 23.2067 13.3 23.2067C13.7025 23.2067 14.0875 23.0475 14.385 22.75L17.5 19.6542L20.615 22.75C20.9125 23.0667 21.2975 23.2067 21.6825 23.2067C22.085 23.2067 22.47 23.0475 22.7675 22.75C23.3625 22.1567 23.3625 21.1942 22.7675 20.5992L19.6525 17.4842L22.7675 14.3675C23.3625 13.7742 23.3625 12.7942 22.7675 12.1992Z" fill="#FFAC1C"/>
</svg>
