<svg width="275" height="189" viewBox="0 0 275 189" fill="none" xmlns="http://www.w3.org/2000/svg">
<path d="M133.243 172.351L129.573 177.537L127.287 184.592L121.228 179.551L117.332 171.741L112.326 169.222L107.064 167.343L106.864 158.675L106.389 149.478L99.4147 146.091L91.5462 146.697L86.3311 151.083L81.4009 155.155L77.5491 151.48L74.5283 148.598L68.2891 149.767L63.4672 145.261L65.0211 135.322L68.5622 125.749L61.4424 128.497L54.1884 130.255L53.5009 120.907L57.8566 110.25L50.3718 103.941L40.9847 101.43L32.0002 98.4732L23.0793 97.5109L18.66 97.8724L14.1206 96.3563L8.11209 94.2769L2 92.5872L6.7583 86.6754L11.2576 80.4796L14.9094 73.6736L20.0985 69.2615L28.1413 65.6355L34.9833 60.172L35.1481 54.8164L35.7437 49.6673L38.0393 48.7685L40.6833 48.2803L45.8419 43.9316L46.4187 36.6752L42.1195 29.3365L40.309 21.6786L41.2508 18.8225L42.7976 16.3676L45.3027 16.6774L47.7372 17.2454L49.1922 13.5115L50.1152 9.20259L52.1023 5.22462L54.8735 2L60.1051 3.17813L65.412 3.64516L70.4363 5.7738L75.3948 8.58301L84.8455 14.0794L94.4704 18.5737L107.865 19.5289L118.276 28.8155L132.605 28.9493L146.437 32.9273L157.92 37.8111L169.77 41.2843L178.856 45.6941L187.793 50.6249L185.542 62.3945L192.431 72.3922L202.68 75.4455L212.159 82.5871L216.357 86.5346L220.145 91.4583L227.053 98.9777L234.804 104.772L244.335 108.07L251.947 115.955L261.454 125.821L273 131.947L269.285 138.739L264.39 143.677L259.349 147.741L253.969 150.126L248.38 151.168L243.32 154.127L240.62 159.241L237.088 162.89L231.013 164.885L226.017 170.048L222.175 174.05L218.278 177.983L215.13 181.56L211.745 179.354L206.063 175.467L199.961 173.003L190.235 173.996L181.608 169.246L179.275 178.244L174.123 184.078L168.312 187L162.229 184.005L154.626 180.394L147.36 176.113L140.37 174.08L133.243 172.351Z" fill="#ECE7E2" stroke="#FFAC1C" stroke-width="3" stroke-linejoin="round"/>
<path d="M125.96 139.41L125.26 141H124L127.08 134.01H128.34L131.42 141H130.16L129.46 139.41H125.96ZM128.98 138.32L127.71 135.44L126.44 138.32H128.98ZM134.172 135.54C134.525 135.54 134.842 135.607 135.122 135.74C135.409 135.873 135.652 136.077 135.852 136.35H135.902L136.022 135.64H136.722V141.09C136.722 141.597 136.635 142.02 136.462 142.36C136.289 142.707 136.025 142.967 135.672 143.14C135.319 143.313 134.869 143.4 134.322 143.4C133.935 143.4 133.579 143.37 133.252 143.31C132.932 143.257 132.645 143.173 132.392 143.06V142.25C132.565 142.337 132.755 142.41 132.962 142.47C133.169 142.537 133.392 142.587 133.632 142.62C133.872 142.653 134.119 142.67 134.372 142.67C134.832 142.67 135.192 142.533 135.452 142.26C135.719 141.993 135.852 141.627 135.852 141.16V140.95C135.852 140.87 135.855 140.757 135.862 140.61C135.869 140.457 135.875 140.35 135.882 140.29H135.842C135.655 140.563 135.422 140.767 135.142 140.9C134.869 141.033 134.549 141.1 134.182 141.1C133.489 141.1 132.945 140.857 132.552 140.37C132.165 139.883 131.972 139.203 131.972 138.33C131.972 137.757 132.059 137.263 132.232 136.85C132.412 136.43 132.665 136.107 132.992 135.88C133.319 135.653 133.712 135.54 134.172 135.54ZM134.292 136.28C133.992 136.28 133.735 136.36 133.522 136.52C133.315 136.68 133.155 136.913 133.042 137.22C132.935 137.527 132.882 137.9 132.882 138.34C132.882 139 133.002 139.507 133.242 139.86C133.489 140.207 133.845 140.38 134.312 140.38C134.585 140.38 134.819 140.347 135.012 140.28C135.205 140.207 135.365 140.097 135.492 139.95C135.619 139.797 135.712 139.603 135.772 139.37C135.832 139.137 135.862 138.86 135.862 138.54V138.33C135.862 137.843 135.805 137.45 135.692 137.15C135.585 136.85 135.415 136.63 135.182 136.49C134.949 136.35 134.652 136.28 134.292 136.28ZM135.942 133.6C135.922 133.867 135.845 134.1 135.712 134.3C135.585 134.5 135.409 134.657 135.182 134.77C134.955 134.883 134.682 134.94 134.362 134.94C133.869 134.94 133.495 134.82 133.242 134.58C132.995 134.333 132.859 134.007 132.832 133.6H133.372C133.392 133.78 133.442 133.917 133.522 134.01C133.609 134.097 133.722 134.157 133.862 134.19C134.009 134.217 134.182 134.23 134.382 134.23C134.555 134.23 134.712 134.213 134.852 134.18C134.999 134.147 135.119 134.087 135.212 134C135.312 133.907 135.372 133.773 135.392 133.6H135.942ZM142.174 139.41C142.174 139.917 141.991 140.323 141.624 140.63C141.258 140.93 140.788 141.08 140.214 141.08C139.828 141.08 139.424 141.01 139.004 140.87C138.591 140.73 138.224 140.533 137.904 140.28L138.444 139.41C139.064 139.877 139.664 140.11 140.244 140.11C140.498 140.11 140.698 140.053 140.844 139.94C140.991 139.82 141.064 139.67 141.064 139.49C141.064 139.223 140.711 138.983 140.004 138.77C139.951 138.75 139.911 138.737 139.884 138.73C138.778 138.43 138.224 137.93 138.224 137.23C138.224 136.737 138.414 136.343 138.794 136.05C139.181 135.75 139.681 135.6 140.294 135.6C140.908 135.6 141.488 135.78 142.034 136.14L141.614 136.97C141.181 136.683 140.711 136.54 140.204 136.54C139.938 136.54 139.721 136.59 139.554 136.69C139.388 136.783 139.304 136.927 139.304 137.12C139.304 137.293 139.391 137.42 139.564 137.5C139.684 137.56 139.851 137.617 140.064 137.67C140.284 137.723 140.478 137.777 140.644 137.83C140.811 137.883 140.971 137.943 141.124 138.01C141.284 138.077 141.454 138.17 141.634 138.29C141.994 138.53 142.174 138.903 142.174 139.41ZM147.163 138.56V135.68H148.283V141H147.163V140.03C146.983 140.357 146.733 140.613 146.413 140.8C146.099 140.987 145.759 141.08 145.393 141.08C144.793 141.08 144.306 140.897 143.933 140.53C143.566 140.163 143.383 139.633 143.383 138.94V135.68H144.503V138.6C144.503 139.58 144.909 140.07 145.723 140.07C146.109 140.07 146.446 139.943 146.733 139.69C147.019 139.43 147.163 139.053 147.163 138.56Z" fill="black"/>
<path d="M195.35 134.06L195.2 134.07C194.16 134.07 193.287 133.727 192.58 133.04C191.873 132.347 191.52 131.487 191.52 130.46C191.52 129.427 191.873 128.567 192.58 127.88C193.287 127.187 194.16 126.84 195.2 126.84C196.24 126.84 197.113 127.187 197.82 127.88C198.527 128.567 198.88 129.423 198.88 130.45C198.88 131.23 198.67 131.923 198.25 132.53C197.83 133.13 197.27 133.563 196.57 133.83C196.797 134.13 197.083 134.28 197.43 134.28C197.683 134.28 197.93 134.213 198.17 134.08C198.417 133.947 198.603 133.773 198.73 133.56L199.4 134.49C198.82 135.103 198.157 135.41 197.41 135.41C196.983 135.41 196.573 135.29 196.18 135.05C195.787 134.81 195.51 134.48 195.35 134.06ZM196.95 128.66C196.477 128.167 195.893 127.92 195.2 127.92C194.507 127.92 193.92 128.167 193.44 128.66C192.967 129.153 192.73 129.753 192.73 130.46C192.73 131.16 192.967 131.757 193.44 132.25C193.92 132.743 194.507 132.99 195.2 132.99C195.893 132.99 196.477 132.743 196.95 132.25C197.43 131.757 197.67 131.16 197.67 130.46C197.67 129.753 197.43 129.153 196.95 128.66ZM201.448 132.6C201.768 132.92 202.172 133.08 202.658 133.08C203.145 133.08 203.545 132.92 203.858 132.6C204.178 132.273 204.338 131.853 204.338 131.34C204.338 130.827 204.178 130.41 203.858 130.09C203.545 129.763 203.145 129.6 202.658 129.6C202.172 129.6 201.768 129.763 201.448 130.09C201.135 130.41 200.978 130.827 200.978 131.34C200.978 131.853 201.135 132.273 201.448 132.6ZM204.658 133.29C204.125 133.817 203.458 134.08 202.658 134.08C201.858 134.08 201.192 133.817 200.658 133.29C200.125 132.757 199.858 132.107 199.858 131.34C199.858 130.573 200.125 129.927 200.658 129.4C201.192 128.867 201.858 128.6 202.658 128.6C203.458 128.6 204.125 128.867 204.658 129.4C205.192 129.927 205.458 130.573 205.458 131.34C205.458 132.107 205.192 132.757 204.658 133.29ZM209.582 128.6C210.295 128.6 210.905 128.847 211.412 129.34C211.919 129.833 212.172 130.49 212.172 131.31C212.172 132.13 211.919 132.797 211.412 133.31C210.912 133.823 210.325 134.08 209.652 134.08C208.985 134.08 208.385 133.787 207.852 133.2V134H206.732V126.58H207.852V129.61C208.292 128.937 208.869 128.6 209.582 128.6ZM207.832 131.35C207.832 131.857 207.985 132.273 208.292 132.6C208.599 132.92 208.972 133.08 209.412 133.08C209.852 133.08 210.235 132.92 210.562 132.6C210.889 132.28 211.052 131.867 211.052 131.36C211.052 130.847 210.892 130.423 210.572 130.09C210.252 129.75 209.869 129.58 209.422 129.58C208.975 129.58 208.599 129.75 208.292 130.09C207.985 130.423 207.832 130.843 207.832 131.35ZM217.171 131.56V128.68H218.291V134H217.171V133.03C216.991 133.357 216.741 133.613 216.421 133.8C216.107 133.987 215.767 134.08 215.401 134.08C214.801 134.08 214.314 133.897 213.941 133.53C213.574 133.163 213.391 132.633 213.391 131.94V128.68H214.511V131.6C214.511 132.58 214.917 133.07 215.731 133.07C216.117 133.07 216.454 132.943 216.741 132.69C217.027 132.43 217.171 132.053 217.171 131.56ZM223.705 132.41C223.705 132.917 223.522 133.323 223.155 133.63C222.789 133.93 222.319 134.08 221.745 134.08C221.359 134.08 220.955 134.01 220.535 133.87C220.122 133.73 219.755 133.533 219.435 133.28L219.975 132.41C220.595 132.877 221.195 133.11 221.775 133.11C222.029 133.11 222.229 133.053 222.375 132.94C222.522 132.82 222.595 132.67 222.595 132.49C222.595 132.223 222.242 131.983 221.535 131.77C221.482 131.75 221.442 131.737 221.415 131.73C220.309 131.43 219.755 130.93 219.755 130.23C219.755 129.737 219.945 129.343 220.325 129.05C220.712 128.75 221.212 128.6 221.825 128.6C222.439 128.6 223.019 128.78 223.565 129.14L223.145 129.97C222.712 129.683 222.242 129.54 221.735 129.54C221.469 129.54 221.252 129.59 221.085 129.69C220.919 129.783 220.835 129.927 220.835 130.12C220.835 130.293 220.922 130.42 221.095 130.5C221.215 130.56 221.382 130.617 221.595 130.67C221.815 130.723 222.009 130.777 222.175 130.83C222.342 130.883 222.502 130.943 222.655 131.01C222.815 131.077 222.985 131.17 223.165 131.29C223.525 131.53 223.705 131.903 223.705 132.41ZM226.354 129.58V132.28C226.354 132.533 226.421 132.737 226.554 132.89C226.687 133.037 226.874 133.11 227.114 133.11C227.354 133.11 227.584 132.993 227.804 132.76L228.264 133.55C227.871 133.903 227.434 134.08 226.954 134.08C226.481 134.08 226.074 133.917 225.734 133.59C225.401 133.257 225.234 132.81 225.234 132.25V129.58H224.564V128.68H225.234V127.01H226.354V128.68H227.754V129.58H226.354ZM233.464 134H232.444V133.29C232.004 133.817 231.414 134.08 230.674 134.08C230.12 134.08 229.66 133.923 229.294 133.61C228.934 133.297 228.754 132.88 228.754 132.36C228.754 131.833 228.947 131.44 229.334 131.18C229.72 130.92 230.244 130.79 230.904 130.79H232.354V130.59C232.354 129.883 231.96 129.53 231.174 129.53C230.68 129.53 230.167 129.71 229.634 130.07L229.134 129.37C229.78 128.857 230.514 128.6 231.334 128.6C231.96 128.6 232.47 128.76 232.864 129.08C233.264 129.393 233.464 129.89 233.464 130.57V134ZM232.344 132.02V131.57H231.084C230.277 131.57 229.874 131.823 229.874 132.33C229.874 132.59 229.974 132.79 230.174 132.93C230.374 133.063 230.65 133.13 231.004 133.13C231.364 133.13 231.677 133.03 231.944 132.83C232.21 132.63 232.344 132.36 232.344 132.02ZM236.143 131.12V134H235.023V128.68H236.143V129.65C236.323 129.323 236.57 129.067 236.883 128.88C237.203 128.693 237.546 128.6 237.913 128.6C238.513 128.6 238.996 128.783 239.363 129.15C239.736 129.517 239.923 130.047 239.923 130.74V134H238.803V131.08C238.803 130.1 238.396 129.61 237.583 129.61C237.196 129.61 236.86 129.74 236.573 130C236.286 130.253 236.143 130.627 236.143 131.12Z" fill="black"/>
<path d="M145.02 78.09C145.02 78.5167 144.917 78.88 144.71 79.18C144.503 79.4733 144.207 79.7 143.82 79.86C143.44 80.02 142.99 80.1 142.47 80.1C142.203 80.1 141.947 80.0867 141.7 80.06C141.46 80.0333 141.24 79.9967 141.04 79.95C140.84 79.8967 140.663 79.8333 140.51 79.76V78.9C140.75 79.0067 141.047 79.1033 141.4 79.19C141.76 79.2767 142.13 79.32 142.51 79.32C142.863 79.32 143.16 79.2733 143.4 79.18C143.64 79.0867 143.82 78.9533 143.94 78.78C144.06 78.6067 144.12 78.4033 144.12 78.17C144.12 77.9367 144.07 77.74 143.97 77.58C143.87 77.42 143.697 77.2733 143.45 77.14C143.21 77 142.873 76.8533 142.44 76.7C142.133 76.5867 141.863 76.4667 141.63 76.34C141.403 76.2067 141.213 76.0567 141.06 75.89C140.907 75.7233 140.79 75.5333 140.71 75.32C140.637 75.1067 140.6 74.86 140.6 74.58C140.6 74.2 140.697 73.8767 140.89 73.61C141.083 73.3367 141.35 73.1267 141.69 72.98C142.037 72.8333 142.433 72.76 142.88 72.76C143.273 72.76 143.633 72.7967 143.96 72.87C144.287 72.9433 144.583 73.04 144.85 73.16L144.57 73.93C144.323 73.8233 144.053 73.7333 143.76 73.66C143.473 73.5867 143.173 73.55 142.86 73.55C142.56 73.55 142.31 73.5933 142.11 73.68C141.91 73.7667 141.76 73.89 141.66 74.05C141.56 74.2033 141.51 74.3833 141.51 74.59C141.51 74.83 141.56 75.03 141.66 75.19C141.76 75.35 141.923 75.4933 142.15 75.62C142.377 75.7467 142.683 75.8833 143.07 76.03C143.49 76.1833 143.843 76.35 144.13 76.53C144.423 76.7033 144.643 76.9133 144.79 77.16C144.943 77.4067 145.02 77.7167 145.02 78.09ZM143.56 81.39C143.56 81.6033 143.503 81.7833 143.39 81.93C143.283 82.0833 143.12 82.2 142.9 82.28C142.68 82.36 142.407 82.4 142.08 82.4C141.98 82.4 141.883 82.3933 141.79 82.38C141.703 82.3733 141.633 82.3633 141.58 82.35V81.8C141.64 81.8133 141.72 81.8233 141.82 81.83C141.92 81.8433 142.017 81.85 142.11 81.85C142.35 81.85 142.533 81.8167 142.66 81.75C142.787 81.69 142.85 81.5767 142.85 81.41C142.85 81.2367 142.76 81.11 142.58 81.03C142.407 80.95 142.193 80.8933 141.94 80.86L142.37 80H142.95L142.69 80.53C142.85 80.5633 142.997 80.6133 143.13 80.68C143.263 80.7533 143.367 80.8467 143.44 80.96C143.52 81.0733 143.56 81.2167 143.56 81.39ZM150.608 80H149.588V79.29C149.148 79.8167 148.558 80.08 147.818 80.08C147.265 80.08 146.805 79.9233 146.438 79.61C146.078 79.2967 145.898 78.88 145.898 78.36C145.898 77.8333 146.092 77.44 146.478 77.18C146.865 76.92 147.388 76.79 148.048 76.79H149.498V76.59C149.498 75.8833 149.105 75.53 148.318 75.53C147.825 75.53 147.312 75.71 146.778 76.07L146.278 75.37C146.925 74.8567 147.658 74.6 148.478 74.6C149.105 74.6 149.615 74.76 150.008 75.08C150.408 75.3933 150.608 75.89 150.608 76.57V80ZM149.488 78.02V77.57H148.228C147.422 77.57 147.018 77.8233 147.018 78.33C147.018 78.59 147.118 78.79 147.318 78.93C147.518 79.0633 147.795 79.13 148.148 79.13C148.508 79.13 148.822 79.03 149.088 78.83C149.355 78.63 149.488 78.36 149.488 78.02ZM153.287 77.12V80H152.167V74.68H153.287V75.65C153.447 75.3233 153.687 75.0667 154.007 74.88C154.334 74.6933 154.684 74.6 155.057 74.6C155.897 74.6 156.467 74.9467 156.767 75.64C157.294 74.9467 157.951 74.6 158.737 74.6C159.337 74.6 159.821 74.7833 160.187 75.15C160.561 75.5167 160.747 76.0467 160.747 76.74V80H159.627V77.08C159.627 76.1 159.221 75.61 158.407 75.61C158.027 75.61 157.694 75.7333 157.407 75.98C157.127 76.22 156.981 76.5733 156.967 77.04V80H155.847V77.08C155.847 76.5733 155.757 76.2033 155.577 75.97C155.397 75.73 155.114 75.61 154.727 75.61C154.341 75.61 154.004 75.74 153.717 76C153.431 76.2533 153.287 76.6267 153.287 77.12ZM166.614 80H165.594V79.29C165.154 79.8167 164.564 80.08 163.824 80.08C163.271 80.08 162.811 79.9233 162.444 79.61C162.084 79.2967 161.904 78.88 161.904 78.36C161.904 77.8333 162.097 77.44 162.484 77.18C162.871 76.92 163.394 76.79 164.054 76.79H165.504V76.59C165.504 75.8833 165.111 75.53 164.324 75.53C163.831 75.53 163.317 75.71 162.784 76.07L162.284 75.37C162.931 74.8567 163.664 74.6 164.484 74.6C165.111 74.6 165.621 74.76 166.014 75.08C166.414 75.3933 166.614 75.89 166.614 76.57V80ZM165.494 78.02V77.57H164.234C163.427 77.57 163.024 77.8233 163.024 78.33C163.024 78.59 163.124 78.79 163.324 78.93C163.524 79.0633 163.801 79.13 164.154 79.13C164.514 79.13 164.827 79.03 165.094 78.83C165.361 78.63 165.494 78.36 165.494 78.02ZM169.023 74.68L170.163 76.43L171.343 74.68H172.673L170.813 77.28L172.753 80H171.373L170.103 78.23L168.863 80H167.553L169.443 77.29L167.653 74.68H169.023ZM173.749 74.68H174.869V80H173.749V74.68Z" fill="black"/>
<path d="M75.98 57H73.4V56.48L74.24 56.29V50.58L73.4 50.38V49.86H75.98V50.38L75.14 50.58V56.29L75.98 56.48V57ZM74.71 47.85C74.8433 47.85 74.96 47.8967 75.06 47.99C75.1667 48.0767 75.22 48.2167 75.22 48.41C75.22 48.5967 75.1667 48.7367 75.06 48.83C74.96 48.9233 74.8433 48.97 74.71 48.97C74.5633 48.97 74.44 48.9233 74.34 48.83C74.24 48.7367 74.19 48.5967 74.19 48.41C74.19 48.2167 74.24 48.0767 74.34 47.99C74.44 47.8967 74.5633 47.85 74.71 47.85ZM80.9887 55.41C80.9887 55.9167 80.8053 56.3233 80.4387 56.63C80.072 56.93 79.602 57.08 79.0287 57.08C78.642 57.08 78.2387 57.01 77.8187 56.87C77.4053 56.73 77.0387 56.5333 76.7187 56.28L77.2587 55.41C77.8787 55.8767 78.4787 56.11 79.0587 56.11C79.312 56.11 79.512 56.0533 79.6587 55.94C79.8053 55.82 79.8787 55.67 79.8787 55.49C79.8787 55.2233 79.5253 54.9833 78.8187 54.77C78.7653 54.75 78.7253 54.7367 78.6987 54.73C77.592 54.43 77.0387 53.93 77.0387 53.23C77.0387 52.7367 77.2287 52.3433 77.6087 52.05C77.9953 51.75 78.4953 51.6 79.1087 51.6C79.722 51.6 80.302 51.78 80.8487 52.14L80.4287 52.97C79.9953 52.6833 79.5253 52.54 79.0187 52.54C78.752 52.54 78.5353 52.59 78.3687 52.69C78.202 52.7833 78.1187 52.9267 78.1187 53.12C78.1187 53.2933 78.2053 53.42 78.3787 53.5C78.4987 53.56 78.6653 53.6167 78.8787 53.67C79.0987 53.7233 79.292 53.7767 79.4587 53.83C79.6253 53.8833 79.7853 53.9433 79.9387 54.01C80.0987 54.0767 80.2687 54.17 80.4487 54.29C80.8087 54.53 80.9887 54.9033 80.9887 55.41ZM83.3773 54.12V57H82.2573V51.68H83.3773V52.65C83.5373 52.3233 83.7773 52.0667 84.0973 51.88C84.4239 51.6933 84.7739 51.6 85.1473 51.6C85.9873 51.6 86.5573 51.9467 86.8573 52.64C87.3839 51.9467 88.0406 51.6 88.8273 51.6C89.4273 51.6 89.9106 51.7833 90.2773 52.15C90.6506 52.5167 90.8373 53.0467 90.8373 53.74V57H89.7173V54.08C89.7173 53.1 89.3106 52.61 88.4973 52.61C88.1173 52.61 87.7839 52.7333 87.4973 52.98C87.2173 53.22 87.0706 53.5733 87.0573 54.04V57H85.9373V54.08C85.9373 53.5733 85.8473 53.2033 85.6673 52.97C85.4873 52.73 85.2039 52.61 84.8173 52.61C84.4306 52.61 84.0939 52.74 83.8073 53C83.5206 53.2533 83.3773 53.6267 83.3773 54.12ZM96.704 57H95.684V56.29C95.244 56.8167 94.654 57.08 93.914 57.08C93.3607 57.08 92.9007 56.9233 92.534 56.61C92.174 56.2967 91.994 55.88 91.994 55.36C91.994 54.8333 92.1873 54.44 92.574 54.18C92.9607 53.92 93.484 53.79 94.144 53.79H95.594V53.59C95.594 52.8833 95.2007 52.53 94.414 52.53C93.9207 52.53 93.4073 52.71 92.874 53.07L92.374 52.37C93.0207 51.8567 93.754 51.6 94.574 51.6C95.2007 51.6 95.7107 51.76 96.104 52.08C96.504 52.3933 96.704 52.89 96.704 53.57V57ZM95.584 55.02V54.57H94.324C93.5173 54.57 93.114 54.8233 93.114 55.33C93.114 55.59 93.214 55.79 93.414 55.93C93.614 56.0633 93.8907 56.13 94.244 56.13C94.604 56.13 94.9173 56.03 95.184 55.83C95.4507 55.63 95.584 55.36 95.584 55.02ZM98.8745 59.12C98.3879 59.12 97.9479 58.9433 97.5545 58.59L98.0645 57.68C98.2979 57.9 98.5379 58.01 98.7845 58.01C99.0379 58.01 99.2412 57.92 99.3945 57.74C99.5545 57.56 99.6345 57.3633 99.6345 57.15C99.6345 57.0567 98.9179 55.2333 97.4845 51.68H98.6845L100.275 55.6L101.865 51.68H103.065L100.485 58C100.331 58.3467 100.111 58.62 99.8245 58.82C99.5379 59.02 99.2212 59.12 98.8745 59.12ZM103.947 51.68H105.067V57H103.947V51.68ZM107.811 57H106.691V49.58H107.811V57ZM110.555 57H109.435V49.58H110.555V57ZM112.179 51.68H113.299V57H112.179V51.68Z" fill="black"/>
</svg>
