<svg width="22" height="22" viewBox="0 0 22 22" fill="none" xmlns="http://www.w3.org/2000/svg">
<path d="M15.774 0C19.503 0 22 2.618 22 6.512V15.5001C22 19.3831 19.503 22 15.774 22H6.237C2.508 22 0 19.3831 0 15.5001V6.512C0 2.618 2.508 0 6.237 0H15.774ZM14.311 7.6681C13.937 7.293 13.332 7.293 12.947 7.6681L11 9.625L9.042 7.6681C8.657 7.293 8.052 7.293 7.678 7.6681C7.304 8.0421 7.304 8.6581 7.678 9.031L9.636 10.9901L7.678 12.9371C7.304 13.3221 7.304 13.9271 7.678 14.3C7.865 14.487 8.118 14.5871 8.36 14.5871C8.613 14.5871 8.855 14.487 9.042 14.3L11 12.3541L12.958 14.3C13.145 14.4991 13.387 14.5871 13.629 14.5871C13.882 14.5871 14.124 14.487 14.311 14.3C14.685 13.9271 14.685 13.3221 14.311 12.9481L12.353 10.9901L14.311 9.031C14.685 8.6581 14.685 8.0421 14.311 7.6681Z" fill="#323232"/>
</svg>
