<svg width="24" height="24" viewBox="0 0 24 24" fill="none" xmlns="http://www.w3.org/2000/svg">
<path d="M23.6665 17.0515C23.6665 21.0065 20.8898 23.6665 16.7715 23.6665H7.23984C3.10984 23.6665 0.333172 21.0065 0.333172 17.0515V6.93652C0.333172 2.98269 3.10984 0.333191 7.23984 0.333191L16.7715 0.333191C20.8898 0.333191 23.6665 2.98269 23.6665 6.93652V17.0515ZM17.6348 11.9999C17.6348 11.5099 17.2498 11.1249 16.7598 11.1249H9.3515L12.2448 8.24319C12.4082 8.07986 12.5015 7.84652 12.5015 7.62486C12.5015 7.40436 12.4082 7.18152 12.2448 7.00652C11.9065 6.66819 11.3465 6.66819 11.0082 7.00652L6.60984 11.3815C6.28317 11.7082 6.28317 12.2915 6.60984 12.6182L11.0082 16.9932C11.3465 17.3315 11.9065 17.3315 12.2448 16.9932C12.5832 16.6432 12.5832 16.0949 12.2448 15.7449L9.3515 12.8749H16.7598C17.2498 12.8749 17.6348 12.4782 17.6348 11.9999Z" fill="#323232"/>
</svg>
