<svg width="245" height="212" viewBox="0 0 245 212" fill="none" xmlns="http://www.w3.org/2000/svg">
<path d="M55.1861 6.74306L66.9168 21.8209L68.7371 25.6659L69.5053 29.9257L69.2127 35.3029L67.475 43.5915L68.1697 46.9437L71.6378 49.1762L78.161 47.6203L83.1928 42.9244L87.932 41.319L89.0364 42.8819L93.4407 49.1078L95.5356 53.8839L97.3199 56.4723L99.8994 57.519L108.279 58.3016L111.372 59.9306L116.963 65.6638L116.989 65.6874L118.892 66.8048L120.886 67.1136L122.899 66.7081L124.875 65.6992L126.76 64.8929L140.995 55.7863L145.734 53.8155L167.442 48.5185L168.433 48.278L172.54 48.2049L177.425 50.0955L181.432 52.9951L183.024 55.8924L183.06 59.7868L182.483 65.6308V65.6544L184.085 76.1448L183.298 79.761L177.342 89.6149L176.217 94.2L177.233 96.5716L177.699 97.6607L187.745 100.256L191.385 103.238L194.751 106.911L198.979 110.202L201.561 111.47L211.659 116.437L215.273 119.905L216.434 121.704L216.836 123.429L216.47 125.08L215.271 126.624L210.999 132.274L209.92 138.097L211.53 144.104L215.271 150.292L219.872 156.916L223.459 164.151L232.68 189.99L243 209.762L241.263 210L230.98 207.393L219.27 202.074L181.961 194.184L177.887 192.581L168.823 189.014L153.051 188.849L142.97 186.369L138.066 186.2L136.724 185.896L135.888 185.709L132.248 183.571L129.459 182.826L127.343 182.263L123.319 180.269L119.558 177.734L117.517 175.306L117.197 172.854L117.72 170.919L118.443 169.007L118.836 166.655L117.985 165.127L113.758 163.21L112.083 161.963L111.187 160.04L109.796 155.129L109.064 153.324L107.398 151.541L105.752 150.568L104.216 149.406L103.036 147.091L104.563 143.72L103.557 141.268L101.196 139.778L98.7261 139.283L96.9884 138.439L97.0244 136.482L97.4821 134.33L96.9884 132.894L95.3241 132.699L93.7138 133.33L92.4877 134.177L92.03 134.601L73.5871 128.477L68.9485 129.919L67.805 126.454L65.9579 115.049L64.7318 112.576L63.2222 110.374L62.1552 107.979L58.9136 100.699L57.4867 98.4976L55.8493 97.5735L54.0653 95.4047L52.62 93.0237L52.0347 91.3877L51.0654 90.2137L50.9828 90.1595L44.6785 85.8289L44.0558 85.0204L43.6716 83.9784L43.0399 83.0779L41.6578 82.696L39.7369 82.7549L38.8126 82.5663L34.3016 79.2801L33.6429 77.6441L35.1164 74.8576L31.4112 71.5714L29.2338 66.9439L23.9275 44.8504L21.8056 39.881L18.0735 37.2053L18.7683 36.5288L19.2995 35.4797L15.2193 35.3618L11.4316 34.624L10.7443 34.2232L8.21121 32.7451L7.74149 32.0685L5.75012 29.1996L3.72874 20.4749L2 17.5824L7.02268 15.3688L15.2387 13.8671L22.9791 13.985L29.0177 12.5328L33.6309 9.93732L34.6722 9.35035L41.2046 4.28668L47.8464 2L53.8656 5.03631L55.1861 6.74306Z" fill="#ECE7E2" stroke="#FFAC1C" stroke-width="3" stroke-linejoin="round"/>
<path d="M101.57 110V103H103.51L107.07 107.26H106.17V103H108.47V110H106.53L102.97 105.74H103.87V110H101.57ZM112.847 110V109.03L112.687 108.77V106.93C112.687 106.663 112.604 106.46 112.437 106.32C112.277 106.18 112.014 106.11 111.647 106.11C111.4 106.11 111.15 106.15 110.897 106.23C110.644 106.303 110.427 106.407 110.247 106.54L109.527 105.05C109.847 104.85 110.23 104.697 110.677 104.59C111.124 104.483 111.56 104.43 111.987 104.43C112.927 104.43 113.654 104.64 114.167 105.06C114.687 105.48 114.947 106.147 114.947 107.06V110H112.847ZM111.297 110.1C110.85 110.1 110.477 110.023 110.177 109.87C109.877 109.717 109.65 109.513 109.497 109.26C109.344 109 109.267 108.713 109.267 108.4C109.267 108.047 109.357 107.747 109.537 107.5C109.717 107.253 109.99 107.067 110.357 106.94C110.73 106.813 111.2 106.75 111.767 106.75H112.907V107.84H112.127C111.887 107.84 111.71 107.88 111.597 107.96C111.49 108.033 111.437 108.147 111.437 108.3C111.437 108.427 111.484 108.533 111.577 108.62C111.677 108.7 111.81 108.74 111.977 108.74C112.13 108.74 112.27 108.7 112.397 108.62C112.53 108.533 112.627 108.4 112.687 108.22L112.977 108.89C112.89 109.297 112.707 109.6 112.427 109.8C112.147 110 111.77 110.1 111.297 110.1ZM115.334 110L117.914 106.62L117.854 107.92L115.394 104.53H117.944L119.154 106.34L118.214 106.41L119.544 104.53H121.914L119.444 107.81V106.56L121.964 110H119.374L118.124 108.07L119.074 108.2L117.784 110H115.334ZM125.163 110.1C124.536 110.1 123.979 109.98 123.493 109.74C123.006 109.5 122.623 109.167 122.343 108.74C122.069 108.307 121.933 107.813 121.933 107.26C121.933 106.707 122.069 106.217 122.343 105.79C122.623 105.363 123.006 105.03 123.493 104.79C123.979 104.55 124.536 104.43 125.163 104.43C125.829 104.43 126.399 104.573 126.873 104.86C127.346 105.147 127.673 105.543 127.853 106.05L126.103 106.91C125.989 106.657 125.849 106.473 125.683 106.36C125.523 106.247 125.346 106.19 125.153 106.19C124.986 106.19 124.829 106.23 124.683 106.31C124.543 106.39 124.429 106.51 124.343 106.67C124.263 106.823 124.223 107.02 124.223 107.26C124.223 107.5 124.263 107.7 124.343 107.86C124.429 108.02 124.543 108.14 124.683 108.22C124.829 108.3 124.986 108.34 125.153 108.34C125.346 108.34 125.523 108.283 125.683 108.17C125.849 108.057 125.989 107.873 126.103 107.62L127.853 108.48C127.673 108.987 127.346 109.383 126.873 109.67C126.399 109.957 125.829 110.1 125.163 110.1ZM124.473 112.4C124.306 112.4 124.129 112.38 123.943 112.34C123.756 112.3 123.606 112.25 123.493 112.19L123.773 111.36C123.846 111.387 123.933 111.413 124.033 111.44C124.139 111.467 124.253 111.48 124.373 111.48C124.546 111.48 124.669 111.457 124.743 111.41C124.816 111.363 124.853 111.307 124.853 111.24C124.853 111.18 124.819 111.13 124.753 111.09C124.693 111.057 124.589 111.04 124.443 111.04H124.033L124.303 109.9H125.463L125.323 110.52C125.636 110.56 125.856 110.66 125.983 110.82C126.109 110.98 126.173 111.147 126.173 111.32C126.173 111.653 126.016 111.917 125.703 112.11C125.396 112.303 124.986 112.4 124.473 112.4ZM128.375 110V104.53H130.635V110H128.375ZM133.187 110L130.987 104.53H133.307L134.977 108.97H133.807L135.587 104.53H137.727L135.527 110H133.187ZM141.187 110V109.03L141.027 108.77V106.93C141.027 106.663 140.944 106.46 140.777 106.32C140.617 106.18 140.354 106.11 139.987 106.11C139.74 106.11 139.49 106.15 139.237 106.23C138.984 106.303 138.767 106.407 138.587 106.54L137.867 105.05C138.187 104.85 138.57 104.697 139.017 104.59C139.464 104.483 139.9 104.43 140.327 104.43C141.267 104.43 141.994 104.64 142.507 105.06C143.027 105.48 143.287 106.147 143.287 107.06V110H141.187ZM139.637 110.1C139.19 110.1 138.817 110.023 138.517 109.87C138.217 109.717 137.99 109.513 137.837 109.26C137.684 109 137.607 108.713 137.607 108.4C137.607 108.047 137.697 107.747 137.877 107.5C138.057 107.253 138.33 107.067 138.697 106.94C139.07 106.813 139.54 106.75 140.107 106.75H141.247V107.84H140.467C140.227 107.84 140.05 107.88 139.937 107.96C139.83 108.033 139.777 108.147 139.777 108.3C139.777 108.427 139.824 108.533 139.917 108.62C140.017 108.7 140.15 108.74 140.317 108.74C140.47 108.74 140.61 108.7 140.737 108.62C140.87 108.533 140.967 108.4 141.027 108.22L141.317 108.89C141.23 109.297 141.047 109.6 140.767 109.8C140.487 110 140.11 110.1 139.637 110.1ZM148.064 104.43C148.484 104.43 148.864 104.517 149.204 104.69C149.544 104.857 149.81 105.12 150.004 105.48C150.204 105.84 150.304 106.307 150.304 106.88V110H148.044V107.27C148.044 106.93 147.984 106.69 147.864 106.55C147.744 106.403 147.58 106.33 147.374 106.33C147.22 106.33 147.077 106.367 146.944 106.44C146.817 106.507 146.714 106.62 146.634 106.78C146.56 106.94 146.524 107.157 146.524 107.43V110H144.264V104.53H146.414V106.13L145.984 105.67C146.197 105.257 146.484 104.947 146.844 104.74C147.21 104.533 147.617 104.43 148.064 104.43Z" fill="black"/>
<path d="M125.03 138H121.97V131.01H124.69C125.163 131.01 125.57 131.067 125.91 131.18C126.257 131.293 126.513 131.447 126.68 131.64C127 132 127.16 132.407 127.16 132.86C127.16 133.407 126.987 133.813 126.64 134.08C126.513 134.173 126.427 134.233 126.38 134.26C126.333 134.28 126.25 134.317 126.13 134.37C126.563 134.463 126.907 134.66 127.16 134.96C127.42 135.253 127.55 135.62 127.55 136.06C127.55 136.547 127.383 136.977 127.05 137.35C126.657 137.783 125.983 138 125.03 138ZM123.15 133.91H124.65C125.503 133.91 125.93 133.62 125.93 133.04C125.93 132.707 125.827 132.467 125.62 132.32C125.413 132.173 125.093 132.1 124.66 132.1H123.15V133.91ZM123.15 136.91H125C125.433 136.91 125.763 136.843 125.99 136.71C126.223 136.57 126.34 136.31 126.34 135.93C126.34 135.31 125.843 135 124.85 135H123.15V136.91ZM133.181 138H132.161V137.29C131.721 137.817 131.131 138.08 130.391 138.08C129.837 138.08 129.377 137.923 129.011 137.61C128.651 137.297 128.471 136.88 128.471 136.36C128.471 135.833 128.664 135.44 129.051 135.18C129.437 134.92 129.961 134.79 130.621 134.79H132.071V134.59C132.071 133.883 131.677 133.53 130.891 133.53C130.397 133.53 129.884 133.71 129.351 134.07L128.851 133.37C129.497 132.857 130.231 132.6 131.051 132.6C131.677 132.6 132.187 132.76 132.581 133.08C132.981 133.393 133.181 133.89 133.181 134.57V138ZM132.061 136.02V135.57H130.801C129.994 135.57 129.591 135.823 129.591 136.33C129.591 136.59 129.691 136.79 129.891 136.93C130.091 137.063 130.367 137.13 130.721 137.13C131.081 137.13 131.394 137.03 131.661 136.83C131.927 136.63 132.061 136.36 132.061 136.02ZM137.59 132.6C138.303 132.6 138.913 132.847 139.42 133.34C139.926 133.833 140.18 134.49 140.18 135.31C140.18 136.13 139.926 136.797 139.42 137.31C138.92 137.823 138.333 138.08 137.66 138.08C136.993 138.08 136.393 137.787 135.86 137.2V138H134.74V130.58H135.86V133.61C136.3 132.937 136.876 132.6 137.59 132.6ZM135.84 135.35C135.84 135.857 135.993 136.273 136.3 136.6C136.606 136.92 136.98 137.08 137.42 137.08C137.86 137.08 138.243 136.92 138.57 136.6C138.896 136.28 139.06 135.867 139.06 135.36C139.06 134.847 138.9 134.423 138.58 134.09C138.26 133.75 137.876 133.58 137.43 133.58C136.983 133.58 136.606 133.75 136.3 134.09C135.993 134.423 135.84 134.843 135.84 135.35ZM143.158 132.54C143.672 132.54 144.122 132.643 144.508 132.85C144.895 133.057 145.195 133.363 145.408 133.77C145.628 134.177 145.738 134.68 145.738 135.28C145.738 135.867 145.638 136.37 145.438 136.79C145.245 137.21 144.968 137.533 144.608 137.76C144.255 137.987 143.842 138.1 143.368 138.1C142.915 138.1 142.522 138 142.188 137.8C141.855 137.6 141.598 137.32 141.418 136.96C141.245 136.593 141.158 136.167 141.158 135.68V135.15H144.828C144.815 134.543 144.658 134.083 144.358 133.77C144.065 133.45 143.652 133.29 143.118 133.29C142.778 133.29 142.475 133.323 142.208 133.39C141.948 133.45 141.678 133.54 141.398 133.66V132.89C141.672 132.77 141.942 132.683 142.208 132.63C142.475 132.57 142.792 132.54 143.158 132.54ZM142.078 135.85C142.085 136.15 142.132 136.417 142.218 136.65C142.312 136.877 142.455 137.057 142.648 137.19C142.842 137.317 143.085 137.38 143.378 137.38C143.798 137.38 144.128 137.247 144.368 136.98C144.615 136.707 144.762 136.33 144.808 135.85H142.078ZM148.223 138H147.103V130.58H148.223V134.94L150.383 132.68H151.823L149.803 134.79L151.973 138H150.613L149.033 135.67L148.223 136.49V138Z" fill="black"/>
<path d="M145.16 161.93C145.567 161.93 145.917 161.863 146.21 161.73C146.503 161.59 146.81 161.37 147.13 161.07L147.89 161.85C147.15 162.67 146.25 163.08 145.19 163.08C144.137 163.08 143.26 162.74 142.56 162.06C141.867 161.38 141.52 160.52 141.52 159.48C141.52 158.44 141.873 157.573 142.58 156.88C143.293 156.187 144.19 155.84 145.27 155.84C146.357 155.84 147.263 156.24 147.99 157.04L147.24 157.86C146.907 157.54 146.59 157.317 146.29 157.19C145.997 157.063 145.65 157 145.25 157C144.543 157 143.95 157.23 143.47 157.69C142.99 158.143 142.75 158.727 142.75 159.44C142.75 160.147 142.987 160.74 143.46 161.22C143.94 161.693 144.507 161.93 145.16 161.93ZM152.825 160.56V157.68H153.945V163H152.825V162.03C152.645 162.357 152.395 162.613 152.075 162.8C151.762 162.987 151.422 163.08 151.055 163.08C150.455 163.08 149.968 162.897 149.595 162.53C149.228 162.163 149.045 161.633 149.045 160.94V157.68H150.165V160.6C150.165 161.58 150.572 162.07 151.385 162.07C151.772 162.07 152.108 161.943 152.395 161.69C152.682 161.43 152.825 161.053 152.825 160.56ZM156.69 163H155.57V155.58H156.69V163ZM159.694 157.24V157.68H161.094V158.58H159.694V163H158.574V158.58H157.904V157.68H158.574V157.27C158.574 156.71 158.741 156.267 159.074 155.94C159.414 155.607 159.821 155.44 160.294 155.44C160.774 155.44 161.211 155.617 161.604 155.97L161.144 156.76C160.924 156.527 160.694 156.41 160.454 156.41C160.214 156.41 160.027 156.487 159.894 156.64C159.761 156.787 159.694 156.987 159.694 157.24ZM166.433 163H165.413V162.29C164.973 162.817 164.383 163.08 163.643 163.08C163.089 163.08 162.629 162.923 162.263 162.61C161.903 162.297 161.723 161.88 161.723 161.36C161.723 160.833 161.916 160.44 162.303 160.18C162.689 159.92 163.213 159.79 163.873 159.79H165.323V159.59C165.323 158.883 164.929 158.53 164.143 158.53C163.649 158.53 163.136 158.71 162.603 159.07L162.103 158.37C162.749 157.857 163.483 157.6 164.303 157.6C164.929 157.6 165.439 157.76 165.833 158.08C166.233 158.393 166.433 158.89 166.433 159.57V163ZM165.313 161.02V160.57H164.053C163.246 160.57 162.843 160.823 162.843 161.33C162.843 161.59 162.943 161.79 163.143 161.93C163.343 162.063 163.619 162.13 163.973 162.13C164.333 162.13 164.646 162.03 164.913 161.83C165.179 161.63 165.313 161.36 165.313 161.02Z" fill="black"/>
<path d="M177.95 179.66C177.477 179.167 176.893 178.92 176.2 178.92C175.507 178.92 174.92 179.167 174.44 179.66C173.967 180.153 173.73 180.753 173.73 181.46C173.73 182.16 173.967 182.757 174.44 183.25C174.92 183.743 175.507 183.99 176.2 183.99C176.893 183.99 177.477 183.743 177.95 183.25C178.43 182.757 178.67 182.16 178.67 181.46C178.67 180.753 178.43 180.153 177.95 179.66ZM178.82 184.04C178.113 184.727 177.24 185.07 176.2 185.07C175.16 185.07 174.287 184.727 173.58 184.04C172.873 183.347 172.52 182.487 172.52 181.46C172.52 180.427 172.873 179.567 173.58 178.88C174.287 178.187 175.16 177.84 176.2 177.84C177.24 177.84 178.113 178.187 178.82 178.88C179.527 179.567 179.88 180.427 179.88 181.46C179.88 182.487 179.527 183.347 178.82 184.04ZM183.998 180.73C183.445 180.73 183.028 180.91 182.748 181.27C182.468 181.63 182.328 182.113 182.328 182.72V185H181.208V179.68H182.328V180.75C182.508 180.417 182.752 180.143 183.058 179.93C183.372 179.717 183.702 179.607 184.048 179.6L184.058 180.73C184.038 180.73 184.018 180.73 183.998 180.73ZM187.353 185.08C186.68 185.08 186.093 184.827 185.593 184.32C185.093 183.813 184.843 183.147 184.843 182.32C184.843 181.493 185.1 180.833 185.613 180.34C186.126 179.847 186.736 179.6 187.443 179.6C188.156 179.6 188.73 179.9 189.163 180.5V177.58H190.283V185H189.163V184.2C188.75 184.787 188.146 185.08 187.353 185.08ZM185.963 182.37C185.963 182.877 186.126 183.29 186.453 183.61C186.78 183.93 187.163 184.09 187.603 184.09C188.043 184.09 188.416 183.93 188.723 183.61C189.03 183.283 189.183 182.867 189.183 182.36C189.183 181.853 189.03 181.43 188.723 181.09C188.416 180.75 188.04 180.58 187.593 180.58C187.146 180.58 186.763 180.75 186.443 181.09C186.123 181.43 185.963 181.857 185.963 182.37ZM195.622 182.56V179.68H196.742V185H195.622V184.03C195.442 184.357 195.192 184.613 194.872 184.8C194.558 184.987 194.218 185.08 193.852 185.08C193.252 185.08 192.765 184.897 192.392 184.53C192.025 184.163 191.842 183.633 191.842 182.94V179.68H192.962V182.6C192.962 183.58 193.368 184.07 194.182 184.07C194.568 184.07 194.905 183.943 195.192 183.69C195.478 183.43 195.622 183.053 195.622 182.56ZM201.217 179.6C201.93 179.6 202.54 179.847 203.047 180.34C203.553 180.833 203.807 181.49 203.807 182.31C203.807 183.13 203.553 183.797 203.047 184.31C202.547 184.823 201.96 185.08 201.287 185.08C200.62 185.08 200.02 184.787 199.487 184.2V185H198.367V177.58H199.487V180.61C199.927 179.937 200.503 179.6 201.217 179.6ZM199.467 182.35C199.467 182.857 199.62 183.273 199.927 183.6C200.233 183.92 200.607 184.08 201.047 184.08C201.487 184.08 201.87 183.92 202.197 183.6C202.523 183.28 202.687 182.867 202.687 182.36C202.687 181.847 202.527 181.423 202.207 181.09C201.887 180.75 201.503 180.58 201.057 180.58C200.61 180.58 200.233 180.75 199.927 181.09C199.62 181.423 199.467 181.843 199.467 182.35ZM209.395 185H208.375V184.29C207.935 184.817 207.345 185.08 206.605 185.08C206.052 185.08 205.592 184.923 205.225 184.61C204.865 184.297 204.685 183.88 204.685 183.36C204.685 182.833 204.879 182.44 205.265 182.18C205.652 181.92 206.175 181.79 206.835 181.79H208.285V181.59C208.285 180.883 207.892 180.53 207.105 180.53C206.612 180.53 206.099 180.71 205.565 181.07L205.065 180.37C205.712 179.857 206.445 179.6 207.265 179.6C207.892 179.6 208.402 179.76 208.795 180.08C209.195 180.393 209.395 180.89 209.395 181.57V185ZM208.275 183.02V182.57H207.015C206.209 182.57 205.805 182.823 205.805 183.33C205.805 183.59 205.905 183.79 206.105 183.93C206.305 184.063 206.582 184.13 206.935 184.13C207.295 184.13 207.609 184.03 207.875 183.83C208.142 183.63 208.275 183.36 208.275 183.02ZM213.125 185.08C212.451 185.08 211.865 184.827 211.365 184.32C210.865 183.813 210.615 183.147 210.615 182.32C210.615 181.493 210.871 180.833 211.385 180.34C211.898 179.847 212.508 179.6 213.215 179.6C213.928 179.6 214.501 179.9 214.935 180.5V177.58H216.055V185H214.935V184.2C214.521 184.787 213.918 185.08 213.125 185.08ZM211.735 182.37C211.735 182.877 211.898 183.29 212.225 183.61C212.551 183.93 212.935 184.09 213.375 184.09C213.815 184.09 214.188 183.93 214.495 183.61C214.801 183.283 214.955 182.867 214.955 182.36C214.955 181.853 214.801 181.43 214.495 181.09C214.188 180.75 213.811 180.58 213.365 180.58C212.918 180.58 212.535 180.75 212.215 181.09C211.895 181.43 211.735 181.857 211.735 182.37Z" fill="black"/>
<path d="M134.02 76.09C134.02 76.5167 133.917 76.88 133.71 77.18C133.503 77.4733 133.207 77.7 132.82 77.86C132.44 78.02 131.99 78.1 131.47 78.1C131.203 78.1 130.947 78.0867 130.7 78.06C130.46 78.0333 130.24 77.9967 130.04 77.95C129.84 77.8967 129.663 77.8333 129.51 77.76V76.9C129.75 77.0067 130.047 77.1033 130.4 77.19C130.76 77.2767 131.13 77.32 131.51 77.32C131.863 77.32 132.16 77.2733 132.4 77.18C132.64 77.0867 132.82 76.9533 132.94 76.78C133.06 76.6067 133.12 76.4033 133.12 76.17C133.12 75.9367 133.07 75.74 132.97 75.58C132.87 75.42 132.697 75.2733 132.45 75.14C132.21 75 131.873 74.8533 131.44 74.7C131.133 74.5867 130.863 74.4667 130.63 74.34C130.403 74.2067 130.213 74.0567 130.06 73.89C129.907 73.7233 129.79 73.5333 129.71 73.32C129.637 73.1067 129.6 72.86 129.6 72.58C129.6 72.2 129.697 71.8767 129.89 71.61C130.083 71.3367 130.35 71.1267 130.69 70.98C131.037 70.8333 131.433 70.76 131.88 70.76C132.273 70.76 132.633 70.7967 132.96 70.87C133.287 70.9433 133.583 71.04 133.85 71.16L133.57 71.93C133.323 71.8233 133.053 71.7333 132.76 71.66C132.473 71.5867 132.173 71.55 131.86 71.55C131.56 71.55 131.31 71.5933 131.11 71.68C130.91 71.7667 130.76 71.89 130.66 72.05C130.56 72.2033 130.51 72.3833 130.51 72.59C130.51 72.83 130.56 73.03 130.66 73.19C130.76 73.35 130.923 73.4933 131.15 73.62C131.377 73.7467 131.683 73.8833 132.07 74.03C132.49 74.1833 132.843 74.35 133.13 74.53C133.423 74.7033 133.643 74.9133 133.79 75.16C133.943 75.4067 134.02 75.7167 134.02 76.09ZM132.56 79.39C132.56 79.6033 132.503 79.7833 132.39 79.93C132.283 80.0833 132.12 80.2 131.9 80.28C131.68 80.36 131.407 80.4 131.08 80.4C130.98 80.4 130.883 80.3933 130.79 80.38C130.703 80.3733 130.633 80.3633 130.58 80.35V79.8C130.64 79.8133 130.72 79.8233 130.82 79.83C130.92 79.8433 131.017 79.85 131.11 79.85C131.35 79.85 131.533 79.8167 131.66 79.75C131.787 79.69 131.85 79.5767 131.85 79.41C131.85 79.2367 131.76 79.11 131.58 79.03C131.407 78.95 131.193 78.8933 130.94 78.86L131.37 78H131.95L131.69 78.53C131.85 78.5633 131.997 78.6133 132.13 78.68C132.263 78.7533 132.367 78.8467 132.44 78.96C132.52 79.0733 132.56 79.2167 132.56 79.39ZM139.608 78H138.588V77.29C138.148 77.8167 137.558 78.08 136.818 78.08C136.265 78.08 135.805 77.9233 135.438 77.61C135.078 77.2967 134.898 76.88 134.898 76.36C134.898 75.8333 135.092 75.44 135.478 75.18C135.865 74.92 136.388 74.79 137.048 74.79H138.498V74.59C138.498 73.8833 138.105 73.53 137.318 73.53C136.825 73.53 136.312 73.71 135.778 74.07L135.278 73.37C135.925 72.8567 136.658 72.6 137.478 72.6C138.105 72.6 138.615 72.76 139.008 73.08C139.408 73.3933 139.608 73.89 139.608 74.57V78ZM138.488 76.02V75.57H137.228C136.422 75.57 136.018 75.8233 136.018 76.33C136.018 76.59 136.118 76.79 136.318 76.93C136.518 77.0633 136.795 77.13 137.148 77.13C137.508 77.13 137.822 77.03 138.088 76.83C138.355 76.63 138.488 76.36 138.488 76.02ZM142.287 75.12V78H141.167V70.59H142.287V73.65C142.447 73.3233 142.687 73.0667 143.007 72.88C143.334 72.6933 143.684 72.6 144.057 72.6C144.657 72.6 145.141 72.7833 145.507 73.15C145.881 73.5167 146.067 74.0467 146.067 74.74V78H144.947V75.08C144.947 74.1 144.541 73.61 143.727 73.61C143.341 73.61 143.004 73.74 142.717 74C142.431 74.2533 142.287 74.6267 142.287 75.12ZM150.482 72.6C151.196 72.6 151.806 72.8467 152.312 73.34C152.819 73.8333 153.072 74.49 153.072 75.31C153.072 76.13 152.819 76.7967 152.312 77.31C151.812 77.8233 151.226 78.08 150.552 78.08C149.886 78.08 149.286 77.7867 148.752 77.2V78H147.632V70.58H148.752V73.61C149.192 72.9367 149.769 72.6 150.482 72.6ZM148.732 75.35C148.732 75.8567 148.886 76.2733 149.192 76.6C149.499 76.92 149.872 77.08 150.312 77.08C150.752 77.08 151.136 76.92 151.462 76.6C151.789 76.28 151.952 75.8667 151.952 75.36C151.952 74.8467 151.792 74.4233 151.472 74.09C151.152 73.75 150.769 73.58 150.322 73.58C149.876 73.58 149.499 73.75 149.192 74.09C148.886 74.4233 148.732 74.8433 148.732 75.35ZM158.071 75.56V72.68H159.191V78H158.071V77.03C157.891 77.3567 157.641 77.6133 157.321 77.8C157.008 77.9867 156.668 78.08 156.301 78.08C155.701 78.08 155.214 77.8967 154.841 77.53C154.474 77.1633 154.291 76.6333 154.291 75.94V72.68H155.411V75.6C155.411 76.58 155.818 77.07 156.631 77.07C157.018 77.07 157.354 76.9433 157.641 76.69C157.928 76.43 158.071 76.0533 158.071 75.56ZM160.646 73.66V72.7H164.806V73.71L161.816 77.03H164.966V78H160.446V76.91L163.356 73.66H160.646Z" fill="black"/>
<path d="M60.02 60.09C60.02 60.5167 59.9167 60.88 59.71 61.18C59.5033 61.4733 59.2067 61.7 58.82 61.86C58.44 62.02 57.99 62.1 57.47 62.1C57.2033 62.1 56.9467 62.0867 56.7 62.06C56.46 62.0333 56.24 61.9967 56.04 61.95C55.84 61.8967 55.6633 61.8333 55.51 61.76V60.9C55.75 61.0067 56.0467 61.1033 56.4 61.19C56.76 61.2767 57.13 61.32 57.51 61.32C57.8633 61.32 58.16 61.2733 58.4 61.18C58.64 61.0867 58.82 60.9533 58.94 60.78C59.06 60.6067 59.12 60.4033 59.12 60.17C59.12 59.9367 59.07 59.74 58.97 59.58C58.87 59.42 58.6967 59.2733 58.45 59.14C58.21 59 57.8733 58.8533 57.44 58.7C57.1333 58.5867 56.8633 58.4667 56.63 58.34C56.4033 58.2067 56.2133 58.0567 56.06 57.89C55.9067 57.7233 55.79 57.5333 55.71 57.32C55.6367 57.1067 55.6 56.86 55.6 56.58C55.6 56.2 55.6967 55.8767 55.89 55.61C56.0833 55.3367 56.35 55.1267 56.69 54.98C57.0367 54.8333 57.4333 54.76 57.88 54.76C58.2733 54.76 58.6333 54.7967 58.96 54.87C59.2867 54.9433 59.5833 55.04 59.85 55.16L59.57 55.93C59.3233 55.8233 59.0533 55.7333 58.76 55.66C58.4733 55.5867 58.1733 55.55 57.86 55.55C57.56 55.55 57.31 55.5933 57.11 55.68C56.91 55.7667 56.76 55.89 56.66 56.05C56.56 56.2033 56.51 56.3833 56.51 56.59C56.51 56.83 56.56 57.03 56.66 57.19C56.76 57.35 56.9233 57.4933 57.15 57.62C57.3767 57.7467 57.6833 57.8833 58.07 58.03C58.49 58.1833 58.8433 58.35 59.13 58.53C59.4233 58.7033 59.6433 58.9133 59.79 59.16C59.9433 59.4067 60.02 59.7167 60.02 60.09ZM58.56 63.39C58.56 63.6033 58.5033 63.7833 58.39 63.93C58.2833 64.0833 58.12 64.2 57.9 64.28C57.68 64.36 57.4067 64.4 57.08 64.4C56.98 64.4 56.8833 64.3933 56.79 64.38C56.7033 64.3733 56.6333 64.3633 56.58 64.35V63.8C56.64 63.8133 56.72 63.8233 56.82 63.83C56.92 63.8433 57.0167 63.85 57.11 63.85C57.35 63.85 57.5333 63.8167 57.66 63.75C57.7867 63.69 57.85 63.5767 57.85 63.41C57.85 63.2367 57.76 63.11 57.58 63.03C57.4067 62.95 57.1933 62.8933 56.94 62.86L57.37 62H57.95L57.69 62.53C57.85 62.5633 57.9967 62.6133 58.13 62.68C58.2633 62.7533 58.3667 62.8467 58.44 62.96C58.52 63.0733 58.56 63.2167 58.56 63.39ZM62.9983 56.54C63.5116 56.54 63.9616 56.6433 64.3483 56.85C64.7349 57.0567 65.0349 57.3633 65.2483 57.77C65.4683 58.1767 65.5783 58.68 65.5783 59.28C65.5783 59.8667 65.4783 60.37 65.2783 60.79C65.0849 61.21 64.8083 61.5333 64.4483 61.76C64.0949 61.9867 63.6816 62.1 63.2083 62.1C62.7549 62.1 62.3616 62 62.0283 61.8C61.6949 61.6 61.4383 61.32 61.2583 60.96C61.0849 60.5933 60.9983 60.1667 60.9983 59.68V59.15H64.6683C64.6549 58.5433 64.4983 58.0833 64.1983 57.77C63.9049 57.45 63.4916 57.29 62.9583 57.29C62.6183 57.29 62.3149 57.3233 62.0483 57.39C61.7883 57.45 61.5183 57.54 61.2383 57.66V56.89C61.5116 56.77 61.7816 56.6833 62.0483 56.63C62.3149 56.57 62.6316 56.54 62.9983 56.54ZM61.9183 59.85C61.9249 60.15 61.9716 60.4167 62.0583 60.65C62.1516 60.8767 62.2949 61.0567 62.4883 61.19C62.6816 61.3167 62.9249 61.38 63.2183 61.38C63.6383 61.38 63.9683 61.2467 64.2083 60.98C64.4549 60.7067 64.6016 60.33 64.6483 59.85H61.9183ZM69.7328 57.73C69.1795 57.73 68.7628 57.91 68.4828 58.27C68.2028 58.63 68.0628 59.1133 68.0628 59.72V62H66.9428V56.68H68.0628V57.75C68.2428 57.4167 68.4861 57.1433 68.7928 56.93C69.1061 56.7167 69.4361 56.6067 69.7828 56.6L69.7928 57.73C69.7728 57.73 69.7528 57.73 69.7328 57.73ZM74.6374 59.56V56.68H75.7574V62H74.6374V61.03C74.4574 61.3567 74.2074 61.6133 73.8874 61.8C73.5741 61.9867 73.2341 62.08 72.8674 62.08C72.2674 62.08 71.7808 61.8967 71.4074 61.53C71.0408 61.1633 70.8574 60.6333 70.8574 59.94V56.68H71.9774V59.6C71.9774 60.58 72.3841 61.07 73.1974 61.07C73.5841 61.07 73.9208 60.9433 74.2074 60.69C74.4941 60.43 74.6374 60.0533 74.6374 59.56ZM80.1723 57.73C79.6189 57.73 79.2023 57.91 78.9223 58.27C78.6423 58.63 78.5023 59.1133 78.5023 59.72V62H77.3823V56.68H78.5023V57.75C78.6823 57.4167 78.9256 57.1433 79.2323 56.93C79.5456 56.7167 79.8756 56.6067 80.2223 56.6L80.2323 57.73C80.2123 57.73 80.1923 57.73 80.1723 57.73Z" fill="black"/>
<path d="M21.08 23.93C20.74 23.93 20.46 24 20.24 24.14C20.02 24.28 19.91 24.4933 19.91 24.78C19.91 25.06 20.02 25.2767 20.24 25.43C20.46 25.5767 20.9267 25.7367 21.64 25.91C22.36 26.0833 22.9 26.3267 23.26 26.64C23.6267 26.9533 23.81 27.4167 23.81 28.03C23.81 28.6367 23.58 29.13 23.12 29.51C22.66 29.89 22.0567 30.08 21.31 30.08C20.2167 30.08 19.2467 29.7033 18.4 28.95L19.14 28.06C19.8467 28.6733 20.58 28.98 21.34 28.98C21.72 28.98 22.02 28.9 22.24 28.74C22.4667 28.5733 22.58 28.3567 22.58 28.09C22.58 27.8167 22.4733 27.6067 22.26 27.46C22.0533 27.3067 21.6933 27.17 21.18 27.05C20.6667 26.9233 20.2767 26.81 20.01 26.71C19.7433 26.6033 19.5067 26.4667 19.3 26.3C18.8867 25.9867 18.68 25.5067 18.68 24.86C18.68 24.2133 18.9133 23.7167 19.38 23.37C19.8533 23.0167 20.4367 22.84 21.13 22.84C21.5767 22.84 22.02 22.9133 22.46 23.06C22.9 23.2067 23.28 23.4133 23.6 23.68L22.97 24.57C22.7633 24.3833 22.4833 24.23 22.13 24.11C21.7767 23.99 21.4267 23.93 21.08 23.93ZM26.8088 24.54C27.3222 24.54 27.7722 24.6433 28.1588 24.85C28.5455 25.0567 28.8455 25.3633 29.0588 25.77C29.2788 26.1767 29.3888 26.68 29.3888 27.28C29.3888 27.8667 29.2888 28.37 29.0888 28.79C28.8955 29.21 28.6188 29.5333 28.2588 29.76C27.9055 29.9867 27.4922 30.1 27.0188 30.1C26.5655 30.1 26.1722 30 25.8388 29.8C25.5055 29.6 25.2488 29.32 25.0688 28.96C24.8955 28.5933 24.8088 28.1667 24.8088 27.68V27.15H28.4788C28.4655 26.5433 28.3088 26.0833 28.0088 25.77C27.7155 25.45 27.3022 25.29 26.7688 25.29C26.4288 25.29 26.1255 25.3233 25.8588 25.39C25.5988 25.45 25.3288 25.54 25.0488 25.66V24.89C25.3222 24.77 25.5922 24.6833 25.8588 24.63C26.1255 24.57 26.4422 24.54 26.8088 24.54ZM25.7288 27.85C25.7355 28.15 25.7822 28.4167 25.8688 28.65C25.9622 28.8767 26.1055 29.0567 26.2988 29.19C26.4922 29.3167 26.7355 29.38 27.0288 29.38C27.4488 29.38 27.7788 29.2467 28.0188 28.98C28.2655 28.7067 28.4122 28.33 28.4588 27.85H25.7288ZM32.9234 30.08C32.25 30.08 31.6634 29.8267 31.1634 29.32C30.6634 28.8133 30.4134 28.1467 30.4134 27.32C30.4134 26.4933 30.67 25.8333 31.1834 25.34C31.6967 24.8467 32.3067 24.6 33.0134 24.6C33.7267 24.6 34.3 24.9 34.7334 25.5V22.58H35.8534V30H34.7334V29.2C34.32 29.7867 33.7167 30.08 32.9234 30.08ZM31.5334 27.37C31.5334 27.8767 31.6967 28.29 32.0234 28.61C32.35 28.93 32.7334 29.09 33.1734 29.09C33.6134 29.09 33.9867 28.93 34.2934 28.61C34.6 28.2833 34.7534 27.8667 34.7534 27.36C34.7534 26.8533 34.6 26.43 34.2934 26.09C33.9867 25.75 33.61 25.58 33.1634 25.58C32.7167 25.58 32.3334 25.75 32.0134 26.09C31.6934 26.43 31.5334 26.8567 31.5334 27.37ZM39.1721 24.54C39.6854 24.54 40.1354 24.6433 40.5221 24.85C40.9088 25.0567 41.2088 25.3633 41.4221 25.77C41.6421 26.1767 41.7521 26.68 41.7521 27.28C41.7521 27.8667 41.6521 28.37 41.4521 28.79C41.2588 29.21 40.9821 29.5333 40.6221 29.76C40.2688 29.9867 39.8554 30.1 39.3821 30.1C38.9288 30.1 38.5354 30 38.2021 29.8C37.8688 29.6 37.6121 29.32 37.4321 28.96C37.2588 28.5933 37.1721 28.1667 37.1721 27.68V27.15H40.8421C40.8288 26.5433 40.6721 26.0833 40.3721 25.77C40.0788 25.45 39.6654 25.29 39.1321 25.29C38.7921 25.29 38.4888 25.3233 38.2221 25.39C37.9621 25.45 37.6921 25.54 37.4121 25.66V24.89C37.6854 24.77 37.9554 24.6833 38.2221 24.63C38.4888 24.57 38.8054 24.54 39.1721 24.54ZM38.0921 27.85C38.0988 28.15 38.1454 28.4167 38.2321 28.65C38.3254 28.8767 38.4688 29.0567 38.6621 29.19C38.8554 29.3167 39.0988 29.38 39.3921 29.38C39.8121 29.38 40.1421 29.2467 40.3821 28.98C40.6288 28.7067 40.7754 28.33 40.8221 27.85H38.0921ZM45.9066 25.73C45.3533 25.73 44.9366 25.91 44.6566 26.27C44.3766 26.63 44.2366 27.1133 44.2366 27.72V30H43.1166V24.68H44.2366V25.75C44.4166 25.4167 44.66 25.1433 44.9666 24.93C45.28 24.7167 45.61 24.6067 45.9566 24.6L45.9666 25.73C45.9466 25.73 45.9266 25.73 45.9066 25.73ZM48.7913 24.54C49.3046 24.54 49.7546 24.6433 50.1413 24.85C50.5279 25.0567 50.8279 25.3633 51.0413 25.77C51.2613 26.1767 51.3713 26.68 51.3713 27.28C51.3713 27.8667 51.2713 28.37 51.0713 28.79C50.8779 29.21 50.6013 29.5333 50.2413 29.76C49.8879 29.9867 49.4746 30.1 49.0013 30.1C48.5479 30.1 48.1546 30 47.8213 29.8C47.4879 29.6 47.2313 29.32 47.0513 28.96C46.8779 28.5933 46.7913 28.1667 46.7913 27.68V27.15H50.4613C50.4479 26.5433 50.2913 26.0833 49.9913 25.77C49.6979 25.45 49.2846 25.29 48.7513 25.29C48.4113 25.29 48.1079 25.3233 47.8413 25.39C47.5813 25.45 47.3113 25.54 47.0313 25.66V24.89C47.3046 24.77 47.5746 24.6833 47.8413 24.63C48.1079 24.57 48.4246 24.54 48.7913 24.54ZM47.7113 27.85C47.7179 28.15 47.7646 28.4167 47.8513 28.65C47.9446 28.8767 48.0879 29.0567 48.2813 29.19C48.4746 29.3167 48.7179 29.38 49.0113 29.38C49.4313 29.38 49.7613 29.2467 50.0013 28.98C50.2479 28.7067 50.3946 28.33 50.4413 27.85H47.7113ZM53.8558 30H52.7358V22.58H53.8558V26.94L56.0158 24.68H57.4558L55.4358 26.79L57.6058 30H56.2458L54.6658 27.67L53.8558 28.49V30Z" fill="black"/>
</svg>
