<svg width="45" height="45" viewBox="0 0 45 45" fill="none" xmlns="http://www.w3.org/2000/svg">
<rect width="45" height="45" rx="6" fill="#ECE7E2"/>
<path d="M32.1932 13.5456C30.9326 12.3108 29.4311 11.3318 27.7762 10.6657C26.1214 9.99952 24.3463 9.65955 22.5545 9.66561C15.047 9.66561 8.92824 15.5989 8.92824 22.8789C8.92824 25.2123 9.56074 27.4789 10.7432 29.4789L8.81824 36.3323L16.037 34.4923C18.0307 35.5456 20.272 36.1056 22.5545 36.1056C30.062 36.1056 36.1807 30.1723 36.1807 22.8923C36.1807 19.3589 34.7645 16.0389 32.1932 13.5456ZM22.5545 33.8656C20.5195 33.8656 18.5257 33.3323 16.7795 32.3323L16.367 32.0923L12.077 33.1856L13.2182 29.1323L12.9432 28.7189C11.8126 26.9682 11.2123 24.9446 11.2107 22.8789C11.2107 16.8256 16.2982 11.8923 22.5407 11.8923C25.5657 11.8923 28.412 13.0389 30.5432 15.1189C31.5985 16.1376 32.4348 17.3492 33.0037 18.6835C33.5725 20.0179 33.8625 21.4484 33.857 22.8923C33.8845 28.9456 28.797 33.8656 22.5545 33.8656ZM28.7695 25.6523C28.4257 25.4923 26.7482 24.6923 26.4457 24.5723C26.1295 24.4656 25.9095 24.4123 25.6757 24.7323C25.442 25.0656 24.7957 25.8123 24.6032 26.0256C24.4107 26.2523 24.2045 26.2789 23.8607 26.1056C23.517 25.9456 22.417 25.5856 21.1245 24.4656C20.107 23.5856 19.4332 22.5056 19.227 22.1723C19.0345 21.8389 19.1995 21.6656 19.3782 21.4923C19.5295 21.3456 19.722 21.1056 19.887 20.9189C20.052 20.7323 20.1207 20.5856 20.2307 20.3723C20.3407 20.1456 20.2857 19.9589 20.2032 19.7989C20.1207 19.6389 19.4332 18.0123 19.1582 17.3456C18.8832 16.7056 18.5945 16.7856 18.3882 16.7723H17.7282C17.4945 16.7723 17.137 16.8523 16.8207 17.1856C16.5182 17.5189 15.6382 18.3189 15.6382 19.9456C15.6382 21.5723 16.862 23.1456 17.027 23.3589C17.192 23.5856 19.4332 26.9189 22.8432 28.3456C23.6545 28.6923 24.287 28.8923 24.782 29.0389C25.5932 29.2923 26.3357 29.2523 26.927 29.1723C27.587 29.0789 28.9482 28.3723 29.2232 27.5989C29.512 26.8256 29.512 26.1723 29.4157 26.0256C29.3195 25.8789 29.1132 25.8123 28.7695 25.6523Z" fill="#FFAC1C"/>
</svg>
