<svg width="45" height="45" viewBox="0 0 45 45" fill="none" xmlns="http://www.w3.org/2000/svg">
<rect width="45" height="45" rx="6" fill="#ECE7E2"/>
<path d="M6 23.0016C6.0832 18.4603 7.6864 14.668 10.8128 11.6277C13.9392 8.58736 17.6672 7.0416 22 7C26.6656 7.08321 30.4896 8.67697 33.4688 11.7813C36.448 14.8856 37.9584 18.6268 38 23.0016C37.9168 27.5012 36.3136 31.284 33.1872 34.3467C30.0608 37.4062 26.3328 38.9584 22 39C20.4992 39 19.0016 38.7696 17.5008 38.3119C17.792 37.8543 18.0832 37.3326 18.3744 36.7502C18.7072 36.0429 19.1232 34.7084 19.6256 32.7498C19.7504 32.2089 19.9392 31.4792 20.1888 30.5608C20.48 31.06 20.9792 31.5177 21.6896 31.9369C23.5648 32.8106 25.5424 32.7274 27.6256 31.6873C29.792 30.4359 31.2928 28.4997 32.1248 25.8755C32.8736 23.1264 32.7808 20.5726 31.8432 18.2203C30.9056 15.8649 29.2288 14.1687 26.8128 13.1254C23.7728 12.2517 20.8128 12.3445 17.9392 13.407C15.0656 14.4695 13.0656 16.2937 11.9392 18.8764C11.648 19.8333 11.472 20.7838 11.408 21.7215C11.344 22.6592 11.376 23.5745 11.5008 24.4705C11.6256 25.3666 11.9392 26.1699 12.4384 26.8772C12.9376 27.5845 13.6064 28.1285 14.4384 28.5029C14.6464 28.5862 14.8128 28.5862 14.9376 28.5029C15.104 28.4197 15.2704 28.0869 15.4368 27.5044C15.6032 26.922 15.6672 26.5252 15.6256 26.3171C15.584 26.2339 15.5008 26.0867 15.376 25.8787C14.5024 24.4609 14.208 22.9728 14.5024 21.411C14.7936 19.8493 15.44 18.5244 16.4384 17.4426C17.9808 16.0665 19.7824 15.3176 21.8432 15.1928C23.904 15.068 25.6672 15.6313 27.1232 16.8794C27.9136 17.7947 28.4256 18.8988 28.6528 20.1917C28.88 21.4846 28.8832 22.7232 28.6528 23.9105C28.4224 25.0978 28.016 26.2115 27.4336 27.2548C26.3904 28.8806 25.1616 29.7127 23.7472 29.7543C22.9152 29.7127 22.2368 29.3894 21.7152 28.7846C21.1936 28.1797 21.0368 27.482 21.248 26.6916C21.3312 26.2339 21.5808 25.3378 21.9968 24.0033C22.4128 22.6688 22.6432 21.6703 22.6848 21.0046C22.56 19.4204 21.8304 18.6076 20.496 18.566C19.4528 18.6908 18.6848 19.1612 18.1824 19.9709C17.68 20.7806 17.4112 21.7119 17.3696 22.752C17.4944 23.9617 17.6832 24.7938 17.9328 25.2514C17.4752 27.1268 17.12 28.6278 16.8704 29.7511C16.7872 30.0423 16.5568 30.9384 16.1824 32.4393C15.808 33.9403 15.6 35.086 15.5584 35.8765V37.6271C12.6016 36.2509 10.2656 34.2635 8.56 31.6585C6.8544 29.0534 6 26.1667 6 23.0016Z" fill="#FFAC1C"/>
</svg>
