<svg width="45" height="45" viewBox="0 0 45 45" fill="none" xmlns="http://www.w3.org/2000/svg">
<rect width="45" height="45" rx="6" fill="#ECE7E2"/>
<g clip-path="url(#clip0_144_374)">
<path fill-rule="evenodd" clip-rule="evenodd" d="M33.1934 12.0912C33.5332 11.9482 33.9051 11.8989 34.2704 11.9484C34.6357 11.9979 34.9811 12.1444 35.2706 12.3726C35.5601 12.6009 35.7831 12.9026 35.9164 13.2463C36.0497 13.59 36.0885 13.9632 36.0286 14.327L32.9101 33.2428C32.6076 35.0675 30.6056 36.1138 28.9323 35.205C27.5325 34.4446 25.4535 33.2731 23.5835 32.0507C22.6485 31.4388 19.7844 29.4795 20.1364 28.0852C20.4389 26.8931 25.2514 22.4133 28.0014 19.75C29.0808 18.7036 28.5885 18.1 27.3139 19.0625C24.1473 21.4522 19.0666 25.0863 17.3864 26.1093C15.9041 27.0113 15.1314 27.1653 14.2074 27.0113C12.5216 26.7308 10.9583 26.2963 9.68226 25.767C7.95801 25.052 8.04189 22.6815 9.68089 21.9912L33.1934 12.0912Z" fill="#FFAC1C"/>
</g>
<defs>
<clipPath id="clip0_144_374">
<rect width="33" height="33" fill="white" transform="translate(6 6)"/>
</clipPath>
</defs>
</svg>
