<svg width="26" height="26" viewBox="0 0 26 26" fill="none" xmlns="http://www.w3.org/2000/svg">
<rect width="26" height="26" rx="6" fill="#ECE7E2"/>
<path d="M18.6003 7.82678C17.8719 7.11336 17.0044 6.54771 16.0482 6.16282C15.0921 5.77793 14.0665 5.58151 13.0312 5.58501C8.69356 5.58501 5.15828 9.01315 5.15828 13.2194C5.15828 14.5675 5.52373 15.8772 6.20695 17.0327L5.09473 20.9924L9.26556 19.9293C10.4175 20.5379 11.7124 20.8615 13.0312 20.8615C17.3689 20.8615 20.9042 17.4333 20.9042 13.2271C20.9042 11.1856 20.0859 9.26738 18.6003 7.82678ZM13.0312 19.5672C11.8554 19.5672 10.7035 19.2591 9.69456 18.6813L9.45623 18.5426L6.97756 19.1743L7.63695 16.8324L7.47806 16.5936C6.82482 15.5821 6.47797 14.4129 6.47706 13.2194C6.47706 9.7219 9.4165 6.87153 13.0233 6.87153C14.7711 6.87153 16.4156 7.53404 17.6469 8.73582C18.2567 9.32436 18.7399 10.0244 19.0685 10.7953C19.3972 11.5663 19.5648 12.3929 19.5616 13.2271C19.5774 16.7246 16.638 19.5672 13.0312 19.5672ZM16.6221 14.8217C16.4235 14.7293 15.4543 14.2671 15.2795 14.1977C15.0968 14.1361 14.9697 14.1053 14.8346 14.2902C14.6996 14.4828 14.3262 14.9142 14.2149 15.0375C14.1037 15.1684 13.9846 15.1838 13.7859 15.0837C13.5873 14.9912 12.9518 14.7832 12.205 14.1361C11.6171 13.6277 11.2278 13.0037 11.1087 12.8111C10.9974 12.6185 11.0928 12.5183 11.1961 12.4182C11.2834 12.3335 11.3947 12.1948 11.49 12.0869C11.5853 11.9791 11.6251 11.8943 11.6886 11.7711C11.7522 11.6401 11.7204 11.5323 11.6727 11.4398C11.6251 11.3474 11.2278 10.4075 11.0689 10.0223C10.9101 9.65256 10.7432 9.69878 10.6241 9.69108H10.2427C10.1077 9.69108 9.90111 9.7373 9.71839 9.9299C9.54361 10.1225 9.03517 10.5847 9.03517 11.5246C9.03517 12.4644 9.74223 13.3735 9.83756 13.4967C9.93289 13.6277 11.2278 15.5536 13.1981 16.3779C13.6668 16.5782 14.0322 16.6937 14.3182 16.7785C14.7869 16.9249 15.2159 16.9017 15.5576 16.8555C15.9389 16.8016 16.7254 16.3933 16.8843 15.9465C17.0511 15.4997 17.0511 15.1222 16.9955 15.0375C16.9399 14.9527 16.8207 14.9142 16.6221 14.8217Z" fill="#FFAC1C"/>
</svg>
